<svg width="360" height="395" viewBox="0 0 360 395" fill="none" xmlns="http://www.w3.org/2000/svg">
<rect width="360" height="395" transform="matrix(-1 0 0 1 360 0)" fill="white"/>
<rect x="16" y="106" width="64" height="174" fill="url(#paint0_linear)"/>
<rect x="107" y="106" width="64" height="160" fill="url(#paint1_linear)"/>
<rect x="107" y="266" width="64" height="27" fill="url(#paint2_linear)"/>
<path d="M36.3408 208.344H37.1088V207.192C38.9488 207.16 40.3568 205.944 40.3568 204.168C40.3568 202.088 38.7248 201.336 37.1088 200.776V196.376C37.8768 196.392 38.6928 196.744 39.1888 197.448L40.0688 196.776C39.3488 195.928 38.1328 195.512 37.1088 195.48V194.328H36.3408V195.48C34.6768 195.56 33.2528 196.664 33.2528 198.52C33.2528 200.472 34.8848 201.224 36.3408 201.672V206.264C35.6688 206.248 34.4528 205.816 33.8768 204.856L32.9648 205.496C33.7328 206.472 34.9008 207.16 36.3408 207.192V208.344ZM36.3408 200.504C35.1568 200.184 34.3568 199.576 34.3568 198.424C34.3568 197.224 35.2368 196.408 36.3408 196.376V200.504ZM37.1088 206.264V201.864C38.3248 202.248 39.2048 203 39.2048 204.088C39.2048 205.672 38.0528 206.232 37.1088 206.264ZM45.9901 207H47.1421V195.672H46.1181L43.2381 198.04L43.9421 198.84L45.9901 197.096V207ZM52.1993 207H53.3513V197.16H53.3833L57.4793 207H58.0873L62.1833 197.16H62.2153V207H63.3673V195.672H61.6073L57.8153 205.048H57.7993L53.9593 195.672H52.1993V207Z" fill="black"/>
<path d="M18.5665 99H19.7185V93.736H21.7345C24.0385 93.736 25.5905 92.728 25.5905 90.696C25.5905 88.664 24.0705 87.672 21.7665 87.672H18.5665V99ZM19.7185 92.76V88.664H21.6705C23.4145 88.664 24.4385 89.304 24.4385 90.696C24.4385 92.04 23.4625 92.76 21.6705 92.76H19.7185ZM30.0675 99.192C32.4035 99.192 34.0675 97.512 34.0675 95.256C34.0675 93 32.4035 91.32 30.0675 91.32C27.7475 91.32 26.0835 93 26.0835 95.256C26.0835 97.512 27.7475 99.192 30.0675 99.192ZM30.0675 98.264C28.3395 98.264 27.2355 96.936 27.2355 95.256C27.2355 93.576 28.3395 92.232 30.0675 92.232C31.8115 92.232 32.9155 93.576 32.9155 95.256C32.9155 96.936 31.8115 98.264 30.0675 98.264ZM36.4088 99H37.4968V95.16C37.4968 93.16 38.5368 92.328 39.6888 92.328C39.9768 92.328 40.3288 92.376 40.4568 92.424L40.6008 91.4C40.3768 91.336 40.1528 91.32 39.8808 91.32C38.8248 91.32 37.8968 91.928 37.4808 92.792H37.4488C37.4488 92.472 37.4168 91.912 37.3848 91.512H36.3448C36.3928 92.024 36.4088 92.76 36.4088 93.16V99ZM44.0829 99.096C44.5789 99.096 44.9789 99.016 45.3629 98.872L45.3149 97.928C45.0269 98.072 44.6749 98.168 44.3709 98.168C43.7149 98.168 43.2509 97.912 43.2509 96.792V92.424H45.3629V91.512H43.2509V89.4H42.1629V91.512H40.6109V92.424H42.1629V97.096C42.1629 98.744 43.2829 99.096 44.0829 99.096ZM47.385 99H48.473V92.424H50.233V91.512H48.473V89.592C48.473 88.504 48.713 87.672 49.881 87.672C50.169 87.672 50.409 87.72 50.633 87.784L50.825 86.824C50.553 86.744 50.201 86.712 49.929 86.712C48.217 86.712 47.385 87.768 47.385 89.464V91.512H45.817V92.424H47.385V99ZM55.2238 99.192C57.5598 99.192 59.2238 97.512 59.2238 95.256C59.2238 93 57.5598 91.32 55.2238 91.32C52.9038 91.32 51.2398 93 51.2398 95.256C51.2398 97.512 52.9038 99.192 55.2238 99.192ZM55.2238 98.264C53.4958 98.264 52.3918 96.936 52.3918 95.256C52.3918 93.576 53.4958 92.232 55.2238 92.232C56.9678 92.232 58.0718 93.576 58.0718 95.256C58.0718 96.936 56.9678 98.264 55.2238 98.264ZM61.597 99H62.685V86.904H61.597V99ZM66.1562 89.4C66.5403 89.4 66.9243 89.08 66.9243 88.632C66.9243 88.184 66.5403 87.864 66.1562 87.864C65.7723 87.864 65.3883 88.184 65.3883 88.632C65.3883 89.08 65.7723 89.4 66.1562 89.4ZM65.6123 99H66.7003V91.512H65.6123V99ZM73.0363 99.192C75.3723 99.192 77.0363 97.512 77.0363 95.256C77.0363 93 75.3723 91.32 73.0363 91.32C70.7163 91.32 69.0523 93 69.0523 95.256C69.0523 97.512 70.7163 99.192 73.0363 99.192ZM73.0363 98.264C71.3083 98.264 70.2043 96.936 70.2043 95.256C70.2043 93.576 71.3083 92.232 73.0363 92.232C74.7803 92.232 75.8843 93.576 75.8843 95.256C75.8843 96.936 74.7803 98.264 73.0363 98.264Z" fill="black"/>
<path d="M108.871 99H110.023V87.672H108.871V99ZM112.963 99H114.051V95.16C114.051 93.16 115.171 92.232 116.323 92.232C117.891 92.232 118.355 93.288 118.355 94.856V99H119.443V94.408C119.443 92.552 118.499 91.32 116.595 91.32C115.539 91.32 114.451 91.928 114.035 92.792H114.003C114.003 92.472 113.971 91.912 113.939 91.512H112.899C112.947 92.024 112.963 92.76 112.963 93.16V99ZM124.132 99H125.332L128.372 91.512H127.204L124.756 97.848H124.724L122.292 91.512H121.076L124.132 99ZM133.401 99.192C134.633 99.192 135.737 98.728 136.617 97.608L135.801 96.968C135.385 97.64 134.521 98.264 133.401 98.264C131.865 98.264 130.697 97.048 130.665 95.544H136.873C136.889 95.352 136.889 95.176 136.889 95.032C136.889 92.984 135.657 91.32 133.305 91.32C131.177 91.32 129.529 93 129.529 95.256C129.529 97.512 131.177 99.192 133.401 99.192ZM130.681 94.68C130.777 93.4 131.849 92.232 133.305 92.232C134.857 92.232 135.721 93.272 135.785 94.68H130.681ZM141.357 99.192C142.733 99.192 144.173 98.584 144.173 96.872C144.173 95.704 143.341 95.048 141.581 94.68C140.349 94.424 139.789 94.104 139.789 93.4C139.789 92.568 140.589 92.232 141.373 92.232C142.205 92.232 142.893 92.664 143.213 93.288L144.045 92.664C143.565 91.816 142.461 91.32 141.421 91.32C140.061 91.32 138.749 91.976 138.749 93.496C138.749 94.92 140.013 95.304 140.893 95.512C142.317 95.848 143.101 96.168 143.101 96.952C143.101 97.928 142.269 98.264 141.341 98.264C140.461 98.264 139.645 97.752 139.261 97.096L138.397 97.736C139.085 98.744 140.221 99.192 141.357 99.192ZM148.434 99.096C148.93 99.096 149.33 99.016 149.714 98.872L149.666 97.928C149.378 98.072 149.026 98.168 148.722 98.168C148.066 98.168 147.602 97.912 147.602 96.792V92.424H149.714V91.512H147.602V89.4H146.514V91.512H144.962V92.424H146.514V97.096C146.514 98.744 147.634 99.096 148.434 99.096ZM154.857 99.192C157.193 99.192 158.857 97.512 158.857 95.256C158.857 93 157.193 91.32 154.857 91.32C152.537 91.32 150.873 93 150.873 95.256C150.873 97.512 152.537 99.192 154.857 99.192ZM154.857 98.264C153.129 98.264 152.025 96.936 152.025 95.256C152.025 93.576 153.129 92.232 154.857 92.232C156.601 92.232 157.705 93.576 157.705 95.256C157.705 96.936 156.601 98.264 154.857 98.264ZM161.198 99H162.286V95.16C162.286 93.16 163.326 92.328 164.478 92.328C164.766 92.328 165.118 92.376 165.246 92.424L165.39 91.4C165.166 91.336 164.942 91.32 164.67 91.32C163.614 91.32 162.686 91.928 162.27 92.792H162.238C162.238 92.472 162.206 91.912 162.174 91.512H161.134C161.182 92.024 161.198 92.76 161.198 93.16V99ZM169.091 99.192C170.467 99.192 171.907 98.584 171.907 96.872C171.907 95.704 171.075 95.048 169.315 94.68C168.083 94.424 167.523 94.104 167.523 93.4C167.523 92.568 168.323 92.232 169.107 92.232C169.939 92.232 170.627 92.664 170.947 93.288L171.779 92.664C171.299 91.816 170.195 91.32 169.155 91.32C167.795 91.32 166.483 91.976 166.483 93.496C166.483 94.92 167.747 95.304 168.627 95.512C170.051 95.848 170.835 96.168 170.835 96.952C170.835 97.928 170.003 98.264 169.075 98.264C168.195 98.264 167.379 97.752 166.995 97.096L166.131 97.736C166.819 98.744 167.955 99.192 169.091 99.192Z" fill="black"/>
<path d="M119.567 194.344H120.335V193.192C122.175 193.16 123.583 191.944 123.583 190.168C123.583 188.088 121.951 187.336 120.335 186.776V182.376C121.103 182.392 121.919 182.744 122.415 183.448L123.295 182.776C122.575 181.928 121.359 181.512 120.335 181.48V180.328H119.567V181.48C117.903 181.56 116.479 182.664 116.479 184.52C116.479 186.472 118.111 187.224 119.567 187.672V192.264C118.895 192.248 117.679 191.816 117.103 190.856L116.191 191.496C116.959 192.472 118.127 193.16 119.567 193.192V194.344ZM119.567 186.504C118.383 186.184 117.583 185.576 117.583 184.424C117.583 183.224 118.463 182.408 119.567 182.376V186.504ZM120.335 192.264V187.864C121.551 188.248 122.431 189 122.431 190.088C122.431 191.672 121.279 192.232 120.335 192.264ZM129.281 193.288C131.217 193.288 132.913 192.008 132.913 190.024C132.913 188.504 132.001 187.352 130.769 187V186.968C131.777 186.632 132.481 185.576 132.481 184.408C132.481 182.568 131.009 181.384 129.281 181.384C127.553 181.384 126.081 182.568 126.081 184.408C126.081 185.576 126.785 186.632 127.793 186.968V187C126.561 187.368 125.649 188.504 125.649 190.024C125.649 192.008 127.345 193.288 129.281 193.288ZM129.281 186.504C128.129 186.504 127.201 185.656 127.201 184.472C127.201 183.256 128.097 182.36 129.281 182.36C130.465 182.36 131.361 183.256 131.361 184.472C131.361 185.656 130.433 186.504 129.281 186.504ZM129.281 192.312C127.793 192.312 126.801 191.272 126.801 189.896C126.801 188.536 127.793 187.528 129.281 187.528C130.769 187.528 131.761 188.536 131.761 189.896C131.761 191.272 130.769 192.312 129.281 192.312ZM138.562 193.288C141.378 193.288 142.274 190.296 142.274 187.352C142.274 184.408 141.378 181.384 138.562 181.384C135.714 181.384 134.85 184.408 134.85 187.352C134.85 190.296 135.714 193.288 138.562 193.288ZM138.562 192.296C136.546 192.296 136.018 189.608 136.018 187.352C136.018 185.096 136.546 182.36 138.562 182.36C140.546 182.36 141.106 185.096 141.106 187.352C141.106 189.608 140.546 192.296 138.562 192.296ZM147.843 193.288C150.659 193.288 151.555 190.296 151.555 187.352C151.555 184.408 150.659 181.384 147.843 181.384C144.995 181.384 144.131 184.408 144.131 187.352C144.131 190.296 144.995 193.288 147.843 193.288ZM147.843 192.296C145.827 192.296 145.299 189.608 145.299 187.352C145.299 185.096 145.827 182.36 147.843 182.36C149.827 182.36 150.387 185.096 150.387 187.352C150.387 189.608 149.827 192.296 147.843 192.296ZM153.956 193H155.044V189.064H155.092L158.9 193H160.5L156.34 188.936L160.116 185.512H158.548L155.092 188.888H155.044V180.904H153.956V193Z" fill="black"/>
<path d="M191.9 178.176H192.572V177.168C194.182 177.14 195.414 176.076 195.414 174.522C195.414 172.702 193.986 172.044 192.572 171.554V167.704C193.244 167.718 193.958 168.026 194.392 168.642L195.162 168.054C194.532 167.312 193.468 166.948 192.572 166.92V165.912H191.9V166.92C190.444 166.99 189.198 167.956 189.198 169.58C189.198 171.288 190.626 171.946 191.9 172.338V176.356C191.312 176.342 190.248 175.964 189.744 175.124L188.946 175.684C189.618 176.538 190.64 177.14 191.9 177.168V178.176ZM191.9 171.316C190.864 171.036 190.164 170.504 190.164 169.496C190.164 168.446 190.934 167.732 191.9 167.704V171.316ZM192.572 176.356V172.506C193.636 172.842 194.406 173.5 194.406 174.452C194.406 175.838 193.398 176.328 192.572 176.356ZM201.463 177H202.443V174.606H203.899V173.724H202.443V167.088H201.127L196.927 173.626V174.606H201.463V177ZM197.977 173.724L201.435 168.222H201.463V173.724H197.977ZM208.52 177.252C210.984 177.252 211.768 174.634 211.768 172.058C211.768 169.482 210.984 166.836 208.52 166.836C206.028 166.836 205.272 169.482 205.272 172.058C205.272 174.634 206.028 177.252 208.52 177.252ZM208.52 176.384C206.756 176.384 206.294 174.032 206.294 172.058C206.294 170.084 206.756 167.69 208.52 167.69C210.256 167.69 210.746 170.084 210.746 172.058C210.746 174.032 210.256 176.384 208.52 176.384ZM213.869 177H214.821V173.556H214.863L218.195 177H219.595L215.955 173.444L219.259 170.448H217.887L214.863 173.402H214.821V166.416H213.869V177ZM224.968 168.6C225.304 168.6 225.64 168.32 225.64 167.928C225.64 167.536 225.304 167.256 224.968 167.256C224.632 167.256 224.296 167.536 224.296 167.928C224.296 168.32 224.632 168.6 224.968 168.6ZM224.492 177H225.444V170.448H224.492V177ZM227.978 177H228.93V173.64C228.93 171.89 229.91 171.078 230.918 171.078C232.29 171.078 232.696 172.002 232.696 173.374V177H233.648V172.982C233.648 171.358 232.822 170.28 231.156 170.28C230.232 170.28 229.28 170.812 228.916 171.568H228.888C228.888 171.288 228.86 170.798 228.832 170.448H227.922C227.964 170.896 227.978 171.54 227.978 171.89V177ZM237.947 177.084C238.381 177.084 238.731 177.014 239.067 176.888L239.025 176.062C238.773 176.188 238.465 176.272 238.199 176.272C237.625 176.272 237.219 176.048 237.219 175.068V171.246H239.067V170.448H237.219V168.6H236.267V170.448H234.909V171.246H236.267V175.334C236.267 176.776 237.247 177.084 237.947 177.084ZM243.468 177.168C244.546 177.168 245.512 176.762 246.282 175.782L245.568 175.222C245.204 175.81 244.448 176.356 243.468 176.356C242.124 176.356 241.102 175.292 241.074 173.976H246.506C246.52 173.808 246.52 173.654 246.52 173.528C246.52 171.736 245.442 170.28 243.384 170.28C241.522 170.28 240.08 171.75 240.08 173.724C240.08 175.698 241.522 177.168 243.468 177.168ZM241.088 173.22C241.172 172.1 242.11 171.078 243.384 171.078C244.742 171.078 245.498 171.988 245.554 173.22H241.088ZM248.568 177H249.52V173.64C249.52 171.89 250.43 171.162 251.438 171.162C251.69 171.162 251.998 171.204 252.11 171.246L252.236 170.35C252.04 170.294 251.844 170.28 251.606 170.28C250.682 170.28 249.87 170.812 249.506 171.568H249.478C249.478 171.288 249.45 170.798 249.422 170.448H248.512C248.554 170.896 248.568 171.54 248.568 171.89V177ZM256.278 177.168C257.356 177.168 258.322 176.762 259.092 175.782L258.378 175.222C258.014 175.81 257.258 176.356 256.278 176.356C254.934 176.356 253.912 175.292 253.884 173.976H259.316C259.33 173.808 259.33 173.654 259.33 173.528C259.33 171.736 258.252 170.28 256.194 170.28C254.332 170.28 252.89 171.75 252.89 173.724C252.89 175.698 254.332 177.168 256.278 177.168ZM253.898 173.22C253.982 172.1 254.92 171.078 256.194 171.078C257.552 171.078 258.308 171.988 258.364 173.22H253.898ZM263.24 177.168C264.444 177.168 265.704 176.636 265.704 175.138C265.704 174.116 264.976 173.542 263.436 173.22C262.358 172.996 261.868 172.716 261.868 172.1C261.868 171.372 262.568 171.078 263.254 171.078C263.982 171.078 264.584 171.456 264.864 172.002L265.592 171.456C265.172 170.714 264.206 170.28 263.296 170.28C262.106 170.28 260.958 170.854 260.958 172.184C260.958 173.43 262.064 173.766 262.834 173.948C264.08 174.242 264.766 174.522 264.766 175.208C264.766 176.062 264.038 176.356 263.226 176.356C262.456 176.356 261.742 175.908 261.406 175.334L260.65 175.894C261.252 176.776 262.246 177.168 263.24 177.168ZM269.433 177.084C269.867 177.084 270.217 177.014 270.553 176.888L270.511 176.062C270.259 176.188 269.951 176.272 269.685 176.272C269.111 176.272 268.705 176.048 268.705 175.068V171.246H270.553V170.448H268.705V168.6H267.753V170.448H266.395V171.246H267.753V175.334C267.753 176.776 268.733 177.084 269.433 177.084ZM202.326 201.252C204.286 201.252 205.616 199.852 205.616 197.934C205.616 196.086 204.258 194.826 202.396 194.826C201.948 194.826 201.444 194.896 201.024 195.05L201.094 191.984H205.224V191.088H200.17L200.072 196.198C200.702 195.862 201.416 195.652 202.13 195.652C203.544 195.652 204.594 196.562 204.594 198.032C204.594 199.376 203.614 200.384 202.27 200.384C201.402 200.384 200.618 199.852 200.268 199.04L199.358 199.446C199.904 200.538 200.898 201.252 202.326 201.252ZM209.733 201.434L216.033 191.032L215.319 190.654L209.005 201.056L209.733 201.434ZM209.691 195.82C211.077 195.82 212.155 194.742 212.155 193.37C212.155 191.998 211.077 190.92 209.691 190.92C208.305 190.92 207.227 191.998 207.227 193.37C207.227 194.742 208.305 195.82 209.691 195.82ZM209.691 194.98C208.809 194.98 208.067 194.294 208.067 193.37C208.067 192.446 208.809 191.76 209.691 191.76C210.573 191.76 211.315 192.446 211.315 193.37C211.315 194.294 210.573 194.98 209.691 194.98ZM215.361 201.168C216.747 201.168 217.825 200.09 217.825 198.718C217.825 197.346 216.747 196.268 215.361 196.268C213.975 196.268 212.897 197.346 212.897 198.718C212.897 200.09 213.975 201.168 215.361 201.168ZM215.361 200.328C214.479 200.328 213.737 199.642 213.737 198.718C213.737 197.794 214.479 197.108 215.361 197.108C216.243 197.108 216.985 197.794 216.985 198.718C216.985 199.642 216.243 200.328 215.361 200.328ZM223.117 201H224.069V197.64C224.069 195.89 224.979 195.162 225.987 195.162C226.239 195.162 226.547 195.204 226.659 195.246L226.785 194.35C226.589 194.294 226.393 194.28 226.155 194.28C225.231 194.28 224.419 194.812 224.055 195.568H224.027C224.027 195.288 223.999 194.798 223.971 194.448H223.061C223.103 194.896 223.117 195.54 223.117 195.89V201ZM230.828 201.168C231.906 201.168 232.872 200.762 233.642 199.782L232.928 199.222C232.564 199.81 231.808 200.356 230.828 200.356C229.484 200.356 228.462 199.292 228.434 197.976H233.866C233.88 197.808 233.88 197.654 233.88 197.528C233.88 195.736 232.802 194.28 230.744 194.28C228.882 194.28 227.44 195.75 227.44 197.724C227.44 199.698 228.882 201.168 230.828 201.168ZM228.448 197.22C228.532 196.1 229.47 195.078 230.744 195.078C232.102 195.078 232.858 195.988 232.914 197.22H228.448ZM237.762 201.084C238.196 201.084 238.546 201.014 238.882 200.888L238.84 200.062C238.588 200.188 238.28 200.272 238.014 200.272C237.44 200.272 237.034 200.048 237.034 199.068V195.246H238.882V194.448H237.034V192.6H236.082V194.448H234.724V195.246H236.082V199.334C236.082 200.776 237.062 201.084 237.762 201.084ZM242.807 201.168C243.731 201.168 244.683 200.636 245.047 199.88H245.075C245.075 200.16 245.103 200.65 245.131 201H246.041C245.999 200.552 245.985 199.908 245.985 199.558V194.448H245.033V197.808C245.033 199.558 244.053 200.37 243.045 200.37C241.673 200.37 241.267 199.446 241.267 198.074V194.448H240.315V198.466C240.315 200.09 241.141 201.168 242.807 201.168ZM248.506 201H249.458V197.64C249.458 195.89 250.368 195.162 251.376 195.162C251.628 195.162 251.936 195.204 252.048 195.246L252.174 194.35C251.978 194.294 251.782 194.28 251.544 194.28C250.62 194.28 249.808 194.812 249.444 195.568H249.416C249.416 195.288 249.388 194.798 249.36 194.448H248.45C248.492 194.896 248.506 195.54 248.506 195.89V201ZM253.551 201H254.503V197.64C254.503 195.89 255.483 195.078 256.491 195.078C257.863 195.078 258.269 196.002 258.269 197.374V201H259.221V196.982C259.221 195.358 258.395 194.28 256.729 194.28C255.805 194.28 254.853 194.812 254.489 195.568H254.461C254.461 195.288 254.433 194.798 254.405 194.448H253.495C253.537 194.896 253.551 195.54 253.551 195.89V201Z" fill="black"/>
<path d="M76.3771 27H77.5391L80.2411 22.646C80.7311 21.848 81.1371 20.98 81.1371 19.958C81.1371 18.11 79.7791 16.836 77.9171 16.836C76.0551 16.836 74.6971 18.11 74.6971 19.958C74.6971 21.764 75.9991 23.01 77.7211 23.01C78.2251 23.01 78.8411 22.87 79.1351 22.646L79.1631 22.674L76.3771 27ZM77.9171 22.198C76.5591 22.198 75.7051 21.232 75.7051 19.958C75.7051 18.67 76.6151 17.69 77.9171 17.69C79.2191 17.69 80.1291 18.67 80.1291 19.958C80.1291 21.232 79.2751 22.198 77.9171 22.198ZM84.9882 27.434L91.2882 17.032L90.5742 16.654L84.2602 27.056L84.9882 27.434ZM84.9462 21.82C86.3322 21.82 87.4102 20.742 87.4102 19.37C87.4102 17.998 86.3322 16.92 84.9462 16.92C83.5602 16.92 82.4822 17.998 82.4822 19.37C82.4822 20.742 83.5602 21.82 84.9462 21.82ZM84.9462 20.98C84.0642 20.98 83.3222 20.294 83.3222 19.37C83.3222 18.446 84.0642 17.76 84.9462 17.76C85.8282 17.76 86.5702 18.446 86.5702 19.37C86.5702 20.294 85.8282 20.98 84.9462 20.98ZM90.6162 27.168C92.0022 27.168 93.0802 26.09 93.0802 24.718C93.0802 23.346 92.0022 22.268 90.6162 22.268C89.2302 22.268 88.1522 23.346 88.1522 24.718C88.1522 26.09 89.2302 27.168 90.6162 27.168ZM90.6162 26.328C89.7342 26.328 88.9922 25.642 88.9922 24.718C88.9922 23.794 89.7342 23.108 90.6162 23.108C91.4982 23.108 92.2402 23.794 92.2402 24.718C92.2402 25.642 91.4982 26.328 90.6162 26.328ZM97.0062 27H98.1122L99.1902 24.396H104.314L105.406 27H106.526L102.27 17.088H101.29L97.0062 27ZM99.5682 23.472L101.752 18.208L103.936 23.472H99.5682ZM107.985 27H108.993V22.394H110.757C112.773 22.394 114.131 21.512 114.131 19.734C114.131 17.956 112.801 17.088 110.785 17.088H107.985V27ZM108.993 21.54V17.956H110.701C112.227 17.956 113.123 18.516 113.123 19.734C113.123 20.91 112.269 21.54 110.701 21.54H108.993ZM116.106 27H117.114V22.366H118.794L121.538 27H122.77L119.872 22.282C121.314 22.128 122.406 21.204 122.406 19.734C122.406 17.802 120.978 17.088 119.018 17.088H116.106V27ZM117.114 21.498V17.956H118.906C120.404 17.956 121.398 18.432 121.398 19.734C121.398 20.91 120.474 21.498 118.864 21.498H117.114ZM55.0209 52.176H55.6929V51.168C57.3029 51.14 58.5349 50.076 58.5349 48.522C58.5349 46.702 57.1069 46.044 55.6929 45.554V41.704C56.3649 41.718 57.0789 42.026 57.5129 42.642L58.2829 42.054C57.6529 41.312 56.5889 40.948 55.6929 40.92V39.912H55.0209V40.92C53.5649 40.99 52.3189 41.956 52.3189 43.58C52.3189 45.288 53.7469 45.946 55.0209 46.338V50.356C54.4329 50.342 53.3689 49.964 52.8649 49.124L52.0669 49.684C52.7389 50.538 53.7609 51.14 55.0209 51.168V52.176ZM55.0209 45.316C53.9849 45.036 53.2849 44.504 53.2849 43.496C53.2849 42.446 54.0549 41.732 55.0209 41.704V45.316ZM55.6929 50.356V46.506C56.7569 46.842 57.5269 47.5 57.5269 48.452C57.5269 49.838 56.5189 50.328 55.6929 50.356ZM63.52 51.252C65.214 51.252 66.698 50.132 66.698 48.396C66.698 47.066 65.9 46.058 64.822 45.75V45.722C65.704 45.428 66.32 44.504 66.32 43.482C66.32 41.872 65.032 40.836 63.52 40.836C62.008 40.836 60.72 41.872 60.72 43.482C60.72 44.504 61.336 45.428 62.218 45.722V45.75C61.14 46.072 60.342 47.066 60.342 48.396C60.342 50.132 61.826 51.252 63.52 51.252ZM63.52 45.316C62.512 45.316 61.7 44.574 61.7 43.538C61.7 42.474 62.484 41.69 63.52 41.69C64.556 41.69 65.34 42.474 65.34 43.538C65.34 44.574 64.528 45.316 63.52 45.316ZM63.52 50.398C62.218 50.398 61.35 49.488 61.35 48.284C61.35 47.094 62.218 46.212 63.52 46.212C64.822 46.212 65.69 47.094 65.69 48.284C65.69 49.488 64.822 50.398 63.52 50.398ZM72.7051 51H73.6851V48.606H75.1411V47.724H73.6851V41.088H72.3691L68.1691 47.626V48.606H72.7051V51ZM69.2191 47.724L72.6771 42.222H72.7051V47.724H69.2191ZM77.5221 51.084C77.9701 51.084 78.2781 50.72 78.2781 50.328C78.2781 49.936 77.9701 49.572 77.5221 49.572C77.0741 49.572 76.7661 49.936 76.7661 50.328C76.7661 50.72 77.0741 51.084 77.5221 51.084ZM83.3989 51.252C85.2609 51.252 86.6189 49.978 86.6189 48.13C86.6189 46.324 85.3169 45.078 83.5949 45.078C83.0909 45.078 82.4749 45.218 82.1809 45.442L82.1529 45.414L84.9389 41.088H83.7769L81.0749 45.442C80.5849 46.24 80.1789 47.108 80.1789 48.13C80.1789 49.978 81.5369 51.252 83.3989 51.252ZM83.3989 50.398C82.0969 50.398 81.1869 49.418 81.1869 48.13C81.1869 46.856 82.0409 45.89 83.3989 45.89C84.7569 45.89 85.6109 46.856 85.6109 48.13C85.6109 49.418 84.7009 50.398 83.3989 50.398ZM88.748 51H89.7V47.556H89.742L93.074 51H94.474L90.834 47.444L94.138 44.448H92.766L89.742 47.402H89.7V40.416H88.748V51ZM99.8467 42.6C100.183 42.6 100.519 42.32 100.519 41.928C100.519 41.536 100.183 41.256 99.8467 41.256C99.5107 41.256 99.1747 41.536 99.1747 41.928C99.1747 42.32 99.5107 42.6 99.8467 42.6ZM99.3707 51H100.323V44.448H99.3707V51ZM102.857 51H103.809V47.64C103.809 45.89 104.789 45.078 105.797 45.078C107.169 45.078 107.575 46.002 107.575 47.374V51H108.527V46.982C108.527 45.358 107.701 44.28 106.035 44.28C105.111 44.28 104.159 44.812 103.795 45.568H103.767C103.767 45.288 103.739 44.798 103.711 44.448H102.801C102.843 44.896 102.857 45.54 102.857 45.89V51ZM112.825 51.084C113.259 51.084 113.609 51.014 113.945 50.888L113.903 50.062C113.651 50.188 113.343 50.272 113.077 50.272C112.503 50.272 112.097 50.048 112.097 49.068V45.246H113.945V44.448H112.097V42.6H111.145V44.448H109.787V45.246H111.145V49.334C111.145 50.776 112.125 51.084 112.825 51.084ZM118.347 51.168C119.425 51.168 120.391 50.762 121.161 49.782L120.447 49.222C120.083 49.81 119.327 50.356 118.347 50.356C117.003 50.356 115.981 49.292 115.953 47.976H121.385C121.399 47.808 121.399 47.654 121.399 47.528C121.399 45.736 120.321 44.28 118.263 44.28C116.401 44.28 114.959 45.75 114.959 47.724C114.959 49.698 116.401 51.168 118.347 51.168ZM115.967 47.22C116.051 46.1 116.989 45.078 118.263 45.078C119.621 45.078 120.377 45.988 120.433 47.22H115.967ZM123.447 51H124.399V47.64C124.399 45.89 125.309 45.162 126.317 45.162C126.569 45.162 126.877 45.204 126.989 45.246L127.115 44.35C126.919 44.294 126.723 44.28 126.485 44.28C125.561 44.28 124.749 44.812 124.385 45.568H124.357C124.357 45.288 124.329 44.798 124.301 44.448H123.391C123.433 44.896 123.447 45.54 123.447 45.89V51ZM131.157 51.168C132.235 51.168 133.201 50.762 133.971 49.782L133.257 49.222C132.893 49.81 132.137 50.356 131.157 50.356C129.813 50.356 128.791 49.292 128.763 47.976H134.195C134.209 47.808 134.209 47.654 134.209 47.528C134.209 45.736 133.131 44.28 131.073 44.28C129.211 44.28 127.769 45.75 127.769 47.724C127.769 49.698 129.211 51.168 131.157 51.168ZM128.777 47.22C128.861 46.1 129.799 45.078 131.073 45.078C132.431 45.078 133.187 45.988 133.243 47.22H128.777ZM138.119 51.168C139.323 51.168 140.583 50.636 140.583 49.138C140.583 48.116 139.855 47.542 138.315 47.22C137.237 46.996 136.747 46.716 136.747 46.1C136.747 45.372 137.447 45.078 138.133 45.078C138.861 45.078 139.463 45.456 139.743 46.002L140.471 45.456C140.051 44.714 139.085 44.28 138.175 44.28C136.985 44.28 135.837 44.854 135.837 46.184C135.837 47.43 136.943 47.766 137.713 47.948C138.959 48.242 139.645 48.522 139.645 49.208C139.645 50.062 138.917 50.356 138.105 50.356C137.335 50.356 136.621 49.908 136.285 49.334L135.529 49.894C136.131 50.776 137.125 51.168 138.119 51.168ZM144.312 51.084C144.746 51.084 145.096 51.014 145.432 50.888L145.39 50.062C145.138 50.188 144.83 50.272 144.564 50.272C143.99 50.272 143.584 50.048 143.584 49.068V45.246H145.432V44.448H143.584V42.6H142.632V44.448H141.274V45.246H142.632V49.334C142.632 50.776 143.612 51.084 144.312 51.084Z" fill="black"/>
<path d="M53.5102 355.252C55.3722 355.252 56.7302 353.978 56.7302 352.13C56.7302 350.324 55.4282 349.078 53.7062 349.078C53.2022 349.078 52.5862 349.218 52.2922 349.442L52.2642 349.414L55.0502 345.088H53.8882L51.1862 349.442C50.6962 350.24 50.2902 351.108 50.2902 352.13C50.2902 353.978 51.6482 355.252 53.5102 355.252ZM53.5102 354.398C52.2082 354.398 51.2982 353.418 51.2982 352.13C51.2982 350.856 52.1522 349.89 53.5102 349.89C54.8682 349.89 55.7222 350.856 55.7222 352.13C55.7222 353.418 54.8122 354.398 53.5102 354.398ZM60.6093 355.434L66.9093 345.032L66.1953 344.654L59.8813 355.056L60.6093 355.434ZM60.5673 349.82C61.9533 349.82 63.0313 348.742 63.0313 347.37C63.0313 345.998 61.9533 344.92 60.5673 344.92C59.1813 344.92 58.1033 345.998 58.1033 347.37C58.1033 348.742 59.1813 349.82 60.5673 349.82ZM60.5673 348.98C59.6853 348.98 58.9433 348.294 58.9433 347.37C58.9433 346.446 59.6853 345.76 60.5673 345.76C61.4493 345.76 62.1913 346.446 62.1913 347.37C62.1913 348.294 61.4493 348.98 60.5673 348.98ZM66.2373 355.168C67.6233 355.168 68.7013 354.09 68.7013 352.718C68.7013 351.346 67.6233 350.268 66.2373 350.268C64.8513 350.268 63.7733 351.346 63.7733 352.718C63.7733 354.09 64.8513 355.168 66.2373 355.168ZM66.2373 354.328C65.3553 354.328 64.6133 353.642 64.6133 352.718C64.6133 351.794 65.3553 351.108 66.2373 351.108C67.1193 351.108 67.8613 351.794 67.8613 352.718C67.8613 353.642 67.1193 354.328 66.2373 354.328ZM76.9054 355.168C77.8434 355.168 78.8234 354.72 79.3834 353.894H79.4114V355H80.3634V344.416H79.4114V349.582H79.3834C78.8234 348.728 77.8434 348.28 76.9054 348.28C74.8614 348.28 73.5174 349.792 73.5174 351.724C73.5174 353.656 74.8614 355.168 76.9054 355.168ZM77.0034 354.356C75.4214 354.356 74.5254 353.18 74.5254 351.724C74.5254 350.268 75.4214 349.078 77.0034 349.078C78.4734 349.078 79.5234 350.226 79.5234 351.724C79.5234 353.222 78.4734 354.356 77.0034 354.356ZM85.8195 355.168C86.8975 355.168 87.8635 354.762 88.6335 353.782L87.9195 353.222C87.5555 353.81 86.7995 354.356 85.8195 354.356C84.4755 354.356 83.4535 353.292 83.4255 351.976H88.8575C88.8715 351.808 88.8715 351.654 88.8715 351.528C88.8715 349.736 87.7935 348.28 85.7355 348.28C83.8735 348.28 82.4315 349.75 82.4315 351.724C82.4315 353.698 83.8735 355.168 85.8195 355.168ZM83.4395 351.22C83.5235 350.1 84.4615 349.078 85.7355 349.078C87.0935 349.078 87.8495 349.988 87.9055 351.22H83.4395ZM91.1992 355H92.1512V349.246H93.6912V348.448H92.1512V346.768C92.1512 345.816 92.3612 345.088 93.3832 345.088C93.6352 345.088 93.8452 345.13 94.0412 345.186L94.2092 344.346C93.9712 344.276 93.6632 344.248 93.4252 344.248C91.9272 344.248 91.1992 345.172 91.1992 346.656V348.448H89.8272V349.246H91.1992V355ZM96.8261 355.168C97.8761 355.168 98.6041 354.804 99.2061 353.936H99.2341C99.2341 354.286 99.2761 354.678 99.3321 355H100.186C100.116 354.636 100.074 354.034 100.074 353.53V350.66C100.074 349.064 98.9401 348.28 97.5261 348.28C96.4061 348.28 95.4821 348.686 94.9501 349.218L95.4821 349.848C95.9441 349.386 96.6581 349.078 97.4281 349.078C98.5621 349.078 99.1781 349.638 99.1781 350.772V350.982C96.7841 350.982 94.5581 351.164 94.5581 353.18C94.5581 354.636 95.8321 355.168 96.8261 355.168ZM97.0781 354.384C96.3361 354.384 95.5381 354.076 95.5381 353.138C95.5381 351.892 97.3441 351.724 98.8981 351.724H99.1781V352.214C99.1781 353.376 98.4221 354.384 97.0781 354.384ZM104.963 355.168C105.887 355.168 106.839 354.636 107.203 353.88H107.231C107.231 354.16 107.259 354.65 107.287 355H108.197C108.155 354.552 108.141 353.908 108.141 353.558V348.448H107.189V351.808C107.189 353.558 106.209 354.37 105.201 354.37C103.829 354.37 103.423 353.446 103.423 352.074V348.448H102.471V352.466C102.471 354.09 103.297 355.168 104.963 355.168ZM110.689 355H111.641V344.416H110.689V355ZM116.023 355.084C116.457 355.084 116.807 355.014 117.143 354.888L117.101 354.062C116.849 354.188 116.541 354.272 116.275 354.272C115.701 354.272 115.295 354.048 115.295 353.068V349.246H117.143V348.448H115.295V346.6H114.343V348.448H112.985V349.246H114.343V353.334C114.343 354.776 115.323 355.084 116.023 355.084ZM122.132 355H123.084V351.64C123.084 349.89 123.994 349.162 125.002 349.162C125.254 349.162 125.562 349.204 125.674 349.246L125.8 348.35C125.604 348.294 125.408 348.28 125.17 348.28C124.246 348.28 123.434 348.812 123.07 349.568H123.042C123.042 349.288 123.014 348.798 122.986 348.448H122.076C122.118 348.896 122.132 349.54 122.132 349.89V355ZM128.791 355.168C129.841 355.168 130.569 354.804 131.171 353.936H131.199C131.199 354.286 131.241 354.678 131.297 355H132.151C132.081 354.636 132.039 354.034 132.039 353.53V350.66C132.039 349.064 130.905 348.28 129.491 348.28C128.371 348.28 127.447 348.686 126.915 349.218L127.447 349.848C127.909 349.386 128.623 349.078 129.393 349.078C130.527 349.078 131.143 349.638 131.143 350.772V350.982C128.749 350.982 126.523 351.164 126.523 353.18C126.523 354.636 127.797 355.168 128.791 355.168ZM129.043 354.384C128.301 354.384 127.503 354.076 127.503 353.138C127.503 351.892 129.309 351.724 130.863 351.724H131.143V352.214C131.143 353.376 130.387 354.384 129.043 354.384ZM136.189 355.084C136.623 355.084 136.973 355.014 137.309 354.888L137.267 354.062C137.015 354.188 136.707 354.272 136.441 354.272C135.867 354.272 135.461 354.048 135.461 353.068V349.246H137.309V348.448H135.461V346.6H134.509V348.448H133.151V349.246H134.509V353.334C134.509 354.776 135.489 355.084 136.189 355.084ZM141.71 355.168C142.788 355.168 143.754 354.762 144.524 353.782L143.81 353.222C143.446 353.81 142.69 354.356 141.71 354.356C140.366 354.356 139.344 353.292 139.316 351.976H144.748C144.762 351.808 144.762 351.654 144.762 351.528C144.762 349.736 143.684 348.28 141.626 348.28C139.764 348.28 138.322 349.75 138.322 351.724C138.322 353.698 139.764 355.168 141.71 355.168ZM139.33 351.22C139.414 350.1 140.352 349.078 141.626 349.078C142.984 349.078 143.74 349.988 143.796 351.22H139.33ZM71.4183 380.176H72.0903V379.168C73.7003 379.14 74.9323 378.076 74.9323 376.522C74.9323 374.702 73.5043 374.044 72.0903 373.554V369.704C72.7623 369.718 73.4763 370.026 73.9103 370.642L74.6803 370.054C74.0503 369.312 72.9863 368.948 72.0903 368.92V367.912H71.4183V368.92C69.9623 368.99 68.7163 369.956 68.7163 371.58C68.7163 373.288 70.1443 373.946 71.4183 374.338V378.356C70.8303 378.342 69.7663 377.964 69.2623 377.124L68.4643 377.684C69.1363 378.538 70.1583 379.14 71.4183 379.168V380.176ZM71.4183 373.316C70.3823 373.036 69.6823 372.504 69.6823 371.496C69.6823 370.446 70.4523 369.732 71.4183 369.704V373.316ZM72.0903 378.356V374.506C73.1543 374.842 73.9243 375.5 73.9243 376.452C73.9243 377.838 72.9163 378.328 72.0903 378.356ZM79.9174 379.252C81.7794 379.252 83.1374 377.978 83.1374 376.13C83.1374 374.324 81.8354 373.078 80.1134 373.078C79.6094 373.078 78.9934 373.218 78.6994 373.442L78.6714 373.414L81.4574 369.088H80.2954L77.5934 373.442C77.1034 374.24 76.6974 375.108 76.6974 376.13C76.6974 377.978 78.0554 379.252 79.9174 379.252ZM79.9174 378.398C78.6154 378.398 77.7054 377.418 77.7054 376.13C77.7054 374.856 78.5594 373.89 79.9174 373.89C81.2754 373.89 82.1294 374.856 82.1294 376.13C82.1294 377.418 81.2194 378.398 79.9174 378.398ZM88.0385 379.252C90.5025 379.252 91.2865 376.634 91.2865 374.058C91.2865 371.482 90.5025 368.836 88.0385 368.836C85.5465 368.836 84.7905 371.482 84.7905 374.058C84.7905 376.634 85.5465 379.252 88.0385 379.252ZM88.0385 378.384C86.2745 378.384 85.8125 376.032 85.8125 374.058C85.8125 372.084 86.2745 369.69 88.0385 369.69C89.7745 369.69 90.2645 372.084 90.2645 374.058C90.2645 376.032 89.7745 378.384 88.0385 378.384ZM93.3876 379H94.3396V375.556H94.3816L97.7136 379H99.1136L95.4736 375.444L98.7776 372.448H97.4056L94.3816 375.402H94.3396V368.416H93.3876V379ZM104.024 379H104.976V368.416H104.024V379ZM110.534 379.168C112.578 379.168 114.034 377.698 114.034 375.724C114.034 373.75 112.578 372.28 110.534 372.28C108.504 372.28 107.048 373.75 107.048 375.724C107.048 377.698 108.504 379.168 110.534 379.168ZM110.534 378.356C109.022 378.356 108.056 377.194 108.056 375.724C108.056 374.254 109.022 373.078 110.534 373.078C112.06 373.078 113.026 374.254 113.026 375.724C113.026 377.194 112.06 378.356 110.534 378.356ZM117.944 379.168C119.148 379.168 120.408 378.636 120.408 377.138C120.408 376.116 119.68 375.542 118.14 375.22C117.062 374.996 116.572 374.716 116.572 374.1C116.572 373.372 117.272 373.078 117.958 373.078C118.686 373.078 119.288 373.456 119.568 374.002L120.296 373.456C119.876 372.714 118.91 372.28 118 372.28C116.81 372.28 115.662 372.854 115.662 374.184C115.662 375.43 116.768 375.766 117.538 375.948C118.784 376.242 119.47 376.522 119.47 377.208C119.47 378.062 118.742 378.356 117.93 378.356C117.16 378.356 116.446 377.908 116.11 377.334L115.354 377.894C115.956 378.776 116.95 379.168 117.944 379.168ZM124.165 379.168C125.369 379.168 126.629 378.636 126.629 377.138C126.629 376.116 125.901 375.542 124.361 375.22C123.283 374.996 122.793 374.716 122.793 374.1C122.793 373.372 123.493 373.078 124.179 373.078C124.907 373.078 125.509 373.456 125.789 374.002L126.517 373.456C126.097 372.714 125.131 372.28 124.221 372.28C123.031 372.28 121.883 372.854 121.883 374.184C121.883 375.43 122.989 375.766 123.759 375.948C125.005 376.242 125.691 376.522 125.691 377.208C125.691 378.062 124.963 378.356 124.151 378.356C123.381 378.356 122.667 377.908 122.331 377.334L121.575 377.894C122.177 378.776 123.171 379.168 124.165 379.168Z" fill="black"/>
<path d="M198.682 281.176H199.354V280.168C200.964 280.14 202.196 279.076 202.196 277.522C202.196 275.702 200.768 275.044 199.354 274.554V270.704C200.026 270.718 200.74 271.026 201.174 271.642L201.944 271.054C201.314 270.312 200.25 269.948 199.354 269.92V268.912H198.682V269.92C197.226 269.99 195.98 270.956 195.98 272.58C195.98 274.288 197.408 274.946 198.682 275.338V279.356C198.094 279.342 197.03 278.964 196.526 278.124L195.728 278.684C196.4 279.538 197.422 280.14 198.682 280.168V281.176ZM198.682 274.316C197.646 274.036 196.946 273.504 196.946 272.496C196.946 271.446 197.716 270.732 198.682 270.704V274.316ZM199.354 279.356V275.506C200.418 275.842 201.188 276.5 201.188 277.452C201.188 278.838 200.18 279.328 199.354 279.356ZM208.245 280H209.225V277.606H210.681V276.724H209.225V270.088H207.909L203.709 276.626V277.606H208.245V280ZM204.759 276.724L208.217 271.222H208.245V276.724H204.759ZM216.366 280H217.346V277.606H218.802V276.724H217.346V270.088H216.03L211.83 276.626V277.606H216.366V280ZM212.88 276.724L216.338 271.222H216.366V276.724H212.88ZM221.183 280.084C221.631 280.084 221.939 279.72 221.939 279.328C221.939 278.936 221.631 278.572 221.183 278.572C220.735 278.572 220.427 278.936 220.427 279.328C220.427 279.72 220.735 280.084 221.183 280.084ZM227.06 280.252C228.922 280.252 230.28 278.978 230.28 277.13C230.28 275.324 228.978 274.078 227.256 274.078C226.752 274.078 226.136 274.218 225.842 274.442L225.814 274.414L228.6 270.088H227.438L224.736 274.442C224.246 275.24 223.84 276.108 223.84 277.13C223.84 278.978 225.198 280.252 227.06 280.252ZM227.06 279.398C225.758 279.398 224.848 278.418 224.848 277.13C224.848 275.856 225.702 274.89 227.06 274.89C228.418 274.89 229.272 275.856 229.272 277.13C229.272 278.418 228.362 279.398 227.06 279.398ZM232.409 280H233.361V276.556H233.403L236.735 280H238.135L234.495 276.444L237.799 273.448H236.427L233.403 276.402H233.361V269.416H232.409V280ZM243.018 280H243.97V276.64C243.97 274.89 244.88 274.162 245.888 274.162C246.14 274.162 246.448 274.204 246.56 274.246L246.686 273.35C246.49 273.294 246.294 273.28 246.056 273.28C245.132 273.28 244.32 273.812 243.956 274.568H243.928C243.928 274.288 243.9 273.798 243.872 273.448H242.962C243.004 273.896 243.018 274.54 243.018 274.89V280ZM250.729 280.168C251.807 280.168 252.773 279.762 253.543 278.782L252.829 278.222C252.465 278.81 251.709 279.356 250.729 279.356C249.385 279.356 248.363 278.292 248.335 276.976H253.767C253.781 276.808 253.781 276.654 253.781 276.528C253.781 274.736 252.703 273.28 250.645 273.28C248.783 273.28 247.341 274.75 247.341 276.724C247.341 278.698 248.783 280.168 250.729 280.168ZM248.349 276.22C248.433 275.1 249.371 274.078 250.645 274.078C252.003 274.078 252.759 274.988 252.815 276.22H248.349ZM257.69 280.168C258.894 280.168 260.154 279.636 260.154 278.138C260.154 277.116 259.426 276.542 257.886 276.22C256.808 275.996 256.318 275.716 256.318 275.1C256.318 274.372 257.018 274.078 257.704 274.078C258.432 274.078 259.034 274.456 259.314 275.002L260.042 274.456C259.622 273.714 258.656 273.28 257.746 273.28C256.556 273.28 255.408 273.854 255.408 275.184C255.408 276.43 256.514 276.766 257.284 276.948C258.53 277.242 259.216 277.522 259.216 278.208C259.216 279.062 258.488 279.356 257.676 279.356C256.906 279.356 256.192 278.908 255.856 278.334L255.1 278.894C255.702 279.776 256.696 280.168 257.69 280.168ZM262.539 271.6C262.875 271.6 263.211 271.32 263.211 270.928C263.211 270.536 262.875 270.256 262.539 270.256C262.203 270.256 261.867 270.536 261.867 270.928C261.867 271.32 262.203 271.6 262.539 271.6ZM262.063 280H263.015V273.448H262.063V280ZM268.461 280.168C269.399 280.168 270.379 279.72 270.939 278.894H270.967V280H271.919V269.416H270.967V274.582H270.939C270.379 273.728 269.399 273.28 268.461 273.28C266.417 273.28 265.073 274.792 265.073 276.724C265.073 278.656 266.417 280.168 268.461 280.168ZM268.559 279.356C266.977 279.356 266.081 278.18 266.081 276.724C266.081 275.268 266.977 274.078 268.559 274.078C270.029 274.078 271.079 275.226 271.079 276.724C271.079 278.222 270.029 279.356 268.559 279.356ZM276.899 280.168C277.823 280.168 278.775 279.636 279.139 278.88H279.167C279.167 279.16 279.195 279.65 279.223 280H280.133C280.091 279.552 280.077 278.908 280.077 278.558V273.448H279.125V276.808C279.125 278.558 278.145 279.37 277.137 279.37C275.765 279.37 275.359 278.446 275.359 277.074V273.448H274.407V277.466C274.407 279.09 275.233 280.168 276.899 280.168ZM284.432 280.084C284.866 280.084 285.216 280.014 285.552 279.888L285.51 279.062C285.258 279.188 284.95 279.272 284.684 279.272C284.11 279.272 283.704 279.048 283.704 278.068V274.246H285.552V273.448H283.704V271.6H282.752V273.448H281.394V274.246H282.752V278.334C282.752 279.776 283.732 280.084 284.432 280.084ZM288.819 280.168C289.869 280.168 290.597 279.804 291.199 278.936H291.227C291.227 279.286 291.269 279.678 291.325 280H292.179C292.109 279.636 292.067 279.034 292.067 278.53V275.66C292.067 274.064 290.933 273.28 289.519 273.28C288.399 273.28 287.475 273.686 286.943 274.218L287.475 274.848C287.937 274.386 288.651 274.078 289.421 274.078C290.555 274.078 291.171 274.638 291.171 275.772V275.982C288.777 275.982 286.551 276.164 286.551 278.18C286.551 279.636 287.825 280.168 288.819 280.168ZM289.071 279.384C288.329 279.384 287.531 279.076 287.531 278.138C287.531 276.892 289.337 276.724 290.891 276.724H291.171V277.214C291.171 278.376 290.415 279.384 289.071 279.384ZM294.548 280H295.5V269.416H294.548V280ZM302.037 271.6C302.373 271.6 302.709 271.32 302.709 270.928C302.709 270.536 302.373 270.256 302.037 270.256C301.701 270.256 301.365 270.536 301.365 270.928C301.365 271.32 301.701 271.6 302.037 271.6ZM301.561 280H302.513V273.448H301.561V280ZM305.047 280H305.999V276.64C305.999 274.89 306.979 274.078 307.987 274.078C309.359 274.078 309.765 275.002 309.765 276.374V280H310.717V275.982C310.717 274.358 309.891 273.28 308.225 273.28C307.301 273.28 306.349 273.812 305.985 274.568H305.957C305.957 274.288 305.929 273.798 305.901 273.448H304.991C305.033 273.896 305.047 274.54 305.047 274.89V280ZM315.016 280.084C315.45 280.084 315.8 280.014 316.136 279.888L316.094 279.062C315.842 279.188 315.534 279.272 315.268 279.272C314.694 279.272 314.288 279.048 314.288 278.068V274.246H316.136V273.448H314.288V271.6H313.336V273.448H311.978V274.246H313.336V278.334C313.336 279.776 314.316 280.084 315.016 280.084ZM320.537 280.168C321.615 280.168 322.581 279.762 323.351 278.782L322.637 278.222C322.273 278.81 321.517 279.356 320.537 279.356C319.193 279.356 318.171 278.292 318.143 276.976H323.575C323.589 276.808 323.589 276.654 323.589 276.528C323.589 274.736 322.511 273.28 320.453 273.28C318.591 273.28 317.149 274.75 317.149 276.724C317.149 278.698 318.591 280.168 320.537 280.168ZM318.157 276.22C318.241 275.1 319.179 274.078 320.453 274.078C321.811 274.078 322.567 274.988 322.623 276.22H318.157ZM325.637 280H326.589V276.64C326.589 274.89 327.499 274.162 328.507 274.162C328.759 274.162 329.067 274.204 329.179 274.246L329.305 273.35C329.109 273.294 328.913 273.28 328.675 273.28C327.751 273.28 326.939 273.812 326.575 274.568H326.547C326.547 274.288 326.519 273.798 326.491 273.448H325.581C325.623 273.896 325.637 274.54 325.637 274.89V280ZM333.348 280.168C334.426 280.168 335.392 279.762 336.162 278.782L335.448 278.222C335.084 278.81 334.328 279.356 333.348 279.356C332.004 279.356 330.982 278.292 330.954 276.976H336.386C336.4 276.808 336.4 276.654 336.4 276.528C336.4 274.736 335.322 273.28 333.264 273.28C331.402 273.28 329.96 274.75 329.96 276.724C329.96 278.698 331.402 280.168 333.348 280.168ZM330.968 276.22C331.052 275.1 331.99 274.078 333.264 274.078C334.622 274.078 335.378 274.988 335.434 276.22H330.968ZM340.31 280.168C341.514 280.168 342.774 279.636 342.774 278.138C342.774 277.116 342.046 276.542 340.506 276.22C339.428 275.996 338.938 275.716 338.938 275.1C338.938 274.372 339.638 274.078 340.324 274.078C341.052 274.078 341.654 274.456 341.934 275.002L342.662 274.456C342.242 273.714 341.276 273.28 340.366 273.28C339.176 273.28 338.028 273.854 338.028 275.184C338.028 276.43 339.134 276.766 339.904 276.948C341.15 277.242 341.836 277.522 341.836 278.208C341.836 279.062 341.108 279.356 340.296 279.356C339.526 279.356 338.812 278.908 338.476 278.334L337.72 278.894C338.322 279.776 339.316 280.168 340.31 280.168ZM346.502 280.084C346.936 280.084 347.286 280.014 347.622 279.888L347.58 279.062C347.328 279.188 347.02 279.272 346.754 279.272C346.18 279.272 345.774 279.048 345.774 278.068V274.246H347.622V273.448H345.774V271.6H344.822V273.448H343.464V274.246H344.822V278.334C344.822 279.776 345.802 280.084 346.502 280.084ZM188.672 301.004H191.808V300.206H188.672V301.004ZM199.666 305.176H200.338V304.168C201.948 304.14 203.18 303.076 203.18 301.522C203.18 299.702 201.752 299.044 200.338 298.554V294.704C201.01 294.718 201.724 295.026 202.158 295.642L202.928 295.054C202.298 294.312 201.234 293.948 200.338 293.92V292.912H199.666V293.92C198.21 293.99 196.964 294.956 196.964 296.58C196.964 298.288 198.392 298.946 199.666 299.338V303.356C199.078 303.342 198.014 302.964 197.51 302.124L196.712 302.684C197.384 303.538 198.406 304.14 199.666 304.168V305.176ZM199.666 298.316C198.63 298.036 197.93 297.504 197.93 296.496C197.93 295.446 198.7 294.732 199.666 294.704V298.316ZM200.338 303.356V299.506C201.402 299.842 202.172 300.5 202.172 301.452C202.172 302.838 201.164 303.328 200.338 303.356ZM208.165 304.252C210.027 304.252 211.385 302.978 211.385 301.13C211.385 299.324 210.083 298.078 208.361 298.078C207.857 298.078 207.241 298.218 206.947 298.442L206.919 298.414L209.705 294.088H208.543L205.841 298.442C205.351 299.24 204.945 300.108 204.945 301.13C204.945 302.978 206.303 304.252 208.165 304.252ZM208.165 303.398C206.863 303.398 205.953 302.418 205.953 301.13C205.953 299.856 206.807 298.89 208.165 298.89C209.523 298.89 210.377 299.856 210.377 301.13C210.377 302.418 209.467 303.398 208.165 303.398ZM216.287 304.252C218.751 304.252 219.535 301.634 219.535 299.058C219.535 296.482 218.751 293.836 216.287 293.836C213.795 293.836 213.039 296.482 213.039 299.058C213.039 301.634 213.795 304.252 216.287 304.252ZM216.287 303.384C214.523 303.384 214.061 301.032 214.061 299.058C214.061 297.084 214.523 294.69 216.287 294.69C218.023 294.69 218.513 297.084 218.513 299.058C218.513 301.032 218.023 303.384 216.287 303.384ZM221.636 304H222.588V300.556H222.63L225.962 304H227.362L223.722 300.444L227.026 297.448H225.654L222.63 300.402H222.588V293.416H221.636V304ZM232.272 304H233.224V293.416H232.272V304ZM238.782 304.168C240.826 304.168 242.282 302.698 242.282 300.724C242.282 298.75 240.826 297.28 238.782 297.28C236.752 297.28 235.296 298.75 235.296 300.724C235.296 302.698 236.752 304.168 238.782 304.168ZM238.782 303.356C237.27 303.356 236.304 302.194 236.304 300.724C236.304 299.254 237.27 298.078 238.782 298.078C240.308 298.078 241.274 299.254 241.274 300.724C241.274 302.194 240.308 303.356 238.782 303.356ZM246.192 304.168C247.396 304.168 248.656 303.636 248.656 302.138C248.656 301.116 247.928 300.542 246.388 300.22C245.31 299.996 244.82 299.716 244.82 299.1C244.82 298.372 245.52 298.078 246.206 298.078C246.934 298.078 247.536 298.456 247.816 299.002L248.544 298.456C248.124 297.714 247.158 297.28 246.248 297.28C245.058 297.28 243.91 297.854 243.91 299.184C243.91 300.43 245.016 300.766 245.786 300.948C247.032 301.242 247.718 301.522 247.718 302.208C247.718 303.062 246.99 303.356 246.178 303.356C245.408 303.356 244.694 302.908 244.358 302.334L243.602 302.894C244.204 303.776 245.198 304.168 246.192 304.168ZM252.413 304.168C253.617 304.168 254.877 303.636 254.877 302.138C254.877 301.116 254.149 300.542 252.609 300.22C251.531 299.996 251.041 299.716 251.041 299.1C251.041 298.372 251.741 298.078 252.427 298.078C253.155 298.078 253.757 298.456 254.037 299.002L254.765 298.456C254.345 297.714 253.379 297.28 252.469 297.28C251.279 297.28 250.131 297.854 250.131 299.184C250.131 300.43 251.237 300.766 252.007 300.948C253.253 301.242 253.939 301.522 253.939 302.208C253.939 303.062 253.211 303.356 252.399 303.356C251.629 303.356 250.915 302.908 250.579 302.334L249.823 302.894C250.425 303.776 251.419 304.168 252.413 304.168ZM189.092 323.128H196.232V322.288H189.092V323.128ZM189.092 325.228H196.232V324.388H189.092V325.228ZM201.496 325.004H204.632V324.206H201.496V325.004ZM208.991 329.176H209.663V328.168C211.273 328.14 212.505 327.076 212.505 325.522C212.505 323.702 211.077 323.044 209.663 322.554V318.704C210.335 318.718 211.049 319.026 211.483 319.642L212.253 319.054C211.623 318.312 210.559 317.948 209.663 317.92V316.912H208.991V317.92C207.535 317.99 206.289 318.956 206.289 320.58C206.289 322.288 207.717 322.946 208.991 323.338V327.356C208.403 327.342 207.339 326.964 206.835 326.124L206.037 326.684C206.709 327.538 207.731 328.14 208.991 328.168V329.176ZM208.991 322.316C207.955 322.036 207.255 321.504 207.255 320.496C207.255 319.446 208.025 318.732 208.991 318.704V322.316ZM209.663 327.356V323.506C210.727 323.842 211.497 324.5 211.497 325.452C211.497 326.838 210.489 327.328 209.663 327.356ZM217.434 328H218.442V318.088H217.546L215.026 320.16L215.642 320.86L217.434 319.334V328ZM225.303 328.252C227.263 328.252 228.593 326.852 228.593 324.934C228.593 323.086 227.235 321.826 225.373 321.826C224.925 321.826 224.421 321.896 224.001 322.05L224.071 318.984H228.201V318.088H223.147L223.049 323.198C223.679 322.862 224.393 322.652 225.107 322.652C226.521 322.652 227.571 323.562 227.571 325.032C227.571 326.376 226.591 327.384 225.247 327.384C224.379 327.384 223.595 326.852 223.245 326.04L222.335 326.446C222.881 327.538 223.875 328.252 225.303 328.252ZM231.492 328.084C231.94 328.084 232.248 327.72 232.248 327.328C232.248 326.936 231.94 326.572 231.492 326.572C231.044 326.572 230.736 326.936 230.736 327.328C230.736 327.72 231.044 328.084 231.492 328.084ZM238.433 328H239.413V325.606H240.869V324.724H239.413V318.088H238.097L233.897 324.626V325.606H238.433V328ZM234.947 324.724L238.405 319.222H238.433V324.724H234.947ZM242.718 328H243.67V324.556H243.712L247.044 328H248.444L244.804 324.444L248.108 321.448H246.736L243.712 324.402H243.67V317.416H242.718V328ZM255.16 328.084C255.594 328.084 255.944 328.014 256.28 327.888L256.238 327.062C255.986 327.188 255.678 327.272 255.412 327.272C254.838 327.272 254.432 327.048 254.432 326.068V322.246H256.28V321.448H254.432V319.6H253.48V321.448H252.122V322.246H253.48V326.334C253.48 327.776 254.46 328.084 255.16 328.084ZM260.78 328.168C262.824 328.168 264.28 326.698 264.28 324.724C264.28 322.75 262.824 321.28 260.78 321.28C258.75 321.28 257.294 322.75 257.294 324.724C257.294 326.698 258.75 328.168 260.78 328.168ZM260.78 327.356C259.268 327.356 258.302 326.194 258.302 324.724C258.302 323.254 259.268 322.078 260.78 322.078C262.306 322.078 263.272 323.254 263.272 324.724C263.272 326.194 262.306 327.356 260.78 327.356ZM268.162 328.084C268.596 328.084 268.946 328.014 269.282 327.888L269.24 327.062C268.988 327.188 268.68 327.272 268.414 327.272C267.84 327.272 267.434 327.048 267.434 326.068V322.246H269.282V321.448H267.434V319.6H266.482V321.448H265.124V322.246H266.482V326.334C266.482 327.776 267.462 328.084 268.162 328.084ZM272.55 328.168C273.6 328.168 274.328 327.804 274.93 326.936H274.958C274.958 327.286 275 327.678 275.056 328H275.91C275.84 327.636 275.798 327.034 275.798 326.53V323.66C275.798 322.064 274.664 321.28 273.25 321.28C272.13 321.28 271.206 321.686 270.674 322.218L271.206 322.848C271.668 322.386 272.382 322.078 273.152 322.078C274.286 322.078 274.902 322.638 274.902 323.772V323.982C272.508 323.982 270.282 324.164 270.282 326.18C270.282 327.636 271.556 328.168 272.55 328.168ZM272.802 327.384C272.06 327.384 271.262 327.076 271.262 326.138C271.262 324.892 273.068 324.724 274.622 324.724H274.902V325.214C274.902 326.376 274.146 327.384 272.802 327.384ZM278.278 328H279.23V317.416H278.278V328ZM285.306 328H286.258V317.416H285.306V328ZM291.815 328.168C293.859 328.168 295.315 326.698 295.315 324.724C295.315 322.75 293.859 321.28 291.815 321.28C289.785 321.28 288.329 322.75 288.329 324.724C288.329 326.698 289.785 328.168 291.815 328.168ZM291.815 327.356C290.303 327.356 289.337 326.194 289.337 324.724C289.337 323.254 290.303 322.078 291.815 322.078C293.341 322.078 294.307 323.254 294.307 324.724C294.307 326.194 293.341 327.356 291.815 327.356ZM300.374 328.168C302.418 328.168 303.874 326.698 303.874 324.724C303.874 322.75 302.418 321.28 300.374 321.28C298.344 321.28 296.888 322.75 296.888 324.724C296.888 326.698 298.344 328.168 300.374 328.168ZM300.374 327.356C298.862 327.356 297.896 326.194 297.896 324.724C297.896 323.254 298.862 322.078 300.374 322.078C301.9 322.078 302.866 323.254 302.866 324.724C302.866 326.194 301.9 327.356 300.374 327.356ZM307.784 328.168C308.988 328.168 310.248 327.636 310.248 326.138C310.248 325.116 309.52 324.542 307.98 324.22C306.902 323.996 306.412 323.716 306.412 323.1C306.412 322.372 307.112 322.078 307.798 322.078C308.526 322.078 309.128 322.456 309.408 323.002L310.136 322.456C309.716 321.714 308.75 321.28 307.84 321.28C306.65 321.28 305.502 321.854 305.502 323.184C305.502 324.43 306.608 324.766 307.378 324.948C308.624 325.242 309.31 325.522 309.31 326.208C309.31 327.062 308.582 327.356 307.77 327.356C307 327.356 306.286 326.908 305.95 326.334L305.194 326.894C305.796 327.776 306.79 328.168 307.784 328.168ZM202.672 349.004H205.808V348.206H202.672V349.004ZM208.332 352H209.466L213.456 343.012V342.088H207.576V342.984H212.434L208.332 352ZM216.425 352.084C216.873 352.084 217.181 351.72 217.181 351.328C217.181 350.936 216.873 350.572 216.425 350.572C215.977 350.572 215.669 350.936 215.669 351.328C215.669 351.72 215.977 352.084 216.425 352.084ZM220.09 352H221.224L225.214 343.012V342.088H219.334V342.984H224.192L220.09 352ZM229.401 352.434L235.701 342.032L234.987 341.654L228.673 352.056L229.401 352.434ZM229.359 346.82C230.745 346.82 231.823 345.742 231.823 344.37C231.823 342.998 230.745 341.92 229.359 341.92C227.973 341.92 226.895 342.998 226.895 344.37C226.895 345.742 227.973 346.82 229.359 346.82ZM229.359 345.98C228.477 345.98 227.735 345.294 227.735 344.37C227.735 343.446 228.477 342.76 229.359 342.76C230.241 342.76 230.983 343.446 230.983 344.37C230.983 345.294 230.241 345.98 229.359 345.98ZM235.029 352.168C236.415 352.168 237.493 351.09 237.493 349.718C237.493 348.346 236.415 347.268 235.029 347.268C233.643 347.268 232.565 348.346 232.565 349.718C232.565 351.09 233.643 352.168 235.029 352.168ZM235.029 351.328C234.147 351.328 233.405 350.642 233.405 349.718C233.405 348.794 234.147 348.108 235.029 348.108C235.911 348.108 236.653 348.794 236.653 349.718C236.653 350.642 235.911 351.328 235.029 351.328ZM242.785 352H243.737V348.64C243.737 346.89 244.647 346.162 245.655 346.162C245.907 346.162 246.215 346.204 246.327 346.246L246.453 345.35C246.257 345.294 246.061 345.28 245.823 345.28C244.899 345.28 244.087 345.812 243.723 346.568H243.695C243.695 346.288 243.667 345.798 243.639 345.448H242.729C242.771 345.896 242.785 346.54 242.785 346.89V352ZM250.496 352.168C251.574 352.168 252.54 351.762 253.31 350.782L252.596 350.222C252.232 350.81 251.476 351.356 250.496 351.356C249.152 351.356 248.13 350.292 248.102 348.976H253.534C253.548 348.808 253.548 348.654 253.548 348.528C253.548 346.736 252.47 345.28 250.412 345.28C248.55 345.28 247.108 346.75 247.108 348.724C247.108 350.698 248.55 352.168 250.496 352.168ZM248.116 348.22C248.2 347.1 249.138 346.078 250.412 346.078C251.77 346.078 252.526 346.988 252.582 348.22H248.116ZM257.43 352.084C257.864 352.084 258.214 352.014 258.55 351.888L258.508 351.062C258.256 351.188 257.948 351.272 257.682 351.272C257.108 351.272 256.702 351.048 256.702 350.068V346.246H258.55V345.448H256.702V343.6H255.75V345.448H254.392V346.246H255.75V350.334C255.75 351.776 256.73 352.084 257.43 352.084ZM262.475 352.168C263.399 352.168 264.351 351.636 264.715 350.88H264.743C264.743 351.16 264.771 351.65 264.799 352H265.709C265.667 351.552 265.653 350.908 265.653 350.558V345.448H264.701V348.808C264.701 350.558 263.721 351.37 262.713 351.37C261.341 351.37 260.935 350.446 260.935 349.074V345.448H259.983V349.466C259.983 351.09 260.809 352.168 262.475 352.168ZM268.174 352H269.126V348.64C269.126 346.89 270.036 346.162 271.044 346.162C271.296 346.162 271.604 346.204 271.716 346.246L271.842 345.35C271.646 345.294 271.45 345.28 271.212 345.28C270.288 345.28 269.476 345.812 269.112 346.568H269.084C269.084 346.288 269.056 345.798 269.028 345.448H268.118C268.16 345.896 268.174 346.54 268.174 346.89V352ZM273.219 352H274.171V348.64C274.171 346.89 275.151 346.078 276.159 346.078C277.531 346.078 277.937 347.002 277.937 348.374V352H278.889V347.982C278.889 346.358 278.063 345.28 276.397 345.28C275.473 345.28 274.521 345.812 274.157 346.568H274.129C274.129 346.288 274.101 345.798 274.073 345.448H273.163C273.205 345.896 273.219 346.54 273.219 346.89V352Z" fill="black"/>
<path d="M113.349 287.344H114.117V286.192C115.957 286.16 117.365 284.944 117.365 283.168C117.365 281.088 115.733 280.336 114.117 279.776V275.376C114.885 275.392 115.701 275.744 116.197 276.448L117.077 275.776C116.357 274.928 115.141 274.512 114.117 274.48V273.328H113.349V274.48C111.685 274.56 110.261 275.664 110.261 277.52C110.261 279.472 111.893 280.224 113.349 280.672V285.264C112.677 285.248 111.461 284.816 110.885 283.856L109.973 284.496C110.741 285.472 111.909 286.16 113.349 286.192V287.344ZM113.349 279.504C112.165 279.184 111.365 278.576 111.365 277.424C111.365 276.224 112.245 275.408 113.349 275.376V279.504ZM114.117 285.264V280.864C115.333 281.248 116.213 282 116.213 283.088C116.213 284.672 115.061 285.232 114.117 285.264ZM122.998 286H124.15V274.672H123.126L120.246 277.04L120.95 277.84L122.998 276.096V286ZM132.343 286.288C134.279 286.288 135.975 285.008 135.975 283.024C135.975 281.504 135.063 280.352 133.831 280V279.968C134.839 279.632 135.543 278.576 135.543 277.408C135.543 275.568 134.071 274.384 132.343 274.384C130.615 274.384 129.143 275.568 129.143 277.408C129.143 278.576 129.847 279.632 130.855 279.968V280C129.623 280.368 128.711 281.504 128.711 283.024C128.711 285.008 130.407 286.288 132.343 286.288ZM132.343 279.504C131.191 279.504 130.263 278.656 130.263 277.472C130.263 276.256 131.159 275.36 132.343 275.36C133.527 275.36 134.423 276.256 134.423 277.472C134.423 278.656 133.495 279.504 132.343 279.504ZM132.343 285.312C130.855 285.312 129.863 284.272 129.863 282.896C129.863 281.536 130.855 280.528 132.343 280.528C133.831 280.528 134.823 281.536 134.823 282.896C134.823 284.272 133.831 285.312 132.343 285.312ZM142.84 286H143.96V283.264H145.624V282.256H143.96V274.672H142.456L137.656 282.144V283.264H142.84V286ZM138.856 282.256L142.808 275.968H142.84V282.256H138.856ZM148.346 286.096C148.858 286.096 149.21 285.68 149.21 285.232C149.21 284.784 148.858 284.368 148.346 284.368C147.834 284.368 147.482 284.784 147.482 285.232C147.482 285.68 147.834 286.096 148.346 286.096ZM155.062 286.288C157.19 286.288 158.742 284.832 158.742 282.72C158.742 280.656 157.254 279.232 155.286 279.232C154.71 279.232 154.006 279.392 153.67 279.648L153.638 279.616L156.822 274.672H155.494L152.406 279.648C151.846 280.56 151.382 281.552 151.382 282.72C151.382 284.832 152.934 286.288 155.062 286.288ZM155.062 285.312C153.574 285.312 152.534 284.192 152.534 282.72C152.534 281.264 153.51 280.16 155.062 280.16C156.614 280.16 157.59 281.264 157.59 282.72C157.59 284.192 156.55 285.312 155.062 285.312ZM161.175 286H162.263V282.064H162.311L166.119 286H167.719L163.559 281.936L167.335 278.512H165.767L162.311 281.888H162.263V273.904H161.175V286Z" fill="black"/>
<path d="M34.208 301.344H34.976V300.192C36.816 300.16 38.224 298.944 38.224 297.168C38.224 295.088 36.592 294.336 34.976 293.776V289.376C35.744 289.392 36.56 289.744 37.056 290.448L37.936 289.776C37.216 288.928 36 288.512 34.976 288.48V287.328H34.208V288.48C32.544 288.56 31.12 289.664 31.12 291.52C31.12 293.472 32.752 294.224 34.208 294.672V299.264C33.536 299.248 32.32 298.816 31.744 297.856L30.832 298.496C31.6 299.472 32.768 300.16 34.208 300.192V301.344ZM34.208 293.504C33.024 293.184 32.224 292.576 32.224 291.424C32.224 290.224 33.104 289.408 34.208 289.376V293.504ZM34.976 299.264V294.864C36.192 295.248 37.072 296 37.072 297.088C37.072 298.672 35.92 299.232 34.976 299.264ZM43.9213 300.288C46.0493 300.288 47.6013 298.832 47.6013 296.72C47.6013 294.656 46.1133 293.232 44.1453 293.232C43.5693 293.232 42.8653 293.392 42.5293 293.648L42.4973 293.616L45.6813 288.672H44.3533L41.2653 293.648C40.7053 294.56 40.2413 295.552 40.2413 296.72C40.2413 298.832 41.7933 300.288 43.9213 300.288ZM43.9213 299.312C42.4333 299.312 41.3932 298.192 41.3932 296.72C41.3932 295.264 42.3693 294.16 43.9213 294.16C45.4733 294.16 46.4493 295.264 46.4493 296.72C46.4493 298.192 45.4093 299.312 43.9213 299.312ZM53.2025 300.288C56.0185 300.288 56.9145 297.296 56.9145 294.352C56.9145 291.408 56.0185 288.384 53.2025 288.384C50.3545 288.384 49.4905 291.408 49.4905 294.352C49.4905 297.296 50.3545 300.288 53.2025 300.288ZM53.2025 299.296C51.1865 299.296 50.6585 296.608 50.6585 294.352C50.6585 292.096 51.1865 289.36 53.2025 289.36C55.1865 289.36 55.7465 292.096 55.7465 294.352C55.7465 296.608 55.1865 299.296 53.2025 299.296ZM59.3158 300H60.4038V296.064H60.4518L64.2598 300H65.8598L61.6998 295.936L65.4758 292.512H63.9078L60.4518 295.888H60.4038V287.904H59.3158V300Z" fill="black"/>
<path fill-rule="evenodd" clip-rule="evenodd" d="M50 61.5H145.5V62.5H51V78.5H50V61.5Z" fill="black"/>
<path fill-rule="evenodd" clip-rule="evenodd" d="M144.5 77.2929L144.5 62.5H145.5L145.5 77.2929L147.828 74.9645C148.024 74.7692 148.34 74.7692 148.536 74.9645C148.731 75.1597 148.731 75.4763 148.536 75.6716L145.354 78.8536C145.158 79.0488 144.842 79.0488 144.646 78.8536L141.464 75.6716C141.269 75.4763 141.269 75.1597 141.464 74.9645C141.66 74.7692 141.976 74.7692 142.172 74.9645L144.5 77.2929Z" fill="black"/>
<path fill-rule="evenodd" clip-rule="evenodd" d="M49 332.5H144.808V331.5H50.0032V315.5H49V332.5Z" fill="black"/>
<path fill-rule="evenodd" clip-rule="evenodd" d="M143.805 316.707L143.805 331.5H144.808L144.808 316.707L147.144 319.036C147.34 319.231 147.657 319.231 147.853 319.036C148.049 318.84 148.049 318.524 147.853 318.328L144.661 315.146C144.465 314.951 144.147 314.951 143.951 315.146L140.759 318.328C140.563 318.524 140.563 318.84 140.759 319.036C140.955 319.231 141.273 319.231 141.469 319.036L143.805 316.707Z" fill="black"/>
<rect x="16.5" y="280.5" width="63" height="25" stroke="#F4AE56"/>
<rect x="107.5" y="293.5" width="63" height="13" stroke="#AAAAAC"/>
<defs>
<linearGradient id="paint0_linear" x1="48" y1="106" x2="48" y2="280" gradientUnits="userSpaceOnUse">
<stop offset="0.432292" stop-color="#F4BD6D"/>
<stop offset="0.807292" stop-color="#F4BD6C" stop-opacity="0.51"/>
</linearGradient>
<linearGradient id="paint1_linear" x1="139" y1="106" x2="139" y2="266" gradientUnits="userSpaceOnUse">
<stop offset="0.458333" stop-color="#2F80ED"/>
<stop offset="1" stop-color="#2F80ED" stop-opacity="0.4"/>
</linearGradient>
<linearGradient id="paint2_linear" x1="139" y1="266" x2="139" y2="293" gradientUnits="userSpaceOnUse">
<stop offset="0.276042" stop-color="#BDBDBD"/>
<stop offset="1" stop-color="#BDBDBD" stop-opacity="0.41"/>
</linearGradient>
</defs>
</svg>
