<svg width="22" height="24" viewBox="0 0 22 24" fill="none" xmlns="http://www.w3.org/2000/svg">
    <path d="M9.25005 0.418093C10.2156 -0.139365 11.4052 -0.139364 12.3707 0.418094L20.0605 4.85775C21.026 5.41521 21.6208 6.44543 21.6208 7.56035V16.4397C21.6208 17.5546 21.026 18.5848 20.0605 19.1423L12.3707 23.5819C11.4052 24.1394 10.2156 24.1394 9.25005 23.5819L1.56035 19.1423C0.5948 18.5848 0 17.5546 0 16.4397V7.56035C0 6.44543 0.594801 5.41521 1.56035 4.85775L9.25005 0.418093Z" fill="url(#paint0_linear)" />
    <circle cx="16.125" cy="11.25" r="0.75" fill="white" />
    <circle cx="5.625" cy="11.25" r="0.75" fill="white" />
    <path d="M8.625 15.75H13.125C13.125 16.9926 12.1176 18 10.875 18C9.63236 18 8.625 16.9926 8.625 15.75Z" fill="white" />
    <defs>
        <linearGradient id="paint0_linear" x1="10.8104" y1="0" x2="10.8104" y2="24" gradientUnits="userSpaceOnUse">
            <stop stop-color="#F44E72" />
            <stop offset="1" stop-color="#F44E72" stop-opacity="0" />
        </linearGradient>
    </defs>
</svg>
