<svg width="75" height="75" viewBox="0 0 75 75" fill="none" xmlns="http://www.w3.org/2000/svg">
    <path d="M62.7406 75H12.2594C10.1697 75 8.11462 74.4657 6.28942 73.4481C4.46423 72.4304 2.92947 70.9631 1.83087 69.1855C0.732263 67.4078 0.10628 65.3789 0.0123836 63.2913C-0.0815125 61.2037 0.359782 59.1267 1.29437 57.2576C9.70701 40.4307 18.1203 23.604 26.5343 6.77755C27.5524 4.74101 29.1176 3.02823 31.0544 1.83115C32.9912 0.63408 35.2231 0 37.5 0C39.7769 0 42.0088 0.63408 43.9456 1.83115C45.8824 3.02823 47.4476 4.74101 48.4657 6.77755C56.8792 23.6036 65.2925 40.4303 73.7056 57.2576C74.6402 59.1267 75.0815 61.2037 74.9876 63.2913C74.8937 65.3789 74.2677 67.4078 73.1691 69.1855C72.0705 70.9631 70.5358 72.4304 68.7106 73.4481C66.8854 74.4657 64.8303 75 62.7406 75V75Z" fill="url(#paint0_linear)"/>
    <circle cx="50.1633" cy="32.8118" r="2.70062" fill="white"/>
    <circle cx="24.7006" cy="32.8118" r="2.70062" fill="white"/>
    <path d="M28.79 45.5432H44.9937V45.5432C44.9937 50.0177 41.3664 53.6451 36.8919 53.6451V53.6451C32.4174 53.6451 28.79 50.0177 28.79 45.5432V45.5432Z" fill="white"/>
    <path d="M36.8147 19L38.062 22.8388H42.0984L38.8329 25.2113L40.0802 29.0501L36.8147 26.6776L33.5492 29.0501L34.7965 25.2113L31.5311 22.8388H35.5674L36.8147 19Z" fill="white"/>
    <defs>
        <linearGradient id="paint0_linear" x1="37.5" y1="0" x2="37.5" y2="75" gradientUnits="userSpaceOnUse">
            <stop offset="0.371222" stop-color="#7ED321"/>
            <stop offset="1" stop-color="#7ED321" stop-opacity="0"/>
        </linearGradient>
    </defs>
</svg>
