<svg width="27" height="27" viewBox="0 0 27 27" fill="none" xmlns="http://www.w3.org/2000/svg">
    <path d="M22.5866 27H4.41339C3.66108 27 2.92126 26.8077 2.26419 26.4413C1.60712 26.075 1.05461 25.5467 0.659113 24.9068C0.263615 24.2668 0.0382607 23.5364 0.00445808 22.7849C-0.0293445 22.0333 0.129522 21.2856 0.465972 20.6127C3.49452 14.5551 6.52332 8.49745 9.55235 2.43992C9.91888 1.70676 10.4823 1.09016 11.1796 0.659215C11.8768 0.228269 12.6803 0 13.5 0C14.3197 0 15.1232 0.228269 15.8204 0.659215C16.5177 1.09016 17.0811 1.70676 17.4476 2.43992C20.4765 8.49729 23.5053 14.5549 26.534 20.6127C26.8705 21.2856 27.0293 22.0333 26.9955 22.7849C26.9617 23.5364 26.7364 24.2668 26.3409 24.9068C25.9454 25.5467 25.3929 26.075 24.7358 26.4413C24.0787 26.8077 23.3389 27 22.5866 27V27Z" fill="url(#paint0_linear)"/>
    <circle cx="18.0588" cy="11.8123" r="0.972222" fill="white"/>
    <circle cx="8.89227" cy="11.8123" r="0.972222" fill="white"/>
    <path d="M10.3645 16.3956H16.1978V16.3956C16.1978 18.0065 14.892 19.3123 13.2812 19.3123V19.3123C11.6703 19.3123 10.3645 18.0065 10.3645 16.3956V16.3956Z" fill="white"/>
    <path d="M13.2533 6.83997L13.7023 8.22193H15.1554L13.9798 9.07603L14.4289 10.458L13.2533 9.6039L12.0777 10.458L12.5268 9.07603L11.3512 8.22193H12.8043L13.2533 6.83997Z" fill="white"/>
    <defs>
        <linearGradient id="paint0_linear" x1="13.5" y1="0" x2="13.5" y2="27" gradientUnits="userSpaceOnUse">
            <stop offset="0.371222" stop-color="#7ED321"/>
            <stop offset="1" stop-color="#7ED321" stop-opacity="0"/>
        </linearGradient>
    </defs>
</svg>
