<svg width="498" height="310" viewBox="0 0 498 310" fill="none" xmlns="http://www.w3.org/2000/svg">
<rect width="498" height="310" fill="white"/>
<rect x="184" y="93" width="64" height="217" fill="#2F80ED"/>
<rect x="284" y="166" width="64" height="144" fill="#828282"/>
<path d="M196.368 201.288C198.16 201.288 200.064 200.296 200.064 198.024C200.064 195.752 198.304 195.24 196.704 194.712C195.44 194.296 194.24 193.928 194.24 192.488C194.24 191.032 195.536 190.36 196.656 190.36C197.728 190.36 198.512 190.808 198.992 191.496L199.904 190.76C199.36 190.024 198.224 189.384 196.704 189.384C195.04 189.384 193.088 190.312 193.088 192.504C193.088 194.552 194.624 195.208 196.128 195.672C197.568 196.12 198.896 196.52 198.896 198.104C198.896 199.56 197.552 200.296 196.384 200.296C195.2 200.296 194.288 199.672 193.792 198.872L192.8 199.608C193.616 200.728 194.992 201.288 196.368 201.288ZM205.799 201.192C207.031 201.192 208.135 200.728 209.015 199.608L208.199 198.968C207.783 199.64 206.919 200.264 205.799 200.264C204.263 200.264 203.095 199.048 203.063 197.544H209.271C209.287 197.352 209.287 197.176 209.287 197.032C209.287 194.984 208.055 193.32 205.703 193.32C203.575 193.32 201.927 195 201.927 197.256C201.927 199.512 203.575 201.192 205.799 201.192ZM203.079 196.68C203.175 195.4 204.247 194.232 205.703 194.232C207.255 194.232 208.119 195.272 208.183 196.68H203.079ZM211.628 201H212.716V197.16C212.716 195.16 213.836 194.232 214.988 194.232C216.556 194.232 217.02 195.288 217.02 196.856V201H218.108V196.408C218.108 194.552 217.164 193.32 215.26 193.32C214.204 193.32 213.116 193.928 212.7 194.792H212.668C212.668 194.472 212.636 193.912 212.604 193.512H211.564C211.612 194.024 211.628 194.76 211.628 195.16V201ZM221.484 191.4C221.868 191.4 222.252 191.08 222.252 190.632C222.252 190.184 221.868 189.864 221.484 189.864C221.1 189.864 220.716 190.184 220.716 190.632C220.716 191.08 221.1 191.4 221.484 191.4ZM220.94 201H222.028V193.512H220.94V201ZM228.364 201.192C230.7 201.192 232.364 199.512 232.364 197.256C232.364 195 230.7 193.32 228.364 193.32C226.044 193.32 224.38 195 224.38 197.256C224.38 199.512 226.044 201.192 228.364 201.192ZM228.364 200.264C226.636 200.264 225.532 198.936 225.532 197.256C225.532 195.576 226.636 194.232 228.364 194.232C230.108 194.232 231.212 195.576 231.212 197.256C231.212 198.936 230.108 200.264 228.364 200.264ZM234.706 201H235.794V197.16C235.794 195.16 236.834 194.328 237.986 194.328C238.274 194.328 238.626 194.376 238.754 194.424L238.898 193.4C238.674 193.336 238.45 193.32 238.178 193.32C237.122 193.32 236.194 193.928 235.778 194.792H235.746C235.746 194.472 235.714 193.912 235.682 193.512H234.642C234.69 194.024 234.706 194.76 234.706 195.16V201Z" fill="white"/>
<path d="M295.44 245.288C297.92 245.288 298.464 243.208 298.464 241.736V233.672H297.312V241.656C297.312 243.016 296.896 244.28 295.312 244.28C294.304 244.28 293.648 243.576 293.472 242.696L292.4 242.984C292.672 244.328 293.808 245.288 295.44 245.288ZM304.099 245.192C305.155 245.192 306.243 244.584 306.659 243.72H306.691C306.691 244.04 306.723 244.6 306.755 245H307.795C307.747 244.488 307.731 243.752 307.731 243.352V237.512H306.643V241.352C306.643 243.352 305.523 244.28 304.371 244.28C302.803 244.28 302.339 243.224 302.339 241.656V237.512H301.251V242.104C301.251 243.96 302.195 245.192 304.099 245.192ZM310.612 245H311.7V241.16C311.7 239.16 312.82 238.232 313.972 238.232C315.54 238.232 316.004 239.288 316.004 240.856V245H317.092V240.408C317.092 238.552 316.148 237.32 314.244 237.32C313.188 237.32 312.1 237.928 311.684 238.792H311.652C311.652 238.472 311.62 237.912 311.588 237.512H310.548C310.596 238.024 310.612 238.76 310.612 239.16V245ZM320.469 235.4C320.853 235.4 321.237 235.08 321.237 234.632C321.237 234.184 320.853 233.864 320.469 233.864C320.085 233.864 319.701 234.184 319.701 234.632C319.701 235.08 320.085 235.4 320.469 235.4ZM319.925 245H321.013V237.512H319.925V245ZM327.349 245.192C329.685 245.192 331.349 243.512 331.349 241.256C331.349 239 329.685 237.32 327.349 237.32C325.029 237.32 323.365 239 323.365 241.256C323.365 243.512 325.029 245.192 327.349 245.192ZM327.349 244.264C325.621 244.264 324.517 242.936 324.517 241.256C324.517 239.576 325.621 238.232 327.349 238.232C329.093 238.232 330.197 239.576 330.197 241.256C330.197 242.936 329.093 244.264 327.349 244.264ZM333.69 245H334.778V241.16C334.778 239.16 335.818 238.328 336.97 238.328C337.258 238.328 337.61 238.376 337.738 238.424L337.882 237.4C337.658 237.336 337.434 237.32 337.162 237.32C336.106 237.32 335.178 237.928 334.762 238.792H334.73C334.73 238.472 334.698 237.912 334.666 237.512H333.626C333.674 238.024 333.69 238.76 333.69 239.16V245Z" fill="white"/>
<path d="M191.087 85.3874C186.974 76.4447 169.432 57.4386 150 47.5C129.987 37.2641 93.5 36.5 93.5 36.5M191.087 85.3874L179.188 78.0669M191.087 85.3874L191 70.9999" stroke="black"/>
<path d="M322.087 158.887C317.974 149.945 308 136 290.5 125C271.469 113.037 255 113 255 113M322.087 158.887L310.188 151.567M322.087 158.887L322 144.5" stroke="black" stroke-dasharray="5 3"/>
<path d="M1.504 21H7.936V19.976H2.656V9.672H1.504V21ZM12.755 21.192C15.091 21.192 16.755 19.512 16.755 17.256C16.755 15 15.091 13.32 12.755 13.32C10.435 13.32 8.771 15 8.771 17.256C8.771 19.512 10.435 21.192 12.755 21.192ZM12.755 20.264C11.027 20.264 9.923 18.936 9.923 17.256C9.923 15.576 11.027 14.232 12.755 14.232C14.499 14.232 15.603 15.576 15.603 17.256C15.603 18.936 14.499 20.264 12.755 20.264ZM21.1283 21.192C22.3283 21.192 23.1603 20.776 23.8483 19.784H23.8803C23.8803 20.184 23.9283 20.632 23.9923 21H24.9683C24.8883 20.584 24.8403 19.896 24.8403 19.32V16.04C24.8403 14.216 23.5443 13.32 21.9283 13.32C20.6483 13.32 19.5923 13.784 18.9843 14.392L19.5923 15.112C20.1203 14.584 20.9363 14.232 21.8163 14.232C23.1123 14.232 23.8163 14.872 23.8163 16.168V16.408C21.0803 16.408 18.5363 16.616 18.5363 18.92C18.5363 20.584 19.9923 21.192 21.1283 21.192ZM21.4163 20.296C20.5683 20.296 19.6562 19.944 19.6562 18.872C19.6562 17.448 21.7203 17.256 23.4963 17.256H23.8163V17.816C23.8163 19.144 22.9523 20.296 21.4163 20.296ZM27.6431 21H28.7311V17.16C28.7311 15.16 29.8511 14.232 31.0031 14.232C32.5711 14.232 33.0351 15.288 33.0351 16.856V21H34.1231V16.408C34.1231 14.552 33.1791 13.32 31.2751 13.32C30.2191 13.32 29.1311 13.928 28.7151 14.792H28.6831C28.6831 14.472 28.6511 13.912 28.6191 13.512H27.5791C27.6271 14.024 27.6431 14.76 27.6431 15.16V21ZM41.004 21H42.156V15.704H44.076L47.212 21H48.62L45.308 15.608C46.956 15.432 48.204 14.376 48.204 12.696C48.204 10.488 46.572 9.672 44.332 9.672H41.004V21ZM42.156 14.712V10.664H44.204C45.916 10.664 47.052 11.208 47.052 12.696C47.052 14.04 45.996 14.712 44.156 14.712H42.156ZM53.6586 21.192C54.8906 21.192 55.9946 20.728 56.8746 19.608L56.0586 18.968C55.6426 19.64 54.7786 20.264 53.6586 20.264C52.1226 20.264 50.9546 19.048 50.9226 17.544H57.1306C57.1466 17.352 57.1466 17.176 57.1466 17.032C57.1466 14.984 55.9146 13.32 53.5626 13.32C51.4346 13.32 49.7866 15 49.7866 17.256C49.7866 19.512 51.4346 21.192 53.6586 21.192ZM50.9386 16.68C51.0346 15.4 52.1066 14.232 53.5626 14.232C55.1146 14.232 55.9786 15.272 56.0426 16.68H50.9386ZM59.4869 24.84H60.5749V19.736H60.6229C61.2469 20.664 62.3669 21.192 63.4389 21.192C65.7749 21.192 67.3109 19.464 67.3109 17.256C67.3109 15.048 65.7749 13.32 63.4389 13.32C62.3669 13.32 61.2469 13.832 60.6229 14.808H60.5749V13.512H59.4869V24.84ZM63.3269 20.264C61.6469 20.264 60.4469 18.968 60.4469 17.256C60.4469 15.544 61.6469 14.232 63.3269 14.232C65.1349 14.232 66.1589 15.592 66.1589 17.256C66.1589 18.92 65.1349 20.264 63.3269 20.264ZM71.6751 21.192C72.8751 21.192 73.7071 20.776 74.3951 19.784H74.4271C74.4271 20.184 74.4751 20.632 74.5391 21H75.5151C75.4351 20.584 75.3871 19.896 75.3871 19.32V16.04C75.3871 14.216 74.0911 13.32 72.4751 13.32C71.1951 13.32 70.1391 13.784 69.5311 14.392L70.1391 15.112C70.6671 14.584 71.4831 14.232 72.3631 14.232C73.6591 14.232 74.3631 14.872 74.3631 16.168V16.408C71.6271 16.408 69.0831 16.616 69.0831 18.92C69.0831 20.584 70.5391 21.192 71.6751 21.192ZM71.9631 20.296C71.1151 20.296 70.2031 19.944 70.2031 18.872C70.2031 17.448 72.2671 17.256 74.0431 17.256H74.3631V17.816C74.3631 19.144 73.4991 20.296 71.9631 20.296ZM78.222 24.84C79.518 24.84 80.126 24.088 80.574 22.936L84.302 13.512H83.118L80.798 19.832H80.766L78.222 13.512H77.006L80.206 20.984L79.598 22.552C79.278 23.4 78.894 23.88 78.158 23.88C77.87 23.88 77.598 23.832 77.358 23.752L77.246 24.744C77.566 24.808 77.902 24.84 78.222 24.84ZM86.0025 21H87.0905V17.16C87.0905 15.16 88.2265 14.232 89.2665 14.232C90.7225 14.232 91.0745 15.176 91.0745 16.632V21H92.1625V17.016C92.1625 15.624 92.7225 14.232 94.2905 14.232C95.6985 14.232 96.2265 15.288 96.2265 16.856V21H97.3145V16.408C97.3145 14.552 96.3705 13.32 94.4665 13.32C93.2665 13.32 92.3545 13.88 91.8425 14.904C91.3465 13.624 90.3545 13.32 89.5385 13.32C88.4665 13.32 87.5065 13.928 87.0745 14.792H87.0425C87.0425 14.472 87.0105 13.912 86.9785 13.512H85.9385C85.9865 14.024 86.0025 14.76 86.0025 15.16V21ZM103.456 21.192C104.688 21.192 105.792 20.728 106.672 19.608L105.856 18.968C105.44 19.64 104.576 20.264 103.456 20.264C101.92 20.264 100.752 19.048 100.72 17.544H106.928C106.944 17.352 106.944 17.176 106.944 17.032C106.944 14.984 105.712 13.32 103.36 13.32C101.232 13.32 99.5835 15 99.5835 17.256C99.5835 19.512 101.232 21.192 103.456 21.192ZM100.736 16.68C100.832 15.4 101.904 14.232 103.36 14.232C104.912 14.232 105.776 15.272 105.84 16.68H100.736ZM109.284 21H110.372V17.16C110.372 15.16 111.492 14.232 112.644 14.232C114.212 14.232 114.676 15.288 114.676 16.856V21H115.764V16.408C115.764 14.552 114.82 13.32 112.916 13.32C111.86 13.32 110.772 13.928 110.356 14.792H110.324C110.324 14.472 110.292 13.912 110.26 13.512H109.22C109.268 14.024 109.284 14.76 109.284 15.16V21ZM120.677 21.096C121.173 21.096 121.573 21.016 121.957 20.872L121.909 19.928C121.621 20.072 121.269 20.168 120.965 20.168C120.309 20.168 119.845 19.912 119.845 18.792V14.424H121.957V13.512H119.845V11.4H118.757V13.512H117.205V14.424H118.757V19.096C118.757 20.744 119.877 21.096 120.677 21.096ZM125.787 21.192C127.163 21.192 128.603 20.584 128.603 18.872C128.603 17.704 127.771 17.048 126.011 16.68C124.779 16.424 124.219 16.104 124.219 15.4C124.219 14.568 125.019 14.232 125.803 14.232C126.635 14.232 127.323 14.664 127.643 15.288L128.475 14.664C127.995 13.816 126.891 13.32 125.851 13.32C124.491 13.32 123.179 13.976 123.179 15.496C123.179 16.92 124.443 17.304 125.323 17.512C126.747 17.848 127.531 18.168 127.531 18.952C127.531 19.928 126.699 20.264 125.771 20.264C124.891 20.264 124.075 19.752 123.691 19.096L122.827 19.736C123.515 20.744 124.651 21.192 125.787 21.192Z" fill="black"/>
<path d="M316.504 101H317.656V95.704H319.576L322.712 101H324.12L320.808 95.608C322.456 95.432 323.704 94.376 323.704 92.696C323.704 90.488 322.072 89.672 319.832 89.672H316.504V101ZM317.656 94.712V90.664H319.704C321.416 90.664 322.552 91.208 322.552 92.696C322.552 94.04 321.496 94.712 319.656 94.712H317.656ZM329.159 101.192C330.391 101.192 331.495 100.728 332.375 99.608L331.559 98.968C331.143 99.64 330.279 100.264 329.159 100.264C327.623 100.264 326.455 99.048 326.423 97.544H332.631C332.647 97.352 332.647 97.176 332.647 97.032C332.647 94.984 331.415 93.32 329.063 93.32C326.935 93.32 325.287 95 325.287 97.256C325.287 99.512 326.935 101.192 329.159 101.192ZM326.439 96.68C326.535 95.4 327.607 94.232 329.063 94.232C330.615 94.232 331.479 95.272 331.543 96.68H326.439ZM334.987 104.84H336.075V99.736H336.123C336.747 100.664 337.867 101.192 338.939 101.192C341.275 101.192 342.811 99.464 342.811 97.256C342.811 95.048 341.275 93.32 338.939 93.32C337.867 93.32 336.747 93.832 336.123 94.808H336.075V93.512H334.987V104.84ZM338.827 100.264C337.147 100.264 335.947 98.968 335.947 97.256C335.947 95.544 337.147 94.232 338.827 94.232C340.635 94.232 341.659 95.592 341.659 97.256C341.659 98.92 340.635 100.264 338.827 100.264ZM347.175 101.192C348.375 101.192 349.207 100.776 349.895 99.784H349.927C349.927 100.184 349.975 100.632 350.039 101H351.015C350.935 100.584 350.887 99.896 350.887 99.32V96.04C350.887 94.216 349.591 93.32 347.975 93.32C346.695 93.32 345.639 93.784 345.031 94.392L345.639 95.112C346.167 94.584 346.983 94.232 347.863 94.232C349.159 94.232 349.863 94.872 349.863 96.168V96.408C347.127 96.408 344.583 96.616 344.583 98.92C344.583 100.584 346.039 101.192 347.175 101.192ZM347.463 100.296C346.615 100.296 345.703 99.944 345.703 98.872C345.703 97.448 347.767 97.256 349.543 97.256H349.863V97.816C349.863 99.144 348.999 100.296 347.463 100.296ZM353.722 104.84C355.018 104.84 355.626 104.088 356.074 102.936L359.802 93.512H358.618L356.298 99.832H356.266L353.722 93.512H352.506L355.706 100.984L355.098 102.552C354.778 103.4 354.394 103.88 353.658 103.88C353.37 103.88 353.098 103.832 352.858 103.752L352.746 104.744C353.066 104.808 353.402 104.84 353.722 104.84ZM361.503 101H362.591V97.16C362.591 95.16 363.727 94.232 364.766 94.232C366.223 94.232 366.575 95.176 366.575 96.632V101H367.663V97.016C367.663 95.624 368.223 94.232 369.791 94.232C371.199 94.232 371.727 95.288 371.727 96.856V101H372.815V96.408C372.815 94.552 371.871 93.32 369.967 93.32C368.767 93.32 367.855 93.88 367.343 94.904C366.847 93.624 365.855 93.32 365.039 93.32C363.967 93.32 363.007 93.928 362.575 94.792H362.543C362.543 94.472 362.511 93.912 362.479 93.512H361.439C361.487 94.024 361.503 94.76 361.503 95.16V101ZM378.956 101.192C380.188 101.192 381.292 100.728 382.172 99.608L381.356 98.968C380.94 99.64 380.076 100.264 378.956 100.264C377.42 100.264 376.252 99.048 376.22 97.544H382.428C382.444 97.352 382.444 97.176 382.444 97.032C382.444 94.984 381.212 93.32 378.86 93.32C376.732 93.32 375.084 95 375.084 97.256C375.084 99.512 376.732 101.192 378.956 101.192ZM376.236 96.68C376.332 95.4 377.404 94.232 378.86 94.232C380.412 94.232 381.276 95.272 381.34 96.68H376.236ZM384.784 101H385.872V97.16C385.872 95.16 386.992 94.232 388.144 94.232C389.712 94.232 390.176 95.288 390.176 96.856V101H391.264V96.408C391.264 94.552 390.32 93.32 388.416 93.32C387.36 93.32 386.272 93.928 385.856 94.792H385.824C385.824 94.472 385.792 93.912 385.76 93.512H384.72C384.768 94.024 384.784 94.76 384.784 95.16V101ZM396.177 101.096C396.673 101.096 397.073 101.016 397.457 100.872L397.409 99.928C397.121 100.072 396.769 100.168 396.465 100.168C395.809 100.168 395.345 99.912 395.345 98.792V94.424H397.457V93.512H395.345V91.4H394.257V93.512H392.705V94.424H394.257V99.096C394.257 100.744 395.377 101.096 396.177 101.096ZM401.287 101.192C402.663 101.192 404.103 100.584 404.103 98.872C404.103 97.704 403.271 97.048 401.511 96.68C400.279 96.424 399.719 96.104 399.719 95.4C399.719 94.568 400.519 94.232 401.303 94.232C402.135 94.232 402.823 94.664 403.143 95.288L403.975 94.664C403.495 93.816 402.391 93.32 401.351 93.32C399.991 93.32 398.679 93.976 398.679 95.496C398.679 96.92 399.943 97.304 400.823 97.512C402.247 97.848 403.031 98.168 403.031 98.952C403.031 99.928 402.199 100.264 401.271 100.264C400.391 100.264 399.575 99.752 399.191 99.096L398.327 99.736C399.015 100.744 400.151 101.192 401.287 101.192ZM410.588 101H411.676V94.424H413.436V93.512H411.676V91.592C411.676 90.504 411.916 89.672 413.084 89.672C413.372 89.672 413.612 89.72 413.836 89.784L414.028 88.824C413.756 88.744 413.404 88.712 413.132 88.712C411.42 88.712 410.588 89.768 410.588 91.464V93.512H409.02V94.424H410.588V101ZM415.019 101H416.107V88.904H415.019V101ZM422.458 101.192C424.794 101.192 426.458 99.512 426.458 97.256C426.458 95 424.794 93.32 422.458 93.32C420.138 93.32 418.474 95 418.474 97.256C418.474 99.512 420.138 101.192 422.458 101.192ZM422.458 100.264C420.73 100.264 419.626 98.936 419.626 97.256C419.626 95.576 420.73 94.232 422.458 94.232C424.202 94.232 425.306 95.576 425.306 97.256C425.306 98.936 424.202 100.264 422.458 100.264ZM430.143 101H431.327L433.295 94.936H433.327L435.327 101H436.511L438.879 93.512H437.727L435.935 99.592H435.903L433.855 93.512H432.799L430.783 99.592H430.751L428.943 93.512H427.775L430.143 101ZM448.065 101.192C449.137 101.192 450.257 100.68 450.897 99.736H450.929V101H452.017V88.904H450.929V94.808H450.897C450.257 93.832 449.137 93.32 448.065 93.32C445.729 93.32 444.193 95.048 444.193 97.256C444.193 99.464 445.729 101.192 448.065 101.192ZM448.177 100.264C446.369 100.264 445.345 98.92 445.345 97.256C445.345 95.592 446.369 94.232 448.177 94.232C449.857 94.232 451.057 95.544 451.057 97.256C451.057 98.968 449.857 100.264 448.177 100.264ZM458.364 101.192C460.7 101.192 462.364 99.512 462.364 97.256C462.364 95 460.7 93.32 458.364 93.32C456.044 93.32 454.38 95 454.38 97.256C454.38 99.512 456.044 101.192 458.364 101.192ZM458.364 100.264C456.636 100.264 455.532 98.936 455.532 97.256C455.532 95.576 456.636 94.232 458.364 94.232C460.108 94.232 461.212 95.576 461.212 97.256C461.212 98.936 460.108 100.264 458.364 100.264ZM466.05 101H467.234L469.202 94.936H469.234L471.234 101H472.418L474.786 93.512H473.634L471.842 99.592H471.81L469.762 93.512H468.706L466.69 99.592H466.658L464.85 93.512H463.682L466.05 101ZM476.643 101H477.731V97.16C477.731 95.16 478.851 94.232 480.003 94.232C481.571 94.232 482.035 95.288 482.035 96.856V101H483.123V96.408C483.123 94.552 482.179 93.32 480.275 93.32C479.219 93.32 478.131 93.928 477.715 94.792H477.683C477.683 94.472 477.651 93.912 477.619 93.512H476.579C476.627 94.024 476.643 94.76 476.643 95.16V101ZM317 119.4C317.384 119.4 317.768 119.08 317.768 118.632C317.768 118.184 317.384 117.864 317 117.864C316.616 117.864 316.232 118.184 316.232 118.632C316.232 119.08 316.616 119.4 317 119.4ZM316.456 129H317.544V121.512H316.456V129ZM320.76 129H321.848V122.424H323.608V121.512H321.848V119.592C321.848 118.504 322.088 117.672 323.256 117.672C323.544 117.672 323.784 117.72 324.008 117.784L324.2 116.824C323.928 116.744 323.576 116.712 323.304 116.712C321.592 116.712 320.76 117.768 320.76 119.464V121.512H319.192V122.424H320.76V129ZM332.477 129.288C334.269 129.288 336.173 128.296 336.173 126.024C336.173 123.752 334.413 123.24 332.813 122.712C331.549 122.296 330.349 121.928 330.349 120.488C330.349 119.032 331.645 118.36 332.765 118.36C333.837 118.36 334.621 118.808 335.101 119.496L336.013 118.76C335.469 118.024 334.333 117.384 332.813 117.384C331.149 117.384 329.197 118.312 329.197 120.504C329.197 122.552 330.733 123.208 332.237 123.672C333.677 124.12 335.005 124.52 335.005 126.104C335.005 127.56 333.661 128.296 332.493 128.296C331.309 128.296 330.397 127.672 329.901 126.872L328.909 127.608C329.725 128.728 331.101 129.288 332.477 129.288ZM341.909 129.192C343.141 129.192 344.245 128.728 345.125 127.608L344.309 126.968C343.893 127.64 343.029 128.264 341.909 128.264C340.373 128.264 339.205 127.048 339.173 125.544H345.381C345.397 125.352 345.397 125.176 345.397 125.032C345.397 122.984 344.165 121.32 341.813 121.32C339.685 121.32 338.037 123 338.037 125.256C338.037 127.512 339.685 129.192 341.909 129.192ZM339.189 124.68C339.285 123.4 340.357 122.232 341.813 122.232C343.365 122.232 344.229 123.272 344.293 124.68H339.189ZM347.737 129H348.825V125.16C348.825 123.16 349.945 122.232 351.097 122.232C352.665 122.232 353.129 123.288 353.129 124.856V129H354.217V124.408C354.217 122.552 353.273 121.32 351.369 121.32C350.313 121.32 349.225 121.928 348.809 122.792H348.777C348.777 122.472 348.745 121.912 348.713 121.512H347.673C347.721 122.024 347.737 122.76 347.737 123.16V129ZM357.594 119.4C357.978 119.4 358.362 119.08 358.362 118.632C358.362 118.184 357.978 117.864 357.594 117.864C357.21 117.864 356.826 118.184 356.826 118.632C356.826 119.08 357.21 119.4 357.594 119.4ZM357.05 129H358.138V121.512H357.05V129ZM364.474 129.192C366.81 129.192 368.474 127.512 368.474 125.256C368.474 123 366.81 121.32 364.474 121.32C362.154 121.32 360.49 123 360.49 125.256C360.49 127.512 362.154 129.192 364.474 129.192ZM364.474 128.264C362.746 128.264 361.642 126.936 361.642 125.256C361.642 123.576 362.746 122.232 364.474 122.232C366.218 122.232 367.322 123.576 367.322 125.256C367.322 126.936 366.218 128.264 364.474 128.264ZM370.815 129H371.903V125.16C371.903 123.16 372.943 122.328 374.095 122.328C374.383 122.328 374.735 122.376 374.863 122.424L375.007 121.4C374.783 121.336 374.559 121.32 374.287 121.32C373.231 121.32 372.303 121.928 371.887 122.792H371.855C371.855 122.472 371.823 121.912 371.791 121.512H370.751C370.799 122.024 370.815 122.76 370.815 123.16V129ZM380.613 129H381.701V125.16C381.701 123.16 382.821 122.232 383.973 122.232C385.541 122.232 386.005 123.288 386.005 124.856V129H387.093V124.408C387.093 122.552 386.149 121.32 384.245 121.32C383.189 121.32 382.133 121.88 381.733 122.744H381.701V116.904H380.613V129ZM391.941 129.192C393.141 129.192 393.973 128.776 394.661 127.784H394.693C394.693 128.184 394.741 128.632 394.805 129H395.781C395.701 128.584 395.653 127.896 395.653 127.32V124.04C395.653 122.216 394.357 121.32 392.741 121.32C391.461 121.32 390.405 121.784 389.797 122.392L390.405 123.112C390.933 122.584 391.749 122.232 392.629 122.232C393.925 122.232 394.629 122.872 394.629 124.168V124.408C391.893 124.408 389.349 124.616 389.349 126.92C389.349 128.584 390.805 129.192 391.941 129.192ZM392.229 128.296C391.381 128.296 390.469 127.944 390.469 126.872C390.469 125.448 392.533 125.256 394.309 125.256H394.629V125.816C394.629 127.144 393.765 128.296 392.229 128.296ZM400.584 129.192C401.96 129.192 403.4 128.584 403.4 126.872C403.4 125.704 402.568 125.048 400.808 124.68C399.576 124.424 399.016 124.104 399.016 123.4C399.016 122.568 399.816 122.232 400.6 122.232C401.432 122.232 402.12 122.664 402.44 123.288L403.272 122.664C402.792 121.816 401.688 121.32 400.648 121.32C399.288 121.32 397.976 121.976 397.976 123.496C397.976 124.92 399.24 125.304 400.12 125.512C401.544 125.848 402.328 126.168 402.328 126.952C402.328 127.928 401.496 128.264 400.568 128.264C399.688 128.264 398.872 127.752 398.488 127.096L397.624 127.736C398.312 128.744 399.448 129.192 400.584 129.192ZM413.549 129.192C415.885 129.192 417.421 127.464 417.421 125.256C417.421 123.048 415.885 121.32 413.549 121.32C412.477 121.32 411.357 121.832 410.717 122.808H410.685V116.904H409.597V129H410.685V127.736H410.717C411.357 128.68 412.477 129.192 413.549 129.192ZM413.437 128.264C411.757 128.264 410.557 126.968 410.557 125.256C410.557 123.544 411.757 122.232 413.437 122.232C415.245 122.232 416.269 123.592 416.269 125.256C416.269 126.92 415.245 128.264 413.437 128.264ZM423.081 129.192C424.313 129.192 425.417 128.728 426.297 127.608L425.481 126.968C425.065 127.64 424.201 128.264 423.081 128.264C421.545 128.264 420.377 127.048 420.345 125.544H426.553C426.569 125.352 426.569 125.176 426.569 125.032C426.569 122.984 425.337 121.32 422.985 121.32C420.857 121.32 419.209 123 419.209 125.256C419.209 127.512 420.857 129.192 423.081 129.192ZM420.361 124.68C420.457 123.4 421.529 122.232 422.985 122.232C424.537 122.232 425.401 123.272 425.465 124.68H420.361ZM432.237 129.192C433.469 129.192 434.573 128.728 435.453 127.608L434.637 126.968C434.221 127.64 433.357 128.264 432.237 128.264C430.701 128.264 429.533 127.048 429.501 125.544H435.709C435.725 125.352 435.725 125.176 435.725 125.032C435.725 122.984 434.493 121.32 432.141 121.32C430.013 121.32 428.365 123 428.365 125.256C428.365 127.512 430.013 129.192 432.237 129.192ZM429.517 124.68C429.613 123.4 430.685 122.232 432.141 122.232C433.693 122.232 434.557 123.272 434.621 124.68H429.517ZM438.065 129H439.153V125.16C439.153 123.16 440.273 122.232 441.425 122.232C442.993 122.232 443.457 123.288 443.457 124.856V129H444.545V124.408C444.545 122.552 443.601 121.32 441.697 121.32C440.641 121.32 439.553 121.928 439.137 122.792H439.105C439.105 122.472 439.073 121.912 439.041 121.512H438.001C438.049 122.024 438.065 122.76 438.065 123.16V129ZM451.362 129H452.45V125.16C452.45 123.16 453.49 122.328 454.642 122.328C454.93 122.328 455.282 122.376 455.41 122.424L455.554 121.4C455.33 121.336 455.106 121.32 454.834 121.32C453.778 121.32 452.85 121.928 452.434 122.792H452.402C452.402 122.472 452.37 121.912 452.338 121.512H451.298C451.346 122.024 451.362 122.76 451.362 123.16V129ZM460.174 129.192C461.406 129.192 462.51 128.728 463.39 127.608L462.574 126.968C462.158 127.64 461.294 128.264 460.174 128.264C458.638 128.264 457.47 127.048 457.438 125.544H463.646C463.662 125.352 463.662 125.176 463.662 125.032C463.662 122.984 462.43 121.32 460.078 121.32C457.95 121.32 456.302 123 456.302 125.256C456.302 127.512 457.95 129.192 460.174 129.192ZM457.454 124.68C457.55 123.4 458.622 122.232 460.078 122.232C461.63 122.232 462.494 123.272 462.558 124.68H457.454ZM466.003 132.84H467.091V127.736H467.139C467.763 128.664 468.883 129.192 469.955 129.192C472.291 129.192 473.827 127.464 473.827 125.256C473.827 123.048 472.291 121.32 469.955 121.32C468.883 121.32 467.763 121.832 467.139 122.808H467.091V121.512H466.003V132.84ZM469.843 128.264C468.163 128.264 466.963 126.968 466.963 125.256C466.963 123.544 468.163 122.232 469.843 122.232C471.651 122.232 472.675 123.592 472.675 125.256C472.675 126.92 471.651 128.264 469.843 128.264ZM478.191 129.192C479.391 129.192 480.223 128.776 480.911 127.784H480.943C480.943 128.184 480.991 128.632 481.055 129H482.031C481.951 128.584 481.903 127.896 481.903 127.32V124.04C481.903 122.216 480.607 121.32 478.991 121.32C477.711 121.32 476.655 121.784 476.047 122.392L476.655 123.112C477.183 122.584 477.999 122.232 478.879 122.232C480.175 122.232 480.879 122.872 480.879 124.168V124.408C478.143 124.408 475.599 124.616 475.599 126.92C475.599 128.584 477.055 129.192 478.191 129.192ZM478.479 128.296C477.631 128.296 476.719 127.944 476.719 126.872C476.719 125.448 478.783 125.256 480.559 125.256H480.879V125.816C480.879 127.144 480.015 128.296 478.479 128.296ZM485.266 119.4C485.65 119.4 486.034 119.08 486.034 118.632C486.034 118.184 485.65 117.864 485.266 117.864C484.882 117.864 484.498 118.184 484.498 118.632C484.498 119.08 484.882 119.4 485.266 119.4ZM484.722 129H485.81V121.512H484.722V129ZM492.034 129.192C493.106 129.192 494.226 128.68 494.866 127.736H494.898V129H495.986V116.904H494.898V122.808H494.866C494.226 121.832 493.106 121.32 492.034 121.32C489.698 121.32 488.162 123.048 488.162 125.256C488.162 127.464 489.698 129.192 492.034 129.192ZM492.146 128.264C490.338 128.264 489.314 126.92 489.314 125.256C489.314 123.592 490.338 122.232 492.146 122.232C493.826 122.232 495.026 123.544 495.026 125.256C495.026 126.968 493.826 128.264 492.146 128.264Z" fill="black"/>
</svg>
