<?xml version="1.0" encoding="utf-8"?>
<!-- Generator: Adobe Illustrator 18.0.0, SVG Export Plug-In . SVG Version: 6.00 Build 0)  -->
<!DOCTYPE svg PUBLIC "-//W3C//DTD SVG 1.1//EN" "http://www.w3.org/Graphics/SVG/1.1/DTD/svg11.dtd">
<svg version="1.1" id="Слой_1" xmlns="http://www.w3.org/2000/svg" xmlns:xlink="http://www.w3.org/1999/xlink" x="0px" y="0px"
	 viewBox="-0.1 215.6 585.8 570.4" enable-background="new -0.1 215.6 585.8 570.4" xml:space="preserve">
<g id="Слой_1_1_">
	<g fill="white">
		<path d="M68.5,669.9c-17.5-37.4-27-78.9-27-122.8c0-160.4,129.9-290.3,290.3-290.3c89.2,0,169.2,40.2,222.3,103.7l31.6-26.6
			c-60.9-72.2-152.2-118.3-254.3-118.3c-183,0-331.5,148.5-331.5,331.5c0,50.1,11.1,97.8,31,140.2L68.5,669.9z"/>
		<path d="M331.4,744.2c-108.8,0-197-88.2-197-197s88.2-197,197-197c60.6,0,114.8,27.3,150.9,70.4L514,394
			C470.1,341.9,404.6,309,331.4,309C199.6,309,92.9,415.7,92.9,547.5S199.6,786,331.4,786L331.4,744.2L331.4,744.2z"/>
		<path d="M402.8,607.3c-17,20.4-42.8,33.2-71.4,33.2c-51.5,0-93.3-41.8-93.3-93.3s41.8-93.3,93.3-93.3c28.6,0,54.4,12.9,71.4,33.2
			l35.8-29.9c-25.8-30.7-64.2-50.1-107.3-50.1c-77.3,0-140.1,62.6-140.1,140.1s62.6,140.1,140.1,140.1c39.4,0,75.1-16.2,100.5-42.6
			L402.8,607.3z"/>
	</g>
</g>
<g id="Слой_2">
</g>
</svg>
