<svg width="172" height="166" viewBox="0 0 172 166" fill="none" xmlns="http://www.w3.org/2000/svg">
<mask id="mask0_12145_11750" style="mask-type:luminance" maskUnits="userSpaceOnUse" x="0" y="0" width="172" height="138">
<path fill-rule="evenodd" clip-rule="evenodd" d="M0.849976 0H171.232V137.258H0.849976V0Z" fill="white"/>
</mask>
<g mask="url(#mask0_12145_11750)">
<path fill-rule="evenodd" clip-rule="evenodd" d="M20.8005 132.161C15.7375 121.322 12.9094 109.229 12.9094 96.4761C12.9094 49.854 50.704 12.0596 97.326 12.0596C123.286 12.0596 146.508 23.7784 161.993 42.2136L171.232 34.4619C153.534 13.3929 126.995 0 97.326 0C44.0438 0 0.849976 43.1938 0.849976 96.4761C0.849976 111.051 4.08191 124.871 9.86835 137.258L20.8005 132.161Z" fill="#1F262F"/>
</g>
<path fill-rule="evenodd" clip-rule="evenodd" d="M97.3261 153.759C65.6898 153.759 40.0435 128.112 40.0435 96.4761C40.0435 64.8398 65.6898 39.1933 97.3261 39.1933C114.942 39.1933 130.697 47.1475 141.205 59.6571L150.446 51.9034C137.726 36.7602 118.65 27.1339 97.3261 27.1339C59.0294 27.1339 27.9839 58.1794 27.9839 96.4761C27.9839 134.773 59.0294 165.818 97.3261 165.818V153.759Z" fill="#1F262F"/>
<path fill-rule="evenodd" clip-rule="evenodd" d="M118.111 113.917C113.133 119.842 105.67 123.61 97.3259 123.61C82.3404 123.61 70.1921 111.462 70.1921 96.476C70.1921 81.4904 82.3404 69.3421 97.3259 69.3421C105.67 69.3421 113.133 73.1099 118.111 79.0355L128.503 70.3152C121.037 61.4268 109.842 55.7751 97.3259 55.7751C74.8475 55.7751 56.6251 73.9975 56.6251 96.476C56.6251 118.954 74.8475 137.177 97.3259 137.177C108.797 137.177 119.155 132.428 126.553 124.793L118.111 113.917Z" fill="#1F262F"/>
</svg>
