<?xml version="1.0" encoding="UTF-8" standalone="no"?>
<!DOCTYPE svg PUBLIC "-//W3C//DTD SVG 1.1//EN" "http://www.w3.org/Graphics/SVG/1.1/DTD/svg11.dtd">
<svg width="100%" height="100%" viewBox="0 0 100 100" version="1.1" xmlns="http://www.w3.org/2000/svg" xmlns:xlink="http://www.w3.org/1999/xlink" xml:space="preserve" xmlns:serif="http://www.serif.com/" style="fill-rule:evenodd;clip-rule:evenodd;stroke-linejoin:round;stroke-miterlimit:1.41421;">
    <g transform="matrix(0.825593,0,0,0.825593,8.72033,8.76161)">
        <path d="M90.5,18.6C90.5,18.5 90.4,18.5 90.4,18.4C90.4,18.4 90.4,18.3 90.3,18.3C90.2,18.2 90.1,18.2 90.1,18.1L90,18.1L78.4,13.5L78.4,13.4C78.4,12.6 78,11 75,9.8C72.6,8.8 69.4,8.5 66.4,8.7L60.5,6.3C60.5,5.5 60.1,3.9 57.1,2.7C53.2,1.1 47,1.1 43.1,2.7C40.2,3.9 39.7,5.5 39.7,6.3L33.8,8.7C30.8,8.5 27.6,8.9 25.2,9.8C22.3,11 21.8,12.6 21.8,13.4L21.8,13.5L10.1,18.2L10,18.2C9.9,18.2 9.8,18.3 9.8,18.4C9.8,18.4 9.8,18.5 9.7,18.5C9.6,18.6 9.6,18.6 9.6,18.7L9.6,18.8C9.6,18.9 9.5,19 9.5,19.1L9.5,33.7C9.5,34.1 9.7,34.5 10.1,34.6L28.9,42.1C27.5,42.3 26.2,42.6 25.1,43C22.2,44.2 21.7,45.8 21.7,46.6L21.7,46.7L10,51.4L9.9,51.4C9.8,51.4 9.7,51.5 9.7,51.6L9.6,51.7C9.5,51.8 9.5,51.8 9.5,51.9L9.5,52C9.5,52.1 9.4,52.2 9.4,52.3L9.4,81.6C9.4,82 9.6,82.4 10,82.5L49.6,98.3C49.7,98.3 49.8,98.4 50,98.4C50.2,98.4 50.3,98.4 50.4,98.3L90,82.5C90.4,82.3 90.6,82 90.6,81.6L90.6,67L90.6,52.4C90.6,52.3 90.6,52.2 90.5,52.1L90.5,52C90.5,51.9 90.4,51.9 90.4,51.8C90.4,51.8 90.4,51.7 90.3,51.7C90.2,51.6 90.2,51.6 90.1,51.5L90,51.5L78.4,46.9L78.4,46.8C78.4,46 78,44.4 75,43.2C73.9,42.7 72.6,42.4 71.2,42.3L90,34.8C90.4,34.6 90.6,34.3 90.6,33.9L90.6,19.1C90.6,19 90.5,18.8 90.5,18.6C90.5,18.7 90.5,18.7 90.5,18.6ZM60.4,8.5L62.5,9.3C62,9.4 61.5,9.6 61,9.8C60.8,9.9 60.6,10 60.5,10L60.5,8.5L60.4,8.5ZM61.7,11.7C65.1,10.3 70.8,10.3 74.2,11.7C75.8,12.3 76.3,13 76.3,13.4C76.3,13.8 75.7,14.5 74.2,15.1C70.8,16.5 65.1,16.5 61.7,15.1C60.1,14.5 59.6,13.8 59.6,13.4C59.6,13 60.1,12.3 61.7,11.7ZM59.6,16.3C60,16.5 60.4,16.8 61,17C63,17.8 65.5,18.2 68,18.2C70.5,18.2 73,17.8 75,17C75.5,16.8 76,16.6 76.4,16.3L76.4,19.1C76.4,19.5 75.8,20.2 74.3,20.8C70.9,22.2 65.2,22.2 61.8,20.8C61.2,20.6 60.8,20.3 60.5,20.1C60.4,19.7 60.2,19.1 59.7,18.6L59.7,16.3L59.6,16.3ZM43.7,4.6C45.4,3.9 47.7,3.6 50,3.6C52.3,3.6 54.6,3.9 56.3,4.6C57.9,5.2 58.4,5.9 58.4,6.3C58.4,6.7 57.8,7.4 56.3,8C52.9,9.4 47.2,9.4 43.8,8C42.2,7.4 41.7,6.7 41.7,6.3C41.6,5.9 42.2,5.2 43.7,4.6ZM41.6,9.2C42,9.5 42.4,9.7 43,9.9C45,10.7 47.5,11.1 50,11.1C52.5,11.1 55,10.7 57,9.9C57.5,9.7 58,9.5 58.4,9.2L58.4,11.4C57.9,12 57.7,12.6 57.6,13C57.3,13.2 56.9,13.5 56.3,13.7C52.9,15.1 47.2,15.1 43.8,13.7C43.3,13.5 42.9,13.3 42.6,13.1C42.5,12.6 42.3,12 41.7,11.4L41.7,9.2L41.6,9.2ZM43.7,18.8C45.4,18.1 47.7,17.8 50,17.8C52.3,17.8 54.6,18.1 56.3,18.8C57.9,19.4 58.4,20.1 58.4,20.5C58.4,20.9 57.8,21.6 56.3,22.2C52.9,23.6 47.2,23.6 43.8,22.2C42.2,21.6 41.7,20.9 41.7,20.5C41.6,20.1 42.2,19.4 43.7,18.8ZM42.5,17.2L42.5,15.4C42.7,15.5 42.8,15.5 43,15.6C43.7,15.9 44.5,16.1 45.4,16.3C44.6,16.5 43.7,16.7 43,17C42.8,17 42.7,17.1 42.5,17.2ZM54.6,16.3C55.4,16.1 56.3,15.9 57,15.6C57.2,15.5 57.4,15.4 57.5,15.4L57.5,17.3C57.4,17.1 57.2,17 57,17C56.3,16.7 55.5,16.5 54.6,16.3ZM41.6,23.5C42,23.7 42.4,24 43,24.2C45,25 47.5,25.4 50,25.4C52.5,25.4 55,25 57,24.2C57.5,24 58,23.8 58.4,23.5L58.4,26.3C58.4,26.7 57.8,27.4 56.3,28C52.9,29.4 47.2,29.4 43.8,28C42.3,27.4 41.7,26.7 41.7,26.3L41.7,26.2L41.7,23.5L41.6,23.5ZM39.6,8.5L39.6,10C39.4,9.9 39.3,9.9 39.1,9.8C38.6,9.6 38.1,9.4 37.5,9.3L39.6,8.5ZM25.9,11.7C27.6,11 29.9,10.7 32.2,10.7C34.5,10.7 36.8,11 38.5,11.7C40.1,12.3 40.6,13 40.6,13.4C40.6,13.8 40,14.5 38.5,15.1C35.1,16.5 29.4,16.5 26,15.1C24.4,14.5 23.9,13.8 23.9,13.4C23.7,13 24.3,12.3 25.9,11.7ZM23.7,16.3C24.1,16.5 24.5,16.8 25.1,17C27.1,17.8 29.6,18.2 32.1,18.2C34.6,18.2 37.1,17.8 39.1,17C39.6,16.8 40.1,16.6 40.5,16.3L40.5,18.5C39.9,19.1 39.7,19.7 39.6,20.1C39.3,20.3 38.9,20.5 38.3,20.7C34.9,22.1 29.2,22.1 25.8,20.7C24.2,20.1 23.7,19.4 23.7,19L23.7,18.9L23.7,16.3ZM21.7,15.6L21.7,19.2C21.7,20 22.3,21.5 25.1,22.6C27.1,23.4 29.6,23.8 32.1,23.8C34.6,23.8 37.1,23.4 39.1,22.6C39.3,22.5 39.4,22.5 39.6,22.4L39.6,26.3C39.7,27.1 40.2,28.6 43,29.7C45,30.5 47.5,30.9 50,30.9C52.5,30.9 55,30.5 57,29.7C59.8,28.6 60.3,27.1 60.4,26.3L60.4,26.2L60.4,22.4C60.6,22.5 60.7,22.6 60.9,22.6C62.9,23.4 65.4,23.8 67.9,23.8C70.4,23.8 72.9,23.4 74.9,22.6C77.7,21.5 78.2,20 78.3,19.2L78.3,19.1L78.3,15.7L86.9,19.1L50,33.8L13.1,19.1L21.7,15.6ZM56.3,52.1C57.9,52.7 58.4,53.4 58.4,53.8C58.4,54.2 57.8,54.9 56.3,55.5C52.9,56.9 47.2,56.9 43.8,55.5C42.2,54.9 41.7,54.2 41.7,53.8C41.7,53.4 42.3,52.7 43.8,52.1C45.5,51.4 47.8,51.1 50.1,51.1C52.3,51.1 54.6,51.4 56.3,52.1ZM54.6,49.6C55.4,49.4 56.3,49.2 57,48.9C57.2,48.8 57.4,48.7 57.5,48.7L57.5,50.6C57.3,50.5 57.2,50.4 57,50.4C56.3,50 55.5,49.8 54.6,49.6ZM50,58.6C52.5,58.6 55,58.2 57,57.4C57.5,57.2 58,57 58.4,56.7L58.4,59.5C58.4,59.9 57.8,60.6 56.3,61.2C52.9,62.6 47.2,62.6 43.8,61.2C42.3,60.6 41.7,59.9 41.7,59.5L41.7,59.4L41.7,56.7C42.1,56.9 42.5,57.2 43.1,57.4C45,58.2 47.5,58.6 50,58.6ZM42.5,50.5L42.5,48.7C42.7,48.8 42.8,48.8 43,48.9C43.7,49.2 44.5,49.4 45.4,49.6C44.6,49.8 43.8,50 43,50.3C42.8,50.3 42.7,50.4 42.5,50.5ZM11.4,33L11.4,20.6L49,35.6L49,48.1L11.4,33ZM25.9,45C27.6,44.3 29.9,44 32.2,44C32.7,44 33.1,44 33.6,44.1L40.6,46.9C40.5,47.3 39.9,47.9 38.5,48.5C35.1,49.9 29.4,49.9 26,48.5C24.4,47.9 23.9,47.2 23.9,46.8C23.7,46.3 24.3,45.6 25.9,45ZM23.7,49.6C24.1,49.8 24.5,50.1 25.1,50.3C27.1,51.1 29.6,51.5 32.1,51.5C34.6,51.5 37.1,51.1 39.1,50.3C39.6,50.1 40.1,49.9 40.5,49.6L40.5,51.8C39.9,52.4 39.7,53 39.6,53.4C39.3,53.6 38.9,53.8 38.3,54C34.9,55.4 29.2,55.4 25.8,54C24.2,53.4 23.7,52.7 23.7,52.3L23.7,52.2L23.7,49.6ZM49,96L11.4,81L11.4,68.5L49,83.5L49,96ZM49,81.4L11.4,66.4L11.4,53.9L49,68.9L49,81.4ZM88.6,80.9L51,96L51,83.5L88.6,68.5L88.6,80.9ZM88.6,66.3L51,81.4L51,68.9L88.6,53.9L88.6,66.3ZM78.3,52.5L78.3,52.4L78.3,49L86.9,52.4L50,67.1L13.1,52.4L21.7,49L21.7,52.6C21.7,53.4 22.3,54.9 25.1,56C27.1,56.8 29.6,57.2 32.1,57.2C34.6,57.2 37.1,56.8 39.1,56C39.3,55.9 39.4,55.9 39.6,55.8L39.6,59.7C39.7,60.5 40.2,62 43,63.1C45,63.9 47.5,64.3 50,64.3C52.5,64.3 55,63.9 57,63.1C59.8,62 60.3,60.5 60.4,59.7L60.4,59.6L60.4,55.8C60.6,55.9 60.7,56 60.9,56C62.9,56.8 65.4,57.2 67.9,57.2C70.4,57.2 72.9,56.8 74.9,56C77.7,54.9 78.3,53.4 78.3,52.5ZM76.3,52.3C76.3,52.3 76.3,52.4 76.3,52.3C76.3,52.8 75.7,53.5 74.2,54.1C70.8,55.5 65.1,55.5 61.7,54.1C61.1,53.9 60.7,53.6 60.4,53.4C60.3,53 60.1,52.4 59.6,51.9L59.6,49.6C60,49.8 60.4,50.1 61,50.3C63,51.1 65.5,51.5 68,51.5C70.5,51.5 73,51.1 75,50.3C75.5,50.1 76,49.9 76.4,49.6L76.4,52.3L76.3,52.3ZM74.2,45C75.8,45.6 76.3,46.3 76.3,46.7C76.3,47.1 75.7,47.8 74.2,48.4C70.8,49.8 65.1,49.8 61.7,48.4C60.2,47.8 59.7,47.2 59.6,46.8L66.6,44C67.1,44 67.5,43.9 68,43.9C70.2,43.9 72.5,44.3 74.2,45ZM88.6,33L51,48.1L51,35.6L88.6,20.6L88.6,33Z" style="fill-rule:nonzero;"/>
    </g>
</svg>
