<?xml version="1.0" encoding="UTF-8" standalone="no"?><!DOCTYPE svg PUBLIC "-//W3C//DTD SVG 1.1//EN"
        "http://www.w3.org/Graphics/SVG/1.1/DTD/svg11.dtd">
<svg width="100%" height="100%" viewBox="0 0 87 84" version="1.1" xmlns="http://www.w3.org/2000/svg" xmlns:xlink="http://www.w3.org/1999/xlink" xml:space="preserve" xmlns:serif="http://www.serif.com/" style="fill-rule:evenodd;clip-rule:evenodd;stroke-linejoin:round;stroke-miterlimit:1.41421;"><g id="Ebene-2" serif:id="Ebene 2"><path d="M63.8,34.714c-3.938,-4.043 -9.519,-6.457 -14.927,-6.457c-11.281,0 -20.457,9.178 -20.457,20.458c0,11.281 9.176,20.459 20.457,20.459c5.11,0 10.013,-1.912 13.803,-5.384l1.065,-0.975l-4.038,-5.204l-1.257,1.193c-2.6,2.469 -6,3.829 -9.573,3.829c-7.674,0 -13.916,-6.244 -13.916,-13.918c0,-7.673 6.242,-13.916 13.916,-13.916c3.789,0 7.33,1.494 9.973,4.208l0.893,0.917l5.105,-4.139l-1.044,-1.071Z" style="fill:#ffffff;fill-rule:nonzero;"/><path d="M52.032,14.056c-19.118,-1.763 -36.106,12.356 -37.87,31.475c-1.763,19.118 12.356,36.111 31.474,37.874c0.817,0.075 1.629,0.112 2.441,0.13l0.29,-6.27c-0.716,-0.012 -1.434,-0.043 -2.153,-0.109c-15.672,-1.446 -27.248,-15.373 -25.802,-31.049c1.445,-15.671 15.373,-27.247 31.044,-25.802c7.732,0.713 14.682,4.428 19.57,10.465l4.864,-3.944c-5.956,-7.066 -14.662,-11.922 -23.858,-12.77" style="fill:#ffffff;fill-rule:nonzero;"/><path d="M77.376,9.21c-21.836,-15.751 -52.416,-10.8 -68.167,11.037c-10.238,14.194 -12.082,32.911 -4.817,48.858l5.711,-2.605c-6.335,-13.894 -4.726,-30.212 4.197,-42.582c13.725,-19.029 40.376,-23.344 59.404,-9.618c3.039,2.191 5.731,4.768 8.058,7.624l1.121,-0.77l3.784,-3.069c-2.684,-3.345 -5.792,-6.352 -9.291,-8.875" style="fill:#ffffff;fill-rule:nonzero;"/></g></svg>