<?xml version="1.0" encoding="UTF-8" standalone="no"?><!DOCTYPE svg PUBLIC "-//W3C//DTD SVG 1.1//EN" "http://www.w3.org/Graphics/SVG/1.1/DTD/svg11.dtd"><svg width="100%" height="100%" viewBox="0 0 500 500" version="1.1" xmlns="http://www.w3.org/2000/svg" xmlns:xlink="http://www.w3.org/1999/xlink" xml:space="preserve" xmlns:serif="http://www.serif.com/" style="fill-rule:evenodd;clip-rule:evenodd;stroke-linejoin:round;stroke-miterlimit:1.41421;"><g><path d="M56.636,201.327l0,33.098c0,5.232 -4.325,9.487 -9.643,9.487l-25.056,0c-5.318,0 -9.643,-4.259 -9.643,-9.491l0,-33.094l-12.382,0l0,33.098c0,6.112 2.602,11.632 6.752,15.575c-4.299,4.043 -6.743,9.681 -6.752,15.575l0,33.098l12.382,0l0,-33.098c0,-5.232 4.325,-9.483 9.643,-9.483l25.052,0c5.322,0 9.647,4.255 9.647,9.487l0,33.094l12.382,0l0,-33.098c0,-6.108 -2.602,-11.628 -6.752,-15.575c4.298,-4.043 6.742,-9.681 6.752,-15.575l0,-33.098l-12.382,0Zm79.784,-4.056l-25.044,0c-12.155,0 -22.033,9.572 -22.033,21.343l0,58.716c0,11.771 9.878,21.343 22.028,21.343l25.049,0c12.151,0 22.029,-9.572 22.029,-21.343l0,-58.716c0,-11.771 -9.878,-21.343 -22.029,-21.343Zm9.647,80.059c0,5.151 -4.33,9.345 -9.647,9.345l-25.044,0c-5.318,0 -9.647,-4.19 -9.647,-9.345l0,-58.716c0,-5.151 4.329,-9.345 9.647,-9.345l25.048,0c5.317,0 9.647,4.194 9.647,9.345l0,58.716l-0.004,0Zm161.089,-80.059l-25.057,0c-12.142,0 -22.024,9.572 -22.024,21.343l0,58.716c0,11.771 9.878,21.343 22.024,21.343l25.057,0c12.142,0 22.024,-9.572 22.024,-21.343l0,-58.716c0,-11.771 -9.878,-21.343 -22.024,-21.343Zm9.638,80.059c0,5.151 -4.321,9.345 -9.638,9.345l-25.057,0c-5.317,0 -9.638,-4.19 -9.638,-9.345l0,-58.716c0,-5.151 4.321,-9.345 9.638,-9.345l25.057,0c5.317,0 9.638,4.194 9.638,9.345l0,58.716Zm161.09,-80.059l-25.049,0c-12.15,0 -22.029,9.572 -22.029,21.343l0,58.716c0,11.771 9.879,21.343 22.029,21.343l25.049,0c12.146,0 22.028,-9.572 22.028,-21.343l0,-58.716c0,-11.771 -9.882,-21.343 -22.032,-21.343l0.004,0Zm9.646,80.059c0,5.151 -4.329,9.345 -9.646,9.345l-25.049,0c-5.317,0 -9.646,-4.19 -9.646,-9.345l0,-58.716c0,-5.151 4.329,-9.345 9.646,-9.345l25.049,0c5.317,0 9.646,4.194 9.646,9.345l0,58.716Zm-95.016,-80.059l-47.073,0l0,101.402l47.077,0c12.15,0 22.028,-9.572 22.028,-21.343l0,-58.716c0,-11.771 -9.878,-21.343 -22.028,-21.343l-0.004,0Zm9.642,80.059c0,5.151 -4.321,9.345 -9.642,9.345l-34.691,0l0,-77.406l34.691,0c5.321,0 9.642,4.194 9.642,9.345l0,58.716Zm-196.537,-26.446l0,-0.012l-5.573,0c-5.134,0 -9.313,-4.255 -9.313,-9.487l0,-40.058l-11.959,0l0,97.346l11.959,0l0,-37.839c2.887,1.453 6.075,2.213 9.309,2.219l4.46,0c2.536,0 4.601,0.064 6.374,0.308c6.394,0.876 8.918,4.137 15.447,15.51c0.841,1.46 1.748,3.059 2.735,4.799c2.811,4.989 5.678,9.946 8.602,14.869l5.11,-3.159l5.11,-3.164c-3.358,-5.634 -6.074,-10.416 -8.468,-14.643c-10.813,-19.051 -15,-26.405 -33.788,-26.689l-0.005,0Z" style="fill-rule:nonzero;"/><path d="M-0.088,310.841l69.106,0l0,4.056l-69.106,0l0,-4.056Zm178.862,-125.738l69.106,0l0,4.056l-69.106,0l0,-4.056Z" style="fill:#c98a29;fill-rule:nonzero;"/><path d="M243.815,208.944l-10.521,-3.561l-13.87,34.42c4.289,0.625 7.574,1.866 10.415,3.825l13.976,-34.684Z" style="fill-rule:nonzero;"/></g></svg>