<?xml version="1.0" encoding="UTF-8" standalone="no"?><!DOCTYPE svg PUBLIC "-//W3C//DTD SVG 1.1//EN" "http://www.w3.org/Graphics/SVG/1.1/DTD/svg11.dtd"><svg width="100%" height="100%" viewBox="0 0 100 100" version="1.1" xmlns="http://www.w3.org/2000/svg" xmlns:xlink="http://www.w3.org/1999/xlink" xml:space="preserve" xmlns:serif="http://www.serif.com/" style="fill-rule:evenodd;clip-rule:evenodd;stroke-linejoin:round;stroke-miterlimit:1.41421;"><g><g><path d="M86,10l-32,0c-2.194,0 -4,1.806 -4,4l0,24c0,2.194 1.806,4 4,4l10.147,0l-2.08,6.24c-0.134,0.406 -0.065,0.853 0.186,1.2c0.249,0.349 0.652,0.558 1.08,0.56l13.334,0c0.428,-0.002 0.831,-0.211 1.08,-0.56c0.251,-0.347 0.32,-0.794 0.186,-1.2l-2.08,-6.24l10.147,0c2.194,0 4,-1.806 4,-4l0,-24c0,-2.194 -1.806,-4 -4,-4Zm-32,2.667l32,0c0.731,0 1.333,0.602 1.333,1.333l0,17.333l-34.666,0l0,-17.333c0,-0.731 0.602,-1.333 1.333,-1.333Zm20.813,34.666l-9.626,0l1.773,-5.333l6.08,0l1.773,5.333Zm11.187,-8l-32,0c-0.731,0 -1.333,-0.602 -1.333,-1.333l0,-4l34.666,0l0,4c0,0.731 -0.602,1.333 -1.333,1.333Z" style="fill-rule:nonzero;"/><rect x="68.667" y="52.667" width="2.667" height="2.667"/><rect x="68.667" y="58" width="2.667" height="2.667"/><rect x="68.667" y="63.333" width="2.667" height="2.667"/><rect x="68.667" y="68.667" width="2.667" height="2.667"/><rect x="63.333" y="68.667" width="2.667" height="2.667"/><rect x="58" y="68.667" width="2.667" height="2.667"/><rect x="52.667" y="68.667" width="2.667" height="2.667"/><rect x="28.667" y="44.667" width="2.667" height="2.667"/><rect x="28.667" y="39.333" width="2.667" height="2.667"/><rect x="28.667" y="34" width="2.667" height="2.667"/><rect x="28.667" y="28.667" width="2.667" height="2.667"/><rect x="34" y="28.667" width="2.667" height="2.667"/><rect x="39.333" y="28.667" width="2.667" height="2.667"/><rect x="44.667" y="28.667" width="2.667" height="2.667"/><path d="M14,82l10.147,0l-2.08,6.24c-0.134,0.406 -0.065,0.853 0.186,1.2c0.249,0.349 0.652,0.558 1.08,0.56l13.334,0c0.428,-0.002 0.831,-0.211 1.08,-0.56c0.251,-0.347 0.32,-0.794 0.186,-1.2l-2.08,-6.24l10.147,0c2.194,0 4,-1.806 4,-4l0,-24c0,-2.194 -1.806,-4 -4,-4l-32,0c-2.194,0 -4,1.806 -4,4l0,24c0,2.194 1.806,4 4,4Zm20.813,5.333l-9.626,0l1.773,-5.333l6.08,0l1.773,5.333Zm11.187,-8l-32,0c-0.731,0 -1.333,-0.602 -1.333,-1.333l0,-4l34.666,0l0,4c0,0.731 -0.602,1.333 -1.333,1.333Zm-32,-26.666l32,0c0.731,0 1.333,0.602 1.333,1.333l0,17.333l-34.666,0l0,-17.333c0,-0.731 0.602,-1.333 1.333,-1.333Z" style="fill-rule:nonzero;"/></g></g></svg>