<?xml version="1.0" encoding="UTF-8" standalone="no"?>
<!DOCTYPE svg PUBLIC "-//W3C//DTD SVG 1.1//EN" "http://www.w3.org/Graphics/SVG/1.1/DTD/svg11.dtd">
<svg width="100%" height="100%" viewBox="0 0 100 100" version="1.1" xmlns="http://www.w3.org/2000/svg" xmlns:xlink="http://www.w3.org/1999/xlink" xml:space="preserve" xmlns:serif="http://www.serif.com/" style="fill-rule:evenodd;clip-rule:evenodd;stroke-linejoin:round;stroke-miterlimit:1.41421;">
    <g transform="matrix(0.625,0,0,0.625,10,10)">
        <path d="M43.28,107.6C42.663,103.072 38.754,99.66 34.184,99.66C31.583,99.66 29.1,100.766 27.36,102.7C24.333,101.398 20.98,101.049 17.75,101.7C16.599,99.994 14.976,98.66 13.08,97.86C13.644,96.451 13.933,94.947 13.93,93.43C13.897,86.906 8.524,81.555 2,81.55C0.903,81.55 0,82.453 0,83.55C0,84.647 0.903,85.55 2,85.55C6.348,85.555 9.925,89.132 9.93,93.48C9.926,95.099 9.423,96.677 8.49,98C8.255,98.336 8.129,98.737 8.129,99.147C8.129,100.147 8.878,101.001 9.87,101.13C12.087,101.426 14.001,102.845 14.93,104.88C15.33,105.742 15.587,106.665 15.69,107.61C15.69,108.707 16.593,109.61 17.69,109.61C18.787,109.61 19.69,108.707 19.69,107.61C19.674,106.903 19.569,106.201 19.38,105.52C22.013,105.172 24.689,105.692 27,107C27.945,107.534 29.161,107.207 29.71,106.27C30.628,104.675 32.334,103.688 34.174,103.688C36.374,103.688 38.342,105.097 39.05,107.18C37.673,107.253 36.334,107.65 35.14,108.34C34.584,108.711 34.249,109.336 34.249,110.004C34.249,111.101 35.152,112.004 36.249,112.004C36.605,112.004 36.953,111.91 37.26,111.73C38.449,111.201 39.761,111.014 41.05,111.19C44.058,111.796 46.242,114.464 46.242,117.532C46.242,121.014 43.431,123.904 39.95,124C38.853,124 37.95,124.903 37.95,126C37.95,127.097 38.853,128 39.95,128C39.954,128 39.957,128 39.961,128C45.705,128 50.431,123.274 50.431,117.53C50.431,113.038 47.54,109.024 43.28,107.6Z" style="fill-rule:nonzero;"/>
    </g>
    <g transform="matrix(0.625,0,0,0.625,10,10)">
        <path d="M126,81.55C119.46,81.556 114.081,86.94 114.081,93.48C114.081,94.994 114.369,96.494 114.93,97.9C113.034,98.7 111.411,100.034 110.26,101.74C107.03,101.088 103.677,101.437 100.65,102.74C98.91,100.806 96.427,99.7 93.826,99.7C89.256,99.7 85.347,103.112 84.73,107.64C80.529,109.099 77.695,113.083 77.695,117.531C77.695,123.231 82.35,127.938 88.05,128C89.147,128 90.05,127.097 90.05,126C90.05,124.903 89.147,124 88.05,124C84.51,123.986 81.605,121.07 81.605,117.53C81.605,114.385 83.899,111.673 87,111.15C87.996,110.985 88.719,110.089 88.67,109.08L88.67,108.84C88.67,108.837 88.67,108.835 88.67,108.832C88.67,105.996 91.004,103.662 93.84,103.662C95.081,103.662 96.281,104.109 97.22,104.92C96.149,105.903 95.241,107.051 94.53,108.32C94.365,108.617 94.279,108.951 94.279,109.29C94.279,110.388 95.182,111.291 96.28,111.291C97.006,111.291 97.678,110.895 98.03,110.26C98.761,108.943 99.788,107.813 101.03,106.96C103.956,105.324 107.43,104.962 110.63,105.96C111.592,106.267 112.643,105.8 113.06,104.88C113.989,102.845 115.903,101.426 118.12,101.13L118.3,101.13C119.309,100.959 120.345,101.063 121.3,101.43C121.529,101.518 121.773,101.564 122.019,101.564C123.116,101.564 124.019,100.661 124.019,99.564C124.019,98.778 123.556,98.062 122.84,97.74C121.604,97.236 120.274,97.004 118.94,97.06C118.377,95.958 118.082,94.738 118.08,93.5C118.075,89.148 121.648,85.561 126,85.55C127.097,85.55 128,84.647 128,83.55C128,82.453 127.097,81.55 126,81.55Z" style="fill-rule:nonzero;"/>
    </g>
    <g transform="matrix(0.625,0,0,0.625,10,10)">
        <path d="M82.54,46.8C82.54,46.29 82.54,45.8 82.54,45.25C82.54,34.33 78.42,20.69 73.69,11.25C73.627,10.984 73.5,10.736 73.32,10.53C70.1,4.25 66.62,0 64,0C60.63,0 57,5.77 54.49,10.76C54.439,10.843 54.396,10.93 54.36,11.02C53.46,12.83 52.71,14.51 52.18,15.76C47.89,25.89 45.44,36.64 45.44,45.26C45.44,45.78 45.44,46.26 45.44,46.81C39.09,51.47 37.44,54.75 37.44,69.18C37.405,72.997 38.038,76.791 39.31,80.39C39.615,81.143 40.351,81.639 41.164,81.639C41.634,81.639 42.09,81.473 42.45,81.17L51.98,73.17C52.724,74.42 53.577,75.601 54.53,76.7C54.909,77.131 55.456,77.379 56.03,77.38L62,77.38L62,79.69C62,80.787 62.903,81.69 64,81.69C65.097,81.69 66,80.787 66,79.69L66,77.31L71.94,77.31C72.514,77.309 73.061,77.061 73.44,76.63C74.395,75.534 75.252,74.357 76,73.11L85.53,81.11C85.89,81.413 86.346,81.579 86.816,81.579C87.629,81.579 88.365,81.083 88.67,80.33C89.942,76.731 90.575,72.937 90.54,69.12C90.54,54.73 88.89,51.46 82.54,46.8ZM64,4C64.87,4.44 66.25,6.18 67.82,8.82C66.75,8.73 65.5,8.69 64.02,8.69C62.54,8.69 61.21,8.74 60.13,8.83C61.7,6.2 63.1,4.45 64,4ZM57.76,13.23C59.814,12.823 61.908,12.655 64,12.73C66.066,12.675 68.132,12.849 70.16,13.25C74.24,21.56 78.56,34.09 78.56,45.25C78.561,48.375 78.343,51.496 77.91,54.59C77.11,54.51 76.18,54.45 75.13,54.39C72.63,54.24 69.44,54.16 66,54.13L66,47.82C66,46.723 65.097,45.82 64,45.82C62.903,45.82 62,46.723 62,47.82L62,54.14C58.56,54.14 55.37,54.26 52.87,54.4C51.87,54.46 50.87,54.52 50.09,54.6C49.657,51.506 49.439,48.385 49.44,45.26C49.44,34 53.69,21.53 57.74,13.28L57.76,13.23ZM42.21,76.14C41.717,73.839 41.466,71.493 41.46,69.14C41.46,57.78 42.35,54.6 45.73,51.63C45.89,53.46 46.12,55.25 46.42,56.99C46.423,57.244 46.473,57.495 46.57,57.73C47.279,61.757 48.468,65.685 50.11,69.43L42.21,76.14ZM57,73.31C54.21,69.83 52.07,64.63 50.79,58.56C52.79,58.37 56.65,58.17 62.01,58.13L62.01,73.31L57,73.31ZM71,73.31L66,73.31L66,58.13C71.36,58.13 75.2,58.36 77.22,58.56C75.94,64.64 73.8,69.83 71,73.31ZM85.78,76.14L77.9,69.48C79.542,65.735 80.731,61.807 81.44,57.78C81.537,57.545 81.587,57.294 81.59,57.04C81.89,55.3 82.12,53.51 82.28,51.68C85.66,54.68 86.55,57.83 86.55,69.19C86.538,71.527 86.283,73.856 85.79,76.14L85.78,76.14Z" style="fill-rule:nonzero;"/>
    </g>
    <g transform="matrix(0.625,0,0,0.625,10,10)">
        <path d="M64,85.19C62.903,85.19 62,86.093 62,87.19L62,116.5C62,117.597 62.903,118.5 64,118.5C65.097,118.5 66,117.597 66,116.5L66,87.19C66,86.093 65.097,85.19 64,85.19Z" style="fill-rule:nonzero;"/>
    </g>
    <g transform="matrix(0.625,0,0,0.625,10,10)">
        <path d="M56.23,80.63C55.133,80.63 54.23,81.533 54.23,82.63L54.23,95.75C54.23,96.847 55.133,97.75 56.23,97.75C57.327,97.75 58.23,96.847 58.23,95.75L58.23,82.63C58.23,81.533 57.327,80.63 56.23,80.63Z" style="fill-rule:nonzero;"/>
    </g>
    <g transform="matrix(0.625,0,0,0.625,10,10)">
        <path d="M71.77,80.63C70.673,80.63 69.77,81.533 69.77,82.63L69.77,95.75C69.77,96.847 70.673,97.75 71.77,97.75C72.867,97.75 73.77,96.847 73.77,95.75L73.77,82.63C73.77,81.533 72.867,80.63 71.77,80.63Z" style="fill-rule:nonzero;"/>
    </g>
    <g transform="matrix(0.625,0,0,0.625,10,10)">
        <path d="M64,41.27C68.877,41.27 72.89,37.257 72.89,32.38C72.89,27.503 68.877,23.49 64,23.49C59.123,23.49 55.11,27.503 55.11,32.38C55.115,37.255 59.125,41.265 64,41.27ZM64,27.5C66.683,27.5 68.89,29.707 68.89,32.39C68.89,35.073 66.683,37.28 64,37.28C61.317,37.28 59.11,35.073 59.11,32.39C59.11,29.707 61.317,27.5 64,27.5Z" style="fill-rule:nonzero;"/>
    </g>
</svg>
