<?xml version="1.0" encoding="utf-8"?>
<!-- Generator: Adobe Illustrator 22.1.0, SVG Export Plug-In . SVG Version: 6.00 Build 0)  -->
<svg version="1.1" id="Layer_1" xmlns="http://www.w3.org/2000/svg" xmlns:xlink="http://www.w3.org/1999/xlink" x="0px" y="0px"
	 viewBox="0 0 1500 518" style="enable-background:new 0 0 1500 518;" xml:space="preserve">
<style type="text/css">
	.st0{fill:none;stroke:#3E80FF;stroke-width:2;stroke-linecap:round;stroke-miterlimit:10;}
	.st1{fill:none;stroke:#3E80FF;stroke-width:2;stroke-miterlimit:10;}
	.st2{fill:none;stroke:#30F800;stroke-width:2;stroke-linecap:round;stroke-miterlimit:10;}
	.st3{fill:none;stroke:#30F800;stroke-width:2;stroke-miterlimit:10;}
	.st4{fill:#FFFFFF;}
	.st5{clip-path:url(#SVGID_2_);fill:none;stroke:#808080;stroke-linecap:round;stroke-linejoin:round;stroke-miterlimit:10;}
	.st6{fill:none;stroke:#808080;stroke-linecap:round;stroke-linejoin:round;stroke-miterlimit:10;}
	.st7{fill:#BDBEFF;}
	.st8{fill:#FFFFBD;}
	.st9{clip-path:url(#SVGID_4_);fill:none;stroke:#808080;stroke-linecap:round;stroke-linejoin:round;stroke-miterlimit:10;}
	.st10{fill:none;stroke:#7AF548;stroke-width:2;stroke-linecap:round;stroke-miterlimit:10;}
	.st11{fill:none;stroke:#7AF548;stroke-width:2;stroke-miterlimit:10;}
	.st12{fill:#FFFBA6;}
	.st13{clip-path:url(#SVGID_6_);fill:none;stroke:#808080;stroke-linecap:round;stroke-linejoin:round;stroke-miterlimit:10;}
	.st14{fill:none;stroke:#FFD100;stroke-width:2;stroke-linecap:round;stroke-miterlimit:10;stroke-dasharray:2,8;}
	.st15{fill:none;stroke:#FFD100;stroke-width:2;stroke-miterlimit:10;}
</style>
<g>
	<line class="st0" x1="848.5" y1="290" x2="848.5" y2="363.1"/>
	<path class="st1" d="M848.5,372.7v-9.6 M852.1,363.1l-3.6,9.6l-3.6-9.6"/>
	<line class="st2" x1="753" y1="71" x2="663.9" y2="71"/>
	<path class="st3" d="M654.3,71h9.6 M663.9,74.6l-9.6-3.6l9.6-3.6"/>
	<path class="st4" d="M212,0h228v240H212V0z"/>
	<g>
		<g>
			<defs>
				<rect id="SVGID_1_" x="211" y="-9" width="1078" height="527"/>
			</defs>
			<clipPath id="SVGID_2_">
				<use xlink:href="#SVGID_1_"  style="overflow:visible;"/>
			</clipPath>
			<path class="st5" d="M212,0h228v240H212V0z M248.8,15.2c4.3,4.3,4.3,11.3,0,15.6s-11.3,4.3-15.6,0s-4.3-11.3,0-15.6
				S244.5,10.9,248.8,15.2"/>
		</g>
	</g>
	<path d="M266.9,24.2c0,1.3,0.1,2.2,0.4,2.7s0.6,0.9,1.1,1.1s1.1,0.4,1.8,0.4c0.7,0,1.3-0.1,1.8-0.4s0.9-0.7,1.2-1.3
		c0.3-0.6,0.4-1.3,0.4-2.3v-6.9h-1.3v6.4c0,1.1-0.1,1.9-0.2,2.3c-0.2,0.4-0.4,0.7-0.7,0.9c-0.3,0.2-0.7,0.3-1.1,0.3
		s-0.7-0.1-1.1-0.3c-0.3-0.2-0.6-0.4-0.7-0.8c-0.2-0.3-0.2-1-0.2-1.9v-7h-1.4L266.9,24.2L266.9,24.2z M278.6,28.2
		c1.1,0,1.9-0.2,2.4-0.6s0.8-1,0.8-1.6c0-0.5-0.2-0.9-0.5-1.3c-0.3-0.3-0.9-0.6-1.7-0.9l-0.9-0.3c-0.6-0.2-1-0.4-1.3-0.6
		s-0.4-0.4-0.4-0.7c0-0.3,0.2-0.5,0.5-0.7s0.7-0.3,1.3-0.3c0.7,0,1.5,0.2,2.4,0.5v-1.2c-0.7-0.2-1.5-0.4-2.3-0.4
		c-1.1,0-1.9,0.2-2.4,0.6s-0.7,0.9-0.7,1.6c0,0.4,0.1,0.8,0.4,1.1c0.2,0.3,0.8,0.7,1.8,1l0.9,0.3l0.4,0.2c0.5,0.2,0.9,0.4,1,0.5
		s0.2,0.3,0.2,0.5c0,0.3-0.1,0.6-0.4,0.8c-0.3,0.2-0.7,0.3-1.4,0.3c-0.4,0-0.9-0.1-1.4-0.2c-0.6-0.1-1.1-0.4-1.6-0.7v1.3
		C276.6,28,277.6,28.2,278.6,28.2L278.6,28.2L278.6,28.2z M290.2,26.3c-1,0.5-1.9,0.8-2.7,0.8c-0.5,0-0.9-0.1-1.2-0.3
		c-0.4-0.2-0.7-0.5-0.9-1c-0.2-0.4-0.3-0.9-0.3-1.5h5.3V24c0-1.3-0.3-2.3-0.8-3c-0.5-0.6-1.3-1-2.2-1c-0.7,0-1.3,0.2-1.9,0.5
		c-0.6,0.4-1,0.9-1.3,1.5s-0.5,1.3-0.5,2s0.2,1.4,0.5,2s0.8,1.1,1.3,1.5c0.5,0.3,1.2,0.5,1.8,0.5c0.9,0,1.9-0.2,2.9-0.7L290.2,26.3
		L290.2,26.3z M285.9,21.8c0.4-0.4,0.8-0.6,1.3-0.6s0.9,0.2,1.2,0.6c0.3,0.4,0.5,0.9,0.5,1.5v0.2h-3.8
		C285.3,22.7,285.5,22.1,285.9,21.8L285.9,21.8z M294.2,28v-4.4c0.4-0.7,0.9-1.3,1.3-1.7c0.5-0.4,0.9-0.6,1.4-0.6
		c0.1,0,0.3,0,0.5,0.1v1.7h1.2v-2.8c-0.5-0.1-0.9-0.2-1.4-0.2c-0.6,0-1.2,0.2-1.7,0.5s-1,0.8-1.4,1.4v-1.7h-1.3V28H294.2L294.2,28z"
		/>
	<path d="M273.4,63.8c-0.7,0.4-1.5,0.6-2.2,0.6c-0.5,0-1-0.2-1.5-0.5c-0.4-0.4-0.8-0.9-1.1-1.6s-0.4-1.5-0.4-2.4
		c0-0.8,0.1-1.6,0.4-2.4c0.3-0.7,0.6-1.3,1.1-1.6c0.5-0.4,1-0.6,1.5-0.6c0.7,0,1.5,0.2,2.2,0.6v-1.3c-0.8-0.3-1.5-0.4-2.1-0.4
		c-0.8,0-1.6,0.2-2.3,0.7s-1.2,1.1-1.6,2s-0.6,1.9-0.6,3s0.2,2.1,0.6,3s0.9,1.5,1.6,2c0.7,0.4,1.5,0.7,2.3,0.7
		c0.6,0,1.3-0.1,2.1-0.4V63.8L273.4,63.8z M281.2,64.2c0.7-0.8,1-1.7,1-2.9s-0.3-2.1-1-2.9c-0.7-0.8-1.5-1.1-2.6-1.1s-2,0.4-2.6,1.1
		c-0.7,0.8-1,1.7-1,2.9s0.3,2.1,1,2.9s1.5,1.1,2.6,1.1C279.7,65.4,280.6,65,281.2,64.2L281.2,64.2z M277,63.5
		c-0.4-0.5-0.6-1.3-0.6-2.2s0.2-1.6,0.6-2.2c0.4-0.5,0.9-0.8,1.6-0.8s1.2,0.3,1.6,0.8s0.6,1.3,0.6,2.2s-0.2,1.7-0.6,2.2
		s-0.9,0.8-1.6,0.8S277.4,64.1,277,63.5L277,63.5z M285.1,65.2v-4.5c0.3-0.6,0.8-1.2,1.3-1.6s1-0.6,1.4-0.6c0.2,0,0.4,0.1,0.6,0.2
		c0.2,0.2,0.3,0.3,0.4,0.6c0.1,0.2,0.1,0.7,0.1,1.5v4.4h1.3v-4.3c0-1.1-0.1-1.9-0.2-2.3c-0.1-0.4-0.4-0.7-0.8-0.9s-0.8-0.4-1.2-0.4
		c-0.5,0-1,0.2-1.5,0.5s-1,0.8-1.3,1.4v-1.7h-1.3v7.6L285.1,65.2L285.1,65.2z M298.6,63.7c-0.7,0.4-1.3,0.6-1.9,0.6
		c-0.3,0-0.6-0.1-0.9-0.2c-0.2-0.1-0.4-0.3-0.6-0.6c-0.1-0.3-0.2-0.7-0.2-1.3v-3.1h3.4V58H295v-3.1h-1.3V58h-1.9v1.1h1.9v3.1
		c0,0.8,0.1,1.5,0.3,1.9c0.2,0.4,0.6,0.7,1,0.9c0.4,0.2,0.9,0.3,1.5,0.3c0.3,0,0.5,0,0.8-0.1c0.3,0,0.7-0.2,1.3-0.4L298.6,63.7
		L298.6,63.7z M302.6,65.2v-4.4c0.4-0.7,0.9-1.3,1.3-1.7c0.5-0.4,0.9-0.6,1.4-0.6c0.1,0,0.3,0,0.5,0.1v1.7h1.2v-2.8
		c-0.5-0.1-0.9-0.2-1.4-0.2c-0.6,0-1.2,0.2-1.7,0.5s-1,0.8-1.4,1.4v-1.7h-1.3v7.6L302.6,65.2L302.6,65.2z M314.3,65.2h1.3
		c-0.2-0.6-0.3-1.3-0.3-2.2v-5.4H314c-0.1,0-0.3,0-0.3,0c-0.5-0.1-0.9-0.1-1.1-0.1c-0.8,0-1.5,0.2-2.1,0.6c-0.6,0.4-1,1-1.4,1.6
		c-0.3,0.7-0.5,1.5-0.5,2.4c0,1.1,0.3,2,0.8,2.5c0.5,0.6,1.1,0.8,1.7,0.8c0.5,0,1-0.2,1.5-0.5s1-0.8,1.4-1.4
		C314.1,64.2,314.2,64.8,314.3,65.2L314.3,65.2L314.3,65.2z M312.8,63.6c-0.5,0.4-0.9,0.6-1.3,0.6s-0.7-0.2-1-0.6
		c-0.3-0.4-0.4-1-0.4-1.7c0-1,0.3-1.9,0.8-2.5s1.2-0.9,2-0.9c0.4,0,0.8,0.1,1.3,0.2V62C313.7,62.6,313.3,63.2,312.8,63.6L312.8,63.6
		z M323.9,63.7c-0.7,0.2-1.2,0.4-1.5,0.4s-0.5,0.1-0.8,0.1c-0.9,0-1.6-0.3-2-0.9c-0.4-0.6-0.6-1.3-0.6-2c0-0.5,0.1-1,0.3-1.5
		c0.2-0.5,0.5-0.8,1-1.1c0.4-0.2,0.8-0.3,1.3-0.3c0.7,0,1.5,0.2,2.4,0.6v-1.2c-0.9-0.3-1.7-0.4-2.5-0.4c-1.1,0-2,0.4-2.7,1.1
		c-0.8,0.8-1.1,1.7-1.1,2.9c0,0.8,0.2,1.5,0.5,2.1s0.8,1.1,1.4,1.4c0.6,0.4,1.3,0.5,2,0.5c0.8,0,1.6-0.1,2.4-0.4L323.9,63.7
		L323.9,63.7z M332.3,63.7c-0.7,0.4-1.3,0.6-1.9,0.6c-0.3,0-0.6-0.1-0.9-0.2c-0.2-0.1-0.4-0.3-0.6-0.6c-0.1-0.3-0.2-0.7-0.2-1.3
		v-3.1h3.4V58h-3.4v-3.1h-1.3V58h-1.9v1.1h1.9v3.1c0,0.8,0.1,1.5,0.3,1.9c0.2,0.4,0.6,0.7,1,0.9c0.4,0.2,0.9,0.3,1.5,0.3
		c0.3,0,0.5,0,0.8-0.1c0.3,0,0.7-0.2,1.3-0.4L332.3,63.7L332.3,63.7z"/>
	<path d="M267.5,95.6v-0.9l0,0l0.3,0.9l1.7,4.6h1.4l1.6-4.6l0.3-0.9l0,0v0.9v6.8h1.3V91.7h-1.4l-2.5,7l-2.5-7h-1.4v10.6h1.1v-6.7
		H267.5z M281.2,101.4c0.7-0.8,1-1.7,1-2.9s-0.3-2.1-1-2.9s-1.5-1.1-2.6-1.1s-2,0.4-2.6,1.1c-0.7,0.8-1,1.7-1,2.9s0.3,2.1,1,2.9
		s1.5,1.1,2.6,1.1S280.6,102.2,281.2,101.4L281.2,101.4z M277,100.7c-0.4-0.5-0.6-1.3-0.6-2.2c0-0.9,0.2-1.6,0.6-2.2
		c0.4-0.5,0.9-0.8,1.6-0.8s1.2,0.3,1.6,0.8s0.6,1.3,0.6,2.2c0,0.9-0.2,1.7-0.6,2.2s-0.9,0.8-1.6,0.8S277.4,101.2,277,100.7
		L277,100.7z M289,102.3h1.3v-11H289v3.4c-0.1,0-0.3,0-0.3,0c-0.5-0.1-0.9-0.1-1.1-0.1c-0.8,0-1.5,0.2-2.1,0.6s-1,1-1.4,1.6
		c-0.3,0.7-0.5,1.5-0.5,2.4c0,1.1,0.3,2,0.8,2.5c0.5,0.6,1.1,0.8,1.7,0.8c0.5,0,1-0.2,1.5-0.5s1-0.8,1.4-1.4V102.3L289,102.3z
		 M287.7,100.7c-0.5,0.4-0.9,0.6-1.3,0.6s-0.7-0.2-1-0.6s-0.4-1-0.4-1.7c0-1,0.3-1.9,0.8-2.5s1.2-0.9,2-0.9c0.4,0,0.8,0.1,1.3,0.2
		v3.3C288.6,99.8,288.2,100.3,287.7,100.7L287.7,100.7z M297.3,94.7v4.5c-0.3,0.6-0.8,1.2-1.3,1.6s-1,0.6-1.4,0.6
		c-0.2,0-0.4-0.1-0.6-0.2c-0.2-0.2-0.3-0.3-0.4-0.6c-0.1-0.2-0.1-0.7-0.1-1.5v-4.4h-1.3V99c0,1.1,0.1,1.9,0.2,2.3s0.4,0.7,0.8,0.9
		c0.4,0.2,0.8,0.4,1.2,0.4c0.5,0,1-0.2,1.5-0.5s1-0.8,1.4-1.4v1.7h1.3v-7.6h-1.3V94.7z M306.4,102.3v-1.1H304v-10h-3.6v1.1h2.3v10
		H306.4L306.4,102.3z M314.3,102.3h1.3c-0.2-0.6-0.3-1.3-0.3-2.2v-5.4H314c-0.1,0-0.3,0-0.3,0c-0.5-0.1-0.9-0.1-1.1-0.1
		c-0.8,0-1.5,0.2-2.1,0.6s-1,1-1.4,1.6c-0.3,0.7-0.5,1.5-0.5,2.4c0,1.1,0.3,2,0.8,2.5c0.5,0.6,1.1,0.8,1.7,0.8c0.5,0,1-0.2,1.5-0.5
		s1-0.8,1.4-1.4C314.1,101.4,314.2,101.9,314.3,102.3L314.3,102.3L314.3,102.3z M312.8,100.7c-0.5,0.4-0.9,0.6-1.3,0.6
		s-0.7-0.2-1-0.6s-0.4-1-0.4-1.7c0-1,0.3-1.9,0.8-2.5s1.2-0.9,2-0.9c0.4,0,0.8,0.1,1.3,0.2v3.3C313.7,99.8,313.3,100.3,312.8,100.7
		L312.8,100.7z M319.4,102.3v-4.4c0.4-0.7,0.9-1.3,1.3-1.7c0.5-0.4,0.9-0.6,1.4-0.6c0.1,0,0.3,0,0.5,0.1v1.7h1.2v-2.8
		c-0.5-0.1-0.9-0.2-1.4-0.2c-0.6,0-1.2,0.2-1.7,0.5s-1,0.8-1.4,1.4v-1.7H318v7.6L319.4,102.3L319.4,102.3z M340.6,101
		c-0.7,0.4-1.5,0.6-2.2,0.6c-0.5,0-1-0.2-1.5-0.5c-0.4-0.4-0.8-0.9-1.1-1.6s-0.4-1.5-0.4-2.4c0-0.8,0.1-1.6,0.4-2.4
		c0.3-0.7,0.6-1.3,1.1-1.6c0.5-0.4,1-0.6,1.5-0.6c0.7,0,1.5,0.2,2.2,0.6v-1.3c-0.8-0.3-1.5-0.4-2.1-0.4c-0.8,0-1.6,0.2-2.3,0.7
		s-1.2,1.1-1.6,2s-0.6,1.9-0.6,3s0.2,2.1,0.6,3s0.9,1.5,1.6,2c0.7,0.4,1.5,0.7,2.3,0.7c0.6,0,1.3-0.1,2.1-0.4V101L340.6,101z
		 M348.4,101.4c0.7-0.8,1-1.7,1-2.9s-0.3-2.1-1-2.9s-1.5-1.1-2.6-1.1s-2,0.4-2.6,1.1c-0.7,0.8-1,1.7-1,2.9s0.3,2.1,1,2.9
		s1.5,1.1,2.6,1.1S347.8,102.2,348.4,101.4L348.4,101.4z M344.2,100.7c-0.4-0.5-0.6-1.3-0.6-2.2c0-0.9,0.2-1.6,0.6-2.2
		c0.4-0.5,0.9-0.8,1.6-0.8s1.2,0.3,1.6,0.8s0.6,1.3,0.6,2.2c0,0.9-0.2,1.7-0.6,2.2s-0.9,0.8-1.6,0.8S344.6,101.2,344.2,100.7
		L344.2,100.7z M352.3,102.3v-4.5c0.3-0.6,0.8-1.2,1.3-1.6s1-0.6,1.4-0.6c0.2,0,0.4,0.1,0.6,0.2c0.2,0.2,0.3,0.3,0.4,0.6
		c0.1,0.2,0.1,0.7,0.1,1.5v4.4h1.3V98c0-1.1-0.1-1.9-0.2-2.3s-0.4-0.7-0.8-0.9s-0.8-0.4-1.2-0.4c-0.5,0-1,0.2-1.5,0.5
		s-1,0.8-1.3,1.4v-1.7h-1.3v7.6h1.2V102.3z M365.9,100.9c-0.7,0.4-1.3,0.6-1.9,0.6c-0.3,0-0.6-0.1-0.9-0.2c-0.2-0.1-0.4-0.3-0.6-0.6
		c-0.1-0.3-0.2-0.7-0.2-1.3v-3.1h3.4v-1.1h-3.4v-3.1H361v3.1h-1.9v1.1h1.9v3.1c0,0.8,0.1,1.5,0.3,1.9c0.2,0.4,0.6,0.7,1,0.9
		c0.4,0.2,0.9,0.3,1.5,0.3c0.3,0,0.5,0,0.8-0.1c0.3,0,0.7-0.2,1.3-0.4L365.9,100.9L365.9,100.9z M369.8,102.3v-4.4
		c0.4-0.7,0.9-1.3,1.3-1.7c0.5-0.4,0.9-0.6,1.4-0.6c0.1,0,0.3,0,0.5,0.1v1.7h1.2v-2.8c-0.5-0.1-0.9-0.2-1.4-0.2
		c-0.6,0-1.2,0.2-1.7,0.5s-1,0.8-1.4,1.4v-1.7h-1.3v7.6L369.8,102.3L369.8,102.3z M381.5,102.3h1.3c-0.2-0.6-0.3-1.3-0.3-2.2v-5.4
		h-1.3c-0.1,0-0.3,0-0.3,0c-0.5-0.1-0.9-0.1-1.1-0.1c-0.8,0-1.5,0.2-2.1,0.6s-1,1-1.4,1.6c-0.3,0.7-0.5,1.5-0.5,2.4
		c0,1.1,0.3,2,0.8,2.5c0.5,0.6,1.1,0.8,1.7,0.8c0.5,0,1-0.2,1.5-0.5s1-0.8,1.4-1.4C381.4,101.4,381.4,101.9,381.5,102.3L381.5,102.3
		L381.5,102.3z M380,100.7c-0.5,0.4-0.9,0.6-1.3,0.6s-0.7-0.2-1-0.6s-0.4-1-0.4-1.7c0-1,0.3-1.9,0.8-2.5s1.2-0.9,2-0.9
		c0.4,0,0.8,0.1,1.3,0.2v3.3C380.9,99.8,380.5,100.3,380,100.7L380,100.7z M391.1,100.9c-0.7,0.2-1.2,0.4-1.5,0.4s-0.5,0.1-0.8,0.1
		c-0.9,0-1.6-0.3-2-0.9s-0.6-1.3-0.6-2c0-0.5,0.1-1,0.3-1.5c0.2-0.5,0.5-0.8,1-1.1c0.4-0.2,0.8-0.3,1.3-0.3c0.7,0,1.5,0.2,2.4,0.6
		V95c-0.9-0.3-1.7-0.4-2.5-0.4c-1.1,0-2,0.4-2.7,1.1c-0.8,0.8-1.1,1.7-1.1,2.9c0,0.8,0.2,1.5,0.5,2.1s0.8,1.1,1.4,1.4
		c0.6,0.4,1.3,0.5,2,0.5c0.8,0,1.6-0.1,2.4-0.4L391.1,100.9L391.1,100.9z M399.5,100.9c-0.7,0.4-1.3,0.6-1.9,0.6
		c-0.3,0-0.6-0.1-0.9-0.2c-0.2-0.1-0.4-0.3-0.6-0.6c-0.1-0.3-0.2-0.7-0.2-1.3v-3.1h3.4v-1.1h-3.4v-3.1h-1.3v3.1h-1.9v1.1h1.9v3.1
		c0,0.8,0.1,1.5,0.3,1.9c0.2,0.4,0.6,0.7,1,0.9c0.4,0.2,0.9,0.3,1.5,0.3c0.3,0,0.5,0,0.8-0.1c0.3,0,0.7-0.2,1.3-0.4L399.5,100.9
		L399.5,100.9z"/>
	<path d="M270.9,139.5v-9.4h3.2v-1.2h-7.7v1.2h3.2v9.4H270.9L270.9,139.5z M281,139.5v-1.1h-2.1v-6.6h-3.4v1.1h2.1v6.6H281
		L281,139.5z M277.7,129.7c0.2,0.1,0.4,0.2,0.6,0.2s0.4-0.1,0.6-0.2c0.2-0.1,0.3-0.4,0.3-0.6c0-0.3-0.1-0.5-0.3-0.6
		c-0.2-0.1-0.4-0.2-0.6-0.2s-0.4,0.1-0.6,0.2c-0.2,0.1-0.3,0.4-0.3,0.6C277.4,129.4,277.5,129.6,277.7,129.7L277.7,129.7z
		 M285.1,139.5V135c0.3-0.6,0.8-1.2,1.3-1.6s1-0.6,1.4-0.6c0.2,0,0.4,0.1,0.6,0.2c0.2,0.2,0.3,0.3,0.4,0.6c0.1,0.2,0.1,0.7,0.1,1.5
		v4.4h1.3v-4.3c0-1.1-0.1-1.9-0.2-2.3c-0.1-0.4-0.4-0.7-0.8-0.9s-0.8-0.4-1.2-0.4c-0.5,0-1,0.2-1.5,0.5s-1,0.8-1.3,1.4v-1.7h-1.3
		v7.6h1.2V139.5z M298,139.5v-1.1h-2.4v-10H292v1.1h2.3v10H298L298,139.5z M305.9,139.5h1.3c-0.2-0.6-0.3-1.3-0.3-2.2v-5.4h-1.3
		c-0.1,0-0.3,0-0.3,0c-0.5-0.1-0.9-0.1-1.1-0.1c-0.8,0-1.5,0.2-2.1,0.6c-0.6,0.4-1,1-1.4,1.6c-0.3,0.7-0.5,1.5-0.5,2.4
		c0,1.1,0.3,2,0.8,2.5c0.5,0.6,1.1,0.8,1.7,0.8c0.5,0,1-0.2,1.5-0.5s1-0.8,1.4-1.4C305.7,138.5,305.8,139.1,305.9,139.5L305.9,139.5
		L305.9,139.5z M304.4,137.9c-0.5,0.4-0.9,0.6-1.3,0.6s-0.7-0.2-1-0.6c-0.3-0.4-0.4-1-0.4-1.7c0-1,0.3-1.9,0.8-2.5s1.2-0.9,2-0.9
		c0.4,0,0.8,0.1,1.3,0.2v3.3C305.3,137,304.9,137.5,304.4,137.9L304.4,137.9z M310.7,139.5v-4.1l3.7,4.1h1.8l-3.7-4.1l3.6-3.5h-1.7
		l-3.7,3.5v-6.9h-1.3v11H310.7L310.7,139.5z M323.8,137.8c-1,0.5-1.9,0.8-2.7,0.8c-0.5,0-0.9-0.1-1.2-0.3c-0.4-0.2-0.7-0.5-0.9-1
		c-0.2-0.4-0.3-0.9-0.3-1.5h5.3v-0.3c0-1.3-0.3-2.3-0.8-3c-0.5-0.6-1.3-1-2.2-1c-0.7,0-1.3,0.2-1.9,0.5c-0.6,0.4-1,0.9-1.3,1.5
		s-0.5,1.3-0.5,2s0.2,1.4,0.5,2s0.8,1.1,1.3,1.5c0.5,0.3,1.2,0.5,1.8,0.5c0.9,0,1.9-0.2,2.9-0.7L323.8,137.8L323.8,137.8z
		 M319.5,133.3c0.4-0.4,0.8-0.6,1.3-0.6s0.9,0.2,1.2,0.6c0.3,0.4,0.5,0.9,0.5,1.5v0.2h-3.8C318.9,134.2,319.2,133.7,319.5,133.3
		L319.5,133.3z M340.6,138.1c-0.7,0.4-1.5,0.6-2.2,0.6c-0.5,0-1-0.2-1.5-0.5c-0.4-0.4-0.8-0.9-1.1-1.6s-0.4-1.5-0.4-2.4
		c0-0.8,0.1-1.6,0.4-2.4c0.3-0.7,0.6-1.3,1.1-1.6c0.5-0.4,1-0.6,1.5-0.6c0.7,0,1.5,0.2,2.2,0.6V129c-0.8-0.3-1.5-0.4-2.1-0.4
		c-0.8,0-1.6,0.2-2.3,0.7s-1.2,1.1-1.6,2s-0.6,1.9-0.6,3s0.2,2.1,0.6,3s0.9,1.5,1.6,2c0.7,0.4,1.5,0.7,2.3,0.7
		c0.6,0,1.3-0.1,2.1-0.4V138.1L340.6,138.1z M348.4,138.6c0.7-0.8,1-1.7,1-2.9s-0.3-2.1-1-2.9c-0.7-0.8-1.5-1.1-2.6-1.1
		s-2,0.4-2.6,1.1c-0.7,0.8-1,1.7-1,2.9s0.3,2.1,1,2.9c0.7,0.8,1.5,1.1,2.6,1.1C346.9,139.7,347.8,139.3,348.4,138.6L348.4,138.6z
		 M344.2,137.9c-0.4-0.5-0.6-1.3-0.6-2.2s0.2-1.6,0.6-2.2c0.4-0.5,0.9-0.8,1.6-0.8s1.2,0.3,1.6,0.8s0.6,1.3,0.6,2.2
		s-0.2,1.7-0.6,2.2s-0.9,0.8-1.6,0.8S344.6,138.4,344.2,137.9L344.2,137.9z M353,139.5v-4.4c0.4-0.7,0.9-1.3,1.3-1.7
		c0.5-0.4,0.9-0.6,1.4-0.6c0.1,0,0.3,0,0.5,0.1v1.7h1.2v-2.8c-0.5-0.1-0.9-0.2-1.4-0.2c-0.6,0-1.2,0.2-1.7,0.5s-1,0.8-1.4,1.4v-1.7
		h-1.3v7.6L353,139.5L353,139.5z M365.8,137.8c-1,0.5-1.9,0.8-2.7,0.8c-0.5,0-0.9-0.1-1.2-0.3c-0.4-0.2-0.7-0.5-0.9-1
		c-0.2-0.4-0.3-0.9-0.3-1.5h5.3v-0.3c0-1.3-0.3-2.3-0.8-3c-0.5-0.6-1.3-1-2.2-1c-0.7,0-1.3,0.2-1.9,0.5c-0.6,0.4-1,0.9-1.3,1.5
		s-0.5,1.3-0.5,2s0.2,1.4,0.5,2s0.8,1.1,1.3,1.5c0.5,0.3,1.2,0.5,1.8,0.5c0.9,0,1.9-0.2,2.9-0.7L365.8,137.8L365.8,137.8z
		 M361.5,133.3c0.4-0.4,0.8-0.6,1.3-0.6s0.9,0.2,1.2,0.6c0.3,0.4,0.5,0.9,0.5,1.5v0.2h-3.8C360.9,134.2,361.2,133.7,361.5,133.3
		L361.5,133.3z"/>
	<path d="M268.3,174.3h3.7l0.7,2.3h1.5l-3.3-10.6h-1.4l-3.3,10.6h1.3L268.3,174.3L268.3,174.3z M269.8,169.3l0.3-1.1l0.3,1.1l1.3,4
		h-3.1L269.8,169.3L269.8,169.3z M280.5,169v4.5c-0.3,0.6-0.8,1.2-1.3,1.6c-0.5,0.4-1,0.6-1.4,0.6c-0.2,0-0.4-0.1-0.6-0.2
		c-0.2-0.2-0.3-0.3-0.4-0.6c-0.1-0.2-0.1-0.7-0.1-1.5V169h-1.3v4.3c0,1.1,0.1,1.9,0.2,2.3c0.1,0.4,0.4,0.7,0.8,0.9s0.8,0.4,1.2,0.4
		c0.5,0,1-0.2,1.5-0.5s1-0.8,1.4-1.4v1.7h1.3V169H280.5L280.5,169z M290.2,175.2c-0.7,0.4-1.3,0.6-1.9,0.6c-0.3,0-0.6-0.1-0.9-0.2
		c-0.2-0.1-0.4-0.3-0.6-0.6c-0.1-0.3-0.2-0.7-0.2-1.3v-3.1h3.4v-1.1h-3.4v-3.1h-1.3v3.1h-1.9v1.1h1.9v3.1c0,0.8,0.1,1.5,0.3,1.9
		c0.2,0.4,0.6,0.7,1,0.9s0.9,0.3,1.5,0.3c0.3,0,0.5,0,0.8-0.1c0.3,0,0.7-0.2,1.3-0.4L290.2,175.2L290.2,175.2z M293.5,176.7v-4.5
		c0.3-0.6,0.8-1.2,1.3-1.6s1-0.6,1.4-0.6c0.2,0,0.4,0.1,0.6,0.2c0.2,0.2,0.3,0.3,0.4,0.6c0.1,0.2,0.1,0.7,0.1,1.5v4.4h1.3v-4.3
		c0-0.8,0-1.4-0.1-1.7c0-0.3-0.1-0.5-0.2-0.8s-0.4-0.6-0.7-0.8c-0.4-0.2-0.8-0.3-1.2-0.3c-0.5,0-1,0.2-1.5,0.5s-1,0.8-1.3,1.4v-5.1
		h-1.3v11h1.2V176.7z M306.4,175.7c0.7-0.8,1-1.7,1-2.9s-0.3-2.1-1-2.9c-0.7-0.8-1.5-1.1-2.6-1.1s-2,0.4-2.6,1.1
		c-0.7,0.8-1,1.7-1,2.9s0.3,2.1,1,2.9c0.7,0.8,1.5,1.1,2.6,1.1C304.9,176.9,305.8,176.5,306.4,175.7L306.4,175.7z M302.2,175
		c-0.4-0.5-0.6-1.3-0.6-2.2s0.2-1.6,0.6-2.2c0.4-0.5,0.9-0.8,1.6-0.8s1.2,0.3,1.6,0.8s0.6,1.3,0.6,2.2s-0.2,1.7-0.6,2.2
		s-0.9,0.8-1.6,0.8S302.6,175.6,302.2,175L302.2,175z M311,176.7v-4.4c0.4-0.7,0.9-1.3,1.3-1.7c0.5-0.4,0.9-0.6,1.4-0.6
		c0.1,0,0.3,0,0.5,0.1v1.7h1.2V169c-0.5-0.1-0.9-0.2-1.4-0.2c-0.6,0-1.2,0.2-1.7,0.5s-1,0.8-1.4,1.4V169h-1.3v7.6L311,176.7
		L311,176.7z M323,176.7v-1.1h-2.1V169h-3.4v1.1h2.1v6.6L323,176.7L323,176.7z M319.7,166.9c0.2,0.1,0.4,0.2,0.6,0.2
		s0.4-0.1,0.6-0.2c0.2-0.1,0.3-0.4,0.3-0.6c0-0.3-0.1-0.5-0.3-0.6c-0.2-0.1-0.4-0.2-0.6-0.2s-0.4,0.1-0.6,0.2
		c-0.2,0.1-0.3,0.4-0.3,0.6C319.4,166.6,319.5,166.8,319.7,166.9L319.7,166.9z M332.2,176.7v-1.2h-4.9l4.7-5.4V169h-6.3v1.1h4.6
		l-4.7,5.4v1.2H332.2L332.2,176.7z M340.6,175c-1,0.5-1.9,0.8-2.7,0.8c-0.5,0-0.9-0.1-1.2-0.3c-0.4-0.2-0.7-0.5-0.9-1
		c-0.2-0.4-0.3-0.9-0.3-1.5h5.3v-0.3c0-1.3-0.3-2.3-0.8-3c-0.5-0.6-1.3-1-2.2-1c-0.7,0-1.3,0.2-1.9,0.5c-0.6,0.4-1,0.9-1.3,1.5
		s-0.5,1.3-0.5,2s0.2,1.4,0.5,2s0.8,1.1,1.3,1.5c0.5,0.3,1.2,0.5,1.8,0.5c0.9,0,1.9-0.2,2.9-0.7L340.6,175L340.6,175z M336.3,170.4
		c0.4-0.4,0.8-0.6,1.3-0.6s0.9,0.2,1.2,0.6c0.3,0.4,0.5,0.9,0.5,1.5v0.2h-3.8C335.7,171.4,336,170.8,336.3,170.4L336.3,170.4z
		 M347.8,176.7h1.3v-11h-1.3v3.4c-0.1,0-0.3,0-0.3,0c-0.5-0.1-0.9-0.1-1.1-0.1c-0.8,0-1.5,0.2-2.1,0.6c-0.6,0.4-1,1-1.4,1.6
		c-0.3,0.7-0.5,1.5-0.5,2.4c0,1.1,0.3,2,0.8,2.5c0.5,0.6,1.1,0.8,1.7,0.8c0.5,0,1-0.2,1.5-0.5s1-0.8,1.4-1.4V176.7L347.8,176.7z
		 M346.5,175.1c-0.5,0.4-0.9,0.6-1.3,0.6s-0.7-0.2-1-0.6c-0.3-0.4-0.4-1-0.4-1.7c0-1,0.3-1.9,0.8-2.5s1.2-0.9,2-0.9
		c0.4,0,0.8,0.1,1.3,0.2v3.3C347.4,174.1,347,174.7,346.5,175.1L346.5,175.1z M365.9,175.3c-0.7,0.4-1.5,0.6-2.2,0.6
		c-0.5,0-1-0.2-1.5-0.5c-0.4-0.4-0.8-0.9-1.1-1.6s-0.4-1.5-0.4-2.4c0-0.8,0.1-1.6,0.4-2.4c0.3-0.7,0.6-1.3,1.1-1.6
		c0.5-0.4,1-0.6,1.5-0.6c0.7,0,1.5,0.2,2.2,0.6v-1.3c-0.8-0.3-1.5-0.4-2.1-0.4c-0.8,0-1.6,0.2-2.3,0.7s-1.2,1.1-1.6,2
		s-0.6,1.9-0.6,3s0.2,2.1,0.6,3s0.9,1.5,1.6,2c0.7,0.4,1.5,0.7,2.3,0.7c0.6,0,1.3-0.1,2.1-0.4V175.3L365.9,175.3z M373.1,176.7h1.3
		c-0.2-0.6-0.3-1.3-0.3-2.2V169h-1.3c-0.1,0-0.3,0-0.3,0c-0.5-0.1-0.9-0.1-1.1-0.1c-0.8,0-1.5,0.2-2.1,0.6c-0.6,0.4-1,1-1.4,1.6
		c-0.3,0.7-0.5,1.5-0.5,2.4c0,1.1,0.3,2,0.8,2.5c0.5,0.6,1.1,0.8,1.7,0.8c0.5,0,1-0.2,1.5-0.5s1-0.8,1.4-1.4
		C373,175.7,373,176.3,373.1,176.7L373.1,176.7L373.1,176.7z M371.6,175.1c-0.5,0.4-0.9,0.6-1.3,0.6s-0.7-0.2-1-0.6
		c-0.3-0.4-0.4-1-0.4-1.7c0-1,0.3-1.9,0.8-2.5s1.2-0.9,2-0.9c0.4,0,0.8,0.1,1.3,0.2v3.3C372.5,174.1,372.1,174.7,371.6,175.1
		L371.6,175.1z M382,176.7v-1.1h-2.4v-10H376v1.1h2.3v10H382L382,176.7z M390.4,176.7v-1.1H388v-10h-3.6v1.1h2.3v10H390.4
		L390.4,176.7z"/>
	<path d="M269.1,210c1.1,0,2-0.2,2.6-0.5s1.1-0.8,1.5-1.4s0.5-1.2,0.5-1.9c0-0.6-0.1-1.1-0.4-1.6s-0.6-0.8-1.1-1.1
		c-0.5-0.2-1.3-0.4-2.4-0.4h-2.6v10.6h1.4V210H269.1L269.1,210z M268.6,204.3h0.8c1.2,0,2,0.2,2.4,0.5c0.4,0.4,0.6,0.8,0.6,1.5
		c0,0.5-0.1,0.9-0.3,1.3c-0.2,0.4-0.5,0.7-1,1c-0.4,0.2-1,0.3-1.9,0.3h-0.6V204.3L268.6,204.3z M280.5,206.2v4.5
		c-0.3,0.6-0.8,1.2-1.3,1.6c-0.5,0.4-1,0.6-1.4,0.6c-0.2,0-0.4-0.1-0.6-0.2c-0.2-0.2-0.3-0.3-0.4-0.6c-0.1-0.2-0.1-0.7-0.1-1.5v-4.4
		h-1.3v4.3c0,1.1,0.1,1.9,0.2,2.3c0.1,0.4,0.4,0.7,0.8,0.9s0.8,0.4,1.2,0.4c0.5,0,1-0.2,1.5-0.5s1-0.8,1.4-1.4v1.7h1.3v-7.6h-1.3
		V206.2z M285,202.8h-1.3v11h1.3c0.1,0,0.3,0,0.3,0c0.5,0.1,0.9,0.1,1.1,0.1c0.8,0,1.5-0.2,2.1-0.6c0.6-0.4,1-1,1.4-1.6
		c0.3-0.7,0.5-1.5,0.5-2.4c0-1.1-0.3-2-0.8-2.5c-0.5-0.6-1.1-0.8-1.7-0.8c-0.5,0-1,0.2-1.5,0.5s-1,0.8-1.4,1.4V202.8L285,202.8z
		 M286.3,207.8c0.5-0.4,0.9-0.6,1.3-0.6s0.7,0.2,1,0.6s0.4,1,0.4,1.7c0,1-0.3,1.9-0.8,2.5s-1.2,0.9-1.9,0.9c-0.4,0-0.8-0.1-1.3-0.2
		v-3.3C285.4,208.8,285.9,208.2,286.3,207.8L286.3,207.8z M298,213.8v-1.1h-2.4v-10H292v1.1h2.3v10H298L298,213.8z M306.2,213.8
		v-1.1h-2.1v-6.6h-3.4v1.1h2.1v6.6H306.2L306.2,213.8z M302.9,204.1c0.2,0.1,0.4,0.2,0.6,0.2s0.4-0.1,0.6-0.2
		c0.2-0.1,0.3-0.4,0.3-0.6c0-0.3-0.1-0.5-0.3-0.6c-0.2-0.1-0.4-0.2-0.6-0.2s-0.4,0.1-0.6,0.2c-0.2,0.1-0.3,0.4-0.3,0.6
		C302.6,203.7,302.7,203.9,302.9,204.1L302.9,204.1z M315.5,212.4c-0.7,0.2-1.2,0.4-1.5,0.4s-0.5,0.1-0.8,0.1c-0.9,0-1.6-0.3-2-0.9
		c-0.4-0.6-0.6-1.3-0.6-2c0-0.5,0.1-1,0.3-1.5c0.2-0.5,0.5-0.8,1-1.1c0.4-0.2,0.8-0.3,1.3-0.3c0.7,0,1.5,0.2,2.4,0.6v-1.2
		c-0.9-0.3-1.7-0.4-2.5-0.4c-1.1,0-2,0.4-2.7,1.1c-0.8,0.8-1.1,1.7-1.1,2.9c0,0.8,0.2,1.5,0.5,2.1s0.8,1.1,1.4,1.4
		c0.6,0.4,1.3,0.5,2,0.5c0.8,0,1.6-0.1,2.4-0.4L315.5,212.4L315.5,212.4z M332.2,212.5c-0.7,0.4-1.5,0.6-2.2,0.6
		c-0.5,0-1-0.2-1.5-0.5c-0.4-0.4-0.8-0.9-1.1-1.6s-0.4-1.5-0.4-2.4c0-0.8,0.1-1.6,0.4-2.4c0.3-0.7,0.6-1.3,1.1-1.6
		c0.5-0.4,1-0.6,1.5-0.6c0.7,0,1.5,0.2,2.2,0.6v-1.3c-0.8-0.3-1.5-0.4-2.1-0.4c-0.8,0-1.6,0.2-2.3,0.7s-1.2,1.1-1.6,2
		s-0.6,1.9-0.6,3s0.2,2.1,0.6,3s0.9,1.5,1.6,2c0.7,0.4,1.5,0.7,2.3,0.7c0.6,0,1.3-0.1,2.1-0.4V212.5L332.2,212.5z M339.5,213.8h1.3
		c-0.2-0.6-0.3-1.3-0.3-2.2v-5.4h-1.3c-0.1,0-0.3,0-0.3,0c-0.5-0.1-0.9-0.1-1.1-0.1c-0.8,0-1.5,0.2-2.1,0.6c-0.6,0.4-1,1-1.4,1.6
		c-0.3,0.7-0.5,1.5-0.5,2.4c0,1.1,0.3,2,0.8,2.5c0.5,0.6,1.1,0.8,1.7,0.8c0.5,0,1-0.2,1.5-0.5s1-0.8,1.4-1.4
		C339.4,212.9,339.4,213.4,339.5,213.8L339.5,213.8L339.5,213.8z M338,212.2c-0.5,0.4-0.9,0.6-1.3,0.6s-0.7-0.2-1-0.6
		c-0.3-0.4-0.4-1-0.4-1.7c0-1,0.3-1.9,0.8-2.5s1.2-0.9,2-0.9c0.4,0,0.8,0.1,1.3,0.2v3.3C338.9,211.3,338.5,211.8,338,212.2
		L338,212.2z M348.4,213.8v-1.1H346v-10h-3.6v1.1h2.3v10H348.4L348.4,213.8z M356.8,213.8v-1.1h-2.4v-10h-3.6v1.1h2.3v10H356.8
		L356.8,213.8z"/>
	<path class="st6" d="M238,126l11,11l-11,11l-11-11L238,126z"/>
	<path class="st7" d="M230,49h22v22h-22V49z"/>
	<path class="st6" d="M230,49h22v22h-22V49z"/>
	<path class="st8" d="M230,88h22v22h-22V88z"/>
	<path class="st6" d="M230,88h22v22h-22V88z"/>
	<line class="st2" x1="227" y1="209" x2="239.1" y2="209"/>
	<path class="st3" d="M248.7,209h-9.6 M239.1,205.4l9.6,3.6l-9.6,3.6"/>
	<line class="st0" x1="227" y1="173" x2="239.1" y2="173"/>
	<path class="st1" d="M248.7,173h-9.6 M239.1,169.4l9.6,3.6l-9.6,3.6"/>
	<path class="st7" d="M753,38h169v66H753V38z"/>
	<path class="st6" d="M753,38h169v66H753V38z"/>
	<path d="M793.5,70.8c0.9,0,1.5-0.2,1.9-0.5c0.4-0.4,0.6-0.9,0.6-1.6s-0.2-1.2-0.6-1.6c-0.4-0.4-1-0.5-1.9-0.5h-3v4.2H793.5
		L793.5,70.8z M794,65.4c1.2,0,2,0.3,2.6,0.9s0.9,1.4,0.9,2.5s-0.3,1.9-0.9,2.5c-0.6,0.6-1.5,0.9-2.6,0.9h-3.5v4.7H789V65.4H794
		L794,65.4z M800.4,68.5v1.7l0,0c0.3-0.7,0.7-1.2,1.2-1.5s1.1-0.5,1.8-0.4v1.4c-0.5,0-1,0.1-1.4,0.2s-0.7,0.4-0.9,0.7
		c-0.2,0.3-0.4,0.6-0.5,1s-0.2,0.9-0.2,1.4v3.7H799v-8.3h1.4V68.5z"/>
	<path d="M805.4,74c0.1,0.4,0.3,0.7,0.6,1c0.2,0.3,0.5,0.5,0.8,0.6s0.6,0.2,1,0.2s0.7-0.1,1-0.2s0.6-0.3,0.8-0.6
		c0.2-0.3,0.4-0.6,0.6-1c0.1-0.4,0.2-0.8,0.2-1.3s-0.1-0.9-0.2-1.3c-0.1-0.4-0.3-0.7-0.6-1c-0.2-0.3-0.5-0.5-0.8-0.6s-0.6-0.2-1-0.2
		s-0.7,0.1-1,0.2s-0.6,0.3-0.8,0.6c-0.2,0.3-0.4,0.6-0.6,1c-0.1,0.4-0.2,0.8-0.2,1.3C805.2,73.1,805.2,73.6,805.4,74L805.4,74z
		 M804,70.9c0.2-0.5,0.4-1,0.8-1.4c0.3-0.4,0.8-0.7,1.3-0.9c0.5-0.2,1.1-0.3,1.7-0.3c0.7,0,1.2,0.1,1.7,0.3c0.5,0.2,0.9,0.5,1.3,0.9
		c0.3,0.4,0.6,0.8,0.8,1.4c0.2,0.5,0.3,1.1,0.3,1.7s-0.1,1.2-0.3,1.7s-0.4,1-0.8,1.4c-0.3,0.4-0.8,0.7-1.3,0.9
		c-0.5,0.2-1.1,0.3-1.7,0.3c-0.7,0-1.2-0.1-1.7-0.3c-0.5-0.2-0.9-0.5-1.3-0.9c-0.3-0.4-0.6-0.8-0.8-1.4c-0.2-0.5-0.3-1.1-0.3-1.7
		S803.8,71.5,804,70.9L804,70.9z M812.7,68.5h1.7l2,2.9l2.1-2.9h1.6l-2.8,3.8l3.2,4.5h-1.7l-2.3-3.4l-2.3,3.4h-1.6l3.1-4.4
		L812.7,68.5L812.7,68.5z M828.5,68.5H827l-2.3,6.8l0,0l-2.4-6.8h-1.5l3.3,8.2l-0.6,1.4c-0.1,0.2-0.2,0.4-0.4,0.6
		c-0.2,0.1-0.4,0.2-0.7,0.2c-0.1,0-0.2,0-0.4-0.1c-0.2,0-0.3-0.1-0.4-0.1v1.2c0.1,0.1,0.3,0.1,0.5,0.1s0.3,0,0.5,0
		c0.3,0,0.6,0,0.8-0.1s0.4-0.2,0.6-0.4c0.2-0.2,0.4-0.4,0.5-0.7c0.2-0.3,0.3-0.6,0.5-1L828.5,68.5L828.5,68.5z M835.2,65.4
		c1.1,0,1.9,0.3,2.6,0.8c0.6,0.5,0.9,1.3,0.9,2.2c0,0.7-0.2,1.3-0.5,1.8s-0.8,0.9-1.5,1.1l0,0c0.3,0.1,0.6,0.2,0.8,0.3
		c0.2,0.1,0.4,0.3,0.5,0.5s0.2,0.4,0.3,0.7c0.1,0.3,0.1,0.5,0.1,0.8s0,0.6,0,0.8c0,0.3,0,0.6,0.1,0.8c0,0.3,0.1,0.5,0.2,0.8
		c0.1,0.3,0.2,0.5,0.4,0.7h-1.7c-0.1-0.1-0.2-0.3-0.2-0.5s-0.1-0.4-0.1-0.7c0-0.3,0-0.5,0-0.8s0-0.6-0.1-0.8c0-0.3-0.1-0.5-0.2-0.8
		c-0.1-0.3-0.2-0.5-0.3-0.7s-0.3-0.3-0.5-0.4s-0.5-0.2-0.9-0.2h-3.7v4.9h-1.5V65.4H835.2L835.2,65.4z M835.6,70.5
		c0.3-0.1,0.6-0.2,0.8-0.3c0.2-0.2,0.4-0.4,0.6-0.6c0.1-0.3,0.2-0.6,0.2-1c0-0.6-0.2-1-0.5-1.4s-0.8-0.5-1.6-0.5h-3.8v4h3.2
		C834.9,70.6,835.2,70.6,835.6,70.5L835.6,70.5z M846.1,70.9c-0.1-0.3-0.3-0.5-0.5-0.7s-0.5-0.4-0.7-0.5c-0.3-0.1-0.6-0.2-0.9-0.2
		c-0.4,0-0.7,0.1-1,0.2s-0.5,0.3-0.7,0.5s-0.4,0.5-0.5,0.7c-0.1,0.3-0.2,0.6-0.2,0.9h4.8C846.3,71.5,846.2,71.2,846.1,70.9
		L846.1,70.9z M846.5,76.2c-0.6,0.5-1.4,0.7-2.3,0.7c-0.7,0-1.2-0.1-1.7-0.3c-0.5-0.2-0.9-0.5-1.2-0.9s-0.6-0.8-0.7-1.4
		c-0.2-0.5-0.3-1.1-0.3-1.7s0.1-1.2,0.3-1.7s0.5-1,0.8-1.4s0.8-0.7,1.2-0.9c0.5-0.2,1-0.3,1.6-0.3c0.7,0,1.3,0.2,1.8,0.5
		s0.9,0.7,1.2,1.2s0.5,1,0.6,1.5c0.1,0.6,0.2,1.1,0.1,1.6h-6.2c0,0.4,0,0.7,0.1,1s0.3,0.6,0.5,0.9s0.5,0.5,0.8,0.6s0.7,0.2,1.2,0.2
		c0.6,0,1-0.1,1.4-0.4s0.6-0.7,0.7-1.2h1.3C847.5,75.1,847.1,75.8,846.5,76.2L846.5,76.2z M855.4,79.1c-0.6,0.7-1.6,1-2.9,1
		c-0.4,0-0.8,0-1.2-0.1s-0.8-0.2-1.1-0.4c-0.3-0.2-0.6-0.4-0.8-0.8c-0.2-0.3-0.3-0.7-0.4-1.1h1.4c0,0.2,0.1,0.5,0.2,0.6
		c0.1,0.2,0.3,0.3,0.5,0.4s0.4,0.2,0.7,0.2c0.2,0,0.5,0.1,0.7,0.1c0.4,0,0.8-0.1,1.1-0.2c0.3-0.2,0.6-0.4,0.8-0.6
		c0.2-0.3,0.3-0.6,0.4-1c0.1-0.4,0.1-0.8,0.1-1.3v-0.5l0,0c-0.2,0.5-0.6,0.9-1.1,1.1s-1,0.4-1.5,0.4c-0.6,0-1.2-0.1-1.6-0.3
		c-0.5-0.2-0.8-0.5-1.2-0.9c-0.3-0.4-0.5-0.8-0.7-1.3s-0.2-1-0.2-1.6c0-0.5,0.1-1,0.2-1.5c0.1-0.5,0.3-1,0.6-1.4s0.7-0.8,1.2-1
		c0.5-0.3,1.1-0.4,1.8-0.4c0.5,0,1,0.1,1.4,0.3c0.4,0.2,0.8,0.6,1,1l0,0v-1.2h1.3v7.6C856.3,77.4,856,78.4,855.4,79.1L855.4,79.1z
		 M853.7,75.4c0.3-0.2,0.6-0.4,0.8-0.7s0.3-0.6,0.4-1c0.1-0.4,0.1-0.8,0.1-1.2c0-0.4,0-0.7-0.1-1.1s-0.2-0.7-0.4-1s-0.4-0.5-0.7-0.7
		s-0.7-0.3-1.1-0.3c-0.4,0-0.8,0.1-1.1,0.2c-0.3,0.2-0.6,0.4-0.8,0.7c-0.2,0.3-0.3,0.6-0.4,1c-0.1,0.4-0.1,0.7-0.1,1.1
		s0,0.7,0.1,1.1s0.2,0.7,0.4,1s0.4,0.5,0.7,0.7s0.7,0.3,1.1,0.3S853.3,75.6,853.7,75.4L853.7,75.4z M858.5,67v-1.7h1.4V67H858.5
		L858.5,67z M859.8,68.5v8.3h-1.4v-8.3H859.8L859.8,68.5z M863,74.9c0.1,0.2,0.3,0.4,0.5,0.5s0.4,0.2,0.7,0.3
		c0.3,0.1,0.5,0.1,0.8,0.1c0.2,0,0.4,0,0.7,0c0.2,0,0.5-0.1,0.6-0.2c0.2-0.1,0.4-0.2,0.5-0.4c0.1-0.2,0.2-0.4,0.2-0.6
		c0-0.4-0.1-0.6-0.4-0.8c-0.3-0.2-0.6-0.3-1-0.4s-0.8-0.2-1.3-0.3c-0.5-0.1-0.9-0.2-1.3-0.4c-0.4-0.2-0.7-0.4-1-0.7
		c-0.3-0.3-0.4-0.7-0.4-1.2c0-0.4,0.1-0.8,0.3-1.1c0.2-0.3,0.4-0.5,0.7-0.7s0.6-0.3,1-0.4s0.7-0.1,1.1-0.1c0.5,0,0.9,0,1.3,0.1
		c0.4,0.1,0.7,0.2,1,0.4c0.3,0.2,0.5,0.5,0.7,0.8s0.3,0.8,0.3,1.3h-1.4c0-0.3-0.1-0.5-0.2-0.7c-0.1-0.2-0.3-0.3-0.4-0.4
		c-0.2-0.1-0.4-0.2-0.6-0.2c-0.2,0-0.4-0.1-0.7-0.1c-0.2,0-0.4,0-0.6,0c-0.2,0-0.4,0.1-0.6,0.2c-0.2,0.1-0.3,0.2-0.4,0.3
		c-0.1,0.1-0.2,0.3-0.2,0.5s0.1,0.4,0.2,0.6c0.2,0.2,0.4,0.3,0.6,0.4c0.3,0.1,0.5,0.2,0.9,0.3c0.3,0.1,0.6,0.1,1,0.2
		c0.3,0.1,0.7,0.2,1,0.3c0.3,0.1,0.6,0.2,0.9,0.4c0.3,0.2,0.5,0.4,0.6,0.7c0.2,0.3,0.2,0.6,0.2,1c0,0.5-0.1,0.9-0.3,1.2
		c-0.2,0.3-0.5,0.6-0.8,0.8c-0.3,0.2-0.7,0.3-1.1,0.4c-0.4,0.1-0.8,0.1-1.3,0.1s-0.9,0-1.3-0.1c-0.4-0.1-0.8-0.3-1.1-0.5
		s-0.6-0.5-0.8-0.9s-0.3-0.8-0.3-1.3h1.4C862.8,74.5,862.8,74.7,863,74.9L863,74.9z M873.5,68.5v1.2h-1.6v5.1c0,0.2,0,0.3,0,0.4
		s0.1,0.2,0.2,0.2c0.1,0.1,0.2,0.1,0.3,0.1s0.3,0,0.5,0h0.6v1.2h-1c-0.4,0-0.7,0-0.9-0.1c-0.3,0-0.5-0.1-0.6-0.3
		c-0.2-0.1-0.3-0.3-0.3-0.5c-0.1-0.2-0.1-0.5-0.1-0.9v-5.3H869v-1.2h1.4V66h1.4v2.5H873.5L873.5,68.5z M876.2,68.5v1.7l0,0
		c0.3-0.7,0.7-1.2,1.2-1.5s1.1-0.5,1.8-0.4v1.4c-0.5,0-1,0.1-1.4,0.2s-0.7,0.4-0.9,0.7c-0.2,0.3-0.4,0.6-0.5,1s-0.2,0.9-0.2,1.4v3.7
		h-1.4v-8.3h1.4V68.5z M887.1,68.5h-1.4l-2.3,6.8l0,0l-2.4-6.8h-1.5l3.3,8.2l-0.6,1.4c-0.1,0.2-0.2,0.4-0.4,0.6
		c-0.2,0.1-0.4,0.2-0.7,0.2c-0.1,0-0.2,0-0.4-0.1c-0.2,0-0.3-0.1-0.4-0.1v1.2c0.1,0.1,0.3,0.1,0.5,0.1s0.3,0,0.5,0
		c0.3,0,0.6,0,0.8-0.1s0.4-0.2,0.6-0.4c0.2-0.2,0.4-0.4,0.5-0.7c0.2-0.3,0.3-0.6,0.5-1L887.1,68.5L887.1,68.5z"/>
	<g>
		<g>
			<defs>
				<rect id="SVGID_3_" x="211" y="-9" width="1078" height="527"/>
			</defs>
			<clipPath id="SVGID_4_">
				<use xlink:href="#SVGID_3_"  style="overflow:visible;"/>
			</clipPath>
			<path class="st9" d="M1267.4,20.6c27.5,27.5,27.5,72.2,0,99.7s-72.2,27.5-99.7,0s-27.5-72.2,0-99.7
				C1195.2-6.9,1239.8-6.9,1267.4,20.6"/>
		</g>
	</g>
	<path d="M1199.3,71.5c0,1.5,0.1,2.5,0.4,3s0.7,1,1.3,1.3s1.2,0.4,2,0.4s1.5-0.2,2-0.5s1-0.8,1.3-1.4s0.5-1.5,0.5-2.7v-7.9h-1.5V71
		c0,1.3-0.1,2.1-0.3,2.6s-0.4,0.8-0.8,1s-0.8,0.3-1.3,0.3c-0.4,0-0.8-0.1-1.2-0.3c-0.4-0.2-0.6-0.5-0.8-0.9s-0.3-1.1-0.3-2.1v-8
		h-1.6v7.9H1199.3z M1212.6,76.1c1.3,0,2.2-0.2,2.8-0.7c0.6-0.5,0.9-1.1,0.9-1.9c0-0.6-0.2-1.1-0.5-1.4c-0.4-0.4-1-0.7-1.9-1.1
		l-1-0.4c-0.7-0.2-1.2-0.5-1.5-0.6c-0.3-0.2-0.5-0.4-0.5-0.8c0-0.3,0.2-0.6,0.5-0.8c0.3-0.2,0.8-0.3,1.4-0.3c0.8,0,1.7,0.2,2.7,0.5
		v-1.3c-0.8-0.3-1.7-0.4-2.7-0.4c-1.2,0-2.1,0.2-2.7,0.7s-0.8,1.1-0.8,1.8c0,0.5,0.1,0.9,0.4,1.3s1,0.8,2,1.2l1,0.4l0.5,0.2
		c0.6,0.2,1,0.5,1.1,0.6c0.2,0.2,0.2,0.4,0.2,0.6c0,0.4-0.2,0.6-0.5,0.9c-0.3,0.2-0.9,0.4-1.6,0.4c-0.5,0-1-0.1-1.7-0.2
		c-0.7-0.2-1.3-0.4-1.9-0.8v1.5C1210.4,75.8,1211.5,76.1,1212.6,76.1L1212.6,76.1L1212.6,76.1z M1226,73.9c-1.1,0.6-2.2,0.9-3.1,0.9
		c-0.5,0-1-0.1-1.4-0.4s-0.7-0.6-1-1.1s-0.4-1.1-0.4-1.7h6v-0.3c0-1.5-0.3-2.7-0.9-3.4c-0.6-0.7-1.5-1.1-2.5-1.1
		c-0.8,0-1.5,0.2-2.1,0.6s-1.1,1-1.5,1.7s-0.5,1.5-0.5,2.3s0.2,1.6,0.6,2.3c0.4,0.7,0.9,1.3,1.5,1.7c0.6,0.4,1.3,0.6,2.1,0.6
		c1,0,2.1-0.3,3.3-0.8L1226,73.9L1226,73.9z M1221.1,68.7c0.4-0.4,0.9-0.6,1.5-0.6s1,0.2,1.4,0.6c0.3,0.4,0.5,1,0.5,1.7v0.2h-4.4
		C1220.3,69.8,1220.6,69.1,1221.1,68.7L1221.1,68.7z M1230.5,75.8v-5.1c0.5-0.9,1-1.5,1.5-1.9s1.1-0.6,1.6-0.6c0.1,0,0.3,0,0.6,0.1
		v2h1.4v-3.1c-0.5-0.2-1.1-0.2-1.6-0.2c-0.7,0-1.4,0.2-2,0.5c-0.6,0.4-1.1,0.9-1.6,1.6v-1.9h-1.5v8.7L1230.5,75.8L1230.5,75.8z"/>
	<line class="st2" x1="1147" y1="70.6" x2="934.9" y2="70.9"/>
	<path class="st3" d="M925.3,70.9h9.6 M934.9,74.5l-9.6-3.6l9.6-3.6"/>
	<path class="st4" d="M955,58h169.6v29.2H955V58z"/>
	<path d="M962.2,66H961v11h1.3c0.1,0,0.3,0,0.3,0c0.5,0.1,0.9,0.1,1.1,0.1c0.8,0,1.5-0.2,2.1-0.6s1-1,1.4-1.6
		c0.3-0.7,0.5-1.5,0.5-2.4c0-1.1-0.3-2-0.8-2.5c-0.5-0.6-1.1-0.8-1.7-0.8c-0.5,0-1,0.2-1.5,0.5s-1,0.8-1.4,1.4L962.2,66L962.2,66z
		 M963.5,71c0.5-0.4,0.9-0.6,1.3-0.6c0.4,0,0.7,0.2,1,0.6s0.4,1,0.4,1.7c0,1-0.3,1.9-0.8,2.5s-1.2,0.9-1.9,0.9
		c-0.4,0-0.8-0.1-1.3-0.2v-3.3C962.6,71.9,963,71.4,963.5,71L963.5,71z M974.5,69.4v4.5c-0.3,0.6-0.8,1.2-1.3,1.6s-1,0.6-1.4,0.6
		c-0.2,0-0.4-0.1-0.6-0.2c-0.2-0.2-0.3-0.3-0.4-0.6c-0.1-0.2-0.1-0.7-0.1-1.5v-4.4h-1.3v4.3c0,1.1,0.1,1.9,0.2,2.3
		c0.1,0.4,0.4,0.7,0.8,0.9c0.4,0.2,0.8,0.4,1.2,0.4c0.5,0,1-0.2,1.5-0.5s1-0.8,1.4-1.4V77h1.3v-7.6H974.5L974.5,69.4z M983.4,77
		v-1.1h-2.1v-6.6h-3.4v1.1h2.1V77H983.4L983.4,77z M980.1,67.2c0.2,0.1,0.4,0.2,0.6,0.2c0.2,0,0.4-0.1,0.6-0.2
		c0.2-0.1,0.3-0.4,0.3-0.6c0-0.3-0.1-0.5-0.3-0.6s-0.4-0.2-0.6-0.2c-0.2,0-0.4,0.1-0.6,0.2c-0.2,0.1-0.3,0.4-0.3,0.6
		C979.8,66.9,979.9,67.1,980.1,67.2L980.1,67.2z M992,77v-1.1h-2.4V66H986v1h2.3v10H992L992,77z M999.8,77h1.3V66h-1.3v3.4
		c-0.1,0-0.3,0-0.3,0c-0.5-0.1-0.9-0.1-1.1-0.1c-0.8,0-1.5,0.2-2.1,0.6s-1,1-1.4,1.6c-0.3,0.7-0.5,1.5-0.5,2.4c0,1.1,0.3,2,0.8,2.5
		c0.5,0.6,1.1,0.8,1.7,0.8c0.5,0,1-0.2,1.5-0.5s1-0.8,1.4-1.4L999.8,77L999.8,77z M998.5,75.4c-0.5,0.4-0.9,0.6-1.3,0.6
		c-0.4,0-0.7-0.2-1-0.6s-0.4-1-0.4-1.7c0-1,0.3-1.9,0.8-2.5s1.2-0.9,2-0.9c0.4,0,0.8,0.1,1.3,0.2v3.3C999.4,74.5,999,75,998.5,75.4
		L998.5,75.4z M1015.2,77.3V66.1h-1.1v11.2L1015.2,77.3L1015.2,77.3z M1029.3,70v-1.1l0.5,1.1l3.6,6.9h1.3V66.4h-1.3v7.1v1.1l0,0
		l-0.4-1.1l-3.7-7.1h-1.2V77h1.3v-7H1029.3z M1038.5,77v-4.9h4V71h-4v-3.6h4.5v-1.1h-5.8V77H1038.5L1038.5,77z M1048.9,77v-9.4h3.2
		v-1.2h-7.7v1.2h3.2V77H1048.9L1048.9,77z M1062.4,77v-4.4c0.2-0.6,0.5-1.2,0.8-1.6s0.5-0.6,0.8-0.6c0.1,0,0.2,0.1,0.4,0.2
		c0.1,0.1,0.2,0.5,0.2,1.2V77h1.1v-4.2c0.3-0.8,0.6-1.4,0.8-1.8c0.3-0.4,0.5-0.5,0.8-0.5c0.1,0,0.2,0,0.3,0.1s0.1,0.2,0.2,0.4
		s0,0.5,0,0.9V77h1.1v-5.8c0-0.8-0.1-1.4-0.3-1.7c-0.2-0.3-0.5-0.4-0.8-0.4s-0.6,0.1-0.8,0.3c-0.2,0.2-0.4,0.4-0.7,0.7
		c-0.2,0.3-0.4,0.7-0.5,1.1v-0.4c0-0.5-0.1-0.9-0.3-1.2c-0.2-0.3-0.5-0.4-0.9-0.4c-0.3,0-0.6,0.1-0.9,0.4s-0.6,0.8-1,1.5v-1.8h-1.1
		V77H1062.4L1062.4,77z M1076.6,75.3c-1,0.5-1.9,0.8-2.7,0.8c-0.5,0-0.9-0.1-1.2-0.3c-0.4-0.2-0.7-0.5-0.9-1
		c-0.2-0.4-0.3-0.9-0.3-1.5h5.3V73c0-1.3-0.3-2.3-0.8-3c-0.5-0.6-1.3-1-2.2-1c-0.7,0-1.3,0.2-1.9,0.5c-0.6,0.4-1,0.9-1.3,1.5
		s-0.5,1.3-0.5,2s0.2,1.4,0.5,2s0.8,1.1,1.3,1.5c0.5,0.3,1.2,0.5,1.8,0.5c0.9,0,1.9-0.2,2.9-0.7L1076.6,75.3L1076.6,75.3z
		 M1072.3,70.8c0.4-0.4,0.8-0.6,1.3-0.6s0.9,0.2,1.2,0.6c0.3,0.4,0.5,0.9,0.5,1.5v0.2h-3.8C1071.7,71.7,1072,71.1,1072.3,70.8
		L1072.3,70.8z M1085.1,75.6c-0.7,0.4-1.3,0.6-1.9,0.6c-0.3,0-0.6-0.1-0.9-0.2c-0.2-0.1-0.4-0.3-0.6-0.6c-0.1-0.3-0.2-0.7-0.2-1.3
		V71h3.4v-1h-3.4v-3.1h-1.3V70h-1.9v1.1h1.9v3.1c0,0.8,0.1,1.5,0.3,1.9c0.2,0.4,0.6,0.7,1,0.9c0.4,0.2,0.9,0.3,1.5,0.3
		c0.3,0,0.5,0,0.8-0.1c0.3,0,0.7-0.2,1.3-0.4L1085.1,75.6L1085.1,75.6z M1088.4,77v-4.5c0.3-0.6,0.8-1.2,1.3-1.6s1-0.6,1.4-0.6
		c0.2,0,0.4,0.1,0.6,0.2c0.2,0.2,0.3,0.3,0.4,0.6c0.1,0.2,0.1,0.7,0.1,1.5V77h1.3v-4.3c0-0.8,0-1.4-0.1-1.7c0-0.3-0.1-0.5-0.2-0.8
		s-0.4-0.6-0.7-0.8c-0.4-0.2-0.8-0.3-1.2-0.3c-0.5,0-1,0.2-1.5,0.5s-1,0.8-1.3,1.4v-5h-1.3v11H1088.4L1088.4,77z M1101.2,76.1
		c0.7-0.8,1-1.7,1-2.9s-0.3-2.1-1-2.9s-1.5-1.1-2.6-1.1s-2,0.4-2.6,1.1c-0.7,0.8-1,1.7-1,2.9s0.3,2.1,1,2.9s1.5,1.1,2.6,1.1
		S1100.6,76.8,1101.2,76.1L1101.2,76.1z M1097,75.4c-0.4-0.5-0.6-1.3-0.6-2.2c0-0.9,0.2-1.6,0.6-2.2c0.4-0.5,0.9-0.8,1.6-0.8
		s1.2,0.3,1.6,0.8s0.6,1.3,0.6,2.2c0,0.9-0.2,1.7-0.6,2.2s-0.9,0.8-1.6,0.8C1097.9,76.2,1097.4,75.9,1097,75.4L1097,75.4z M1109,77
		h1.3V66h-1.3v3.4c-0.1,0-0.3,0-0.3,0c-0.5-0.1-0.9-0.1-1.1-0.1c-0.8,0-1.5,0.2-2.1,0.6s-1,1-1.4,1.6c-0.3,0.7-0.5,1.5-0.5,2.4
		c0,1.1,0.3,2,0.8,2.5c0.5,0.6,1.1,0.8,1.7,0.8c0.5,0,1-0.2,1.5-0.5s1-0.8,1.4-1.4V77L1109,77z M1107.7,75.4
		c-0.5,0.4-0.9,0.6-1.3,0.6s-0.7-0.2-1-0.6s-0.4-1-0.4-1.7c0-1,0.3-1.9,0.8-2.5s1.2-0.9,2-0.9c0.4,0,0.8,0.1,1.3,0.2v3.3
		C1108.6,74.5,1108.2,75,1107.7,75.4L1107.7,75.4z M1115.4,77.2c1.1,0,1.9-0.2,2.4-0.6s0.8-1,0.8-1.6c0-0.5-0.2-0.9-0.5-1.3
		c-0.3-0.3-0.9-0.6-1.7-0.9l-0.9-0.3c-0.6-0.2-1-0.4-1.3-0.6s-0.4-0.4-0.4-0.7c0-0.3,0.2-0.5,0.5-0.7s0.7-0.3,1.3-0.3
		c0.7,0,1.5,0.2,2.4,0.5v-1.2c-0.7-0.2-1.5-0.4-2.3-0.4c-1.1,0-1.9,0.2-2.4,0.6s-0.7,0.9-0.7,1.6c0,0.4,0.1,0.8,0.4,1.1
		c0.2,0.3,0.8,0.7,1.8,1l0.9,0.3l0.4,0.2c0.5,0.2,0.9,0.4,1,0.5s0.2,0.3,0.2,0.5c0,0.3-0.1,0.6-0.4,0.8c-0.3,0.2-0.7,0.3-1.4,0.3
		c-0.4,0-0.9-0.1-1.4-0.2c-0.6-0.1-1.1-0.4-1.6-0.7v1.3C1113.4,77,1114.4,77.2,1115.4,77.2L1115.4,77.2L1115.4,77.2z"/>
	<path class="st7" d="M753,211h169v66H753V211z"/>
	<path class="st6" d="M753,211h169v66H753V211z"/>
	<path d="M817.1,244.9c1.2,0,2.2-0.2,3-0.5c0.7-0.4,1.3-0.9,1.7-1.6s0.6-1.4,0.6-2.2c0-0.7-0.2-1.3-0.5-1.8s-0.7-0.9-1.3-1.2
		s-1.5-0.4-2.7-0.4h-3v12.1h1.6v-4.4L817.1,244.9L817.1,244.9z M816.4,238.4h0.9c1.3,0,2.2,0.2,2.7,0.6c0.5,0.4,0.7,1,0.7,1.7
		c0,0.6-0.1,1.1-0.4,1.5c-0.3,0.5-0.6,0.8-1.1,1.1s-1.2,0.4-2.2,0.4h-0.7L816.4,238.4L816.4,238.4z M826.5,249.3v-5.1
		c0.5-0.9,1-1.5,1.5-1.9s1.1-0.6,1.6-0.6c0.1,0,0.3,0,0.6,0.1v2h1.4v-3.1c-0.5-0.2-1.1-0.2-1.6-0.2c-0.7,0-1.4,0.2-2,0.5
		c-0.6,0.4-1.1,0.9-1.6,1.6v-1.9h-1.5v8.7h1.6V249.3z M840.5,248.3c0.7-0.9,1.1-2,1.1-3.3s-0.4-2.4-1.1-3.3c-0.7-0.9-1.7-1.3-3-1.3
		c-1.2,0-2.2,0.4-3,1.3c-0.7,0.9-1.1,2-1.1,3.3s0.4,2.4,1.1,3.3c0.7,0.9,1.7,1.3,3,1.3C838.7,249.6,839.7,249.1,840.5,248.3
		L840.5,248.3z M835.6,247.5c-0.5-0.6-0.7-1.4-0.7-2.5s0.2-1.9,0.7-2.5s1.1-0.9,1.9-0.9c0.8,0,1.4,0.3,1.8,0.9
		c0.5,0.6,0.7,1.4,0.7,2.5s-0.2,1.9-0.7,2.5s-1.1,0.9-1.8,0.9C836.7,248.4,836.1,248.1,835.6,247.5L835.6,247.5z M847,245.9l2.7,3.5
		h1.9l-3.6-4.7l3-4h-1.6l-2.2,2.9l-2.3-2.9H843l3.2,4.2l-3.4,4.6h1.7L847,245.9L847,245.9z M856.2,249.3c-0.1,0.3-0.3,0.7-0.6,1.2
		s-0.6,0.8-1,1s-0.8,0.3-1.2,0.3s-0.7-0.1-1.1-0.2v1.3c0.3,0.1,0.7,0.1,1.2,0.1c1,0,1.9-0.3,2.5-0.8c0.6-0.6,1.3-1.7,2-3.4l3.4-8.1
		h-1.5l-2.7,6.6l-3.2-6.6h-1.6l4,8.4L856.2,249.3L856.2,249.3z"/>
	<line class="st10" x1="837.5" y1="104" x2="837.5" y2="198.1"/>
	<path class="st11" d="M837.5,207.7v-9.6 M841.1,198.1l-3.6,9.6l-3.6-9.6"/>
	<path class="st4" d="M807.3,143.5h60.4v29.2h-60.4V143.5z"/>
	<path d="M819.8,161.1c-0.7,0.2-1.2,0.4-1.5,0.4s-0.5,0.1-0.8,0.1c-0.9,0-1.6-0.3-2-0.9c-0.4-0.6-0.6-1.3-0.6-2c0-0.5,0.1-1,0.3-1.5
		s0.5-0.8,1-1.1c0.4-0.2,0.8-0.3,1.3-0.3c0.7,0,1.5,0.2,2.4,0.6v-1.2c-0.9-0.3-1.7-0.4-2.5-0.4c-1.1,0-2,0.4-2.7,1.1
		c-0.8,0.8-1.1,1.7-1.1,2.9c0,0.8,0.2,1.5,0.5,2.1s0.8,1.1,1.4,1.4s1.3,0.5,2,0.5c0.8,0,1.6-0.1,2.4-0.4v-1.3H819.8z M823.7,162.5
		v-4.4c0.4-0.7,0.9-1.3,1.3-1.7c0.5-0.4,0.9-0.6,1.4-0.6c0.1,0,0.3,0,0.5,0.1v1.7h1.2v-2.8c-0.5-0.1-0.9-0.2-1.4-0.2
		c-0.6,0-1.2,0.2-1.7,0.5s-1,0.8-1.4,1.4v-1.7h-1.3v7.6L823.7,162.5L823.7,162.5z M836.5,160.9c-1,0.5-1.9,0.8-2.7,0.8
		c-0.5,0-0.9-0.1-1.2-0.3c-0.4-0.2-0.7-0.5-0.9-1c-0.2-0.4-0.3-0.9-0.3-1.5h5.3v-0.3c0-1.3-0.3-2.3-0.8-3c-0.5-0.6-1.3-1-2.2-1
		c-0.7,0-1.3,0.2-1.9,0.5c-0.6,0.4-1,0.9-1.3,1.5s-0.5,1.3-0.5,2s0.2,1.4,0.5,2s0.8,1.1,1.3,1.5c0.5,0.3,1.2,0.5,1.8,0.5
		c0.9,0,1.9-0.2,2.9-0.7L836.5,160.9L836.5,160.9z M832.2,156.3c0.4-0.4,0.8-0.6,1.3-0.6s0.9,0.2,1.2,0.6c0.3,0.4,0.5,0.9,0.5,1.5
		v0.2h-3.8C831.6,157.2,831.8,156.7,832.2,156.3L832.2,156.3z M843.8,162.5h1.3c-0.2-0.6-0.3-1.3-0.3-2.2v-5.4h-1.3
		c-0.1,0-0.3,0-0.3,0c-0.5-0.1-0.9-0.1-1.1-0.1c-0.8,0-1.5,0.2-2.1,0.6c-0.6,0.4-1,1-1.4,1.6c-0.3,0.7-0.5,1.5-0.5,2.4
		c0,1.1,0.3,2,0.8,2.5c0.5,0.6,1.1,0.8,1.7,0.8c0.5,0,1-0.2,1.5-0.5s1-0.8,1.4-1.4C843.6,161.5,843.7,162.1,843.8,162.5L843.8,162.5
		L843.8,162.5z M842.3,160.9c-0.5,0.4-0.9,0.6-1.3,0.6c-0.4,0-0.7-0.2-1-0.6c-0.3-0.4-0.4-1-0.4-1.7c0-1,0.3-1.9,0.8-2.5
		s1.2-0.9,2-0.9c0.4,0,0.8,0.1,1.3,0.2v3.3C843.2,160,842.8,160.5,842.3,160.9L842.3,160.9z M853.3,161.1c-0.7,0.4-1.3,0.6-1.9,0.6
		c-0.3,0-0.6-0.1-0.9-0.2c-0.2-0.1-0.4-0.3-0.6-0.6c-0.1-0.3-0.2-0.7-0.2-1.3v-3.1h3.4v-1.1h-3.4v-3.1h-1.3v3.1h-1.9v1.1h1.9v3.1
		c0,0.8,0.1,1.5,0.3,1.9s0.6,0.7,1,0.9s0.9,0.3,1.5,0.3c0.3,0,0.5,0,0.8-0.1c0.3,0,0.7-0.2,1.3-0.4L853.3,161.1L853.3,161.1z
		 M861.7,160.9c-1,0.5-1.9,0.8-2.7,0.8c-0.5,0-0.9-0.1-1.2-0.3c-0.4-0.2-0.7-0.5-0.9-1c-0.2-0.4-0.3-0.9-0.3-1.5h5.3v-0.3
		c0-1.3-0.3-2.3-0.8-3c-0.5-0.6-1.3-1-2.2-1c-0.7,0-1.3,0.2-1.9,0.5c-0.6,0.4-1,0.9-1.3,1.5s-0.5,1.3-0.5,2s0.2,1.4,0.5,2
		s0.8,1.1,1.3,1.5c0.5,0.3,1.2,0.5,1.8,0.5c0.9,0,1.9-0.2,2.9-0.7L861.7,160.9L861.7,160.9z M857.4,156.3c0.4-0.4,0.8-0.6,1.3-0.6
		s0.9,0.2,1.2,0.6c0.3,0.4,0.5,0.9,0.5,1.5v0.2h-3.8C856.8,157.2,857,156.7,857.4,156.3L857.4,156.3z"/>
	<path class="st7" d="M764,224h169v66H764V224z"/>
	<path class="st6" d="M764,224h169v66H764V224z"/>
	<path d="M828.1,257.9c1.2,0,2.2-0.2,3-0.5c0.7-0.4,1.3-0.9,1.7-1.6s0.6-1.4,0.6-2.2c0-0.7-0.2-1.3-0.5-1.8s-0.7-0.9-1.3-1.2
		s-1.5-0.4-2.7-0.4h-3v12.1h1.6v-4.4H828.1L828.1,257.9z M827.4,251.4h0.9c1.3,0,2.2,0.2,2.7,0.6c0.5,0.4,0.7,1,0.7,1.7
		c0,0.6-0.1,1.1-0.4,1.5c-0.3,0.5-0.6,0.8-1.1,1.1s-1.2,0.4-2.2,0.4h-0.7L827.4,251.4L827.4,251.4z M837.5,262.3v-5.1
		c0.5-0.9,1-1.5,1.5-1.9s1.1-0.6,1.6-0.6c0.1,0,0.3,0,0.6,0.1v2h1.4v-3.1c-0.5-0.2-1.1-0.2-1.6-0.2c-0.7,0-1.4,0.2-2,0.5
		c-0.6,0.4-1.1,0.9-1.6,1.6v-1.9h-1.5v8.7h1.6V262.3z M851.5,261.3c0.7-0.9,1.1-2,1.1-3.3s-0.4-2.4-1.1-3.3c-0.7-0.9-1.7-1.3-3-1.3
		c-1.2,0-2.2,0.4-3,1.3c-0.7,0.9-1.1,2-1.1,3.3s0.4,2.4,1.1,3.3c0.7,0.9,1.7,1.3,3,1.3C849.7,262.6,850.7,262.1,851.5,261.3
		L851.5,261.3z M846.6,260.5c-0.5-0.6-0.7-1.4-0.7-2.5s0.2-1.9,0.7-2.5s1.1-0.9,1.9-0.9c0.8,0,1.4,0.3,1.8,0.9
		c0.5,0.6,0.7,1.4,0.7,2.5s-0.2,1.9-0.7,2.5s-1.1,0.9-1.8,0.9C847.7,261.4,847.1,261.1,846.6,260.5L846.6,260.5z M858,258.9l2.7,3.5
		h1.9l-3.6-4.7l3-4h-1.6l-2.2,2.9l-2.3-2.9H854l3.2,4.2l-3.4,4.6h1.7L858,258.9L858,258.9z M867.2,262.3c-0.1,0.3-0.3,0.7-0.6,1.2
		s-0.6,0.8-1,1s-0.8,0.3-1.2,0.3s-0.7-0.1-1.1-0.2v1.3c0.3,0.1,0.7,0.1,1.2,0.1c1,0,1.9-0.3,2.5-0.8c0.6-0.6,1.3-1.7,2-3.4l3.4-8.1
		h-1.5l-2.7,6.6l-3.2-6.6h-1.6l4,8.4L867.2,262.3L867.2,262.3z"/>
	<path class="st7" d="M779,240h169v66H779V240z"/>
	<path class="st6" d="M779,240h169v66H779V240z"/>
	<path d="M843.1,273.9c1.2,0,2.2-0.2,3-0.5c0.7-0.4,1.3-0.9,1.7-1.6s0.6-1.4,0.6-2.2c0-0.7-0.2-1.3-0.5-1.8s-0.7-0.9-1.3-1.2
		c-0.6-0.3-1.5-0.4-2.7-0.4h-3v12.1h1.6v-4.4H843.1L843.1,273.9z M842.4,267.4h0.9c1.3,0,2.2,0.2,2.7,0.6s0.7,1,0.7,1.7
		c0,0.6-0.1,1.1-0.4,1.5c-0.3,0.5-0.6,0.8-1.1,1.1c-0.5,0.3-1.2,0.4-2.2,0.4h-0.7L842.4,267.4L842.4,267.4z M852.5,278.3v-5.1
		c0.5-0.9,1-1.5,1.5-1.9s1.1-0.6,1.6-0.6c0.1,0,0.3,0,0.6,0.1v2h1.4v-3.1c-0.5-0.2-1.1-0.2-1.6-0.2c-0.7,0-1.4,0.2-2,0.5
		c-0.6,0.4-1.1,0.9-1.6,1.6v-1.9h-1.5v8.7h1.6V278.3z M866.5,277.3c0.7-0.9,1.1-2,1.1-3.3s-0.4-2.4-1.1-3.3c-0.7-0.9-1.7-1.3-3-1.3
		c-1.2,0-2.2,0.4-3,1.3c-0.7,0.9-1.1,2-1.1,3.3s0.4,2.4,1.1,3.3c0.7,0.9,1.7,1.3,3,1.3C864.7,278.6,865.7,278.1,866.5,277.3
		L866.5,277.3z M861.6,276.5c-0.5-0.6-0.7-1.4-0.7-2.5s0.2-1.9,0.7-2.5s1.1-0.9,1.9-0.9c0.8,0,1.4,0.3,1.8,0.9
		c0.5,0.6,0.7,1.4,0.7,2.5s-0.2,1.9-0.7,2.5s-1.1,0.9-1.8,0.9C862.7,277.4,862.1,277.1,861.6,276.5L861.6,276.5z M873,274.9l2.7,3.5
		h1.9l-3.6-4.7l3-4h-1.6l-2.2,2.9l-2.3-2.9H869l3.2,4.2l-3.4,4.6h1.7L873,274.9L873,274.9z M882.2,278.3c-0.1,0.3-0.3,0.7-0.6,1.2
		s-0.6,0.8-1,1s-0.8,0.3-1.2,0.3s-0.7-0.1-1.1-0.2v1.3c0.3,0.1,0.7,0.1,1.2,0.1c1,0,1.9-0.3,2.5-0.8c0.6-0.6,1.3-1.7,2-3.4l3.4-8.1
		h-1.5l-2.7,6.6l-3.2-6.6h-1.6l4,8.4L882.2,278.3L882.2,278.3z"/>
	<polyline class="st2" points="1217.7,141 1218,270 960.9,270.5 	"/>
	<path class="st3" d="M951.3,270.5h9.6 M960.9,274.1l-9.6-3.6l9.6-3.6"/>
	<path class="st4" d="M1055.4,253h68.8v29.2h-68.8V253z"/>
	<path d="M1067.8,270.3c-1,0.5-1.9,0.8-2.7,0.8c-0.5,0-0.9-0.1-1.2-0.3c-0.4-0.2-0.7-0.5-0.9-1c-0.2-0.4-0.3-0.9-0.3-1.5h5.3V268
		c0-1.3-0.3-2.3-0.8-3c-0.5-0.6-1.3-1-2.2-1c-0.7,0-1.3,0.2-1.9,0.5c-0.6,0.4-1,0.9-1.3,1.5s-0.5,1.3-0.5,2s0.2,1.4,0.5,2
		s0.8,1.1,1.3,1.5c0.5,0.3,1.2,0.5,1.8,0.5c0.9,0,1.9-0.2,2.9-0.7L1067.8,270.3L1067.8,270.3z M1063.5,265.8
		c0.4-0.4,0.8-0.6,1.3-0.6s0.9,0.2,1.2,0.6c0.3,0.4,0.5,0.9,0.5,1.5v0.2h-3.8C1062.9,266.7,1063.2,266.1,1063.5,265.8L1063.5,265.8z
		 M1072.9,269l2.3,3h1.6l-3.1-4.1l2.6-3.5h-1.4l-1.9,2.6l-2-2.6h-1.6l2.8,3.7l-3,4h1.5L1072.9,269L1072.9,269z M1084.6,270.3
		c-1,0.5-1.9,0.8-2.7,0.8c-0.5,0-0.9-0.1-1.2-0.3c-0.4-0.2-0.7-0.5-0.9-1c-0.2-0.4-0.3-0.9-0.3-1.5h5.3V268c0-1.3-0.3-2.3-0.8-3
		c-0.5-0.6-1.3-1-2.2-1c-0.7,0-1.3,0.2-1.9,0.5c-0.6,0.4-1,0.9-1.3,1.5s-0.5,1.3-0.5,2s0.2,1.4,0.5,2s0.8,1.1,1.3,1.5
		c0.5,0.3,1.2,0.5,1.8,0.5c0.9,0,1.9-0.2,2.9-0.7L1084.6,270.3L1084.6,270.3z M1080.3,265.8c0.4-0.4,0.8-0.6,1.3-0.6
		s0.9,0.2,1.2,0.6c0.3,0.4,0.5,0.9,0.5,1.5v0.2h-3.8C1079.7,266.7,1080,266.1,1080.3,265.8L1080.3,265.8z M1093.1,270.6
		c-0.7,0.2-1.2,0.4-1.5,0.4s-0.5,0.1-0.8,0.1c-0.9,0-1.6-0.3-2-0.9s-0.6-1.3-0.6-2c0-0.5,0.1-1,0.3-1.5c0.2-0.5,0.5-0.8,1-1.1
		c0.4-0.2,0.8-0.3,1.3-0.3c0.7,0,1.5,0.2,2.4,0.6v-1.2c-0.9-0.3-1.7-0.4-2.5-0.4c-1.1,0-2,0.4-2.7,1.1c-0.8,0.8-1.1,1.7-1.1,2.9
		c0,0.8,0.2,1.5,0.5,2.1s0.8,1.1,1.4,1.4c0.6,0.4,1.3,0.5,2,0.5c0.8,0,1.6-0.1,2.4-0.4v-1.3H1093.1z M1100.1,264.4v4.5
		c-0.3,0.6-0.8,1.2-1.3,1.6s-1,0.6-1.4,0.6c-0.2,0-0.4-0.1-0.6-0.2c-0.2-0.2-0.3-0.3-0.4-0.6c-0.1-0.2-0.1-0.7-0.1-1.5v-4.4h-1.3
		v4.3c0,1.1,0.1,1.9,0.2,2.3s0.4,0.7,0.8,0.9c0.4,0.2,0.8,0.4,1.2,0.4c0.5,0,1-0.2,1.5-0.5s1-0.8,1.4-1.4v1.7h1.3v-7.6L1100.1,264.4
		L1100.1,264.4z M1109.9,270.6c-0.7,0.4-1.3,0.6-1.9,0.6c-0.3,0-0.6-0.1-0.9-0.2c-0.2-0.1-0.4-0.3-0.6-0.6c-0.1-0.3-0.2-0.7-0.2-1.3
		V266h3.4v-1h-3.4v-3.1h-1.3v3.1h-1.9v1.1h1.9v3.1c0,0.8,0.1,1.5,0.3,1.9c0.2,0.4,0.6,0.7,1,0.9c0.4,0.2,0.9,0.3,1.5,0.3
		c0.3,0,0.5,0,0.8-0.1c0.3,0,0.7-0.2,1.3-0.4L1109.9,270.6L1109.9,270.6z M1118.2,270.3c-1,0.5-1.9,0.8-2.7,0.8
		c-0.5,0-0.9-0.1-1.2-0.3c-0.4-0.2-0.7-0.5-0.9-1c-0.2-0.4-0.3-0.9-0.3-1.5h5.3V268c0-1.3-0.3-2.3-0.8-3c-0.5-0.6-1.3-1-2.2-1
		c-0.7,0-1.3,0.2-1.9,0.5c-0.6,0.4-1,0.9-1.3,1.5s-0.5,1.3-0.5,2s0.2,1.4,0.5,2s0.8,1.1,1.3,1.5c0.5,0.3,1.2,0.5,1.8,0.5
		c0.9,0,1.9-0.2,2.9-0.7L1118.2,270.3L1118.2,270.3z M1113.9,265.8c0.4-0.4,0.8-0.6,1.3-0.6s0.9,0.2,1.2,0.6
		c0.3,0.4,0.5,0.9,0.5,1.5v0.2h-3.8C1113.3,266.7,1113.6,266.1,1113.9,265.8L1113.9,265.8z"/>
	<polyline class="st2" points="753,243.2 718.6,242.9 718.6,141 772,141 772,116.9 	"/>
	<path class="st3" d="M772,107.3v9.6 M768.4,116.9l3.6-9.6l3.6,9.6"/>
	<path class="st4" d="M663.2,157H774v48.3H663.2V157z"/>
	<path d="M700.8,174.6c-0.7,0.4-1.5,0.6-2.2,0.6c-0.5,0-1-0.2-1.5-0.5c-0.4-0.4-0.8-0.9-1.1-1.6s-0.4-1.5-0.4-2.4
		c0-0.8,0.1-1.6,0.4-2.4c0.3-0.7,0.6-1.3,1.1-1.6c0.5-0.4,1-0.6,1.5-0.6c0.7,0,1.5,0.2,2.2,0.6v-1.3c-0.8-0.3-1.5-0.4-2.1-0.4
		c-0.8,0-1.6,0.2-2.3,0.7s-1.2,1.1-1.6,2s-0.6,1.9-0.6,3s0.2,2.1,0.6,3c0.4,0.9,0.9,1.5,1.6,2s1.5,0.7,2.3,0.7
		c0.6,0,1.3-0.1,2.1-0.4V174.6L700.8,174.6z M708.1,176h1.3c-0.2-0.6-0.3-1.3-0.3-2.2v-5.4h-1.3c-0.1,0-0.3,0-0.3,0
		c-0.5-0.1-0.9-0.1-1.1-0.1c-0.8,0-1.5,0.2-2.1,0.6c-0.6,0.4-1,1-1.4,1.6c-0.3,0.7-0.5,1.5-0.5,2.4c0,1.1,0.3,2,0.8,2.5
		c0.5,0.6,1.1,0.8,1.7,0.8c0.5,0,1-0.2,1.5-0.5s1-0.8,1.4-1.4C708,175,708,175.6,708.1,176L708.1,176L708.1,176z M706.6,174.4
		c-0.5,0.4-0.9,0.6-1.3,0.6c-0.4,0-0.7-0.2-1-0.6c-0.3-0.4-0.4-1-0.4-1.7c0-1,0.3-1.9,0.8-2.5s1.2-0.9,2-0.9c0.4,0,0.8,0.1,1.3,0.2
		v3.3C707.5,173.4,707.1,174,706.6,174.4L706.6,174.4z M717.7,174.5c-0.7,0.2-1.2,0.4-1.5,0.4s-0.5,0.1-0.8,0.1
		c-0.9,0-1.6-0.3-2-0.9c-0.4-0.6-0.6-1.3-0.6-2c0-0.5,0.1-1,0.3-1.5s0.5-0.8,1-1.1c0.4-0.2,0.8-0.3,1.3-0.3c0.7,0,1.5,0.2,2.4,0.6
		v-1.2c-0.9-0.3-1.7-0.4-2.5-0.4c-1.1,0-2,0.4-2.7,1.1c-0.8,0.8-1.1,1.7-1.1,2.9c0,0.8,0.2,1.5,0.5,2.1s0.8,1.1,1.4,1.4
		s1.3,0.5,2,0.5c0.8,0,1.6-0.1,2.4-0.4v-1.3H717.7z M720.9,176v-4.5c0.3-0.6,0.8-1.2,1.3-1.6s1-0.6,1.4-0.6c0.2,0,0.4,0.1,0.6,0.2
		c0.2,0.2,0.3,0.3,0.4,0.6c0.1,0.2,0.1,0.7,0.1,1.5v4.4h1.3v-4.3c0-0.8,0-1.4-0.1-1.7c0-0.3-0.1-0.5-0.2-0.8
		c-0.1-0.3-0.4-0.6-0.7-0.8c-0.4-0.2-0.8-0.3-1.2-0.3c-0.5,0-1,0.2-1.5,0.5s-1,0.8-1.3,1.4v-5.1h-1.3v11h1.2V176z M734.4,174.3
		c-1,0.5-1.9,0.8-2.7,0.8c-0.5,0-0.9-0.1-1.2-0.3c-0.4-0.2-0.7-0.5-0.9-1c-0.2-0.4-0.3-0.9-0.3-1.5h5.3V172c0-1.3-0.3-2.3-0.8-3
		c-0.5-0.6-1.3-1-2.2-1c-0.7,0-1.3,0.2-1.9,0.5c-0.6,0.4-1,0.9-1.3,1.5s-0.5,1.3-0.5,2s0.2,1.4,0.5,2s0.8,1.1,1.3,1.5
		c0.5,0.3,1.2,0.5,1.8,0.5c0.9,0,1.9-0.2,2.9-0.7L734.4,174.3L734.4,174.3z M730.1,169.8c0.4-0.4,0.8-0.6,1.3-0.6s0.9,0.2,1.2,0.6
		c0.3,0.4,0.5,0.9,0.5,1.5v0.2h-3.8C729.5,170.7,729.8,170.1,730.1,169.8L730.1,169.8z M740.4,176c0.2-0.2,0.3-0.5,0.3-0.8
		s-0.1-0.6-0.3-0.8s-0.5-0.3-0.8-0.3s-0.6,0.1-0.8,0.3s-0.3,0.5-0.3,0.8s0.1,0.6,0.3,0.8s0.5,0.3,0.8,0.3S740.2,176.2,740.4,176
		L740.4,176z M740.4,170c0.2-0.2,0.3-0.5,0.3-0.8s-0.1-0.6-0.3-0.8s-0.5-0.3-0.8-0.3s-0.6,0.1-0.8,0.3s-0.3,0.5-0.3,0.8
		s0.1,0.6,0.3,0.8s0.5,0.3,0.8,0.3C739.9,170.4,740.2,170.2,740.4,170L740.4,170z"/>
	<path d="M671.2,195.1v-4.4c0.4-0.7,0.9-1.3,1.3-1.7c0.5-0.4,0.9-0.6,1.4-0.6c0.1,0,0.3,0,0.5,0.1v1.7h1.2v-2.8
		c-0.5-0.1-0.9-0.2-1.4-0.2c-0.6,0-1.2,0.2-1.7,0.5s-1,0.8-1.4,1.4v-1.7h-1.3v7.6L671.2,195.1L671.2,195.1z M684,193.5
		c-1,0.5-1.9,0.8-2.7,0.8c-0.5,0-0.9-0.1-1.2-0.3c-0.4-0.2-0.7-0.5-0.9-1c-0.2-0.4-0.3-0.9-0.3-1.5h5.3v-0.3c0-1.3-0.3-2.3-0.8-3
		c-0.5-0.6-1.3-1-2.2-1c-0.7,0-1.3,0.2-1.9,0.5c-0.6,0.4-1,0.9-1.3,1.5s-0.5,1.3-0.5,2s0.2,1.4,0.5,2s0.8,1.1,1.3,1.5
		c0.5,0.3,1.2,0.5,1.8,0.5c0.9,0,1.9-0.2,2.9-0.7L684,193.5L684,193.5z M679.7,188.9c0.4-0.4,0.8-0.6,1.3-0.6s0.9,0.2,1.2,0.6
		c0.3,0.4,0.5,0.9,0.5,1.5v0.2h-3.8C679.1,189.8,679.4,189.3,679.7,188.9L679.7,188.9z M691.3,195.1h1.3c-0.2-0.6-0.3-1.3-0.3-2.2
		v-5.4H691c-0.1,0-0.3,0-0.3,0c-0.5-0.1-0.9-0.1-1.1-0.1c-0.8,0-1.5,0.2-2.1,0.6c-0.6,0.4-1,1-1.4,1.6c-0.3,0.7-0.5,1.5-0.5,2.4
		c0,1.1,0.3,2,0.8,2.5c0.5,0.6,1.1,0.8,1.7,0.8c0.5,0,1-0.2,1.5-0.5s1-0.8,1.4-1.4C691.1,194.2,691.2,194.7,691.3,195.1L691.3,195.1
		L691.3,195.1z M689.8,193.5c-0.5,0.4-0.9,0.6-1.3,0.6c-0.4,0-0.7-0.2-1-0.6c-0.3-0.4-0.4-1-0.4-1.7c0-1,0.3-1.9,0.8-2.5
		s1.2-0.9,2-0.9c0.4,0,0.8,0.1,1.3,0.2v3.3C690.7,192.6,690.3,193.1,689.8,193.5L689.8,193.5z M699.6,195.1h1.3v-11h-1.3v3.4
		c-0.1,0-0.3,0-0.3,0c-0.5-0.1-0.9-0.1-1.1-0.1c-0.8,0-1.5,0.2-2.1,0.6c-0.6,0.4-1,1-1.4,1.6c-0.3,0.7-0.5,1.5-0.5,2.4
		c0,1.1,0.3,2,0.8,2.5c0.5,0.6,1.1,0.8,1.7,0.8c0.5,0,1-0.2,1.5-0.5s1-0.8,1.4-1.4L699.6,195.1L699.6,195.1z M698.3,193.5
		c-0.5,0.4-0.9,0.6-1.3,0.6c-0.4,0-0.7-0.2-1-0.6c-0.3-0.4-0.4-1-0.4-1.7c0-1,0.3-1.9,0.8-2.5s1.2-0.9,2-0.9c0.4,0,0.8,0.1,1.3,0.2
		v3.3C699.2,192.6,698.8,193.1,698.3,193.5L698.3,193.5z M715,195.5v-11.2h-1.1v11.2H715L715,195.5z M729.6,195.1l1.3-4.9l0.2-1.1
		l0,0l0.2,1.1l1.5,4.9h1.2l1.2-7.6h-1l-0.7,4.6l-0.2,1.1l-0.2-1.1l-1.4-4.6h-1.1l-1.2,4.6l-0.2,1.1l-0.2-1.1l-0.7-4.6h-1.2l1.2,7.6
		H729.6L729.6,195.1z M738.4,195.1v-4.4c0.4-0.7,0.9-1.3,1.3-1.7c0.5-0.4,0.9-0.6,1.4-0.6c0.1,0,0.3,0,0.5,0.1v1.7h1.2v-2.8
		c-0.5-0.1-0.9-0.2-1.4-0.2c-0.6,0-1.2,0.2-1.7,0.5s-1,0.8-1.4,1.4v-1.7H737v7.6L738.4,195.1L738.4,195.1z M750.4,195.1V194h-2.1
		v-6.6h-3.4v1.1h2.1v6.6H750.4L750.4,195.1z M747.1,185.4c0.2,0.1,0.4,0.2,0.6,0.2c0.2,0,0.4-0.1,0.6-0.2c0.2-0.1,0.3-0.4,0.3-0.6
		c0-0.3-0.1-0.5-0.3-0.6s-0.4-0.2-0.6-0.2c-0.2,0-0.4,0.1-0.6,0.2c-0.2,0.1-0.3,0.4-0.3,0.6S746.9,185.2,747.1,185.4L747.1,185.4z
		 M759.7,193.7c-0.7,0.4-1.3,0.6-1.9,0.6c-0.3,0-0.6-0.1-0.9-0.2c-0.2-0.1-0.4-0.3-0.6-0.6c-0.1-0.3-0.2-0.7-0.2-1.3v-3.1h3.4V188
		h-3.4v-3.1h-1.3v3.1h-1.9v1.1h1.9v3.1c0,0.8,0.1,1.5,0.3,1.9s0.6,0.7,1,0.9s0.9,0.3,1.5,0.3c0.3,0,0.5,0,0.8-0.1
		c0.3,0,0.7-0.2,1.3-0.4L759.7,193.7L759.7,193.7z M768,193.5c-1,0.5-1.9,0.8-2.7,0.8c-0.5,0-0.9-0.1-1.2-0.3
		c-0.4-0.2-0.7-0.5-0.9-1c-0.2-0.4-0.3-0.9-0.3-1.5h5.3v-0.3c0-1.3-0.3-2.3-0.8-3c-0.5-0.6-1.3-1-2.2-1c-0.7,0-1.3,0.2-1.9,0.5
		c-0.6,0.4-1,0.9-1.3,1.5s-0.5,1.3-0.5,2s0.2,1.4,0.5,2s0.8,1.1,1.3,1.5c0.5,0.3,1.2,0.5,1.8,0.5c0.9,0,1.9-0.2,2.9-0.7L768,193.5
		L768,193.5z M763.7,188.9c0.4-0.4,0.8-0.6,1.3-0.6s0.9,0.2,1.2,0.6c0.3,0.4,0.5,0.9,0.5,1.5v0.2H763
		C763.1,189.8,763.4,189.3,763.7,188.9L763.7,188.9z"/>
	<path class="st12" d="M482,38h169v66H482V38z"/>
	<path class="st6" d="M482,38h169v66H482V38z"/>
	<path d="M535.5,73.7h4.3l0.8,2.7h1.7l-3.8-12.1h-1.6l-3.7,12.1h1.5L535.5,73.7L535.5,73.7z M537.3,67.9l0.3-1.2l0.3,1.2l1.5,4.6
		h-3.5L537.3,67.9L537.3,67.9z M551.1,74.7c-0.8,0.3-1.4,0.4-1.7,0.5c-0.3,0-0.6,0.1-0.9,0.1c-1.1,0-1.8-0.4-2.3-1.1
		s-0.7-1.5-0.7-2.2c0-0.6,0.1-1.2,0.4-1.7c0.3-0.6,0.6-1,1.1-1.2c0.5-0.3,1-0.4,1.5-0.4c0.8,0,1.7,0.2,2.7,0.7V68
		c-1-0.3-2-0.5-2.9-0.5c-1.2,0-2.3,0.4-3.1,1.3c-0.9,0.9-1.3,2-1.3,3.3c0,0.9,0.2,1.7,0.6,2.4c0.4,0.7,0.9,1.2,1.6,1.6
		c0.7,0.4,1.5,0.6,2.3,0.6c0.9,0,1.8-0.2,2.8-0.5L551.1,74.7L551.1,74.7z M560.6,74.7c-0.8,0.4-1.5,0.7-2.2,0.7
		c-0.4,0-0.7-0.1-1-0.2s-0.5-0.3-0.7-0.6c-0.2-0.3-0.2-0.8-0.2-1.5v-3.5h3.9v-1.2h-3.9v-3.5H555v3.5h-2.2v1.2h2.2v3.5
		c0,1,0.1,1.7,0.4,2.1c0.3,0.5,0.6,0.8,1.1,1s1.1,0.4,1.7,0.4c0.3,0,0.6,0,0.9-0.1c0.3-0.1,0.8-0.2,1.5-0.5L560.6,74.7L560.6,74.7z
		 M569.2,76.3v-1.2h-2.4v-7.5h-3.9v1.2h2.4v7.5H569.2L569.2,76.3z M565.5,65.2c0.2,0.2,0.4,0.2,0.6,0.2c0.2,0,0.4-0.1,0.6-0.2
		c0.2-0.2,0.3-0.4,0.3-0.7c0-0.3-0.1-0.6-0.3-0.7c-0.2-0.2-0.4-0.2-0.6-0.2c-0.2,0-0.4,0.1-0.6,0.2c-0.2,0.2-0.3,0.4-0.3,0.7
		C565.1,64.8,565.2,65,565.5,65.2L565.5,65.2z M579.1,75.3c0.7-0.9,1.1-2,1.1-3.3s-0.4-2.4-1.1-3.3c-0.7-0.9-1.7-1.3-3-1.3
		c-1.2,0-2.2,0.4-3,1.3c-0.7,0.9-1.1,2-1.1,3.3s0.4,2.4,1.1,3.3c0.7,0.9,1.7,1.3,3,1.3C577.3,76.6,578.3,76.1,579.1,75.3L579.1,75.3
		z M574.2,74.5c-0.5-0.6-0.7-1.4-0.7-2.5s0.2-1.9,0.7-2.5s1.1-0.9,1.9-0.9c0.8,0,1.4,0.3,1.8,0.9c0.5,0.6,0.7,1.4,0.7,2.5
		s-0.2,1.9-0.7,2.5s-1.1,0.9-1.8,0.9C575.3,75.4,574.7,75.1,574.2,74.5L574.2,74.5z M583.6,76.3v-5.1c0.4-0.7,0.9-1.3,1.4-1.8
		s1.1-0.7,1.6-0.7c0.3,0,0.5,0.1,0.7,0.3c0.2,0.2,0.4,0.4,0.4,0.7c0.1,0.3,0.1,0.8,0.1,1.7v5.1h1.5v-4.9c0-1.3-0.1-2.2-0.3-2.6
		s-0.5-0.8-0.9-1.1s-0.9-0.4-1.4-0.4c-0.6,0-1.2,0.2-1.8,0.6s-1.1,0.9-1.5,1.6v-1.9h-1.5v8.7h1.7V76.3z M595.3,76.6
		c1.3,0,2.2-0.2,2.8-0.7s0.9-1.1,0.9-1.9c0-0.6-0.2-1.1-0.5-1.4c-0.4-0.4-1-0.7-1.9-1.1l-1-0.4c-0.7-0.2-1.2-0.5-1.5-0.6
		c-0.3-0.2-0.5-0.4-0.5-0.8c0-0.3,0.2-0.6,0.5-0.8c0.3-0.2,0.8-0.3,1.4-0.3c0.8,0,1.7,0.2,2.7,0.5v-1.3c-0.8-0.3-1.7-0.4-2.7-0.4
		c-1.2,0-2.1,0.2-2.7,0.7c-0.6,0.5-0.8,1.1-0.8,1.8c0,0.5,0.1,0.9,0.4,1.3c0.3,0.4,1,0.8,2,1.2l1,0.4l0.5,0.2c0.6,0.2,1,0.5,1.1,0.6
		c0.2,0.2,0.2,0.4,0.2,0.6c0,0.4-0.2,0.6-0.5,0.9c-0.3,0.2-0.9,0.4-1.6,0.4c-0.5,0-1-0.1-1.7-0.2c-0.7-0.2-1.3-0.4-1.9-0.8V76
		C593,76.3,594.1,76.6,595.3,76.6L595.3,76.6L595.3,76.6z"/>
	<path class="st4" d="M678.1,56.4h60.4v29.2h-60.4V56.4z"/>
	<path d="M689.3,75.4h1.3v-11h-1.3v3.4c-0.1,0-0.3,0-0.3,0c-0.5-0.1-0.9-0.1-1.1-0.1c-0.8,0-1.5,0.2-2.1,0.6s-1,1-1.4,1.6
		c-0.3,0.7-0.5,1.5-0.5,2.4c0,1.1,0.3,2,0.8,2.5c0.5,0.6,1.1,0.8,1.7,0.8c0.5,0,1-0.2,1.5-0.5s1-0.8,1.4-1.4L689.3,75.4L689.3,75.4z
		 M688,73.8c-0.5,0.4-0.9,0.6-1.3,0.6c-0.4,0-0.7-0.2-1-0.6s-0.4-1-0.4-1.7c0-1,0.3-1.9,0.8-2.5s1.2-0.9,2-0.9
		c0.4,0,0.8,0.1,1.3,0.2v3.3C688.9,72.9,688.5,73.4,688,73.8L688,73.8z M698.9,73.7c-1,0.5-1.9,0.8-2.7,0.8c-0.5,0-0.9-0.1-1.2-0.3
		c-0.4-0.2-0.7-0.5-0.9-1c-0.2-0.4-0.3-0.9-0.3-1.5h5.3v-0.3c0-1.3-0.3-2.3-0.8-3c-0.5-0.6-1.3-1-2.2-1c-0.7,0-1.3,0.2-1.9,0.5
		c-0.6,0.4-1,0.9-1.3,1.5s-0.5,1.3-0.5,2s0.2,1.4,0.5,2s0.8,1.1,1.3,1.5c0.5,0.3,1.2,0.5,1.8,0.5c0.9,0,1.9-0.2,2.9-0.7L698.9,73.7
		L698.9,73.7z M694.6,69.2c0.4-0.4,0.8-0.6,1.3-0.6s0.9,0.2,1.2,0.6s0.5,0.9,0.5,1.5v0.2h-3.8C694,70.1,694.3,69.6,694.6,69.2
		L694.6,69.2z M702.1,67.8h-1.3v10.6h1.3v-3c0.1,0,0.3,0,0.3,0c0.5,0.1,0.9,0.1,1.1,0.1c0.8,0,1.5-0.2,2.1-0.6s1-1,1.4-1.6
		c0.3-0.7,0.5-1.5,0.5-2.4c0-1.1-0.3-2-0.8-2.5c-0.5-0.6-1.1-0.8-1.7-0.8c-0.5,0-1,0.2-1.5,0.5s-1,0.8-1.4,1.4L702.1,67.8
		L702.1,67.8z M703.4,69.4c0.5-0.4,0.9-0.6,1.3-0.6c0.4,0,0.7,0.2,1,0.6s0.4,1,0.4,1.7c0,1-0.3,1.9-0.8,2.5s-1.2,0.9-1.9,0.9
		c-0.4,0-0.8-0.1-1.3-0.2V71C702.5,70.3,703,69.8,703.4,69.4L703.4,69.4z M715.1,75.4v-1.1h-2.4v-10h-3.6v1.1h2.3v10H715.1
		L715.1,75.4z M723.5,74.5c0.7-0.8,1-1.7,1-2.9s-0.3-2.1-1-2.9s-1.5-1.1-2.6-1.1s-2,0.4-2.6,1.1c-0.7,0.8-1,1.7-1,2.9s0.3,2.1,1,2.9
		s1.5,1.1,2.6,1.1S722.9,75.2,723.5,74.5L723.5,74.5z M719.3,73.8c-0.4-0.5-0.6-1.3-0.6-2.2c0-0.9,0.2-1.6,0.6-2.2
		c0.4-0.5,0.9-0.8,1.6-0.8c0.7,0,1.2,0.3,1.6,0.8c0.4,0.5,0.6,1.3,0.6,2.2c0,0.9-0.2,1.7-0.6,2.2c-0.4,0.5-0.9,0.8-1.6,0.8
		C720.2,74.6,719.7,74.3,719.3,73.8L719.3,73.8z M728.9,75.4c-0.1,0.3-0.3,0.6-0.6,1s-0.6,0.7-0.9,0.8c-0.3,0.2-0.7,0.2-1.1,0.2
		c-0.3,0-0.7-0.1-1-0.2v1.1c0.3,0.1,0.7,0.1,1,0.1c0.9,0,1.6-0.2,2.2-0.7c0.6-0.5,1.2-1.5,1.8-3l3-7.1H732l-2.3,5.7l-2.8-5.7h-1.4
		l3.5,7.3L728.9,75.4L728.9,75.4z"/>
	<g>
		<g>
			<defs>
				<rect id="SVGID_5_" x="211" y="-9" width="1078" height="527"/>
			</defs>
			<clipPath id="SVGID_6_">
				<use xlink:href="#SVGID_5_"  style="overflow:visible;"/>
			</clipPath>
			<path class="st13" d="M848.5,376l70.5,70.5L848.5,517L778,446.5L848.5,376z"/>
		</g>
	</g>
	<path d="M821.9,439.8V429h3.6v-1.3h-8.8v1.3h3.6v10.8H821.9L821.9,439.8z M833.4,439.8v-1.2H831V431h-3.9v1.2h2.4v7.5L833.4,439.8
		L833.4,439.8z M829.7,428.6c0.2,0.2,0.4,0.2,0.6,0.2c0.2,0,0.4-0.1,0.6-0.2c0.2-0.2,0.3-0.4,0.3-0.7c0-0.3-0.1-0.6-0.3-0.7
		c-0.2-0.2-0.4-0.2-0.6-0.2c-0.2,0-0.4,0.1-0.6,0.2c-0.2,0.2-0.3,0.4-0.3,0.7C829.3,428.2,829.4,428.4,829.7,428.6L829.7,428.6z
		 M838.2,439.8v-5.1c0.4-0.7,0.9-1.3,1.4-1.8s1.1-0.7,1.6-0.7c0.3,0,0.5,0.1,0.7,0.3c0.2,0.2,0.4,0.4,0.4,0.7
		c0.1,0.3,0.1,0.8,0.1,1.7v5.1h1.5v-4.9c0-1.3-0.1-2.2-0.3-2.6s-0.5-0.8-0.9-1.1s-0.9-0.4-1.4-0.4c-0.6,0-1.2,0.2-1.8,0.6
		s-1.1,0.9-1.5,1.6V431h-1.5v8.7L838.2,439.8L838.2,439.8z M852.8,439.8v-1.2h-2.7v-11.4H846v1.2h2.6v11.4H852.8L852.8,439.8z
		 M861.9,439.8h1.5c-0.2-0.7-0.3-1.5-0.3-2.6V431h-1.5c-0.2,0-0.3,0-0.4,0c-0.6-0.1-1-0.1-1.2-0.1c-1,0-1.8,0.2-2.4,0.7
		c-0.6,0.5-1.2,1.1-1.5,1.9c-0.4,0.8-0.6,1.7-0.6,2.7c0,1.3,0.3,2.2,0.9,2.9c0.6,0.6,1.2,0.9,2,0.9c0.5,0,1.1-0.2,1.7-0.6
		c0.6-0.4,1.2-0.9,1.6-1.6C861.7,438.6,861.8,439.3,861.9,439.8L861.9,439.8L861.9,439.8z M860.2,437.9c-0.5,0.5-1,0.7-1.5,0.7
		c-0.4,0-0.8-0.2-1.1-0.7c-0.3-0.4-0.5-1.1-0.5-2c0-1.2,0.3-2.1,0.9-2.8s1.3-1,2.2-1c0.4,0,0.9,0.1,1.4,0.2v3.7
		C861.2,436.8,860.7,437.5,860.2,437.9L860.2,437.9z M867.4,439.8v-4.7l4.2,4.7h2l-4.3-4.7l4.2-4h-1.9l-4.2,4v-7.9h-1.5v12.6H867.4
		L867.4,439.8z M882.4,437.8c-1.1,0.6-2.2,0.9-3.1,0.9c-0.5,0-1-0.1-1.4-0.4s-0.7-0.6-1-1.1s-0.4-1.1-0.4-1.7h6v-0.3
		c0-1.5-0.3-2.7-0.9-3.4c-0.6-0.7-1.5-1.1-2.5-1.1c-0.8,0-1.5,0.2-2.1,0.6s-1.1,1-1.5,1.7s-0.5,1.5-0.5,2.3s0.2,1.6,0.6,2.3
		c0.4,0.7,0.9,1.3,1.5,1.7c0.6,0.4,1.3,0.6,2.1,0.6c1,0,2.1-0.3,3.3-0.8L882.4,437.8L882.4,437.8z M877.5,432.6
		c0.4-0.4,0.9-0.6,1.5-0.6s1,0.2,1.4,0.6c0.3,0.4,0.5,1,0.5,1.7v0.2h-4.4C876.7,433.7,877.1,433.1,877.5,432.6L877.5,432.6z"/>
	<path d="M839.2,459.5c-0.8,0.5-1.7,0.7-2.5,0.7c-0.6,0-1.2-0.2-1.7-0.6s-0.9-1-1.3-1.9s-0.5-1.7-0.5-2.7s0.2-1.9,0.5-2.7
		c0.3-0.8,0.7-1.5,1.3-1.9c0.5-0.4,1.1-0.6,1.7-0.6c0.8,0,1.7,0.2,2.5,0.7v-1.4c-0.9-0.3-1.7-0.5-2.4-0.5c-1,0-1.8,0.3-2.6,0.8
		s-1.4,1.3-1.9,2.3s-0.7,2.1-0.7,3.4s0.2,2.4,0.7,3.4c0.4,1,1.1,1.8,1.9,2.3c0.8,0.5,1.7,0.8,2.6,0.8c0.7,0,1.5-0.2,2.4-0.5V459.5
		L839.2,459.5z M848.1,460c0.7-0.9,1.1-2,1.1-3.3s-0.4-2.4-1.1-3.3c-0.7-0.9-1.7-1.3-3-1.3c-1.2,0-2.2,0.4-3,1.3
		c-0.7,0.9-1.1,2-1.1,3.3s0.4,2.4,1.1,3.3c0.7,0.9,1.7,1.3,3,1.3C846.4,461.3,847.3,460.9,848.1,460L848.1,460z M843.3,459.2
		c-0.5-0.6-0.7-1.4-0.7-2.5s0.2-1.9,0.7-2.5s1.1-0.9,1.9-0.9c0.8,0,1.4,0.3,1.8,0.9c0.5,0.6,0.7,1.4,0.7,2.5s-0.2,1.9-0.7,2.5
		s-1.1,0.9-1.8,0.9C844.3,460.1,843.7,459.8,843.3,459.2L843.3,459.2z M853.3,461.1V456c0.5-0.9,1-1.5,1.5-1.9s1.1-0.6,1.6-0.6
		c0.1,0,0.3,0,0.6,0.1v2h1.4v-3.1c-0.5-0.2-1.1-0.2-1.6-0.2c-0.7,0-1.4,0.2-2,0.5c-0.6,0.4-1.1,0.9-1.6,1.6v-1.9h-1.5v8.7h1.6V461.1
		z M868,459.2c-1.1,0.6-2.2,0.9-3.1,0.9c-0.5,0-1-0.1-1.4-0.4s-0.7-0.6-1-1.1s-0.4-1.1-0.4-1.7h6v-0.3c0-1.5-0.3-2.7-0.9-3.4
		c-0.6-0.7-1.5-1.1-2.5-1.1c-0.8,0-1.5,0.2-2.1,0.6s-1.1,1-1.5,1.7s-0.5,1.5-0.5,2.3s0.2,1.6,0.6,2.3c0.4,0.7,0.9,1.3,1.5,1.7
		c0.6,0.4,1.3,0.6,2.1,0.6c1,0,2.1-0.3,3.3-0.8L868,459.2L868,459.2z M863.1,454c0.4-0.4,0.9-0.6,1.5-0.6s1,0.2,1.4,0.6
		c0.3,0.4,0.5,1,0.5,1.7v0.2h-4.4C862.3,455,862.6,454.4,863.1,454L863.1,454z"/>
	<polyline class="st14" points="752,264 567,264 566.6,116.9 	"/>
	<path class="st15" d="M566.6,107.3v9.6 M563,116.9l3.6-9.6l3.6,9.6"/>
	<path class="st4" d="M569.8,249.4H689v29.2H569.8V249.4z"/>
	<path d="M580.9,268.4h1.3v-11h-1.3v3.4c-0.1,0-0.3,0-0.3,0c-0.5-0.1-0.9-0.1-1.1-0.1c-0.8,0-1.5,0.2-2.1,0.6s-1,1-1.4,1.6
		c-0.3,0.7-0.5,1.5-0.5,2.4c0,1.1,0.3,2,0.8,2.5c0.5,0.6,1.1,0.8,1.7,0.8c0.5,0,1-0.2,1.5-0.5s1-0.8,1.4-1.4L580.9,268.4
		L580.9,268.4z M579.7,266.8c-0.5,0.4-0.9,0.6-1.3,0.6c-0.4,0-0.7-0.2-1-0.6s-0.4-1-0.4-1.7c0-1,0.3-1.9,0.8-2.5s1.2-0.9,2-0.9
		c0.4,0,0.8,0.1,1.3,0.2v3.3C580.6,265.9,580.1,266.4,579.7,266.8L579.7,266.8z M590.6,266.7c-1,0.5-1.9,0.8-2.7,0.8
		c-0.5,0-0.9-0.1-1.2-0.3c-0.4-0.2-0.7-0.5-0.9-1c-0.2-0.4-0.3-0.9-0.3-1.5h5.3v-0.3c0-1.3-0.3-2.3-0.8-3c-0.5-0.6-1.3-1-2.2-1
		c-0.7,0-1.3,0.2-1.9,0.5c-0.6,0.4-1,0.9-1.3,1.5s-0.5,1.3-0.5,2s0.2,1.4,0.5,2s0.8,1.1,1.3,1.5c0.5,0.3,1.2,0.5,1.8,0.5
		c0.9,0,1.9-0.2,2.9-0.7L590.6,266.7L590.6,266.7z M586.3,262.2c0.4-0.4,0.8-0.6,1.3-0.6s0.9,0.2,1.2,0.6s0.5,0.9,0.5,1.5v0.2h-3.8
		C585.7,263.1,585.9,262.6,586.3,262.2L586.3,262.2z M598.3,268.4v-1.1H596v-10h-3.6v1.1h2.3v10H598.3L598.3,268.4z M607.4,266.7
		c-1,0.5-1.9,0.8-2.7,0.8c-0.5,0-0.9-0.1-1.2-0.3c-0.4-0.2-0.7-0.5-0.9-1c-0.2-0.4-0.3-0.9-0.3-1.5h5.3v-0.3c0-1.3-0.3-2.3-0.8-3
		c-0.5-0.6-1.3-1-2.2-1c-0.7,0-1.3,0.2-1.9,0.5c-0.6,0.4-1,0.9-1.3,1.5s-0.5,1.3-0.5,2s0.2,1.4,0.5,2s0.8,1.1,1.3,1.5
		c0.5,0.3,1.2,0.5,1.8,0.5c0.9,0,1.9-0.2,2.9-0.7L607.4,266.7L607.4,266.7z M603.1,262.2c0.4-0.4,0.8-0.6,1.3-0.6s0.9,0.2,1.2,0.6
		s0.5,0.9,0.5,1.5v0.2h-3.8C602.5,263.1,602.7,262.6,603.1,262.2L603.1,262.2z M614.6,267.8c0,0.5,0,0.9-0.1,1.2
		c-0.1,0.3-0.2,0.6-0.4,0.8c-0.2,0.2-0.5,0.4-0.8,0.5s-0.7,0.2-1.1,0.2c-0.5,0-1-0.1-1.5-0.3c-0.5-0.2-1-0.4-1.3-0.7v1.3
		c0.9,0.5,1.9,0.7,2.8,0.7c0.9,0,1.7-0.2,2.4-0.6s1.1-0.9,1.2-1.6c0.1-0.3,0.1-0.6,0.2-0.9s0-1.1,0-2.4v-5.4h-1.3
		c-0.1,0-0.3,0-0.3,0c-0.5-0.1-0.9-0.1-1.1-0.1c-0.8,0-1.5,0.2-2.1,0.6s-1,1-1.4,1.6c-0.3,0.7-0.5,1.5-0.5,2.4c0,1.1,0.3,2,0.8,2.5
		c0.5,0.6,1.1,0.8,1.7,0.8c0.5,0,1-0.2,1.5-0.5s1-0.8,1.4-1.4v1.3H614.6z M613.3,266.8c-0.5,0.4-0.9,0.6-1.3,0.6
		c-0.4,0-0.7-0.2-1-0.6s-0.4-1-0.4-1.7c0-1,0.3-1.9,0.8-2.5s1.2-0.9,2-0.9c0.4,0,0.8,0.1,1.3,0.2v3.3
		C614.2,265.9,613.7,266.4,613.3,266.8L613.3,266.8z M623.1,268.4h1.3c-0.2-0.6-0.3-1.3-0.3-2.2v-5.4h-1.3c-0.1,0-0.3,0-0.3,0
		c-0.5-0.1-0.9-0.1-1.1-0.1c-0.8,0-1.5,0.2-2.1,0.6s-1,1-1.4,1.6c-0.3,0.7-0.5,1.5-0.5,2.4c0,1.1,0.3,2,0.8,2.5
		c0.5,0.6,1.1,0.8,1.7,0.8c0.5,0,1-0.2,1.5-0.5s1-0.8,1.4-1.4C622.9,267.4,623,268,623.1,268.4L623.1,268.4L623.1,268.4z
		 M621.6,266.8c-0.5,0.4-0.9,0.6-1.3,0.6c-0.4,0-0.7-0.2-1-0.6s-0.4-1-0.4-1.7c0-1,0.3-1.9,0.8-2.5s1.2-0.9,2-0.9
		c0.4,0,0.8,0.1,1.3,0.2v3.3C622.5,265.9,622.1,266.4,621.6,266.8L621.6,266.8z M632.6,267c-0.7,0.4-1.3,0.6-1.9,0.6
		c-0.3,0-0.6-0.1-0.9-0.2c-0.2-0.1-0.4-0.3-0.6-0.6c-0.1-0.3-0.2-0.7-0.2-1.3v-3.1h3.4v-1.1H629v-3.1h-1.3v3.1h-1.9v1.1h1.9v3.1
		c0,0.8,0.1,1.5,0.3,1.9s0.6,0.7,1,0.9c0.4,0.2,0.9,0.3,1.5,0.3c0.3,0,0.5,0,0.8-0.1c0.3,0,0.7-0.2,1.3-0.4V267L632.6,267z
		 M641,266.7c-1,0.5-1.9,0.8-2.7,0.8c-0.5,0-0.9-0.1-1.2-0.3c-0.4-0.2-0.7-0.5-0.9-1c-0.2-0.4-0.3-0.9-0.3-1.5h5.3v-0.3
		c0-1.3-0.3-2.3-0.8-3c-0.5-0.6-1.3-1-2.2-1c-0.7,0-1.3,0.2-1.9,0.5c-0.6,0.4-1,0.9-1.3,1.5s-0.5,1.3-0.5,2s0.2,1.4,0.5,2
		s0.8,1.1,1.3,1.5c0.5,0.3,1.2,0.5,1.8,0.5c0.9,0,1.9-0.2,2.9-0.7L641,266.7L641,266.7z M636.7,262.2c0.4-0.4,0.8-0.6,1.3-0.6
		s0.9,0.2,1.2,0.6s0.5,0.9,0.5,1.5v0.2h-3.8C636.1,263.1,636.3,262.6,636.7,262.2L636.7,262.2z M657.9,267c-0.7,0.2-1.2,0.4-1.5,0.4
		s-0.5,0.1-0.8,0.1c-0.9,0-1.6-0.3-2-0.9s-0.6-1.3-0.6-2c0-0.5,0.1-1,0.3-1.5s0.5-0.8,1-1.1c0.4-0.2,0.8-0.3,1.3-0.3
		c0.7,0,1.5,0.2,2.4,0.6V261c-0.9-0.3-1.7-0.4-2.5-0.4c-1.1,0-2,0.4-2.7,1.1c-0.8,0.8-1.1,1.7-1.1,2.9c0,0.8,0.2,1.5,0.5,2.1
		s0.8,1.1,1.4,1.4s1.3,0.5,2,0.5c0.8,0,1.6-0.1,2.4-0.4V267H657.9z M665.1,268.4h1.3c-0.2-0.6-0.3-1.3-0.3-2.2v-5.4h-1.3
		c-0.1,0-0.3,0-0.3,0c-0.5-0.1-0.9-0.1-1.1-0.1c-0.8,0-1.5,0.2-2.1,0.6s-1,1-1.4,1.6c-0.3,0.7-0.5,1.5-0.5,2.4c0,1.1,0.3,2,0.8,2.5
		c0.5,0.6,1.1,0.8,1.7,0.8c0.5,0,1-0.2,1.5-0.5s1-0.8,1.4-1.4C664.9,267.4,665,268,665.1,268.4L665.1,268.4L665.1,268.4z
		 M663.6,266.8c-0.5,0.4-0.9,0.6-1.3,0.6c-0.4,0-0.7-0.2-1-0.6s-0.4-1-0.4-1.7c0-1,0.3-1.9,0.8-2.5s1.2-0.9,2-0.9
		c0.4,0,0.8,0.1,1.3,0.2v3.3C664.5,265.9,664.1,266.4,663.6,266.8L663.6,266.8z M674,268.4v-1.1h-2.4v-10H668v1.1h2.3v10H674
		L674,268.4z M682.4,268.4v-1.1H680v-10h-3.6v1.1h2.3v10H682.4L682.4,268.4z"/>
	<path class="st4" d="M776.3,316.7h144.4v29.2H776.3V316.7z"/>
	<path d="M788.8,334.3c-0.7,0.2-1.2,0.4-1.5,0.4s-0.5,0.1-0.8,0.1c-0.9,0-1.6-0.3-2-0.9s-0.6-1.3-0.6-2c0-0.5,0.1-1,0.3-1.5
		s0.5-0.8,1-1.1c0.4-0.2,0.8-0.3,1.3-0.3c0.7,0,1.5,0.2,2.4,0.6v-1.2c-0.9-0.3-1.7-0.4-2.5-0.4c-1.1,0-2,0.4-2.7,1.1
		c-0.8,0.8-1.1,1.7-1.1,2.9c0,0.8,0.2,1.5,0.5,2.1s0.8,1.1,1.4,1.4c0.6,0.4,1.3,0.5,2,0.5c0.8,0,1.6-0.1,2.4-0.4v-1.3H788.8z
		 M796.5,334.8c0.7-0.8,1-1.7,1-2.9s-0.3-2.1-1-2.9s-1.5-1.1-2.6-1.1s-2,0.4-2.6,1.1c-0.7,0.8-1,1.7-1,2.9s0.3,2.1,1,2.9
		s1.5,1.1,2.6,1.1C795,336,795.9,335.6,796.5,334.8L796.5,334.8z M792.3,334.1c-0.4-0.5-0.6-1.3-0.6-2.2c0-0.9,0.2-1.6,0.6-2.2
		c0.4-0.5,0.9-0.8,1.6-0.8c0.7,0,1.2,0.3,1.6,0.8c0.4,0.5,0.6,1.3,0.6,2.2c0,0.9-0.2,1.7-0.6,2.2c-0.4,0.5-0.9,0.8-1.6,0.8
		S792.7,334.6,792.3,334.1L792.3,334.1z M801.1,335.7v-4.4c0.4-0.7,0.9-1.3,1.3-1.7c0.5-0.4,0.9-0.6,1.4-0.6c0.1,0,0.3,0,0.5,0.1
		v1.7h1.2V328c-0.5-0.1-0.9-0.2-1.4-0.2c-0.6,0-1.2,0.2-1.7,0.5s-1,0.8-1.4,1.4V328h-1.3v7.6h1.4V335.7z M813.9,334.1
		c-1,0.5-1.9,0.8-2.7,0.8c-0.5,0-0.9-0.1-1.2-0.3c-0.4-0.2-0.7-0.5-0.9-1c-0.2-0.4-0.3-0.9-0.3-1.5h5.3v-0.3c0-1.3-0.3-2.3-0.8-3
		c-0.5-0.6-1.3-1-2.2-1c-0.7,0-1.3,0.2-1.9,0.5c-0.6,0.4-1,0.9-1.3,1.5s-0.5,1.3-0.5,2s0.2,1.4,0.5,2s0.8,1.1,1.3,1.5
		c0.5,0.3,1.2,0.5,1.8,0.5c0.9,0,1.9-0.2,2.9-0.7L813.9,334.1L813.9,334.1z M809.6,329.5c0.4-0.4,0.8-0.6,1.3-0.6s0.9,0.2,1.2,0.6
		s0.5,0.9,0.5,1.5v0.2h-3.8C809,330.4,809.2,329.9,809.6,329.5L809.6,329.5z M829.9,335.7v-1.1h-2.1V328h-3.4v1.1h2.1v6.6H829.9
		L829.9,335.7z M826.6,326c0.2,0.1,0.4,0.2,0.6,0.2c0.2,0,0.4-0.1,0.6-0.2c0.2-0.1,0.3-0.4,0.3-0.6c0-0.3-0.1-0.5-0.3-0.6
		s-0.4-0.2-0.6-0.2c-0.2,0-0.4,0.1-0.6,0.2c-0.2,0.1-0.3,0.4-0.3,0.6S826.4,325.8,826.6,326L826.6,326z M834,335.7v-4.5
		c0.3-0.6,0.8-1.2,1.3-1.6s1-0.6,1.4-0.6c0.2,0,0.4,0.1,0.6,0.2c0.2,0.2,0.3,0.3,0.4,0.6c0.1,0.2,0.1,0.7,0.1,1.5v4.4h1.3v-4.3
		c0-1.1-0.1-1.9-0.2-2.3c-0.1-0.4-0.4-0.7-0.8-0.9s-0.8-0.4-1.2-0.4c-0.5,0-1,0.2-1.5,0.5s-1,0.8-1.3,1.4V328h-1.3v7.6L834,335.7
		L834,335.7z M847.5,334.3c-0.7,0.4-1.3,0.6-1.9,0.6c-0.3,0-0.6-0.1-0.9-0.2c-0.2-0.1-0.4-0.3-0.6-0.6c-0.1-0.3-0.2-0.7-0.2-1.3
		v-3.1h3.4v-1.1h-3.4v-3.1h-1.3v3.1h-1.9v1.1h1.9v3.1c0,0.8,0.1,1.5,0.3,1.9s0.6,0.7,1,0.9c0.4,0.2,0.9,0.3,1.5,0.3
		c0.3,0,0.5,0,0.8-0.1c0.3,0,0.7-0.2,1.3-0.4L847.5,334.3L847.5,334.3z M855.9,334.1c-1,0.5-1.9,0.8-2.7,0.8c-0.5,0-0.9-0.1-1.2-0.3
		c-0.4-0.2-0.7-0.5-0.9-1c-0.2-0.4-0.3-0.9-0.3-1.5h5.3v-0.3c0-1.3-0.3-2.3-0.8-3c-0.5-0.6-1.3-1-2.2-1c-0.7,0-1.3,0.2-1.9,0.5
		c-0.6,0.4-1,0.9-1.3,1.5s-0.5,1.3-0.5,2s0.2,1.4,0.5,2s0.8,1.1,1.3,1.5c0.5,0.3,1.2,0.5,1.8,0.5c0.9,0,1.9-0.2,2.9-0.7L855.9,334.1
		L855.9,334.1z M851.6,329.5c0.4-0.4,0.8-0.6,1.3-0.6s0.9,0.2,1.2,0.6s0.5,0.9,0.5,1.5v0.2h-3.8C851,330.4,851.2,329.9,851.6,329.5
		L851.6,329.5z M859.9,335.7v-4.4c0.4-0.7,0.9-1.3,1.3-1.7c0.5-0.4,0.9-0.6,1.4-0.6c0.1,0,0.3,0,0.5,0.1v1.7h1.2V328
		c-0.5-0.1-0.9-0.2-1.4-0.2c-0.6,0-1.2,0.2-1.7,0.5s-1,0.8-1.4,1.4V328h-1.3v7.6h1.4V335.7z M871.6,335.7h1.3
		c-0.2-0.6-0.3-1.3-0.3-2.2v-5.4h-1.3c-0.1,0-0.3,0-0.3,0c-0.5-0.1-0.9-0.1-1.1-0.1c-0.8,0-1.5,0.2-2.1,0.6s-1,1-1.4,1.6
		c-0.3,0.7-0.5,1.5-0.5,2.4c0,1.1,0.3,2,0.8,2.5c0.5,0.6,1.1,0.8,1.7,0.8c0.5,0,1-0.2,1.5-0.5s1-0.8,1.4-1.4
		C871.4,334.8,871.5,335.3,871.6,335.7L871.6,335.7L871.6,335.7z M870.1,334.1c-0.5,0.4-0.9,0.6-1.3,0.6c-0.4,0-0.7-0.2-1-0.6
		s-0.4-1-0.4-1.7c0-1,0.3-1.9,0.8-2.5s1.2-0.9,2-0.9c0.4,0,0.8,0.1,1.3,0.2v3.3C871,333.2,870.6,333.7,870.1,334.1L870.1,334.1z
		 M881.2,334.3c-0.7,0.2-1.2,0.4-1.5,0.4s-0.5,0.1-0.8,0.1c-0.9,0-1.6-0.3-2-0.9s-0.6-1.3-0.6-2c0-0.5,0.1-1,0.3-1.5s0.5-0.8,1-1.1
		c0.4-0.2,0.8-0.3,1.3-0.3c0.7,0,1.5,0.2,2.4,0.6v-1.2c-0.9-0.3-1.7-0.4-2.5-0.4c-1.1,0-2,0.4-2.7,1.1c-0.8,0.8-1.1,1.7-1.1,2.9
		c0,0.8,0.2,1.5,0.5,2.1s0.8,1.1,1.4,1.4c0.6,0.4,1.3,0.5,2,0.5c0.8,0,1.6-0.1,2.4-0.4v-1.3H881.2z M889.5,334.3
		c-0.7,0.4-1.3,0.6-1.9,0.6c-0.3,0-0.6-0.1-0.9-0.2c-0.2-0.1-0.4-0.3-0.6-0.6c-0.1-0.3-0.2-0.7-0.2-1.3v-3.1h3.4v-1.1h-3.4v-3.1
		h-1.3v3.1h-1.9v1.1h1.9v3.1c0,0.8,0.1,1.5,0.3,1.9s0.6,0.7,1,0.9c0.4,0.2,0.9,0.3,1.5,0.3c0.3,0,0.5,0,0.8-0.1
		c0.3,0,0.7-0.2,1.3-0.4L889.5,334.3L889.5,334.3z M897.1,335.7v-1.1H895V328h-3.4v1.1h2.1v6.6H897.1L897.1,335.7z M893.8,326
		c0.2,0.1,0.4,0.2,0.6,0.2c0.2,0,0.4-0.1,0.6-0.2c0.2-0.1,0.3-0.4,0.3-0.6c0-0.3-0.1-0.5-0.3-0.6s-0.4-0.2-0.6-0.2
		c-0.2,0-0.4,0.1-0.6,0.2c-0.2,0.1-0.3,0.4-0.3,0.6S893.6,325.8,893.8,326L893.8,326z M905.7,334.8c0.7-0.8,1-1.7,1-2.9
		s-0.3-2.1-1-2.9s-1.5-1.1-2.6-1.1s-2,0.4-2.6,1.1c-0.7,0.8-1,1.7-1,2.9s0.3,2.1,1,2.9s1.5,1.1,2.6,1.1
		C904.2,336,905.1,335.6,905.7,334.8L905.7,334.8z M901.5,334.1c-0.4-0.5-0.6-1.3-0.6-2.2c0-0.9,0.2-1.6,0.6-2.2
		c0.4-0.5,0.9-0.8,1.6-0.8c0.7,0,1.2,0.3,1.6,0.8c0.4,0.5,0.6,1.3,0.6,2.2c0,0.9-0.2,1.7-0.6,2.2c-0.4,0.5-0.9,0.8-1.6,0.8
		S901.9,334.6,901.5,334.1L901.5,334.1z M909.6,335.7v-4.5c0.3-0.6,0.8-1.2,1.3-1.6s1-0.6,1.4-0.6c0.2,0,0.4,0.1,0.6,0.2
		c0.2,0.2,0.3,0.3,0.4,0.6c0.1,0.2,0.1,0.7,0.1,1.5v4.4h1.3v-4.3c0-1.1-0.1-1.9-0.2-2.3c-0.1-0.4-0.4-0.7-0.8-0.9s-0.8-0.4-1.2-0.4
		c-0.5,0-1,0.2-1.5,0.5s-1,0.8-1.3,1.4V328h-1.3v7.6L909.6,335.7L909.6,335.7z"/>
</g>
</svg>
