<svg width="1335" height="192" viewBox="0 0 1335 192" fill="none" xmlns="http://www.w3.org/2000/svg">
  <mask id="mask0" mask-type="alpha" maskUnits="userSpaceOnUse" x="0" y="0" width="171" height="138">
  <path fill-rule="evenodd" clip-rule="evenodd" d="M0 0H170.382V137.258H0V0Z" fill="white"/>
  </mask>
  <g mask="url(#mask0)">
  <path fill-rule="evenodd" clip-rule="evenodd" d="M19.9506 132.161C14.8875 121.322 12.0594 109.229 12.0594 96.4761C12.0594 49.854 49.854 12.0596 96.4761 12.0596C122.436 12.0596 145.658 23.7784 161.143 42.2136L170.382 34.4619C152.684 13.3929 126.145 0 96.4761 0C43.1938 0 0 43.1938 0 96.4761C0 111.051 3.23194 124.871 9.01837 137.258L19.9506 132.161Z" fill="black"/>
  </g>
  <path fill-rule="evenodd" clip-rule="evenodd" d="M96.476 153.759C64.8397 153.759 39.1935 128.112 39.1935 96.4761C39.1935 64.8398 64.8397 39.1933 96.476 39.1933C114.092 39.1933 129.847 47.1475 140.355 59.6571L149.596 51.9034C136.876 36.7602 117.8 27.1339 96.476 27.1339C58.1794 27.1339 27.1339 58.1794 27.1339 96.4761C27.1339 134.773 58.1794 165.818 96.476 165.818V153.759Z" fill="black"/>
  <path fill-rule="evenodd" clip-rule="evenodd" d="M117.261 113.917C112.283 119.842 104.82 123.61 96.4759 123.61C81.4904 123.61 69.3421 111.462 69.3421 96.476C69.3421 81.4904 81.4904 69.3421 96.4759 69.3421C104.82 69.3421 112.283 73.1099 117.261 79.0355L127.653 70.3152C120.187 61.4268 108.992 55.7751 96.4759 55.7751C73.9975 55.7751 55.7751 73.9975 55.7751 96.476C55.7751 118.954 73.9975 137.177 96.4759 137.177C107.947 137.177 118.305 132.428 125.703 124.793L117.261 113.917Z" fill="black"/>
  <path fill-rule="evenodd" clip-rule="evenodd" d="M190.626 83.2685H203.025V91.6432H203.243C204.402 89.0329 206.414 86.7317 209.279 84.7365C212.142 82.7434 215.533 81.7455 219.448 81.7455C222.856 81.7455 225.774 82.3438 228.204 83.5406C230.633 84.7365 232.626 86.3139 234.186 88.2714C235.744 90.2295 236.887 92.4778 237.612 95.0149C238.336 97.5538 238.7 100.164 238.7 102.846V135.476H225.648V106.544C225.648 105.021 225.539 103.427 225.322 101.758C225.104 100.092 224.632 98.5873 223.908 97.245C223.182 95.904 222.184 94.7974 220.916 93.9277C219.647 93.0574 217.961 92.6222 215.859 92.6222C213.755 92.6222 211.944 93.0405 210.421 93.8734C208.898 94.7074 207.647 95.7763 206.669 97.0819C205.69 98.3867 204.946 99.8929 204.439 101.595C203.931 103.3 203.678 105.021 203.678 106.762V135.476H190.626V83.2685Z" fill="black"/>
  <path fill-rule="evenodd" clip-rule="evenodd" d="M244.245 93.7101V83.2686H253.382V68.1499H266.216V83.2686H279.267V93.7101H266.216V117.964C266.216 120.286 266.632 122.206 267.467 123.729C268.299 125.252 270.167 126.013 273.068 126.013C273.938 126.013 274.88 125.923 275.896 125.741C276.911 125.561 277.816 125.289 278.615 124.925L279.05 135.149C277.889 135.584 276.511 135.928 274.917 136.183C273.321 136.436 271.799 136.563 270.349 136.563C266.868 136.563 264.041 136.074 261.866 135.095C259.69 134.116 257.967 132.775 256.699 131.07C255.43 129.368 254.559 127.41 254.089 125.197C253.616 122.987 253.382 120.612 253.382 118.073V93.7101H244.245Z" fill="black"/>
  <path fill-rule="evenodd" clip-rule="evenodd" d="M287.1 83.2685H299.608V91.9695H299.826C301.275 88.9241 303.306 86.4602 305.916 84.5734C308.527 82.689 311.572 81.7455 315.053 81.7455C315.559 81.7455 316.103 81.7642 316.684 81.7999C317.264 81.8375 317.772 81.9275 318.207 82.0719V94.0365C317.336 93.8188 316.592 93.6744 315.977 93.6013C315.36 93.5295 314.762 93.4925 314.182 93.4925C311.209 93.4925 308.815 94.0365 307.004 95.1236C305.19 96.2115 303.777 97.5163 302.762 99.0394C301.746 100.562 301.058 102.122 300.696 103.717C300.332 105.312 300.152 106.581 300.152 107.523V135.476H287.1V83.2685Z" fill="black"/>
  <path fill-rule="evenodd" clip-rule="evenodd" d="M324.187 135.476H337.239V83.2686H324.187V135.476ZM322.338 65.5397C322.338 63.4379 323.116 61.6071 324.676 60.0473C326.235 58.4886 328.211 57.709 330.604 57.709C332.997 57.709 335.009 58.453 336.64 59.9385C338.272 61.4252 339.088 63.2933 339.088 65.5397C339.088 67.7879 338.272 69.6561 336.64 71.1409C335.009 72.6284 332.997 73.371 330.604 73.371C328.211 73.371 326.235 72.5927 324.676 71.0322C323.116 69.474 322.338 67.6435 322.338 65.5397Z" fill="black"/>
  <path fill-rule="evenodd" clip-rule="evenodd" d="M354.099 93.7101H344.202V83.2686H354.099V79.3643C354.099 76.2477 354.442 73.2567 355.133 70.3913C355.821 67.5278 356.982 65.0071 358.613 62.8319C360.244 60.6569 362.401 58.9351 365.085 57.6659C367.766 56.398 371.138 55.7622 375.2 55.7622C376.649 55.7622 377.865 55.8166 378.844 55.9253C379.822 56.0341 380.818 56.2349 381.835 56.5236L380.964 67.6178C380.239 67.4003 379.459 67.2203 378.626 67.0739C377.791 66.9295 376.902 66.8564 375.961 66.8564C374.075 66.8564 372.552 67.2203 371.393 67.9443C370.232 68.6695 369.344 69.613 368.728 70.7721C368.111 71.9324 367.695 73.2023 367.477 74.579C367.26 75.9569 367.151 77.2979 367.151 78.6027V83.2686H379.224V93.7101H367.151V135.476H354.099V93.7101Z" fill="black"/>
  <path fill-rule="evenodd" clip-rule="evenodd" d="M433.826 135.476H421.427V127.101H421.209C420.049 129.711 418.036 132.014 415.173 134.007C412.308 136.001 408.919 136.999 405.003 136.999C401.594 136.999 398.676 136.4 396.248 135.204C393.818 134.007 391.824 132.43 390.265 130.473C388.705 128.514 387.563 126.268 386.839 123.729C386.114 121.191 385.752 118.581 385.752 115.898V83.2685H398.804V112.2C398.804 113.723 398.913 115.318 399.13 116.986C399.348 118.655 399.818 120.159 400.544 121.499C401.268 122.842 402.265 123.946 403.535 124.816C404.803 125.687 406.489 126.122 408.593 126.122C410.621 126.122 412.416 125.706 413.976 124.871C415.535 124.038 416.804 122.968 417.783 121.662C418.762 120.357 419.505 118.853 420.013 117.149C420.52 115.446 420.774 113.723 420.774 111.982V83.2685H433.826V135.476Z" fill="black"/>
  <path fill-rule="evenodd" clip-rule="evenodd" d="M147.073 95.0692C149.792 92.7142 153.109 91.5343 157.025 91.5343C159.127 91.5343 160.957 91.8795 162.518 92.5678C164.076 93.258 165.363 94.1822 166.378 95.3411C167.393 96.5021 168.136 97.8426 168.609 99.3656C169.079 100.888 169.316 102.484 169.316 104.151H142.56C142.848 100.453 144.354 97.4263 147.073 95.0692ZM171.273 119.596C169.822 121.7 167.973 123.349 165.727 124.544C163.478 125.741 160.723 126.339 157.46 126.339C155.574 126.339 153.762 126.013 152.022 125.36C150.281 124.708 148.722 123.82 147.345 122.696C145.967 121.572 144.86 120.231 144.028 118.671C143.194 117.113 142.704 115.392 142.56 113.505H182.259C182.33 112.926 182.368 112.346 182.368 111.765V110.025C182.368 105.312 181.732 101.197 180.464 97.6794C179.195 94.1634 177.435 91.2268 175.189 88.8697C172.941 86.5145 170.276 84.7365 167.195 83.5404C164.112 82.3438 160.759 81.7455 157.134 81.7455C153.218 81.7455 149.574 82.4171 146.203 83.7581C142.832 85.1004 139.912 86.9854 137.447 89.4137C134.981 91.8439 133.042 94.7805 131.629 98.2234C130.214 101.668 129.508 105.494 129.508 109.698C129.508 113.977 130.214 117.801 131.629 121.173C133.042 124.544 135 127.391 137.502 129.711C140.003 132.033 142.957 133.827 146.366 135.095C149.774 136.363 153.508 136.999 157.569 136.999C166.334 136.999 173.236 134.206 178.281 128.625L171.273 119.596Z" fill="black"/>
  <path fill-rule="evenodd" clip-rule="evenodd" d="M523.251 95.0692C525.97 92.7142 529.287 91.5343 533.203 91.5343C535.305 91.5343 537.135 91.8795 538.696 92.5678C540.254 93.258 541.54 94.1822 542.556 95.3411C543.571 96.5021 544.314 97.8426 544.787 99.3656C545.257 100.888 545.494 102.484 545.494 104.151H518.737C519.026 100.453 520.532 97.4263 523.251 95.0692ZM547.451 119.596C546 121.7 544.151 123.349 541.904 124.544C539.655 125.741 536.901 126.339 533.638 126.339C531.752 126.339 529.94 126.013 528.2 125.36C526.459 124.708 524.899 123.82 523.523 122.696C522.145 121.572 521.038 120.231 520.205 118.671C519.371 117.113 518.882 115.392 518.737 113.505H558.437C558.508 112.926 558.545 112.346 558.545 111.765V110.025C558.545 105.312 557.91 101.197 556.642 97.6794C555.373 94.1634 553.613 91.2268 551.367 88.8697C549.119 86.5145 546.453 84.7365 543.372 83.5404C540.29 82.3438 536.936 81.7455 533.312 81.7455C529.396 81.7455 525.752 82.4171 522.381 83.7581C519.009 85.1004 516.09 86.9854 513.625 89.4137C511.159 91.8439 509.22 94.7805 507.806 98.2234C506.392 101.668 505.686 105.494 505.686 109.698C505.686 113.977 506.392 117.801 507.806 121.173C509.22 124.544 511.178 127.391 513.679 129.711C516.181 132.033 519.135 133.827 522.544 135.095C525.952 136.363 529.685 136.999 533.747 136.999C542.512 136.999 549.414 134.206 554.459 128.625L547.451 119.596Z" fill="black"/>
  <path fill-rule="evenodd" clip-rule="evenodd" d="M484.175 115.225C483.45 117.213 482.416 118.966 481.076 120.483C479.733 122 478.102 123.211 476.181 124.115C474.259 125.019 472.102 125.469 469.709 125.469C467.388 125.469 465.304 125.001 463.456 124.06C461.606 123.121 460.046 121.873 458.778 120.32C457.509 118.767 456.53 117.013 455.842 115.062C455.152 113.111 454.809 111.089 454.809 108.991C454.809 106.68 455.152 104.512 455.842 102.488C456.53 100.463 457.509 98.7112 458.778 97.2296C460.046 95.7474 461.606 94.5733 463.456 93.7063C465.304 92.8398 467.425 92.4048 469.818 92.4048C472.211 92.4048 474.349 92.8398 476.235 93.7063C478.12 94.5733 479.733 95.7661 481.076 97.2839C482.416 98.8018 483.45 100.572 484.175 102.594C484.899 104.619 485.263 106.752 485.263 108.991C485.263 111.16 484.899 113.239 484.175 115.225ZM485.263 83.2687V91.0992H485.045C483.159 87.9095 480.622 85.5524 477.432 84.0301C474.24 82.507 470.797 81.7456 467.099 81.7456C463.183 81.7456 459.649 82.4714 456.494 83.9214C453.34 85.3724 450.657 87.3299 448.445 89.7944C446.233 92.2602 444.531 95.1612 443.334 98.4954C442.137 101.832 441.54 105.385 441.54 109.155C441.54 112.853 442.155 116.352 443.388 119.65C444.621 122.951 446.342 125.833 448.554 128.297C450.766 130.763 453.466 132.721 456.658 134.17C459.847 135.62 463.401 136.346 467.317 136.346C470.942 136.346 474.223 135.668 477.16 134.313C480.097 132.959 482.506 130.999 484.393 128.435H484.61V132.255C484.61 134.876 484.339 137.277 483.795 139.461C483.251 141.643 482.343 143.536 481.076 145.137C479.806 146.738 478.102 147.992 475.963 148.903C473.824 149.812 471.195 150.268 468.078 150.268C464.815 150.268 461.588 149.632 458.398 148.364C455.29 147.128 452.494 145.359 450.007 143.058L442.3 152.987C443.968 154.364 445.853 155.597 447.957 156.685C450.058 157.772 452.252 158.678 454.537 159.404C456.821 160.128 459.14 160.672 461.498 161.035C463.853 161.397 466.083 161.579 468.187 161.579C473.261 161.579 477.649 160.853 481.348 159.404C485.045 157.952 488.108 155.905 490.538 153.259C492.966 150.611 494.761 147.385 495.922 143.579C497.081 139.772 497.662 135.511 497.662 130.798V83.2687H485.263Z" fill="black"/>
  <path d="M579.679 57.4784H606.457C611.453 57.4784 616.449 58.2131 621.445 59.6824C626.44 61.1517 630.959 63.4659 634.999 66.625C639.04 69.7841 642.309 73.8247 644.807 78.747C647.305 83.6693 648.554 89.5833 648.554 96.4892C648.554 103.175 647.305 108.979 644.807 113.901C642.309 118.75 639.04 122.79 634.999 126.023C630.959 129.182 626.44 131.57 621.445 133.186C616.449 134.729 611.453 135.5 606.457 135.5H579.679V57.4784ZM590.589 125.913H604.253C608.955 125.913 613.29 125.251 617.257 123.929C621.298 122.607 624.751 120.696 627.616 118.199C630.555 115.701 632.832 112.615 634.448 108.942C636.064 105.268 636.873 101.118 636.873 96.4892C636.873 91.6404 636.064 87.3793 634.448 83.706C632.832 80.0327 630.555 76.9838 627.616 74.5594C624.751 72.0615 621.298 70.1881 617.257 68.9392C613.29 67.6168 608.955 66.9556 604.253 66.9556H590.589V125.913Z" fill="#2762FF"/>
  <path d="M714.756 109.272C714.756 113.313 714.021 117.023 712.552 120.403C711.156 123.782 709.172 126.721 706.601 129.219C704.103 131.643 701.128 133.553 697.675 134.949C694.222 136.271 690.512 136.933 686.544 136.933C682.577 136.933 678.867 136.271 675.414 134.949C671.961 133.553 668.986 131.643 666.488 129.219C663.99 126.721 662.007 123.782 660.537 120.403C659.141 117.023 658.443 113.313 658.443 109.272C658.443 105.232 659.141 101.558 660.537 98.2524C662.007 94.8729 663.99 91.971 666.488 89.5466C668.986 87.1222 671.961 85.2488 675.414 83.9264C678.867 82.5305 682.577 81.8326 686.544 81.8326C690.512 81.8326 694.222 82.5305 697.675 83.9264C701.128 85.2488 704.103 87.1222 706.601 89.5466C709.172 91.971 711.156 94.8729 712.552 98.2524C714.021 101.558 714.756 105.232 714.756 109.272ZM703.956 109.272C703.956 106.775 703.552 104.387 702.744 102.109C702.009 99.8319 700.907 97.8483 699.438 96.1586C697.968 94.3954 696.132 92.9995 693.928 91.971C691.797 90.9425 689.336 90.4282 686.544 90.4282C683.753 90.4282 681.255 90.9425 679.051 91.971C676.92 92.9995 675.12 94.3954 673.651 96.1586C672.182 97.8483 671.043 99.8319 670.235 102.109C669.5 104.387 669.133 106.775 669.133 109.272C669.133 111.77 669.5 114.158 670.235 116.435C671.043 118.713 672.182 120.733 673.651 122.496C675.12 124.26 676.92 125.655 679.051 126.684C681.255 127.713 683.753 128.227 686.544 128.227C689.336 128.227 691.797 127.713 693.928 126.684C696.132 125.655 697.968 124.26 699.438 122.496C700.907 120.733 702.009 118.713 702.744 116.435C703.552 114.158 703.956 111.77 703.956 109.272Z" fill="#2762FF"/>
  <path d="M764.605 96.4892C763.503 94.7995 761.85 93.4036 759.646 92.3016C757.442 91.1261 755.091 90.5384 752.593 90.5384C749.875 90.5384 747.45 91.0527 745.32 92.0812C743.263 93.1097 741.499 94.5056 740.03 96.2688C738.561 97.9585 737.422 99.9421 736.614 102.22C735.879 104.497 735.512 106.885 735.512 109.383C735.512 111.88 735.879 114.268 736.614 116.546C737.422 118.823 738.561 120.843 740.03 122.607C741.499 124.296 743.299 125.655 745.43 126.684C747.561 127.713 749.985 128.227 752.703 128.227C755.348 128.227 757.736 127.713 759.866 126.684C762.07 125.655 763.87 124.26 765.266 122.496L772.209 128.778C770.005 131.349 767.25 133.369 763.944 134.839C760.638 136.235 756.891 136.933 752.703 136.933C748.662 136.933 744.916 136.271 741.463 134.949C738.083 133.627 735.145 131.79 732.647 129.439C730.149 127.015 728.165 124.113 726.696 120.733C725.3 117.354 724.602 113.57 724.602 109.383C724.602 105.268 725.3 101.522 726.696 98.1422C728.092 94.7627 730.039 91.8608 732.537 89.4364C735.034 87.012 737.973 85.1386 741.353 83.8162C744.805 82.4938 748.516 81.8326 752.483 81.8326C756.156 81.8326 759.793 82.5673 763.393 84.0366C767.066 85.5059 769.968 87.6365 772.098 90.4282L764.605 96.4892Z" fill="#2762FF"/>
  <path d="M818.177 135.5C818.031 134.178 817.92 132.708 817.847 131.092C817.773 129.402 817.737 128.006 817.737 126.904H817.516C816.194 129.696 813.953 132.084 810.794 134.067C807.708 135.978 804.256 136.933 800.435 136.933C797.056 136.933 794.117 136.382 791.619 135.28C789.195 134.178 787.175 132.672 785.558 130.761C784.015 128.778 782.84 126.5 782.032 123.929C781.297 121.358 780.93 118.603 780.93 115.664V83.2652H791.289V112.138C791.289 114.268 791.436 116.325 791.729 118.309C792.097 120.219 792.721 121.909 793.603 123.378C794.484 124.847 795.697 126.023 797.239 126.904C798.782 127.786 800.766 128.227 803.19 128.227C807.378 128.227 810.757 126.684 813.329 123.598C815.9 120.439 817.186 116.252 817.186 111.036V83.2652H827.544V124.26C827.544 125.655 827.581 127.455 827.655 129.659C827.728 131.863 827.838 133.81 827.985 135.5H818.177Z" fill="#2762FF"/>
  <path d="M854.547 91.8608C855.869 89.0691 857.963 86.7181 860.828 84.808C863.767 82.8244 867.22 81.8326 871.187 81.8326C874.714 81.8326 877.873 82.6407 880.664 84.257C883.53 85.8733 885.77 88.5548 887.387 92.3016C889.15 88.9221 891.611 86.3508 894.77 84.5876C897.929 82.7509 901.382 81.8326 905.129 81.8326C908.508 81.8326 911.41 82.4203 913.835 83.5958C916.259 84.6978 918.279 86.2039 919.896 88.114C921.512 90.0241 922.687 92.2649 923.422 94.8362C924.23 97.4075 924.634 100.163 924.634 103.101V135.5H914.275V106.517C914.275 104.387 914.092 102.367 913.724 100.456C913.357 98.5463 912.732 96.8565 911.851 95.3872C910.969 93.9179 909.794 92.7424 908.324 91.8608C906.855 90.9792 904.982 90.5384 902.704 90.5384C900.353 90.5384 898.333 91.0527 896.643 92.0812C894.954 93.0363 893.558 94.3219 892.456 95.9382C891.427 97.481 890.656 99.2442 890.142 101.228C889.701 103.211 889.48 105.232 889.48 107.289V135.5H879.121V104.424C879.121 102.367 878.938 100.493 878.57 98.8034C878.203 97.1137 877.579 95.6811 876.697 94.5056C875.816 93.2567 874.677 92.3016 873.281 91.6404C871.885 90.9057 870.159 90.5384 868.102 90.5384C864.281 90.5384 861.085 92.1179 858.514 95.277C856.016 98.3626 854.767 102.513 854.767 107.73V135.5H844.409V94.5056C844.409 93.1097 844.372 91.3098 844.298 89.1058C844.225 86.9018 844.115 84.9549 843.968 83.2652H853.776C853.922 84.5876 854.033 86.0937 854.106 87.7834C854.18 89.3997 854.216 90.7588 854.216 91.8608H854.547Z" fill="#2762FF"/>
  <path d="M979.262 104.754C979.189 102.697 978.821 100.787 978.16 99.0238C977.573 97.1871 976.654 95.6076 975.405 94.2852C974.23 92.9628 972.724 91.9343 970.887 91.1996C969.124 90.3915 967.03 89.9874 964.606 89.9874C962.402 89.9874 960.308 90.3915 958.324 91.1996C956.414 91.9343 954.724 92.9628 953.255 94.2852C951.859 95.6076 950.684 97.1871 949.729 99.0238C948.847 100.787 948.333 102.697 948.186 104.754H979.262ZM989.731 108.942C989.731 109.53 989.731 110.117 989.731 110.705C989.731 111.293 989.695 111.88 989.621 112.468H948.186C948.259 114.672 948.737 116.766 949.618 118.75C950.574 120.66 951.822 122.349 953.365 123.819C954.908 125.215 956.671 126.317 958.655 127.125C960.712 127.933 962.879 128.337 965.157 128.337C968.683 128.337 971.732 127.566 974.303 126.023C976.875 124.48 978.895 122.607 980.364 120.403L987.637 126.243C984.846 129.917 981.54 132.635 977.719 134.398C973.973 136.088 969.785 136.933 965.157 136.933C961.189 136.933 957.516 136.271 954.137 134.949C950.757 133.627 947.855 131.79 945.431 129.439C943.006 127.015 941.096 124.113 939.7 120.733C938.305 117.354 937.607 113.607 937.607 109.493C937.607 105.452 938.268 101.742 939.59 98.3626C940.986 94.9097 942.896 91.971 945.321 89.5466C947.745 87.1222 950.61 85.2488 953.916 83.9264C957.222 82.5305 960.785 81.8326 964.606 81.8326C968.426 81.8326 971.879 82.4571 974.964 83.706C978.124 84.9549 980.768 86.7549 982.899 89.1058C985.103 91.4567 986.793 94.3219 987.968 97.7014C989.144 101.007 989.731 104.754 989.731 108.942Z" fill="#2762FF"/>
  <path d="M1012.46 83.2652C1012.61 84.5876 1012.72 86.0937 1012.79 87.7834C1012.86 89.3997 1012.9 90.7588 1012.9 91.8608H1013.23C1013.89 90.4649 1014.77 89.1793 1015.88 88.0038C1017.05 86.7549 1018.37 85.6896 1019.84 84.808C1021.31 83.8529 1022.93 83.1183 1024.69 82.604C1026.45 82.0897 1028.29 81.8326 1030.2 81.8326C1033.58 81.8326 1036.48 82.4203 1038.91 83.5958C1041.33 84.6978 1043.35 86.2039 1044.97 88.114C1046.58 90.0241 1047.76 92.2649 1048.49 94.8362C1049.3 97.4075 1049.71 100.163 1049.71 103.101V135.5H1039.35V106.517C1039.35 104.387 1039.16 102.367 1038.8 100.456C1038.5 98.5463 1037.92 96.8565 1037.03 95.3872C1036.15 93.9179 1034.94 92.7424 1033.4 91.8608C1031.85 90.9792 1029.87 90.5384 1027.45 90.5384C1023.33 90.5384 1019.95 92.1179 1017.31 95.277C1014.74 98.3626 1013.45 102.513 1013.45 107.73V135.5H1003.09V94.5056C1003.09 93.1097 1003.06 91.3098 1002.98 89.1058C1002.91 86.9018 1002.8 84.9549 1002.65 83.2652H1012.46Z" fill="#2762FF"/>
  <path d="M1091.7 91.7506H1077.81V118.97C1077.81 122.129 1078.4 124.407 1079.57 125.802C1080.75 127.125 1082.62 127.786 1085.19 127.786C1086.15 127.786 1087.18 127.676 1088.28 127.455C1089.38 127.235 1090.37 126.904 1091.26 126.464L1091.59 134.949C1090.34 135.39 1088.94 135.72 1087.4 135.941C1085.93 136.235 1084.39 136.382 1082.77 136.382C1077.85 136.382 1074.06 135.022 1071.42 132.304C1068.85 129.586 1067.56 125.509 1067.56 120.072V91.7506H1057.53V83.2652H1067.56V68.278H1077.81V83.2652H1091.7V91.7506Z" fill="#2762FF"/>
  <path d="M1133.8 101.669C1133.8 97.7749 1132.63 94.9097 1130.28 93.073C1127.93 91.1629 1124.8 90.2078 1120.91 90.2078C1117.97 90.2078 1115.18 90.7955 1112.54 91.971C1109.96 93.073 1107.8 94.5056 1106.03 96.2688L1100.52 89.6568C1103.09 87.2324 1106.22 85.3223 1109.89 83.9264C1113.64 82.5305 1117.64 81.8326 1121.9 81.8326C1125.65 81.8326 1128.88 82.3836 1131.6 83.4856C1134.39 84.5141 1136.67 85.9467 1138.43 87.7834C1140.2 89.6201 1141.52 91.7873 1142.4 94.2852C1143.28 96.7831 1143.72 99.4646 1143.72 102.33V125.141C1143.72 126.904 1143.76 128.778 1143.83 130.761C1143.98 132.672 1144.2 134.251 1144.49 135.5H1135.13C1134.54 133.002 1134.24 130.504 1134.24 128.006H1133.91C1132 130.798 1129.58 132.965 1126.64 134.508C1123.78 136.051 1120.36 136.822 1116.39 136.822C1114.34 136.822 1112.17 136.529 1109.89 135.941C1107.69 135.427 1105.67 134.545 1103.83 133.296C1101.99 132.047 1100.45 130.394 1099.2 128.337C1098.03 126.28 1097.44 123.745 1097.44 120.733C1097.44 116.766 1098.5 113.644 1100.63 111.366C1102.76 109.015 1105.56 107.252 1109.01 106.077C1112.46 104.828 1116.36 104.02 1120.69 103.652C1125.02 103.285 1129.4 103.101 1133.8 103.101V101.669ZM1131.27 110.595C1128.7 110.595 1126.02 110.705 1123.22 110.925C1120.51 111.146 1118.01 111.587 1115.73 112.248C1113.53 112.909 1111.69 113.901 1110.22 115.223C1108.75 116.546 1108.02 118.309 1108.02 120.513C1108.02 122.056 1108.31 123.341 1108.9 124.37C1109.56 125.398 1110.4 126.243 1111.43 126.904C1112.46 127.566 1113.6 128.043 1114.85 128.337C1116.1 128.557 1117.38 128.668 1118.71 128.668C1123.56 128.668 1127.27 127.235 1129.84 124.37C1132.48 121.431 1133.8 117.758 1133.8 113.35V110.595H1131.27Z" fill="#2762FF"/>
  <path d="M1184.41 91.7506H1170.53V118.97C1170.53 122.129 1171.11 124.407 1172.29 125.802C1173.46 127.125 1175.34 127.786 1177.91 127.786C1178.86 127.786 1179.89 127.676 1180.99 127.455C1182.1 127.235 1183.09 126.904 1183.97 126.464L1184.3 134.949C1183.05 135.39 1181.66 135.72 1180.11 135.941C1178.64 136.235 1177.1 136.382 1175.48 136.382C1170.56 136.382 1166.78 135.022 1164.13 132.304C1161.56 129.586 1160.28 125.509 1160.28 120.072V91.7506H1150.25V83.2652H1160.28V68.278H1170.53V83.2652H1184.41V91.7506Z" fill="#2762FF"/>
  <path d="M1204.48 135.5H1194.12V83.2652H1204.48V135.5ZM1206.24 64.421C1206.24 66.3311 1205.54 67.9107 1204.15 69.1596C1202.83 70.4085 1201.21 71.033 1199.3 71.033C1197.39 71.033 1195.77 70.4085 1194.45 69.1596C1193.13 67.8372 1192.47 66.2577 1192.47 64.421C1192.47 62.5109 1193.13 60.9313 1194.45 59.6824C1195.77 58.36 1197.39 57.6988 1199.3 57.6988C1201.21 57.6988 1202.83 58.36 1204.15 59.6824C1205.54 60.9313 1206.24 62.5109 1206.24 64.421Z" fill="#2762FF"/>
  <path d="M1274.32 109.272C1274.32 113.313 1273.59 117.023 1272.12 120.403C1270.72 123.782 1268.74 126.721 1266.17 129.219C1263.67 131.643 1260.69 133.553 1257.24 134.949C1253.79 136.271 1250.08 136.933 1246.11 136.933C1242.14 136.933 1238.43 136.271 1234.98 134.949C1231.53 133.553 1228.55 131.643 1226.05 129.219C1223.56 126.721 1221.57 123.782 1220.1 120.403C1218.71 117.023 1218.01 113.313 1218.01 109.272C1218.01 105.232 1218.71 101.558 1220.1 98.2524C1221.57 94.8729 1223.56 91.971 1226.05 89.5466C1228.55 87.1222 1231.53 85.2488 1234.98 83.9264C1238.43 82.5305 1242.14 81.8326 1246.11 81.8326C1250.08 81.8326 1253.79 82.5305 1257.24 83.9264C1260.69 85.2488 1263.67 87.1222 1266.17 89.5466C1268.74 91.971 1270.72 94.8729 1272.12 98.2524C1273.59 101.558 1274.32 105.232 1274.32 109.272ZM1263.52 109.272C1263.52 106.775 1263.12 104.387 1262.31 102.109C1261.58 99.8319 1260.47 97.8483 1259 96.1586C1257.53 94.3954 1255.7 92.9995 1253.49 91.971C1251.36 90.9425 1248.9 90.4282 1246.11 90.4282C1243.32 90.4282 1240.82 90.9425 1238.62 91.971C1236.49 92.9995 1234.69 94.3954 1233.22 96.1586C1231.75 97.8483 1230.61 99.8319 1229.8 102.109C1229.07 104.387 1228.7 106.775 1228.7 109.272C1228.7 111.77 1229.07 114.158 1229.8 116.435C1230.61 118.713 1231.75 120.733 1233.22 122.496C1234.69 124.26 1236.49 125.655 1238.62 126.684C1240.82 127.713 1243.32 128.227 1246.11 128.227C1248.9 128.227 1251.36 127.713 1253.49 126.684C1255.7 125.655 1257.53 124.26 1259 122.496C1260.47 120.733 1261.58 118.713 1262.31 116.435C1263.12 114.158 1263.52 111.77 1263.52 109.272Z" fill="#2762FF"/>
  <path d="M1296.95 83.2652C1297.1 84.5876 1297.21 86.0937 1297.28 87.7834C1297.36 89.3997 1297.39 90.7588 1297.39 91.8608H1297.72C1298.38 90.4649 1299.27 89.1793 1300.37 88.0038C1301.54 86.7549 1302.87 85.6896 1304.34 84.808C1305.8 83.8529 1307.42 83.1183 1309.18 82.604C1310.95 82.0897 1312.78 81.8326 1314.69 81.8326C1318.07 81.8326 1320.98 82.4203 1323.4 83.5958C1325.82 84.6978 1327.84 86.2039 1329.46 88.114C1331.08 90.0241 1332.25 92.2649 1332.99 94.8362C1333.8 97.4075 1334.2 100.163 1334.2 103.101V135.5H1323.84V106.517C1323.84 104.387 1323.66 102.367 1323.29 100.456C1323 98.5463 1322.41 96.8565 1321.53 95.3872C1320.64 93.9179 1319.43 92.7424 1317.89 91.8608C1316.35 90.9792 1314.36 90.5384 1311.94 90.5384C1307.82 90.5384 1304.45 92.1179 1301.8 95.277C1299.23 98.3626 1297.94 102.513 1297.94 107.73V135.5H1287.58V94.5056C1287.58 93.1097 1287.55 91.3098 1287.47 89.1058C1287.4 86.9018 1287.29 84.9549 1287.14 83.2652H1296.95Z" fill="#2762FF"/>
  </svg>
