<?xml version="1.0" encoding="UTF-8"?>
<!-- Generator: Adobe Illustrator 18.0.0, SVG Export Plug-In . SVG Version: 6.00 Build 0)  -->
<svg width="208px" height="50px" xmlns="http://www.w3.org/2000/svg" xmlns:xlink="http://www.w3.org/1999/xlink" id="Слой_1" x="0px" y="0px" viewBox="0 0 352 96" xml:space="preserve">
	<g>
		<linearGradient id="SVGID_1_" gradientUnits="userSpaceOnUse" x1="176" y1="96" x2="176" y2="-7.185008e-10">
			<stop offset="0" style="stop-color:#FCBA59;stop-opacity:0"></stop>
			<stop offset="1" style="stop-color:#FCBA59"></stop>
		</linearGradient>
		<polyline fill="url(#SVGID_1_)" points="128,64 160,96 224,96 224,32 192,0  "></polyline>
		<rect x="128" fill="#FCBA59" width="64" height="64"></rect>
		<linearGradient id="SVGID_2_" gradientUnits="userSpaceOnUse" x1="304" y1="96" x2="304" y2="-7.185008e-10">
			<stop offset="0" style="stop-color:#FCBA59;stop-opacity:0"></stop>
			<stop offset="1" style="stop-color:#FCBA59"></stop>
		</linearGradient>
		<polyline fill="url(#SVGID_2_)" points="256,64 288,96 352,96 352,32 320,0  "></polyline>
		<rect x="256" fill="#FCBA59" width="64" height="64"></rect>
		<linearGradient id="SVGID_3_" gradientUnits="userSpaceOnUse" x1="48" y1="96" x2="48" y2="-7.185008e-10">
			<stop offset="0" style="stop-color:#FCBA59;stop-opacity:0"></stop>
			<stop offset="1" style="stop-color:#FCBA59"></stop>
		</linearGradient>
		<polyline fill="url(#SVGID_3_)" points="0,64 32,96 96,96 96,32 64,0  "></polyline>
		<rect fill="#FCBA59" width="64" height="64"></rect>
		<rect x="80" y="46" fill="#FCBA59" width="48" height="4"></rect>
		<rect x="208" y="46" fill="#FCBA59" width="48" height="4"></rect>
	</g>
</svg>
