<svg width="139" height="32" viewBox="0 0 139 32" fill="none" xmlns="http://www.w3.org/2000/svg">
    <mask id="mask0" mask-type="alpha" maskUnits="userSpaceOnUse" x="0" y="0" width="29" height="23">
        <path fill-rule="evenodd" clip-rule="evenodd" d="M0 0H28.3969V22.8764H0V0Z" fill="white" />
    </mask>
    <g mask="url(#mask0)">
        <path fill-rule="evenodd" clip-rule="evenodd" d="M3.32509 22.0267C2.48125 20.2202 2.00991 18.2048 2.00991 16.0793C2.00991 8.309 8.309 2.00994 16.0793 2.00994C20.406 2.00994 24.2763 3.96306 26.8573 7.03559L28.3969 5.74366C25.4474 2.23216 21.0241 0 16.0793 0C7.19897 0 0 7.19897 0 16.0793C0 18.5085 0.538656 20.8118 1.50306 22.8764L3.32509 22.0267Z" fill="black" />
    </g>
    <path fill-rule="evenodd" clip-rule="evenodd" d="M16.0793 25.6265C10.8066 25.6265 6.53225 21.3521 6.53225 16.0794C6.53225 10.8067 10.8066 6.53225 16.0793 6.53225C19.0153 6.53225 21.6412 7.85793 23.3925 9.94287L24.9326 8.65059C22.8126 6.12671 19.6334 4.52234 16.0793 4.52234C9.69656 4.52234 4.52231 9.69659 4.52231 16.0794C4.52231 22.4621 9.69656 27.6364 16.0793 27.6364V25.6265Z" fill="black" />
    <path fill-rule="evenodd" clip-rule="evenodd" d="M19.5435 18.9861C18.7139 19.9737 17.47 20.6016 16.0793 20.6016C13.5817 20.6016 11.557 18.5769 11.557 16.0793C11.557 13.5817 13.5817 11.557 16.0793 11.557C17.47 11.557 18.7139 12.185 19.5435 13.1726L21.2755 11.7192C20.0312 10.2378 18.1654 9.29584 16.0793 9.29584C12.3329 9.29584 9.29585 12.3329 9.29585 16.0793C9.29585 19.8257 12.3329 22.8628 16.0793 22.8628C17.9911 22.8628 19.7175 22.0713 20.9505 20.7989L19.5435 18.9861Z" fill="black" />
    <path fill-rule="evenodd" clip-rule="evenodd" d="M31.771 13.8781H33.8375V15.2739H33.8738C34.067 14.8388 34.4023 14.4553 34.8798 14.1228C35.3571 13.7906 35.9222 13.6243 36.5747 13.6243C37.1427 13.6243 37.6289 13.724 38.034 13.9235C38.4388 14.1228 38.771 14.3857 39.031 14.7119C39.2908 15.0383 39.4811 15.413 39.602 15.8358C39.7227 16.259 39.7833 16.6941 39.7833 17.1411V22.5793H37.608V17.7574C37.608 17.5036 37.5899 17.2379 37.5536 16.9597C37.5173 16.682 37.4387 16.4312 37.318 16.2075C37.197 15.984 37.0307 15.7996 36.8194 15.6546C36.6079 15.5096 36.3268 15.4371 35.9765 15.4371C35.6259 15.4371 35.3239 15.5068 35.0702 15.6456C34.8164 15.7846 34.6079 15.9627 34.4448 16.1803C34.2816 16.3978 34.1576 16.6488 34.0731 16.9326C33.9885 17.2167 33.9463 17.5036 33.9463 17.7937V22.5793H31.771V13.8781Z" fill="black" />
    <path fill-rule="evenodd" clip-rule="evenodd" d="M40.7076 15.6184V13.8781H42.2303V11.3583H44.3693V13.8781H46.5446V15.6184H44.3693V19.6607C44.3693 20.0477 44.4387 20.3677 44.5778 20.6216C44.7166 20.8753 45.0278 21.0022 45.5113 21.0022C45.6564 21.0022 45.8133 20.9872 45.9826 20.9569C46.1518 20.9269 46.3027 20.8816 46.4359 20.8209L46.5083 22.5249C46.3149 22.5974 46.0852 22.6546 45.8195 22.6972C45.5535 22.7393 45.2998 22.7606 45.0582 22.7606C44.4781 22.7606 44.0068 22.679 43.6443 22.5158C43.2816 22.3526 42.9944 22.1292 42.7831 21.8451C42.5716 21.5614 42.4266 21.235 42.3481 20.8662C42.2693 20.4978 42.2303 20.102 42.2303 19.6789V15.6184H40.7076Z" fill="black" />
    <path fill-rule="evenodd" clip-rule="evenodd" d="M47.8501 13.8781H49.9347V15.3283H49.971C50.2125 14.8207 50.5511 14.41 50.9861 14.0956C51.4211 13.7815 51.9287 13.6243 52.5088 13.6243C52.5932 13.6243 52.6838 13.6274 52.7808 13.6333C52.8773 13.6396 52.9619 13.6546 53.0345 13.6787V15.6728C52.8894 15.6365 52.7654 15.6124 52.6629 15.6002C52.56 15.5883 52.4603 15.5821 52.3637 15.5821C51.8681 15.5821 51.4693 15.6728 51.1674 15.854C50.8651 16.0353 50.6295 16.2527 50.4604 16.5066C50.291 16.7604 50.1763 17.0204 50.116 17.2861C50.0553 17.552 50.0253 17.7636 50.0253 17.9205V22.5793H47.8501V13.8781Z" fill="black" />
    <path fill-rule="evenodd" clip-rule="evenodd" d="M54.0312 22.5793H56.2064V13.8781H54.0312V22.5793ZM53.723 10.9233C53.723 10.573 53.8527 10.2679 54.1126 10.0079C54.3724 9.7481 54.7018 9.61816 55.1007 9.61816C55.4995 9.61816 55.8348 9.74216 56.1067 9.98976C56.3786 10.2375 56.5146 10.5489 56.5146 10.9233C56.5146 11.298 56.3786 11.6094 56.1067 11.8568C55.8348 12.1047 55.4995 12.2285 55.1007 12.2285C54.7018 12.2285 54.3724 12.0988 54.1126 11.8387C53.8527 11.579 53.723 11.2739 53.723 10.9233Z" fill="black" />
    <path fill-rule="evenodd" clip-rule="evenodd" d="M59.0166 15.6184H57.367V13.8781H59.0166V13.2274C59.0166 12.708 59.0738 12.2095 59.1888 11.7319C59.3035 11.2546 59.4969 10.8345 59.7689 10.472C60.0408 10.1095 60.4003 9.82251 60.8475 9.61098C61.2944 9.39967 61.8563 9.2937 62.5333 9.2937C62.7749 9.2937 62.9774 9.30276 63.1406 9.32089C63.3037 9.33901 63.4697 9.37248 63.6391 9.42061L63.4941 11.2696C63.3731 11.2334 63.2432 11.2034 63.1044 11.179C62.9653 11.1549 62.8171 11.1427 62.6602 11.1427C62.3458 11.1427 62.092 11.2034 61.8989 11.324C61.7053 11.4449 61.5573 11.6022 61.4548 11.7954C61.3519 11.9887 61.2825 12.2004 61.2463 12.4298C61.21 12.6595 61.1918 12.883 61.1918 13.1005V13.8781H63.204V15.6184H61.1918V22.5793H59.0166V15.6184Z" fill="black" />
    <path fill-rule="evenodd" clip-rule="evenodd" d="M72.3043 22.5793H70.2378V21.1835H70.2015C70.0081 21.6186 69.6727 22.0023 69.1955 22.3345C68.7179 22.6668 68.1531 22.8331 67.5006 22.8331C66.9323 22.8331 66.446 22.7334 66.0413 22.5339C65.6363 22.3345 65.304 22.0717 65.0442 21.7455C64.7842 21.4191 64.5939 21.0447 64.4732 20.6216C64.3523 20.1986 64.292 19.7636 64.292 19.3163V13.8781H66.4673V18.7C66.4673 18.9538 66.4854 19.2197 66.5217 19.4976C66.5579 19.7758 66.6364 20.0265 66.7573 20.2499C66.8779 20.4737 67.0442 20.6577 67.2558 20.8027C67.4671 20.9478 67.7481 21.0203 68.0988 21.0203C68.4369 21.0203 68.7361 20.9509 68.996 20.8118C69.2558 20.673 69.4673 20.4946 69.6305 20.2771C69.7937 20.0596 69.9175 19.8089 70.0021 19.5248C70.0866 19.241 70.129 18.9538 70.129 18.6637V13.8781H72.3043V22.5793Z" fill="black" />
    <path fill-rule="evenodd" clip-rule="evenodd" d="M24.5122 15.8449C24.9653 15.4524 25.5182 15.2557 26.1708 15.2557C26.5213 15.2557 26.8262 15.3133 27.0863 15.428C27.346 15.543 27.5604 15.6971 27.7298 15.8902C27.8989 16.0837 28.0227 16.3071 28.1015 16.561C28.1799 16.8147 28.2193 17.0807 28.2193 17.3585H23.7599C23.8081 16.7423 24.059 16.2377 24.5122 15.8449ZM28.5456 19.9327C28.3037 20.2833 27.9955 20.5581 27.6211 20.7574C27.2463 20.9569 26.7872 21.0566 26.2433 21.0566C25.929 21.0566 25.627 21.0022 25.337 20.8934C25.0469 20.7846 24.7869 20.6368 24.5575 20.4493C24.3278 20.2621 24.1434 20.0385 24.0046 19.7786C23.8656 19.5188 23.784 19.232 23.7599 18.9176H30.3765C30.3883 18.821 30.3946 18.7244 30.3946 18.6275V18.3375C30.3946 17.552 30.2886 16.8663 30.0773 16.2799C29.8658 15.6939 29.5726 15.2045 29.1982 14.8116C28.8234 14.4191 28.3792 14.1228 27.8657 13.9234C27.3519 13.724 26.7931 13.6243 26.189 13.6243C25.5363 13.6243 24.9291 13.7362 24.3672 13.9597C23.8052 14.1834 23.3186 14.4976 22.9079 14.9023C22.4969 15.3073 22.1737 15.7968 21.9381 16.3706C21.7024 16.9447 21.5846 17.5824 21.5846 18.2831C21.5846 18.9962 21.7024 19.6335 21.9381 20.1955C22.1737 20.7574 22.5 21.2319 22.9169 21.6185C23.3338 22.0055 23.8262 22.3045 24.3943 22.5158C24.9623 22.7271 25.5846 22.8331 26.2615 22.8331C27.7223 22.8331 28.8727 22.3676 29.7135 21.4375L28.5456 19.9327Z" fill="black" />
    <path fill-rule="evenodd" clip-rule="evenodd" d="M87.2085 15.8449C87.6616 15.4524 88.2145 15.2557 88.8671 15.2557C89.2176 15.2557 89.5226 15.3133 89.7827 15.428C90.0424 15.543 90.2568 15.6971 90.4261 15.8902C90.5952 16.0837 90.719 16.3071 90.7978 16.561C90.8762 16.8147 90.9156 17.0807 90.9156 17.3585H86.4563C86.5044 16.7423 86.7553 16.2377 87.2085 15.8449ZM91.2419 19.9327C91 20.2833 90.6918 20.5581 90.3174 20.7574C89.9426 20.9569 89.4835 21.0566 88.9396 21.0566C88.6253 21.0566 88.3233 21.0022 88.0333 20.8934C87.7432 20.7846 87.4832 20.6368 87.2538 20.4493C87.0241 20.2621 86.8397 20.0385 86.7009 19.7786C86.5619 19.5188 86.4803 19.232 86.4562 18.9176H93.0728C93.0846 18.821 93.0909 18.7244 93.0909 18.6275V18.3375C93.0909 17.552 92.985 16.8663 92.7736 16.2799C92.5621 15.6939 92.2689 15.2045 91.8945 14.8116C91.5198 14.4191 91.0756 14.1228 90.562 13.9234C90.0483 13.724 89.4894 13.6243 88.8853 13.6243C88.2326 13.6243 87.6254 13.7362 87.0635 13.9597C86.5015 14.1834 86.015 14.4976 85.6042 14.9023C85.1932 15.3073 84.87 15.7968 84.6344 16.3706C84.3987 16.9447 84.281 17.5824 84.281 18.2831C84.281 18.9962 84.3987 19.6335 84.6344 20.1955C84.87 20.7574 85.1964 21.2319 85.6132 21.6185C86.0301 22.0055 86.5225 22.3045 87.0906 22.5158C87.6586 22.7271 88.2809 22.8331 88.9578 22.8331C90.4186 22.8331 91.569 22.3676 92.4098 21.4375L91.2419 19.9327Z" fill="black" />
    <path fill-rule="evenodd" clip-rule="evenodd" d="M80.6959 19.2042C80.5749 19.5355 80.4027 19.8276 80.1793 20.0806C79.9554 20.3334 79.6836 20.5351 79.3635 20.6858C79.0432 20.8365 78.6837 20.9116 78.2849 20.9116C77.898 20.9116 77.5507 20.8334 77.2426 20.6767C76.9343 20.5201 76.6744 20.3122 76.4631 20.0533C76.2515 19.7944 76.0883 19.5022 75.9736 19.177C75.8587 18.8518 75.8015 18.5148 75.8015 18.1652C75.8015 17.7801 75.8587 17.4186 75.9736 17.0813C76.0883 16.7439 76.2515 16.4519 76.4631 16.2049C76.6744 15.9579 76.9343 15.7622 77.2426 15.6177C77.5507 15.4733 77.9043 15.4008 78.303 15.4008C78.7018 15.4008 79.0582 15.4733 79.3725 15.6177C79.6867 15.7622 79.9554 15.961 80.1793 16.214C80.4027 16.467 80.5749 16.762 80.6959 17.0991C80.8166 17.4364 80.8771 17.7919 80.8771 18.1652C80.8771 18.5266 80.8166 18.8731 80.6959 19.2042ZM80.8771 13.8781V15.1832H80.8408C80.5264 14.6516 80.1036 14.2587 79.572 14.005C79.04 13.7512 78.4662 13.6243 77.8499 13.6243C77.1973 13.6243 76.6081 13.7452 76.0824 13.9869C75.5567 14.2287 75.1095 14.555 74.7409 14.9657C74.3722 15.3767 74.0884 15.8602 73.889 16.4159C73.6895 16.9719 73.5899 17.5642 73.5899 18.1924C73.5899 18.8088 73.6925 19.392 73.8981 19.9417C74.1034 20.4918 74.3903 20.9722 74.7591 21.3828C75.1276 21.7938 75.5777 22.1202 76.1096 22.3617C76.6412 22.6033 77.2335 22.7243 77.8861 22.7243C78.4903 22.7243 79.0373 22.6113 79.5267 22.3855C80.0161 22.1598 80.4177 21.8332 80.7322 21.4058H80.7684V22.0426C80.7684 22.4793 80.7231 22.8795 80.6324 23.2434C80.5418 23.6071 80.3905 23.9227 80.1793 24.1895C79.9677 24.4563 79.6836 24.6653 79.3272 24.8172C78.9707 24.9687 78.5325 25.0447 78.0131 25.0447C77.4692 25.0447 76.9313 24.9387 76.3996 24.7274C75.8817 24.5214 75.4157 24.2265 75.0012 23.843L73.7167 25.4978C73.9947 25.7273 74.3088 25.9329 74.6594 26.1142C75.0097 26.2954 75.3754 26.4464 75.7562 26.5673C76.1368 26.688 76.5234 26.7787 76.9163 26.8392C77.3088 26.8995 77.6804 26.9299 78.0311 26.9299C78.8769 26.9299 79.6083 26.8089 80.2246 26.5673C80.8408 26.3254 81.3513 25.9841 81.7564 25.5431C82.1611 25.1019 82.4603 24.5642 82.6536 23.9298C82.8468 23.2953 82.9437 22.5852 82.9437 21.7997V13.8781H80.8771Z" fill="black" />
    <path d="M96.5 9.48334H100.832C102.464 9.48334 103.657 9.87256 104.41 10.651C105.163 11.4294 105.54 12.6724 105.54 14.38V17.77C105.54 19.4776 105.163 20.7206 104.41 21.499C103.657 22.2775 102.464 22.6667 100.832 22.6667H96.5V21.1788H97.63V10.9523H96.5V9.48334ZM100.606 21.1977C101.183 21.1977 101.679 21.1412 102.094 21.0282C102.52 20.9152 102.872 20.7268 103.148 20.4632C103.424 20.1869 103.625 19.8228 103.751 19.3708C103.889 18.9188 103.958 18.3476 103.958 17.657V14.493C103.958 13.8024 103.889 13.2312 103.751 12.7792C103.625 12.3272 103.424 11.9693 103.148 11.7057C102.872 11.4294 102.52 11.2348 102.094 11.1218C101.679 11.0088 101.183 10.9523 100.606 10.9523H99.212V21.1977H100.606Z" fill="#2762FF" />
    <path d="M117.254 18.109C117.254 18.8875 117.123 19.578 116.859 20.1807C116.608 20.7708 116.269 21.273 115.842 21.6873C115.415 22.0891 114.913 22.3967 114.335 22.6102C113.77 22.8236 113.18 22.9303 112.565 22.9303C111.937 22.9303 111.341 22.8236 110.776 22.6102C110.211 22.3967 109.715 22.0891 109.288 21.6873C108.861 21.273 108.516 20.7708 108.252 20.1807C108.001 19.578 107.875 18.8875 107.875 18.109V17.883C107.875 17.1171 108.001 16.4391 108.252 15.849C108.516 15.2463 108.861 14.7378 109.288 14.3235C109.727 13.9092 110.23 13.5953 110.795 13.3818C111.36 13.1684 111.95 13.0617 112.565 13.0617C113.18 13.0617 113.77 13.1684 114.335 13.3818C114.9 13.5953 115.396 13.9092 115.823 14.3235C116.263 14.7378 116.608 15.2463 116.859 15.849C117.123 16.4391 117.254 17.1171 117.254 17.883V18.109ZM112.565 21.5367C113.017 21.5367 113.431 21.4613 113.808 21.3107C114.197 21.1474 114.536 20.9152 114.825 20.6138C115.114 20.3125 115.34 19.9547 115.503 19.5403C115.666 19.1134 115.748 18.6363 115.748 18.109V17.883C115.748 17.3808 115.666 16.9225 115.503 16.5082C115.34 16.0813 115.114 15.7172 114.825 15.4158C114.536 15.1145 114.197 14.8822 113.808 14.719C113.419 14.5432 113.004 14.4553 112.565 14.4553C112.125 14.4553 111.711 14.5432 111.322 14.719C110.933 14.8822 110.594 15.1145 110.305 15.4158C110.016 15.7172 109.79 16.0813 109.627 16.5082C109.464 16.9225 109.382 17.3808 109.382 17.883V18.109C109.382 18.6363 109.464 19.1134 109.627 19.5403C109.79 19.9547 110.016 20.3125 110.305 20.6138C110.594 20.9152 110.926 21.1474 111.303 21.3107C111.692 21.4613 112.113 21.5367 112.565 21.5367Z" fill="#2762FF" />
    <path d="M128.522 19.352C128.422 19.8668 128.246 20.3439 127.995 20.7833C127.757 21.2228 127.449 21.6057 127.072 21.9322C126.696 22.2461 126.256 22.4909 125.754 22.6667C125.252 22.8425 124.693 22.9303 124.078 22.9303C123.425 22.9303 122.803 22.8236 122.213 22.6102C121.636 22.3967 121.127 22.0891 120.688 21.6873C120.248 21.273 119.897 20.7708 119.633 20.1807C119.382 19.5906 119.256 18.9126 119.256 18.1467V17.9207C119.256 17.1673 119.382 16.4893 119.633 15.8867C119.897 15.284 120.248 14.7755 120.688 14.3612C121.127 13.9468 121.636 13.6267 122.213 13.4007C122.803 13.1747 123.425 13.0617 124.078 13.0617C124.668 13.0617 125.214 13.1496 125.716 13.3253C126.219 13.5011 126.658 13.7522 127.035 14.0787C127.424 14.3926 127.738 14.7692 127.976 15.2087C128.227 15.6481 128.397 16.1252 128.485 16.64L127.016 16.979C126.978 16.6526 126.884 16.3387 126.733 16.0373C126.595 15.7234 126.401 15.4535 126.149 15.2275C125.911 14.9889 125.616 14.8006 125.264 14.6625C124.913 14.5244 124.505 14.4553 124.04 14.4553C123.588 14.4553 123.161 14.5432 122.759 14.719C122.37 14.8822 122.025 15.1208 121.724 15.4347C121.422 15.736 121.184 16.1001 121.008 16.527C120.845 16.9539 120.763 17.4184 120.763 17.9207V18.1467C120.763 18.674 120.845 19.1511 121.008 19.578C121.184 19.9923 121.422 20.3439 121.724 20.6327C122.025 20.9214 122.377 21.1474 122.778 21.3107C123.18 21.4613 123.613 21.5367 124.078 21.5367C124.542 21.5367 124.944 21.4676 125.283 21.3295C125.635 21.1788 125.93 20.9905 126.168 20.7645C126.419 20.5259 126.614 20.256 126.752 19.9547C126.903 19.6533 127.003 19.3394 127.053 19.013L128.522 19.352Z" fill="#2762FF" />
    <path d="M132.567 15.736C132.567 16.188 132.755 16.5333 133.132 16.7718C133.521 17.0104 134.224 17.1673 135.241 17.2427C136.334 17.3306 137.162 17.5942 137.727 18.0337C138.305 18.4606 138.594 19.0883 138.594 19.917V20.03C138.594 20.482 138.5 20.8901 138.311 21.2542C138.135 21.6057 137.884 21.9071 137.558 22.1582C137.244 22.4093 136.855 22.5976 136.39 22.7232C135.938 22.8613 135.442 22.9303 134.902 22.9303C134.174 22.9303 133.546 22.8362 133.019 22.6478C132.504 22.4469 132.071 22.1896 131.72 21.8757C131.381 21.5492 131.123 21.1851 130.947 20.7833C130.772 20.369 130.671 19.9547 130.646 19.5403L132.04 19.2013C132.102 19.917 132.379 20.4946 132.868 20.934C133.358 21.3609 134.011 21.5743 134.827 21.5743C135.518 21.5743 136.07 21.4425 136.484 21.1788C136.911 20.9026 137.125 20.5197 137.125 20.03C137.125 19.5027 136.918 19.126 136.503 18.9C136.089 18.674 135.417 18.5296 134.488 18.4668C133.408 18.3915 132.58 18.1404 132.002 17.7135C131.424 17.2866 131.136 16.6651 131.136 15.849V15.736C131.136 15.2966 131.23 14.9136 131.418 14.5872C131.607 14.2482 131.858 13.9657 132.172 13.7397C132.498 13.5137 132.862 13.3442 133.264 13.2312C133.666 13.1182 134.086 13.0617 134.526 13.0617C135.141 13.0617 135.681 13.1496 136.145 13.3253C136.61 13.4886 136.999 13.7083 137.313 13.9845C137.627 14.2482 137.865 14.5558 138.029 14.9073C138.204 15.2589 138.317 15.6104 138.368 15.962L136.974 16.301C136.911 15.6983 136.666 15.2275 136.24 14.8885C135.825 14.5495 135.279 14.38 134.601 14.38C134.337 14.38 134.08 14.4114 133.829 14.4742C133.59 14.5244 133.377 14.606 133.189 14.719C133 14.832 132.85 14.9764 132.737 15.1522C132.624 15.3154 132.567 15.51 132.567 15.736Z" fill="#2762FF" />
</svg>
