<?xml version="1.0" standalone="no"?>
<!DOCTYPE svg PUBLIC "-//W3C//DTD SVG 20010904//EN"
 "http://www.w3.org/TR/2001/REC-SVG-20010904/DTD/svg10.dtd">
<svg version="1.0" xmlns="http://www.w3.org/2000/svg"
 width="48.000000pt" height="48.000000pt" viewBox="0 0 48.000000 48.000000"
 preserveAspectRatio="xMidYMid meet">

<g transform="translate(0.000000,48.000000) scale(0.100000,-0.100000)"
fill="#000000" stroke="none">
<path d="M175 411 c-49 -23 -89 -64 -109 -113 -25 -58 -19 -168 8 -168 9 0 11
18 8 60 -6 76 1 102 40 145 43 49 77 65 143 65 59 0 85 -9 122 -42 29 -26 51
-14 26 14 -48 55 -163 74 -238 39z"/>
<path d="M189 348 c-73 -42 -99 -135 -58 -208 31 -56 129 -105 129 -65 0 8 -7
15 -15 15 -55 0 -105 60 -105 125 0 102 108 160 197 106 28 -18 43 -18 43 -1
0 3 -17 16 -39 28 -49 28 -105 28 -152 0z"/>
<path d="M235 301 c-62 -26 -79 -102 -32 -148 30 -30 84 -37 111 -13 23 18 6
33 -25 22 -55 -21 -107 35 -76 82 21 31 50 41 78 26 13 -7 25 -8 30 -3 22 22
-50 49 -86 34z"/>
</g>
</svg>
