<?xml version="1.0" encoding="utf-8"?>
<!-- Generator: Adobe Illustrator 18.0.0, SVG Export Plug-In . SVG Version: 6.00 Build 0)  -->
<!DOCTYPE svg PUBLIC "-//W3C//DTD SVG 1.1//EN" "http://www.w3.org/Graphics/SVG/1.1/DTD/svg11.dtd">
<svg version="1.1" xmlns="http://www.w3.org/2000/svg" xmlns:xlink="http://www.w3.org/1999/xlink" x="0px" y="0px"
	 viewBox="0 0 256 128" enable-background="new 0 0 256 128" xml:space="preserve">
<g id="Слой_1">
	<g>
		<linearGradient id="SVGID_1_" gradientUnits="userSpaceOnUse" x1="128" y1="64" x2="256" y2="64">
			<stop  offset="0" style="stop-color:#FFFFFF"/>
			<stop  offset="1" style="stop-color:#FCBA59"/>
		</linearGradient>
		<polygon fill="url(#SVGID_1_)" points="128,128 256,128 256,0 192,0 		"/>
		<rect x="64" fill="#FCBA59" width="128" height="96"/>
		<rect x="72" y="8" width="112" height="80"/>
		<polygon fill="#FCBA59" points="64,96 0,128 128,128 192,96 		"/>
		<g>
			<path fill="#FFFFFF" d="M89.8,23.2h2v7.4h7.2v-7.4h2V40h-2v-7.5h-7.2V40h-2V23.2z"/>
			<path fill="#FFFFFF" d="M106.1,34.6c0,1.2,0.4,2.1,1.1,2.9c0.7,0.7,1.6,1.1,2.9,1.1c0.6,0,1-0.1,1.5-0.2c0.4-0.1,0.8-0.3,1.1-0.5
				c0.3-0.2,0.5-0.5,0.7-0.8c0.2-0.3,0.3-0.6,0.4-0.9l1.8,0.5c-0.3,1.1-1,2-1.9,2.7s-2.1,1-3.7,1c-0.8,0-1.6-0.1-2.3-0.4
				s-1.3-0.7-1.8-1.3s-0.9-1.2-1.2-1.9s-0.4-1.6-0.4-2.5v-0.6c0-0.8,0.1-1.6,0.4-2.3c0.3-0.7,0.7-1.3,1.2-1.9
				c0.5-0.5,1.1-0.9,1.9-1.2s1.5-0.4,2.3-0.4c1,0,1.8,0.2,2.5,0.5c0.7,0.4,1.3,0.8,1.8,1.3s0.8,1.1,1,1.7c0.2,0.6,0.3,1.2,0.3,1.7
				v1.5H106.1z M110.1,29.5c-0.5,0-1,0.1-1.5,0.3s-0.9,0.4-1.2,0.7s-0.6,0.7-0.8,1.1c-0.2,0.4-0.4,0.9-0.4,1.3h7.7
				c0-0.5-0.2-1-0.4-1.4c-0.2-0.4-0.5-0.8-0.8-1.1s-0.7-0.5-1.2-0.7S110.6,29.5,110.1,29.5z"/>
			<path fill="#FFFFFF" d="M119.5,38.3h4.3V24.9h-4.2v-1.7h6v15.1h4.3V40h-10.5V38.3z"/>
			<path fill="#FFFFFF" d="M134.2,38.3h4.3V24.9h-4.2v-1.7h6v15.1h4.3V40h-10.5V38.3z"/>
			<path fill="#FFFFFF" d="M160.1,34.2c0,1-0.2,1.9-0.5,2.6c-0.3,0.8-0.8,1.4-1.3,1.9s-1.2,0.9-1.9,1.2c-0.7,0.3-1.5,0.4-2.3,0.4
				c-0.8,0-1.6-0.1-2.3-0.4c-0.7-0.3-1.4-0.7-1.9-1.2s-1-1.2-1.3-1.9c-0.3-0.8-0.5-1.6-0.5-2.6v-0.3c0-1,0.2-1.8,0.5-2.6
				c0.3-0.8,0.8-1.4,1.3-1.9c0.6-0.5,1.2-0.9,1.9-1.2c0.7-0.3,1.5-0.4,2.3-0.4s1.5,0.1,2.3,0.4c0.7,0.3,1.4,0.7,1.9,1.2
				s1,1.2,1.3,1.9c0.3,0.8,0.5,1.6,0.5,2.6V34.2z M154.1,38.6c0.6,0,1.1-0.1,1.6-0.3c0.5-0.2,0.9-0.5,1.3-0.9s0.7-0.8,0.9-1.4
				s0.3-1.1,0.3-1.8v-0.3c0-0.6-0.1-1.2-0.3-1.8c-0.2-0.5-0.5-1-0.9-1.4s-0.8-0.7-1.3-0.9c-0.5-0.2-1-0.3-1.6-0.3
				c-0.6,0-1.1,0.1-1.6,0.3c-0.5,0.2-0.9,0.5-1.3,0.9s-0.7,0.8-0.9,1.4c-0.2,0.5-0.3,1.1-0.3,1.8v0.3c0,0.7,0.1,1.3,0.3,1.8
				s0.5,1,0.9,1.4s0.8,0.7,1.3,0.9C153,38.5,153.5,38.6,154.1,38.6z"/>
			<path fill="#FFFFFF" d="M167.1,38.7c0-0.5,0.2-0.9,0.5-1.2c0.3-0.3,0.7-0.5,1.2-0.5s0.9,0.2,1.2,0.5c0.3,0.3,0.5,0.7,0.5,1.2V41
				c0,0.5-0.2,1-0.5,1.3c-0.3,0.4-0.8,0.5-1.3,0.5h-1.2v-1.3h1.1c0.4,0,0.6-0.2,0.6-0.7v-0.6c-0.1,0-0.3,0.1-0.4,0.1
				c-0.4,0-0.8-0.2-1.2-0.5C167.3,39.5,167.1,39.1,167.1,38.7z"/>
			<path fill="#FFFFFF" d="M100.4,72h-3.5l-1.4-11h-0.3l-1.4,11h-3.5l-1.9-11.9h1.9l1.6,11h0.3l1.4-11h3.5l1.4,11h0.3l1.6-11h1.9
				L100.4,72z"/>
			<path fill="#FFFFFF" d="M116,66.2c0,1-0.2,1.9-0.5,2.6c-0.3,0.8-0.8,1.4-1.3,1.9s-1.2,0.9-1.9,1.2c-0.7,0.3-1.5,0.4-2.3,0.4
				c-0.8,0-1.6-0.1-2.3-0.4c-0.7-0.3-1.4-0.7-1.9-1.2s-1-1.2-1.3-1.9c-0.3-0.8-0.5-1.6-0.5-2.6v-0.3c0-1,0.2-1.8,0.5-2.6
				c0.3-0.8,0.8-1.4,1.3-1.9c0.6-0.5,1.2-0.9,1.9-1.2c0.7-0.3,1.5-0.4,2.3-0.4s1.5,0.1,2.3,0.4c0.7,0.3,1.4,0.7,1.9,1.2
				s1,1.2,1.3,1.9c0.3,0.8,0.5,1.6,0.5,2.6V66.2z M110,70.6c0.6,0,1.1-0.1,1.6-0.3c0.5-0.2,0.9-0.5,1.3-0.9s0.7-0.8,0.9-1.4
				s0.3-1.1,0.3-1.8v-0.3c0-0.6-0.1-1.2-0.3-1.8c-0.2-0.5-0.5-1-0.9-1.4s-0.8-0.7-1.3-0.9c-0.5-0.2-1-0.3-1.6-0.3
				c-0.6,0-1.1,0.1-1.6,0.3c-0.5,0.2-0.9,0.5-1.3,0.9s-0.7,0.8-0.9,1.4c-0.2,0.5-0.3,1.1-0.3,1.8v0.3c0,0.7,0.1,1.3,0.3,1.8
				s0.5,1,0.9,1.4s0.8,0.7,1.3,0.9C108.9,70.5,109.5,70.6,110,70.6z"/>
			<path fill="#FFFFFF" d="M118.8,60.1h4.3v1.6h0.3c0.3-0.7,0.7-1.1,1.3-1.5c0.6-0.3,1.2-0.5,1.9-0.5c1.2,0,2.2,0.4,2.9,1.2
				c0.7,0.8,1.1,1.9,1.2,3.4l-2,0.3c0-1.1-0.3-1.9-0.8-2.4c-0.5-0.5-1.2-0.7-1.9-0.7c-0.5,0-0.9,0.1-1.3,0.3
				c-0.4,0.2-0.7,0.5-0.9,0.8c-0.2,0.3-0.4,0.7-0.5,1.2c-0.1,0.4-0.2,0.9-0.2,1.4v5h3V72h-7.6v-1.7h2.7v-8.4h-2.4V60.1z"/>
			<path fill="#FFFFFF" d="M134.2,70.3h4.3V56.9h-4.2v-1.7h6v15.1h4.3V72h-10.5V70.3z"/>
			<path fill="#FFFFFF" d="M158.1,70.2h-0.3c-0.2,0.4-0.4,0.7-0.7,1c-0.3,0.3-0.6,0.5-1,0.7c-0.3,0.2-0.7,0.3-1.1,0.4
				c-0.4,0.1-0.8,0.1-1.1,0.1c-0.8,0-1.5-0.1-2.2-0.4c-0.7-0.3-1.3-0.7-1.8-1.2c-0.5-0.5-0.9-1.1-1.2-1.9c-0.3-0.8-0.4-1.6-0.4-2.6
				v-0.4c0-1,0.2-1.8,0.5-2.6s0.7-1.4,1.2-1.9c0.5-0.5,1.1-0.9,1.8-1.2c0.7-0.3,1.4-0.4,2.2-0.4c0.8,0,1.6,0.2,2.3,0.5
				c0.7,0.4,1.3,0.9,1.6,1.7h0.3v-6.8h1.9V72h-1.9V70.2z M154.1,70.6c0.6,0,1.1-0.1,1.6-0.3c0.5-0.2,0.9-0.5,1.3-0.9
				c0.4-0.4,0.6-0.8,0.9-1.4s0.3-1.1,0.3-1.8v-0.3c0-0.6-0.1-1.2-0.3-1.8c-0.2-0.5-0.5-1-0.9-1.4c-0.4-0.4-0.8-0.7-1.3-0.9
				c-0.5-0.2-1-0.3-1.5-0.3c-0.6,0-1.1,0.1-1.6,0.3c-0.5,0.2-0.9,0.5-1.3,0.9c-0.4,0.4-0.6,0.8-0.8,1.4c-0.2,0.5-0.3,1.1-0.3,1.8
				v0.4c0,0.7,0.1,1.3,0.3,1.8s0.5,1,0.8,1.4c0.4,0.4,0.8,0.7,1.3,0.9C153,70.5,153.5,70.6,154.1,70.6z"/>
		</g>
	</g>
</g>
<g id="Слой_2">
</g>
<g id="Слой_3">
</g>
</svg>
