<svg xmlns="http://www.w3.org/2000/svg" width="16" height="16" viewBox="0 0 16 16">
  <path d="M3.5,6 L4.5,6 L4.5,7 L3.5,7 C2,7 0.5,5.31 0.5,3.5 C0.5,1.69 2.05,0 3.5,0 L7.5,0 C8.95,0 10.5,1.69 10.5,3.5 C10.5,4.91 9.59,6.22 8.5,6.75 L8.5,5.59 C9.08,5.14 9.5,4.32 9.5,3.5 C9.5,2.22 8.48,1 7.5,1 L3.5,1 C2.52,1 1.5,2.22 1.5,3.5 C1.5,4.78 2.5,6 3.5,6 Z M12.5,3 L11.5,3 L11.5,4 L12.5,4 C13.5,4 14.5,5.22 14.5,6.5 C14.5,7.78 13.48,9 12.5,9 L8.5,9 C7.52,9 6.5,7.78 6.5,6.5 C6.5,5.67 6.92,4.86 7.5,4.41 L7.5,3.25 C6.41,3.78 5.5,5.09 5.5,6.5 C5.5,8.31 7.05,10 8.5,10 L12.5,10 C13.95,10 15.5,8.31 15.5,6.5 C15.5,4.69 14,3 12.5,3 Z" transform="translate(0 3)"/>
</svg>
