<?xml version="1.0" encoding="utf-8"?>
<!-- Generator: Adobe Illustrator 18.0.0, SVG Export Plug-In . SVG Version: 6.00 Build 0)  -->
<!DOCTYPE svg PUBLIC "-//W3C//DTD SVG 1.1//EN" "http://www.w3.org/Graphics/SVG/1.1/DTD/svg11.dtd">
<svg version="1.1" id="Слой_1" xmlns="http://www.w3.org/2000/svg" xmlns:xlink="http://www.w3.org/1999/xlink" x="0px" y="0px"
	 viewBox="0 0 192 160" enable-background="new 0 0 192 160"  width="208px" height="50px" xml:space="preserve">
<g>
	<g>
		<g>
			<path d="M56.3,56.3"/>
			<path d="M11.6,77.1C8.7,70.8,7,63.7,7,56.3C7,29.1,29.1,7,56.3,7C71.4,7,85,13.9,94,24.6l5.4-4.5C89.1,7.8,73.6,0,56.3,0
				C25.2,0,0,25.2,0,56.3c0,8.5,1.9,16.6,5.3,23.8L11.6,77.1z"/>
			<path d="M56.3,89.7c-18.5,0-33.4-15-33.4-33.4s15-33.4,33.4-33.4c10.3,0,19.5,4.6,25.6,11.9l5.4-4.5c-7.4-8.8-18.6-14.5-31-14.5
				c-22.3,0-40.5,18.1-40.5,40.5s18.1,40.5,40.5,40.5V89.7z"/>
			<path d="M68.4,66.5c-2.9,3.5-7.3,5.7-12.1,5.7c-8.7,0-15.8-7.1-15.8-15.8s7.1-15.8,15.8-15.8c4.9,0,9.2,2.2,12.1,5.7l6.1-5.1
				c-4.4-5.2-10.9-8.5-18.2-8.5c-13.1,0-23.7,10.6-23.7,23.7S43.2,80,56.3,80c6.7,0,12.7-2.8,17.1-7.2L68.4,66.5z"/>
		</g>
	</g>
	<g>
		<rect x="96" y="64" fill="#2762FF" width="96" height="26.2"/>
		<path fill="#FFFFFF" d="M152.7,81.5h-43.6c-2.4,0-4.4-2-4.4-4.4v0c0-2.4,2-4.4,4.4-4.4h43.6c2.4,0,4.4,2,4.4,4.4v0
			C157.1,79.5,155.1,81.5,152.7,81.5z"/>
		<rect x="174.5" y="72.7" fill="#FFFFFF" width="8.7" height="8.7"/>
		<rect x="96" y="98.9" fill="#2762FF" width="96" height="26.2"/>
		<path fill="#FFFFFF" d="M152.7,116.4h-43.6c-2.4,0-4.4-2-4.4-4.4v0c0-2.4,2-4.4,4.4-4.4h43.6c2.4,0,4.4,2,4.4,4.4v0
			C157.1,114.4,155.1,116.4,152.7,116.4z"/>
		<rect x="174.5" y="107.6" fill="#FFFFFF" width="8.7" height="8.7"/>
		<rect x="96" y="133.8" fill="#2762FF" width="96" height="26.2"/>
		<path fill="#FFFFFF" d="M152.7,151.3h-43.6c-2.4,0-4.4-2-4.4-4.4v0c0-2.4,2-4.4,4.4-4.4h43.6c2.4,0,4.4,2,4.4,4.4v0
			C157.1,149.3,155.1,151.3,152.7,151.3z"/>
		<rect x="174.5" y="142.5" fill="#FFFFFF" width="8.7" height="8.7"/>
	</g>
</g>
</svg>
