<svg width="26" height="28" viewBox="0 0 26 28" fill="none" xmlns="http://www.w3.org/2000/svg">
    <path d="M10.7917 0.487776C11.9182 -0.162592 13.3061 -0.162592 14.4325 0.487776L23.4039 5.66737C24.5303 6.31774 25.2243 7.51967 25.2243 8.8204V19.1796C25.2243 20.4803 24.5303 21.6823 23.4039 22.3326L14.4325 27.5122C13.3061 28.1626 11.9182 28.1626 10.7917 27.5122L1.8204 22.3326C0.693934 21.6823 0 20.4803 0 19.1796V8.8204C0 7.51967 0.693934 6.31774 1.8204 5.66737L10.7917 0.487776Z" fill="url(#paint0_linear)" />
    <circle cx="18.8125" cy="13.125" r="0.875" fill="white" />
    <circle cx="6.5625" cy="13.125" r="0.875" fill="white" />
    <path d="M10.0625 18.375H15.3125C15.3125 19.8247 14.1372 21 12.6875 21C11.2378 21 10.0625 19.8247 10.0625 18.375Z" fill="white" />
    <defs>
        <linearGradient id="paint0_linear" x1="12.6121" y1="0" x2="12.6121" y2="28" gradientUnits="userSpaceOnUse">
            <stop stop-color="#F44E72" />
            <stop offset="1" stop-color="#F44E72" stop-opacity="0" />
        </linearGradient>
    </defs>
</svg>
