<svg width="986" height="407" viewBox="0 0 986 407" fill="none" xmlns="http://www.w3.org/2000/svg">
<rect width="986" height="407" transform="matrix(1 0 0 -1 0 407)" fill="white"/>
<rect x="74.5" y="143.5" width="175" height="64" stroke="#C6C2C2" stroke-dasharray="2 5"/>
<path d="M129.582 169.672H132.958C133.385 169.672 133.817 169.72 134.254 169.816C134.691 169.901 135.081 170.056 135.422 170.28C135.774 170.493 136.057 170.787 136.27 171.16C136.494 171.533 136.606 172.003 136.606 172.568C136.606 173.165 136.425 173.688 136.062 174.136C135.699 174.573 135.214 174.861 134.606 175V175.032C135.342 175.117 135.95 175.405 136.43 175.896C136.921 176.376 137.166 177.032 137.166 177.864C137.166 178.333 137.065 178.765 136.862 179.16C136.67 179.544 136.393 179.875 136.03 180.152C135.667 180.419 135.225 180.627 134.702 180.776C134.179 180.925 133.593 181 132.942 181H129.582V169.672ZM130.734 174.632H133.054C133.331 174.632 133.609 174.6 133.886 174.536C134.174 174.472 134.435 174.365 134.67 174.216C134.905 174.056 135.091 173.848 135.23 173.592C135.379 173.336 135.454 173.021 135.454 172.648C135.454 172.285 135.379 171.981 135.23 171.736C135.091 171.48 134.899 171.272 134.654 171.112C134.409 170.952 134.121 170.84 133.79 170.776C133.459 170.701 133.107 170.664 132.734 170.664H130.734V174.632ZM130.734 180.008H132.878C133.294 180.008 133.689 179.971 134.062 179.896C134.446 179.811 134.777 179.683 135.054 179.512C135.342 179.331 135.571 179.101 135.742 178.824C135.913 178.536 135.998 178.195 135.998 177.8C135.998 177.053 135.742 176.499 135.23 176.136C134.729 175.763 134.014 175.576 133.086 175.576H130.734V180.008ZM147.13 177.256C147.13 177.821 147.029 178.344 146.826 178.824C146.634 179.304 146.362 179.72 146.01 180.072C145.658 180.424 145.237 180.701 144.746 180.904C144.255 181.096 143.717 181.192 143.13 181.192C142.554 181.192 142.021 181.096 141.53 180.904C141.039 180.701 140.618 180.424 140.266 180.072C139.914 179.72 139.637 179.304 139.434 178.824C139.242 178.344 139.146 177.821 139.146 177.256C139.146 176.691 139.242 176.168 139.434 175.688C139.637 175.208 139.914 174.792 140.266 174.44C140.618 174.088 141.039 173.816 141.53 173.624C142.021 173.421 142.554 173.32 143.13 173.32C143.717 173.32 144.255 173.421 144.746 173.624C145.237 173.816 145.658 174.088 146.01 174.44C146.362 174.792 146.634 175.208 146.826 175.688C147.029 176.168 147.13 176.691 147.13 177.256ZM145.978 177.256C145.978 176.84 145.909 176.451 145.77 176.088C145.642 175.715 145.455 175.395 145.21 175.128C144.965 174.851 144.666 174.632 144.314 174.472C143.962 174.312 143.567 174.232 143.13 174.232C142.693 174.232 142.298 174.312 141.946 174.472C141.605 174.632 141.311 174.851 141.066 175.128C140.821 175.395 140.629 175.715 140.49 176.088C140.362 176.451 140.298 176.84 140.298 177.256C140.298 177.672 140.362 178.067 140.49 178.44C140.629 178.803 140.821 179.123 141.066 179.4C141.311 179.667 141.605 179.88 141.946 180.04C142.298 180.189 142.693 180.264 143.13 180.264C143.567 180.264 143.962 180.189 144.314 180.04C144.666 179.88 144.965 179.667 145.21 179.4C145.455 179.123 145.642 178.803 145.77 178.44C145.909 178.067 145.978 177.672 145.978 177.256ZM149.471 175.16C149.471 174.957 149.466 174.696 149.455 174.376C149.445 174.056 149.429 173.768 149.407 173.512H150.447C150.469 173.715 150.485 173.939 150.495 174.184C150.506 174.429 150.511 174.632 150.511 174.792H150.543C150.757 174.355 151.077 174.003 151.503 173.736C151.93 173.459 152.41 173.32 152.943 173.32C153.082 173.32 153.205 173.325 153.311 173.336C153.429 173.347 153.546 173.368 153.663 173.4L153.519 174.424C153.455 174.403 153.349 174.381 153.199 174.36C153.05 174.339 152.901 174.328 152.751 174.328C152.463 174.328 152.186 174.381 151.919 174.488C151.653 174.595 151.418 174.765 151.215 175C151.023 175.224 150.863 175.517 150.735 175.88C150.618 176.232 150.559 176.659 150.559 177.16V181H149.471V175.16ZM155.237 175.16C155.237 174.957 155.232 174.696 155.221 174.376C155.21 174.056 155.194 173.768 155.173 173.512H156.213C156.234 173.715 156.25 173.939 156.261 174.184C156.272 174.429 156.277 174.632 156.277 174.792H156.309C156.522 174.355 156.842 174.003 157.269 173.736C157.696 173.459 158.176 173.32 158.709 173.32C158.848 173.32 158.97 173.325 159.077 173.336C159.194 173.347 159.312 173.368 159.429 173.4L159.285 174.424C159.221 174.403 159.114 174.381 158.965 174.36C158.816 174.339 158.666 174.328 158.517 174.328C158.229 174.328 157.952 174.381 157.685 174.488C157.418 174.595 157.184 174.765 156.981 175C156.789 175.224 156.629 175.517 156.501 175.88C156.384 176.232 156.325 176.659 156.325 177.16V181H155.237V175.16ZM168.161 177.256C168.161 177.821 168.06 178.344 167.857 178.824C167.665 179.304 167.393 179.72 167.041 180.072C166.689 180.424 166.268 180.701 165.777 180.904C165.287 181.096 164.748 181.192 164.161 181.192C163.585 181.192 163.052 181.096 162.561 180.904C162.071 180.701 161.649 180.424 161.297 180.072C160.945 179.72 160.668 179.304 160.465 178.824C160.273 178.344 160.177 177.821 160.177 177.256C160.177 176.691 160.273 176.168 160.465 175.688C160.668 175.208 160.945 174.792 161.297 174.44C161.649 174.088 162.071 173.816 162.561 173.624C163.052 173.421 163.585 173.32 164.161 173.32C164.748 173.32 165.287 173.421 165.777 173.624C166.268 173.816 166.689 174.088 167.041 174.44C167.393 174.792 167.665 175.208 167.857 175.688C168.06 176.168 168.161 176.691 168.161 177.256ZM167.009 177.256C167.009 176.84 166.94 176.451 166.801 176.088C166.673 175.715 166.487 175.395 166.241 175.128C165.996 174.851 165.697 174.632 165.345 174.472C164.993 174.312 164.599 174.232 164.161 174.232C163.724 174.232 163.329 174.312 162.977 174.472C162.636 174.632 162.343 174.851 162.097 175.128C161.852 175.395 161.66 175.715 161.521 176.088C161.393 176.451 161.329 176.84 161.329 177.256C161.329 177.672 161.393 178.067 161.521 178.44C161.66 178.803 161.852 179.123 162.097 179.4C162.343 179.667 162.636 179.88 162.977 180.04C163.329 180.189 163.724 180.264 164.161 180.264C164.599 180.264 164.993 180.189 165.345 180.04C165.697 179.88 165.996 179.667 166.241 179.4C166.487 179.123 166.673 178.803 166.801 178.44C166.94 178.067 167.009 177.672 167.009 177.256ZM170.647 173.512L172.455 179.592H172.487L174.503 173.512H175.559L177.607 179.592H177.639L179.431 173.512H180.583L178.215 181H177.031L175.031 174.936H174.999L173.031 181H171.847L169.479 173.512H170.647ZM188.152 176.68C188.12 175.976 187.891 175.395 187.464 174.936C187.048 174.467 186.451 174.232 185.672 174.232C185.309 174.232 184.973 174.301 184.664 174.44C184.355 174.568 184.083 174.749 183.848 174.984C183.613 175.208 183.427 175.469 183.288 175.768C183.149 176.056 183.069 176.36 183.048 176.68H188.152ZM189.256 177.032C189.256 177.107 189.256 177.187 189.256 177.272C189.256 177.357 189.251 177.448 189.24 177.544H183.032C183.043 177.917 183.117 178.269 183.256 178.6C183.395 178.931 183.587 179.219 183.832 179.464C184.077 179.709 184.365 179.907 184.696 180.056C185.027 180.195 185.384 180.264 185.768 180.264C186.333 180.264 186.819 180.136 187.224 179.88C187.64 179.613 187.955 179.309 188.168 178.968L188.984 179.608C188.536 180.173 188.04 180.579 187.496 180.824C186.963 181.069 186.387 181.192 185.768 181.192C185.213 181.192 184.696 181.096 184.216 180.904C183.747 180.701 183.341 180.424 183 180.072C182.659 179.72 182.387 179.304 182.184 178.824C181.992 178.344 181.896 177.821 181.896 177.256C181.896 176.691 181.992 176.168 182.184 175.688C182.376 175.208 182.643 174.792 182.984 174.44C183.325 174.088 183.725 173.816 184.184 173.624C184.643 173.421 185.139 173.32 185.672 173.32C186.259 173.32 186.776 173.421 187.224 173.624C187.672 173.816 188.045 174.083 188.344 174.424C188.643 174.755 188.867 175.144 189.016 175.592C189.176 176.04 189.256 176.52 189.256 177.032ZM191.596 175.16C191.596 174.957 191.591 174.696 191.58 174.376C191.57 174.056 191.554 173.768 191.532 173.512H192.572C192.594 173.715 192.61 173.939 192.62 174.184C192.631 174.429 192.636 174.632 192.636 174.792H192.668C192.882 174.355 193.202 174.003 193.628 173.736C194.055 173.459 194.535 173.32 195.068 173.32C195.207 173.32 195.33 173.325 195.436 173.336C195.554 173.347 195.671 173.368 195.788 173.4L195.644 174.424C195.58 174.403 195.474 174.381 195.324 174.36C195.175 174.339 195.026 174.328 194.876 174.328C194.588 174.328 194.311 174.381 194.044 174.488C193.778 174.595 193.543 174.765 193.34 175C193.148 175.224 192.988 175.517 192.86 175.88C192.743 176.232 192.684 176.659 192.684 177.16V181H191.596V175.16Z" fill="black"/>
<rect x="396.5" y="143.5" width="175" height="64" stroke="#BBBBBB"/>
<path d="M425.705 181H424.441L429.337 169.672H430.457L435.321 181H434.041L432.793 178.024H426.937L425.705 181ZM427.369 176.968H432.361L429.865 170.952L427.369 176.968ZM440.908 175.288C440.748 174.979 440.503 174.728 440.172 174.536C439.852 174.333 439.484 174.232 439.068 174.232C438.876 174.232 438.684 174.253 438.492 174.296C438.3 174.339 438.13 174.408 437.98 174.504C437.831 174.6 437.708 174.723 437.612 174.872C437.527 175.021 437.484 175.197 437.484 175.4C437.484 175.752 437.628 176.024 437.916 176.216C438.204 176.397 438.658 176.552 439.276 176.68C440.162 176.861 440.812 177.128 441.228 177.48C441.655 177.821 441.868 178.285 441.868 178.872C441.868 179.299 441.783 179.661 441.612 179.96C441.452 180.248 441.239 180.488 440.972 180.68C440.706 180.861 440.402 180.989 440.06 181.064C439.73 181.149 439.394 181.192 439.052 181.192C438.487 181.192 437.938 181.075 437.404 180.84C436.871 180.605 436.434 180.237 436.092 179.736L436.956 179.096C437.148 179.427 437.431 179.704 437.804 179.928C438.178 180.152 438.588 180.264 439.036 180.264C439.271 180.264 439.495 180.243 439.708 180.2C439.922 180.157 440.108 180.083 440.268 179.976C440.428 179.869 440.556 179.736 440.652 179.576C440.748 179.405 440.796 179.197 440.796 178.952C440.796 178.557 440.604 178.264 440.22 178.072C439.847 177.869 439.303 177.683 438.588 177.512C438.364 177.459 438.124 177.395 437.868 177.32C437.623 177.235 437.394 177.117 437.18 176.968C436.967 176.808 436.791 176.611 436.652 176.376C436.514 176.141 436.444 175.848 436.444 175.496C436.444 175.112 436.519 174.787 436.668 174.52C436.818 174.243 437.015 174.019 437.26 173.848C437.516 173.667 437.804 173.533 438.124 173.448C438.444 173.363 438.775 173.32 439.116 173.32C439.639 173.32 440.146 173.437 440.636 173.672C441.127 173.907 441.495 174.237 441.74 174.664L440.908 175.288ZM448.018 175.288C447.858 174.979 447.612 174.728 447.282 174.536C446.962 174.333 446.594 174.232 446.178 174.232C445.986 174.232 445.794 174.253 445.602 174.296C445.41 174.339 445.239 174.408 445.09 174.504C444.94 174.6 444.818 174.723 444.722 174.872C444.636 175.021 444.594 175.197 444.594 175.4C444.594 175.752 444.738 176.024 445.026 176.216C445.314 176.397 445.767 176.552 446.386 176.68C447.271 176.861 447.922 177.128 448.338 177.48C448.764 177.821 448.978 178.285 448.978 178.872C448.978 179.299 448.892 179.661 448.722 179.96C448.562 180.248 448.348 180.488 448.082 180.68C447.815 180.861 447.511 180.989 447.17 181.064C446.839 181.149 446.503 181.192 446.162 181.192C445.596 181.192 445.047 181.075 444.514 180.84C443.98 180.605 443.543 180.237 443.202 179.736L444.066 179.096C444.258 179.427 444.54 179.704 444.914 179.928C445.287 180.152 445.698 180.264 446.146 180.264C446.38 180.264 446.604 180.243 446.818 180.2C447.031 180.157 447.218 180.083 447.378 179.976C447.538 179.869 447.666 179.736 447.762 179.576C447.858 179.405 447.906 179.197 447.906 178.952C447.906 178.557 447.714 178.264 447.33 178.072C446.956 177.869 446.412 177.683 445.698 177.512C445.474 177.459 445.234 177.395 444.978 177.32C444.732 177.235 444.503 177.117 444.29 176.968C444.076 176.808 443.9 176.611 443.762 176.376C443.623 176.141 443.554 175.848 443.554 175.496C443.554 175.112 443.628 174.787 443.778 174.52C443.927 174.243 444.124 174.019 444.37 173.848C444.626 173.667 444.914 173.533 445.234 173.448C445.554 173.363 445.884 173.32 446.226 173.32C446.748 173.32 447.255 173.437 447.746 173.672C448.236 173.907 448.604 174.237 448.85 174.664L448.018 175.288ZM456.855 176.68C456.823 175.976 456.594 175.395 456.167 174.936C455.751 174.467 455.154 174.232 454.375 174.232C454.012 174.232 453.676 174.301 453.367 174.44C453.058 174.568 452.786 174.749 452.551 174.984C452.316 175.208 452.13 175.469 451.991 175.768C451.852 176.056 451.772 176.36 451.751 176.68H456.855ZM457.959 177.032C457.959 177.107 457.959 177.187 457.959 177.272C457.959 177.357 457.954 177.448 457.943 177.544H451.735C451.746 177.917 451.82 178.269 451.959 178.6C452.098 178.931 452.29 179.219 452.535 179.464C452.78 179.709 453.068 179.907 453.399 180.056C453.73 180.195 454.087 180.264 454.471 180.264C455.036 180.264 455.522 180.136 455.927 179.88C456.343 179.613 456.658 179.309 456.871 178.968L457.687 179.608C457.239 180.173 456.743 180.579 456.199 180.824C455.666 181.069 455.09 181.192 454.471 181.192C453.916 181.192 453.399 181.096 452.919 180.904C452.45 180.701 452.044 180.424 451.703 180.072C451.362 179.72 451.09 179.304 450.887 178.824C450.695 178.344 450.599 177.821 450.599 177.256C450.599 176.691 450.695 176.168 450.887 175.688C451.079 175.208 451.346 174.792 451.687 174.44C452.028 174.088 452.428 173.816 452.887 173.624C453.346 173.421 453.842 173.32 454.375 173.32C454.962 173.32 455.479 173.421 455.927 173.624C456.375 173.816 456.748 174.083 457.047 174.424C457.346 174.755 457.57 175.144 457.719 175.592C457.879 176.04 457.959 176.52 457.959 177.032ZM463.675 174.424H461.563V178.792C461.563 179.069 461.59 179.299 461.643 179.48C461.697 179.661 461.771 179.805 461.867 179.912C461.974 180.008 462.097 180.077 462.235 180.12C462.374 180.152 462.523 180.168 462.683 180.168C462.833 180.168 462.987 180.147 463.147 180.104C463.318 180.061 463.478 180.003 463.627 179.928L463.675 180.872C463.483 180.947 463.281 181 463.067 181.032C462.865 181.075 462.641 181.096 462.395 181.096C462.193 181.096 461.979 181.069 461.755 181.016C461.531 180.963 461.323 180.861 461.131 180.712C460.939 180.563 460.779 180.36 460.651 180.104C460.534 179.848 460.475 179.512 460.475 179.096V174.424H458.923V173.512H460.475V171.4H461.563V173.512H463.675V174.424ZM480.642 175.336C480.642 176.2 480.492 176.995 480.194 177.72C479.895 178.445 479.479 179.075 478.946 179.608C478.423 180.131 477.799 180.541 477.074 180.84C476.359 181.139 475.58 181.288 474.738 181.288C473.895 181.288 473.111 181.139 472.386 180.84C471.671 180.541 471.047 180.131 470.514 179.608C469.991 179.075 469.58 178.445 469.282 177.72C468.983 176.995 468.834 176.2 468.834 175.336C468.834 174.472 468.983 173.677 469.282 172.952C469.58 172.227 469.991 171.603 470.514 171.08C471.047 170.547 471.671 170.131 472.386 169.832C473.111 169.533 473.895 169.384 474.738 169.384C475.58 169.384 476.359 169.533 477.074 169.832C477.799 170.131 478.423 170.547 478.946 171.08C479.479 171.603 479.895 172.227 480.194 172.952C480.492 173.677 480.642 174.472 480.642 175.336ZM479.426 175.336C479.426 174.675 479.319 174.045 479.106 173.448C478.892 172.851 478.583 172.328 478.178 171.88C477.772 171.421 477.276 171.059 476.69 170.792C476.114 170.525 475.463 170.392 474.738 170.392C474.012 170.392 473.356 170.525 472.77 170.792C472.194 171.059 471.703 171.421 471.298 171.88C470.892 172.328 470.583 172.851 470.37 173.448C470.156 174.045 470.049 174.675 470.049 175.336C470.049 175.997 470.156 176.627 470.37 177.224C470.583 177.821 470.892 178.344 471.298 178.792C471.703 179.24 472.194 179.597 472.77 179.864C473.356 180.131 474.012 180.264 474.738 180.264C475.463 180.264 476.114 180.131 476.69 179.864C477.276 179.597 477.772 179.24 478.178 178.792C478.583 178.344 478.892 177.821 479.106 177.224C479.319 176.627 479.426 175.997 479.426 175.336ZM482.971 175.16C482.971 174.957 482.966 174.696 482.955 174.376C482.945 174.056 482.929 173.768 482.907 173.512H483.947C483.969 173.715 483.985 173.939 483.995 174.184C484.006 174.429 484.011 174.632 484.011 174.792H484.043C484.257 174.355 484.577 174.003 485.003 173.736C485.43 173.459 485.91 173.32 486.443 173.32C486.582 173.32 486.705 173.325 486.811 173.336C486.929 173.347 487.046 173.368 487.163 173.4L487.019 174.424C486.955 174.403 486.849 174.381 486.699 174.36C486.55 174.339 486.401 174.328 486.251 174.328C485.963 174.328 485.686 174.381 485.419 174.488C485.153 174.595 484.918 174.765 484.715 175C484.523 175.224 484.363 175.517 484.235 175.88C484.118 176.232 484.059 176.659 484.059 177.16V181H482.971V175.16ZM489.841 181H488.753V173.512H489.841V181ZM490.065 170.632C490.065 170.856 489.985 171.043 489.825 171.192C489.665 171.331 489.489 171.4 489.297 171.4C489.105 171.4 488.929 171.331 488.769 171.192C488.609 171.043 488.529 170.856 488.529 170.632C488.529 170.408 488.609 170.227 488.769 170.088C488.929 169.939 489.105 169.864 489.297 169.864C489.489 169.864 489.665 169.939 489.825 170.088C489.985 170.227 490.065 170.408 490.065 170.632ZM493.137 182.504C493.436 182.888 493.841 183.213 494.353 183.48C494.876 183.747 495.425 183.88 496.001 183.88C496.534 183.88 496.988 183.8 497.361 183.64C497.734 183.491 498.033 183.283 498.257 183.016C498.492 182.749 498.662 182.435 498.769 182.072C498.876 181.72 498.929 181.341 498.929 180.936V179.528H498.897C498.609 179.997 498.198 180.36 497.665 180.616C497.142 180.872 496.609 181 496.065 181C495.478 181 494.945 180.904 494.465 180.712C493.996 180.52 493.59 180.259 493.249 179.928C492.918 179.587 492.657 179.181 492.465 178.712C492.284 178.243 492.193 177.736 492.193 177.192C492.193 176.659 492.284 176.157 492.465 175.688C492.657 175.219 492.918 174.808 493.249 174.456C493.59 174.104 493.996 173.827 494.465 173.624C494.945 173.421 495.478 173.32 496.065 173.32C496.609 173.32 497.142 173.448 497.665 173.704C498.188 173.96 498.598 174.328 498.897 174.808H498.929V173.512H500.017V180.936C500.017 181.341 499.958 181.773 499.841 182.232C499.734 182.691 499.526 183.112 499.217 183.496C498.918 183.88 498.508 184.2 497.985 184.456C497.462 184.712 496.785 184.84 495.953 184.84C495.26 184.84 494.598 184.707 493.969 184.44C493.34 184.173 492.801 183.805 492.353 183.336L493.137 182.504ZM493.345 177.16C493.345 177.555 493.409 177.928 493.537 178.28C493.665 178.632 493.846 178.941 494.081 179.208C494.326 179.475 494.625 179.688 494.977 179.848C495.329 179.997 495.729 180.072 496.177 180.072C496.593 180.072 496.977 180.003 497.329 179.864C497.681 179.725 497.985 179.528 498.241 179.272C498.497 179.016 498.694 178.712 498.833 178.36C498.982 177.997 499.057 177.597 499.057 177.16C499.057 176.765 498.982 176.392 498.833 176.04C498.694 175.688 498.497 175.379 498.241 175.112C497.985 174.845 497.681 174.632 497.329 174.472C496.977 174.312 496.593 174.232 496.177 174.232C495.729 174.232 495.329 174.312 494.977 174.472C494.625 174.632 494.326 174.845 494.081 175.112C493.846 175.379 493.665 175.688 493.537 176.04C493.409 176.392 493.345 176.765 493.345 177.16ZM503.95 181H502.862V173.512H503.95V181ZM504.174 170.632C504.174 170.856 504.094 171.043 503.934 171.192C503.774 171.331 503.598 171.4 503.406 171.4C503.214 171.4 503.038 171.331 502.878 171.192C502.718 171.043 502.638 170.856 502.638 170.632C502.638 170.408 502.718 170.227 502.878 170.088C503.038 169.939 503.214 169.864 503.406 169.864C503.598 169.864 503.774 169.939 503.934 170.088C504.094 170.227 504.174 170.408 504.174 170.632ZM507.822 173.512C507.844 173.715 507.86 173.939 507.87 174.184C507.881 174.429 507.886 174.632 507.886 174.792H507.918C508.132 174.355 508.478 174.003 508.958 173.736C509.438 173.459 509.945 173.32 510.478 173.32C511.428 173.32 512.137 173.603 512.606 174.168C513.086 174.733 513.326 175.48 513.326 176.408V181H512.238V176.856C512.238 176.461 512.206 176.104 512.142 175.784C512.078 175.464 511.966 175.192 511.806 174.968C511.657 174.733 511.449 174.552 511.182 174.424C510.926 174.296 510.601 174.232 510.206 174.232C509.918 174.232 509.636 174.291 509.358 174.408C509.092 174.525 508.852 174.707 508.638 174.952C508.425 175.187 508.254 175.491 508.126 175.864C507.998 176.227 507.934 176.659 507.934 177.16V181H506.846V175.16C506.846 174.957 506.841 174.696 506.83 174.376C506.82 174.056 506.804 173.768 506.782 173.512H507.822ZM520.863 176.168C520.863 175.517 520.692 175.032 520.351 174.712C520.01 174.392 519.514 174.232 518.863 174.232C518.415 174.232 517.999 174.312 517.615 174.472C517.231 174.632 516.906 174.845 516.639 175.112L516.031 174.392C516.34 174.083 516.746 173.827 517.247 173.624C517.759 173.421 518.335 173.32 518.975 173.32C519.38 173.32 519.759 173.379 520.111 173.496C520.463 173.603 520.772 173.768 521.039 173.992C521.306 174.216 521.514 174.499 521.663 174.84C521.812 175.181 521.887 175.581 521.887 176.04V179.32C521.887 179.608 521.898 179.907 521.919 180.216C521.94 180.525 521.972 180.787 522.015 181H521.039C521.007 180.819 520.98 180.621 520.959 180.408C520.938 180.195 520.927 179.987 520.927 179.784H520.895C520.554 180.285 520.164 180.648 519.727 180.872C519.3 181.085 518.783 181.192 518.175 181.192C517.887 181.192 517.588 181.149 517.279 181.064C516.98 180.989 516.703 180.861 516.447 180.68C516.202 180.499 515.994 180.264 515.823 179.976C515.663 179.688 515.583 179.336 515.583 178.92C515.583 178.344 515.727 177.891 516.015 177.56C516.314 177.219 516.708 176.968 517.199 176.808C517.69 176.637 518.25 176.531 518.879 176.488C519.519 176.435 520.18 176.408 520.863 176.408V176.168ZM520.543 177.256C520.095 177.256 519.642 177.277 519.183 177.32C518.735 177.352 518.324 177.427 517.951 177.544C517.588 177.651 517.29 177.811 517.055 178.024C516.82 178.237 516.703 178.52 516.703 178.872C516.703 179.139 516.751 179.363 516.847 179.544C516.954 179.725 517.092 179.875 517.263 179.992C517.434 180.099 517.62 180.179 517.823 180.232C518.036 180.275 518.25 180.296 518.463 180.296C518.847 180.296 519.188 180.232 519.487 180.104C519.786 179.965 520.036 179.784 520.239 179.56C520.442 179.325 520.596 179.059 520.703 178.76C520.81 178.461 520.863 178.147 520.863 177.816V177.256H520.543ZM527.91 174.424H525.798V178.792C525.798 179.069 525.824 179.299 525.878 179.48C525.931 179.661 526.006 179.805 526.102 179.912C526.208 180.008 526.331 180.077 526.47 180.12C526.608 180.152 526.758 180.168 526.918 180.168C527.067 180.168 527.222 180.147 527.382 180.104C527.552 180.061 527.712 180.003 527.862 179.928L527.91 180.872C527.718 180.947 527.515 181 527.302 181.032C527.099 181.075 526.875 181.096 526.63 181.096C526.427 181.096 526.214 181.069 525.99 181.016C525.766 180.963 525.558 180.861 525.366 180.712C525.174 180.563 525.014 180.36 524.886 180.104C524.768 179.848 524.71 179.512 524.71 179.096V174.424H523.158V173.512H524.71V171.4H525.798V173.512H527.91V174.424ZM537.052 177.256C537.052 177.821 536.951 178.344 536.748 178.824C536.556 179.304 536.284 179.72 535.932 180.072C535.58 180.424 535.159 180.701 534.668 180.904C534.177 181.096 533.639 181.192 533.052 181.192C532.476 181.192 531.943 181.096 531.452 180.904C530.961 180.701 530.54 180.424 530.188 180.072C529.836 179.72 529.559 179.304 529.356 178.824C529.164 178.344 529.068 177.821 529.068 177.256C529.068 176.691 529.164 176.168 529.356 175.688C529.559 175.208 529.836 174.792 530.188 174.44C530.54 174.088 530.961 173.816 531.452 173.624C531.943 173.421 532.476 173.32 533.052 173.32C533.639 173.32 534.177 173.421 534.668 173.624C535.159 173.816 535.58 174.088 535.932 174.44C536.284 174.792 536.556 175.208 536.748 175.688C536.951 176.168 537.052 176.691 537.052 177.256ZM535.9 177.256C535.9 176.84 535.831 176.451 535.692 176.088C535.564 175.715 535.377 175.395 535.132 175.128C534.887 174.851 534.588 174.632 534.236 174.472C533.884 174.312 533.489 174.232 533.052 174.232C532.615 174.232 532.22 174.312 531.868 174.472C531.527 174.632 531.233 174.851 530.988 175.128C530.743 175.395 530.551 175.715 530.412 176.088C530.284 176.451 530.22 176.84 530.22 177.256C530.22 177.672 530.284 178.067 530.412 178.44C530.551 178.803 530.743 179.123 530.988 179.4C531.233 179.667 531.527 179.88 531.868 180.04C532.22 180.189 532.615 180.264 533.052 180.264C533.489 180.264 533.884 180.189 534.236 180.04C534.588 179.88 534.887 179.667 535.132 179.4C535.377 179.123 535.564 178.803 535.692 178.44C535.831 178.067 535.9 177.672 535.9 177.256ZM539.393 175.16C539.393 174.957 539.388 174.696 539.377 174.376C539.366 174.056 539.35 173.768 539.329 173.512H540.369C540.39 173.715 540.406 173.939 540.417 174.184C540.428 174.429 540.433 174.632 540.433 174.792H540.465C540.678 174.355 540.998 174.003 541.425 173.736C541.852 173.459 542.332 173.32 542.865 173.32C543.004 173.32 543.126 173.325 543.233 173.336C543.35 173.347 543.468 173.368 543.585 173.4L543.441 174.424C543.377 174.403 543.27 174.381 543.121 174.36C542.972 174.339 542.822 174.328 542.673 174.328C542.385 174.328 542.108 174.381 541.841 174.488C541.574 174.595 541.34 174.765 541.137 175C540.945 175.224 540.785 175.517 540.657 175.88C540.54 176.232 540.481 176.659 540.481 177.16V181H539.393V175.16Z" fill="black"/>
<rect x="736.5" y="225.5" width="175" height="64" stroke="#BBBBBB"/>
<path d="M817.351 253.496C817.106 253.155 816.791 252.883 816.407 252.68C816.023 252.467 815.559 252.36 815.015 252.36C814.738 252.36 814.455 252.403 814.167 252.488C813.879 252.573 813.618 252.707 813.383 252.888C813.149 253.059 812.957 253.277 812.807 253.544C812.669 253.811 812.599 254.125 812.599 254.488C812.599 254.851 812.669 255.149 812.807 255.384C812.946 255.619 813.127 255.821 813.351 255.992C813.586 256.152 813.847 256.285 814.135 256.392C814.434 256.499 814.743 256.605 815.063 256.712C815.458 256.84 815.853 256.979 816.247 257.128C816.653 257.277 817.015 257.475 817.335 257.72C817.655 257.955 817.917 258.259 818.119 258.632C818.322 258.995 818.423 259.459 818.423 260.024C818.423 260.589 818.311 261.08 818.087 261.496C817.874 261.901 817.591 262.237 817.239 262.504C816.898 262.771 816.503 262.968 816.055 263.096C815.618 263.224 815.175 263.288 814.727 263.288C814.386 263.288 814.045 263.251 813.703 263.176C813.362 263.112 813.037 263.011 812.727 262.872C812.418 262.733 812.13 262.557 811.863 262.344C811.597 262.131 811.362 261.885 811.159 261.608L812.151 260.872C812.397 261.277 812.738 261.619 813.175 261.896C813.623 262.163 814.146 262.296 814.743 262.296C815.031 262.296 815.325 262.253 815.623 262.168C815.922 262.072 816.189 261.933 816.423 261.752C816.669 261.56 816.866 261.331 817.015 261.064C817.175 260.787 817.255 260.467 817.255 260.104C817.255 259.709 817.175 259.384 817.015 259.128C816.866 258.861 816.663 258.643 816.407 258.472C816.151 258.291 815.858 258.141 815.527 258.024C815.197 257.907 814.85 257.789 814.487 257.672C814.114 257.555 813.746 257.421 813.383 257.272C813.021 257.123 812.695 256.931 812.407 256.696C812.119 256.451 811.885 256.152 811.703 255.8C811.533 255.448 811.447 255.016 811.447 254.504C811.447 253.96 811.554 253.491 811.767 253.096C811.991 252.701 812.279 252.376 812.631 252.12C812.983 251.864 813.373 251.677 813.799 251.56C814.226 251.443 814.647 251.384 815.063 251.384C815.831 251.384 816.487 251.523 817.031 251.8C817.575 252.067 817.986 252.387 818.263 252.76L817.351 253.496ZM820.895 251.672H824.095C824.671 251.672 825.193 251.736 825.663 251.864C826.132 251.981 826.532 252.168 826.863 252.424C827.204 252.669 827.465 252.984 827.647 253.368C827.828 253.741 827.919 254.184 827.919 254.696C827.919 255.208 827.823 255.656 827.631 256.04C827.449 256.413 827.188 256.728 826.847 256.984C826.516 257.229 826.111 257.416 825.631 257.544C825.161 257.672 824.639 257.736 824.063 257.736H822.047V263H820.895V251.672ZM822.047 256.76H823.999C824.905 256.76 825.593 256.584 826.063 256.232C826.532 255.88 826.767 255.368 826.767 254.696C826.767 253.992 826.521 253.48 826.031 253.16C825.551 252.829 824.873 252.664 823.999 252.664H822.047V256.76ZM833.648 261.512H833.68L837.36 251.672H838.592L834.256 263H833.04L828.72 251.672H829.968L833.648 261.512Z" fill="black"/>
<path fill-rule="evenodd" clip-rule="evenodd" d="M820.813 88.696C832.637 91.5003 846.525 92.8983 857.781 85.97C865.959 80.9366 872 75.3616 872 53.0832C872 30.8047 850.577 26 840.719 26C822.353 26 815.635 39.4014 800.906 44.9581C786.178 50.5148 781 56.6744 781 63.9167C781 78.3813 805.007 84.9475 820.813 88.696" fill="#0828BE"/>
<path fill-rule="evenodd" clip-rule="evenodd" d="M841.449 50.7142V71.8133H836.156V50.7142H827.476V45.9699H850.129V50.7142H841.449Z" fill="#EEEEEE"/>
<path d="M365.354 173.354C365.549 173.158 365.549 172.842 365.354 172.646L362.172 169.464C361.976 169.269 361.66 169.269 361.464 169.464C361.269 169.66 361.269 169.976 361.464 170.172L364.293 173L361.464 175.828C361.269 176.024 361.269 176.34 361.464 176.536C361.66 176.731 361.976 176.731 362.172 176.536L365.354 173.354ZM282 173.5H365V172.5H282V173.5Z" fill="black"/>
<path d="M274.58 161H275.966V156.59H277.45L279.97 161H281.65L278.878 156.45C280.292 156.212 281.286 155.288 281.286 153.832C281.286 151.816 279.676 151.088 277.758 151.088H274.58V161ZM275.966 155.428V152.264H277.66C278.864 152.264 279.886 152.642 279.886 153.832C279.886 155.022 278.864 155.428 277.562 155.428H275.966ZM285.028 161H286.47L288.878 153.034H288.906L291.314 161H292.756L295.668 151.088H294.198L292.014 158.984H291.986L289.676 151.088H288.15L285.826 158.984H285.798L283.614 151.088H282.116L285.028 161ZM295.717 161H297.257L298.251 158.564H302.955L303.963 161H305.531L301.275 151.088H300.015L295.717 161ZM298.741 157.346L300.603 152.698L302.451 157.346H298.741ZM314.776 161.252C316.512 161.252 317.786 160.51 318.556 159.46L317.45 158.704C316.862 159.558 315.896 160.02 314.79 160.02C312.508 160.02 311.066 158.256 311.066 156.03C311.066 153.86 312.536 152.054 314.832 152.054C315.854 152.054 316.82 152.544 317.296 153.216L318.388 152.376C317.66 151.368 316.19 150.836 314.832 150.836C311.822 150.836 309.554 152.936 309.554 156.03C309.554 159.082 311.738 161.252 314.776 161.252ZM322.873 161.182C324.903 161.182 326.457 159.712 326.457 157.668C326.457 155.624 324.903 154.182 322.873 154.182C320.843 154.182 319.303 155.624 319.303 157.668C319.303 159.712 320.843 161.182 322.873 161.182ZM322.873 160.076C321.459 160.076 320.661 158.928 320.661 157.668C320.661 156.408 321.459 155.274 322.873 155.274C324.301 155.274 325.085 156.408 325.085 157.668C325.085 158.928 324.301 160.076 322.873 160.076ZM328.309 161H329.625V150.416H328.309V161ZM331.946 161H333.262V150.416H331.946V161ZM337.473 161.168C338.467 161.168 339.223 160.762 339.699 160.048H339.741C339.741 160.356 339.783 160.706 339.853 161H341.043C340.973 160.678 340.945 160.132 340.945 159.684V156.786C340.945 155.316 340.077 154.182 338.173 154.182C337.095 154.182 336.101 154.56 335.457 155.176L336.157 156.016C336.605 155.568 337.305 155.246 338.047 155.246C339.027 155.246 339.685 155.722 339.685 156.702V156.884C337.445 156.884 335.065 157.122 335.065 159.124C335.065 160.65 336.423 161.168 337.473 161.168ZM337.767 160.132C337.109 160.132 336.409 159.88 336.409 159.096C336.409 157.976 338.061 157.836 339.363 157.836H339.685V158.186C339.685 159.306 338.999 160.132 337.767 160.132ZM345.12 161.112C345.526 161.112 345.932 161.042 346.24 160.93L346.198 159.852C345.974 159.964 345.666 160.02 345.428 160.02C344.77 160.02 344.49 159.698 344.49 158.9V155.442H346.254V154.364H344.49V152.46H343.188V154.364H341.914V155.442H343.188V159.04C343.188 160.412 343.874 161.112 345.12 161.112ZM350.679 161.182C351.855 161.182 352.821 160.748 353.535 159.824L352.611 159.082C352.233 159.642 351.575 160.09 350.679 160.09C349.517 160.09 348.565 159.208 348.523 158.074H353.787C353.801 157.92 353.801 157.766 353.801 157.626C353.801 155.512 352.569 154.182 350.609 154.182C348.663 154.182 347.179 155.624 347.179 157.696C347.179 159.782 348.663 161.182 350.679 161.182ZM348.523 157.094C348.607 156.058 349.475 155.218 350.609 155.218C351.827 155.218 352.443 156.044 352.471 157.094H348.523ZM355.639 161H356.955V157.514C356.955 156.408 357.557 155.386 358.817 155.386C359.027 155.386 359.251 155.414 359.419 155.456L359.475 154.238C359.321 154.196 359.139 154.182 358.957 154.182C358.061 154.182 357.291 154.714 356.927 155.484H356.885C356.885 155.204 356.857 154.7 356.829 154.364H355.583C355.625 154.798 355.639 155.442 355.639 155.792V161ZM362.451 161.168C363.445 161.168 364.201 160.762 364.677 160.048H364.719C364.719 160.356 364.761 160.706 364.831 161H366.021C365.951 160.678 365.923 160.132 365.923 159.684V156.786C365.923 155.316 365.055 154.182 363.151 154.182C362.073 154.182 361.079 154.56 360.435 155.176L361.135 156.016C361.583 155.568 362.283 155.246 363.025 155.246C364.005 155.246 364.663 155.722 364.663 156.702V156.884C362.423 156.884 360.043 157.122 360.043 159.124C360.043 160.65 361.401 161.168 362.451 161.168ZM362.745 160.132C362.087 160.132 361.387 159.88 361.387 159.096C361.387 157.976 363.039 157.836 364.341 157.836H364.663V158.186C364.663 159.306 363.977 160.132 362.745 160.132ZM368.149 161H369.465V150.416H368.149V161Z" fill="black"/>
<path d="M184.494 225.5C184.218 225.503 183.997 225.729 184 226.006L184.051 230.505C184.054 230.781 184.28 231.003 184.556 231C184.832 230.997 185.054 230.77 185.051 230.494L185.006 226.494L189.005 226.449C189.281 226.446 189.503 226.22 189.5 225.944C189.497 225.668 189.27 225.446 188.994 225.449L184.494 225.5ZM831.288 301.047C697.181 363.73 546.809 355.875 424.303 326.826C363.055 312.303 308.789 292.485 267.027 273.552C225.243 254.61 196.032 236.577 184.85 225.642L184.15 226.358C195.468 237.423 224.82 255.515 266.614 274.463C308.43 293.421 362.757 313.26 424.072 327.799C546.691 356.875 697.319 364.77 831.712 301.953L831.288 301.047Z" fill="black"/>
<path d="M803.726 296.554C803.972 296.679 804.071 296.98 803.946 297.226L801.912 301.24C801.787 301.486 801.486 301.585 801.24 301.46C800.994 301.335 800.895 301.034 801.02 300.788L802.828 297.22L799.26 295.412C799.014 295.287 798.915 294.986 799.04 294.74C799.165 294.494 799.466 294.395 799.712 294.52L803.726 296.554ZM210.279 217.585C294.948 274.53 401.242 308.01 507.37 320.378C613.5 332.747 719.425 323.998 803.344 296.525L803.656 297.475C719.575 325.002 613.5 333.753 507.255 321.372C401.008 308.99 294.552 275.47 209.721 218.415L210.279 217.585Z" fill="black"/>
<path d="M821.646 211.354C821.842 211.549 822.158 211.549 822.354 211.354L825.536 208.172C825.731 207.976 825.731 207.66 825.536 207.464C825.34 207.269 825.024 207.269 824.828 207.464L822 210.293L819.172 207.464C818.976 207.269 818.66 207.269 818.464 207.464C818.269 207.66 818.269 207.976 818.464 208.172L821.646 211.354ZM821.5 149L821.5 211L822.5 211L822.5 149L821.5 149Z" fill="black"/>
<path d="M828.673 184H832.075C834.609 184 837.423 182.432 837.423 179.044C837.423 175.53 834.609 174.088 832.075 174.088H828.673V184ZM830.059 182.782V175.292H831.795C834.189 175.292 835.939 176.594 835.939 179.044C835.939 181.41 834.189 182.782 831.795 182.782H830.059ZM837.847 184H839.387L840.381 181.564H845.085L846.093 184H847.661L843.405 174.088H842.145L837.847 184ZM840.871 180.346L842.733 175.698L844.581 180.346H840.871ZM848.934 184H850.32V174.088H848.934V184Z" fill="black"/>
<path d="M565.22 376H568.622C571.156 376 573.97 374.432 573.97 371.044C573.97 367.53 571.156 366.088 568.622 366.088H565.22V376ZM566.606 374.782V367.292H568.342C570.736 367.292 572.486 368.594 572.486 371.044C572.486 373.41 570.736 374.782 568.342 374.782H566.606ZM574.394 376H575.934L576.928 373.564H581.632L582.64 376H584.208L579.952 366.088H578.692L574.394 376ZM577.418 372.346L579.28 367.698L581.128 372.346H577.418ZM585.481 376H586.867V366.088H585.481V376ZM589.044 376.462L593.342 365.976L592.348 365.612L588.05 376.126L589.044 376.462ZM598.38 376.252C600.998 376.252 602.23 374.362 602.23 372.332V366.088H600.844V372.248C600.844 373.606 600.228 375.006 598.38 375.006C596.532 375.006 595.916 373.606 595.916 372.248V366.088H594.53V372.332C594.53 374.362 595.762 376.252 598.38 376.252ZM607.143 376.252C608.907 376.252 610.573 375.3 610.573 373.242C610.573 371.268 608.991 370.764 607.661 370.344C606.527 369.98 605.631 369.686 605.631 368.608C605.631 367.488 606.667 366.998 607.563 366.998C608.389 366.998 609.103 367.376 609.495 367.922L610.475 366.97C609.859 366.284 608.781 365.836 607.633 365.836C605.995 365.836 604.231 366.69 604.231 368.664C604.231 370.484 605.547 371.058 606.807 371.45C608.067 371.842 609.159 372.164 609.159 373.368C609.159 374.544 608.095 375.062 607.171 375.062C606.261 375.062 605.421 374.586 604.959 373.9L603.881 374.81C604.637 375.762 605.897 376.252 607.143 376.252ZM612.538 376H615.94C618.474 376 621.288 374.432 621.288 371.044C621.288 367.53 618.474 366.088 615.94 366.088H612.538V376ZM613.924 374.782V367.292H615.66C618.054 367.292 619.804 368.594 619.804 371.044C619.804 373.41 618.054 374.782 615.66 374.782H613.924Z" fill="black"/>
<path d="M536.265 307H537.651V302.576H542.145V301.386H537.651V298.306H542.453V297.088H536.265V307ZM544.577 298.81C545.053 298.81 545.459 298.446 545.459 297.97C545.459 297.48 545.053 297.116 544.577 297.116C544.101 297.116 543.709 297.494 543.709 297.97C543.709 298.432 544.101 298.81 544.577 298.81ZM543.919 307H545.235V300.364H543.919V307ZM547.529 307H548.845V303.472C548.845 302.156 549.587 301.288 550.623 301.288C551.841 301.288 552.135 302.24 552.135 303.318V307H553.451V302.884C553.451 301.4 552.681 300.182 550.973 300.182C550.021 300.182 549.139 300.742 548.817 301.456H548.775C548.775 301.176 548.747 300.7 548.719 300.364H547.473C547.515 300.798 547.529 301.442 547.529 301.792V307ZM557.595 307.168C558.589 307.168 559.345 306.762 559.821 306.048H559.863C559.863 306.356 559.905 306.706 559.975 307H561.165C561.095 306.678 561.067 306.132 561.067 305.684V302.786C561.067 301.316 560.199 300.182 558.295 300.182C557.217 300.182 556.223 300.56 555.579 301.176L556.279 302.016C556.727 301.568 557.427 301.246 558.169 301.246C559.149 301.246 559.807 301.722 559.807 302.702V302.884C557.567 302.884 555.187 303.122 555.187 305.124C555.187 306.65 556.545 307.168 557.595 307.168ZM557.889 306.132C557.231 306.132 556.531 305.88 556.531 305.096C556.531 303.976 558.183 303.836 559.485 303.836H559.807V304.186C559.807 305.306 559.121 306.132 557.889 306.132ZM563.265 307H564.581V303.472C564.581 302.156 565.323 301.288 566.359 301.288C567.577 301.288 567.871 302.24 567.871 303.318V307H569.187V302.884C569.187 301.4 568.417 300.182 566.709 300.182C565.757 300.182 564.875 300.742 564.553 301.456H564.511C564.511 301.176 564.483 300.7 564.455 300.364H563.209C563.251 300.798 563.265 301.442 563.265 301.792V307ZM574.549 307.182C575.613 307.182 576.467 306.79 577.027 306.146L576.145 305.348C575.795 305.796 575.221 306.076 574.549 306.076C573.163 306.076 572.365 304.942 572.365 303.682C572.365 302.408 573.163 301.288 574.535 301.288C575.165 301.288 575.781 301.61 576.061 302.044L577.013 301.274C576.467 300.56 575.459 300.182 574.521 300.182C572.491 300.182 570.979 301.596 570.979 303.682C570.979 305.796 572.505 307.182 574.549 307.182ZM579.003 298.81C579.479 298.81 579.885 298.446 579.885 297.97C579.885 297.48 579.479 297.116 579.003 297.116C578.527 297.116 578.135 297.494 578.135 297.97C578.135 298.432 578.527 298.81 579.003 298.81ZM578.345 307H579.661V300.364H578.345V307ZM581.954 307H583.27V303.472C583.27 302.156 584.012 301.288 585.048 301.288C586.266 301.288 586.56 302.24 586.56 303.318V307H587.876V302.884C587.876 301.4 587.106 300.182 585.398 300.182C584.446 300.182 583.564 300.742 583.242 301.456H583.2C583.2 301.176 583.172 300.7 583.144 300.364H581.898C581.94 300.798 581.954 301.442 581.954 301.792V307ZM593.029 310.36C595.787 310.36 596.697 308.596 596.697 306.664V300.364H595.423V301.428H595.395C594.891 300.602 593.953 300.182 593.001 300.182C590.971 300.182 589.669 301.736 589.669 303.64C589.669 305.544 590.985 307.056 593.015 307.056C593.953 307.056 594.863 306.65 595.353 305.908H595.381V306.762C595.381 308.134 594.793 309.212 593.043 309.212C592.133 309.212 591.195 308.778 590.621 308.134L589.781 309.156C590.607 309.912 591.881 310.36 593.029 310.36ZM593.225 305.95C591.839 305.95 591.027 304.83 591.027 303.612C591.027 302.338 591.839 301.274 593.225 301.274C594.569 301.274 595.479 302.352 595.479 303.612C595.479 304.928 594.583 305.95 593.225 305.95ZM601.138 307H602.678L603.672 304.564H608.376L609.384 307H610.952L606.696 297.088H605.436L601.138 307ZM604.162 303.346L606.024 298.698L607.872 303.346H604.162ZM615.081 310.36C617.839 310.36 618.749 308.596 618.749 306.664V300.364H617.475V301.428H617.447C616.943 300.602 616.005 300.182 615.053 300.182C613.023 300.182 611.721 301.736 611.721 303.64C611.721 305.544 613.037 307.056 615.067 307.056C616.005 307.056 616.915 306.65 617.405 305.908H617.433V306.762C617.433 308.134 616.845 309.212 615.095 309.212C614.185 309.212 613.247 308.778 612.673 308.134L611.833 309.156C612.659 309.912 613.933 310.36 615.081 310.36ZM615.277 305.95C613.891 305.95 613.079 304.83 613.079 303.612C613.079 302.338 613.891 301.274 615.277 301.274C616.621 301.274 617.531 302.352 617.531 303.612C617.531 304.928 616.635 305.95 615.277 305.95ZM621.001 307H622.317V303.514C622.317 302.408 622.919 301.386 624.179 301.386C624.389 301.386 624.613 301.414 624.781 301.456L624.837 300.238C624.683 300.196 624.501 300.182 624.319 300.182C623.423 300.182 622.653 300.714 622.289 301.484H622.247C622.247 301.204 622.219 300.7 622.191 300.364H620.945C620.987 300.798 621.001 301.442 621.001 301.792V307ZM628.893 307.182C630.069 307.182 631.035 306.748 631.749 305.824L630.825 305.082C630.447 305.642 629.789 306.09 628.893 306.09C627.731 306.09 626.779 305.208 626.737 304.074H632.001C632.015 303.92 632.015 303.766 632.015 303.626C632.015 301.512 630.783 300.182 628.823 300.182C626.877 300.182 625.393 301.624 625.393 303.696C625.393 305.782 626.877 307.182 628.893 307.182ZM626.737 303.094C626.821 302.058 627.689 301.218 628.823 301.218C630.041 301.218 630.657 302.044 630.685 303.094H626.737ZM636.919 307.182C638.095 307.182 639.061 306.748 639.775 305.824L638.851 305.082C638.473 305.642 637.815 306.09 636.919 306.09C635.757 306.09 634.805 305.208 634.763 304.074H640.027C640.041 303.92 640.041 303.766 640.041 303.626C640.041 301.512 638.809 300.182 636.849 300.182C634.903 300.182 633.419 301.624 633.419 303.696C633.419 305.782 634.903 307.182 636.919 307.182ZM634.763 303.094C634.847 302.058 635.715 301.218 636.849 301.218C638.067 301.218 638.683 302.044 638.711 303.094H634.763ZM641.878 307H643.194V303.472C643.194 302.156 643.922 301.288 644.888 301.288C645.938 301.288 646.288 302.016 646.288 303.052V307H647.604V303.416C647.604 302.38 648.08 301.288 649.284 301.288C650.432 301.288 650.754 302.24 650.754 303.318V307H652.07V302.884C652.07 301.4 651.3 300.182 649.592 300.182C648.654 300.182 647.786 300.658 647.338 301.512C646.932 300.574 646.162 300.182 645.28 300.182C644.272 300.182 643.502 300.756 643.166 301.456H643.124C643.124 301.176 643.096 300.7 643.068 300.364H641.822C641.864 300.798 641.878 301.442 641.878 301.792V307ZM657.358 307.182C658.534 307.182 659.5 306.748 660.214 305.824L659.29 305.082C658.912 305.642 658.254 306.09 657.358 306.09C656.196 306.09 655.244 305.208 655.202 304.074H660.466C660.48 303.92 660.48 303.766 660.48 303.626C660.48 301.512 659.248 300.182 657.288 300.182C655.342 300.182 653.858 301.624 653.858 303.696C653.858 305.782 655.342 307.182 657.358 307.182ZM655.202 303.094C655.286 302.058 656.154 301.218 657.288 301.218C658.506 301.218 659.122 302.044 659.15 303.094H655.202ZM662.318 307H663.634V303.472C663.634 302.156 664.376 301.288 665.412 301.288C666.63 301.288 666.924 302.24 666.924 303.318V307H668.24V302.884C668.24 301.4 667.47 300.182 665.762 300.182C664.81 300.182 663.928 300.742 663.606 301.456H663.564C663.564 301.176 663.536 300.7 663.508 300.364H662.262C662.304 300.798 662.318 301.442 662.318 301.792V307ZM672.58 307.112C672.986 307.112 673.392 307.042 673.7 306.93L673.658 305.852C673.434 305.964 673.126 306.02 672.888 306.02C672.23 306.02 671.95 305.698 671.95 304.9V301.442H673.714V300.364H671.95V298.46H670.648V300.364H669.374V301.442H670.648V305.04C670.648 306.412 671.334 307.112 672.58 307.112Z" fill="black"/>
<path d="M755.601 119H756.987V110.306H760.165V109.088H752.423V110.306H755.601V119ZM761.923 110.81C762.399 110.81 762.805 110.446 762.805 109.97C762.805 109.48 762.399 109.116 761.923 109.116C761.447 109.116 761.055 109.494 761.055 109.97C761.055 110.432 761.447 110.81 761.923 110.81ZM761.265 119H762.581V112.364H761.265V119ZM764.874 119H766.19V115.472C766.19 114.156 766.932 113.288 767.968 113.288C769.186 113.288 769.48 114.24 769.48 115.318V119H770.796V114.884C770.796 113.4 770.026 112.182 768.318 112.182C767.366 112.182 766.484 112.742 766.162 113.456H766.12C766.12 113.176 766.092 112.7 766.064 112.364H764.818C764.86 112.798 764.874 113.442 764.874 113.792V119ZM773.051 119H774.367V108.416H773.051V119ZM778.577 119.168C779.571 119.168 780.327 118.762 780.803 118.048H780.845C780.845 118.356 780.887 118.706 780.957 119H782.147C782.077 118.678 782.049 118.132 782.049 117.684V114.786C782.049 113.316 781.181 112.182 779.277 112.182C778.199 112.182 777.205 112.56 776.561 113.176L777.261 114.016C777.709 113.568 778.409 113.246 779.151 113.246C780.131 113.246 780.789 113.722 780.789 114.702V114.884C778.549 114.884 776.169 115.122 776.169 117.124C776.169 118.65 777.527 119.168 778.577 119.168ZM778.871 118.132C778.213 118.132 777.513 117.88 777.513 117.096C777.513 115.976 779.165 115.836 780.467 115.836H780.789V116.186C780.789 117.306 780.103 118.132 778.871 118.132ZM784.275 119H785.591V115.556H785.633L788.629 119H790.449L787.075 115.374L790.183 112.364H788.419L785.633 115.248H785.591V108.416H784.275V119ZM794.45 119.182C795.626 119.182 796.592 118.748 797.306 117.824L796.382 117.082C796.004 117.642 795.346 118.09 794.45 118.09C793.288 118.09 792.336 117.208 792.294 116.074H797.558C797.572 115.92 797.572 115.766 797.572 115.626C797.572 113.512 796.34 112.182 794.38 112.182C792.434 112.182 790.95 113.624 790.95 115.696C790.95 117.782 792.434 119.182 794.45 119.182ZM792.294 115.094C792.378 114.058 793.246 113.218 794.38 113.218C795.598 113.218 796.214 114.044 796.242 115.094H792.294ZM802.979 119H804.365V114.646H805.933C807.991 114.646 809.545 113.834 809.545 111.846C809.545 109.914 808.145 109.088 806.003 109.088H802.979V119ZM804.365 113.47V110.264H805.863C807.165 110.264 808.145 110.656 808.145 111.846C808.145 113.022 807.193 113.47 805.835 113.47H804.365ZM813.456 119.182C815.486 119.182 817.04 117.712 817.04 115.668C817.04 113.624 815.486 112.182 813.456 112.182C811.426 112.182 809.886 113.624 809.886 115.668C809.886 117.712 811.426 119.182 813.456 119.182ZM813.456 118.076C812.042 118.076 811.244 116.928 811.244 115.668C811.244 114.408 812.042 113.274 813.456 113.274C814.884 113.274 815.668 114.408 815.668 115.668C815.668 116.928 814.884 118.076 813.456 118.076ZM822 119.182C824.03 119.182 825.584 117.712 825.584 115.668C825.584 113.624 824.03 112.182 822 112.182C819.97 112.182 818.43 113.624 818.43 115.668C818.43 117.712 819.97 119.182 822 119.182ZM822 118.076C820.586 118.076 819.788 116.928 819.788 115.668C819.788 114.408 820.586 113.274 822 113.274C823.428 113.274 824.212 114.408 824.212 115.668C824.212 116.928 823.428 118.076 822 118.076ZM827.437 119H828.753V108.416H827.437V119ZM839.334 119.252C841.07 119.252 842.344 118.51 843.114 117.46L842.008 116.704C841.42 117.558 840.454 118.02 839.348 118.02C837.066 118.02 835.624 116.256 835.624 114.03C835.624 111.86 837.094 110.054 839.39 110.054C840.412 110.054 841.378 110.544 841.854 111.216L842.946 110.376C842.218 109.368 840.748 108.836 839.39 108.836C836.38 108.836 834.112 110.936 834.112 114.03C834.112 117.082 836.296 119.252 839.334 119.252ZM847.43 119.182C849.46 119.182 851.014 117.712 851.014 115.668C851.014 113.624 849.46 112.182 847.43 112.182C845.4 112.182 843.86 113.624 843.86 115.668C843.86 117.712 845.4 119.182 847.43 119.182ZM847.43 118.076C846.016 118.076 845.218 116.928 845.218 115.668C845.218 114.408 846.016 113.274 847.43 113.274C848.858 113.274 849.642 114.408 849.642 115.668C849.642 116.928 848.858 118.076 847.43 118.076ZM852.839 119H854.155V115.472C854.155 114.156 854.897 113.288 855.933 113.288C857.151 113.288 857.445 114.24 857.445 115.318V119H858.761V114.884C858.761 113.4 857.991 112.182 856.283 112.182C855.331 112.182 854.449 112.742 854.127 113.456H854.085C854.085 113.176 854.057 112.7 854.029 112.364H852.783C852.825 112.798 852.839 113.442 852.839 113.792V119ZM863.102 119.112C863.508 119.112 863.914 119.042 864.222 118.93L864.18 117.852C863.956 117.964 863.648 118.02 863.41 118.02C862.752 118.02 862.472 117.698 862.472 116.9V113.442H864.236V112.364H862.472V110.46H861.17V112.364H859.896V113.442H861.17V117.04C861.17 118.412 861.856 119.112 863.102 119.112ZM865.595 119H866.911V115.514C866.911 114.408 867.513 113.386 868.773 113.386C868.983 113.386 869.207 113.414 869.375 113.456L869.431 112.238C869.277 112.196 869.095 112.182 868.913 112.182C868.017 112.182 867.247 112.714 866.883 113.484H866.841C866.841 113.204 866.813 112.7 866.785 112.364H865.539C865.581 112.798 865.595 113.442 865.595 113.792V119ZM872.407 119.168C873.401 119.168 874.157 118.762 874.633 118.048H874.675C874.675 118.356 874.717 118.706 874.787 119H875.977C875.907 118.678 875.879 118.132 875.879 117.684V114.786C875.879 113.316 875.011 112.182 873.107 112.182C872.029 112.182 871.035 112.56 870.391 113.176L871.091 114.016C871.539 113.568 872.239 113.246 872.981 113.246C873.961 113.246 874.619 113.722 874.619 114.702V114.884C872.379 114.884 869.999 115.122 869.999 117.124C869.999 118.65 871.357 119.168 872.407 119.168ZM872.701 118.132C872.043 118.132 871.343 117.88 871.343 117.096C871.343 115.976 872.995 115.836 874.297 115.836H874.619V116.186C874.619 117.306 873.933 118.132 872.701 118.132ZM881.213 119.182C882.277 119.182 883.131 118.79 883.691 118.146L882.809 117.348C882.459 117.796 881.885 118.076 881.213 118.076C879.827 118.076 879.029 116.942 879.029 115.682C879.029 114.408 879.827 113.288 881.199 113.288C881.829 113.288 882.445 113.61 882.725 114.044L883.677 113.274C883.131 112.56 882.123 112.182 881.185 112.182C879.155 112.182 877.643 113.596 877.643 115.682C877.643 117.796 879.169 119.182 881.213 119.182ZM887.109 119.112C887.515 119.112 887.921 119.042 888.229 118.93L888.187 117.852C887.963 117.964 887.655 118.02 887.417 118.02C886.759 118.02 886.479 117.698 886.479 116.9V113.442H888.243V112.364H886.479V110.46H885.177V112.364H883.903V113.442H885.177V117.04C885.177 118.412 885.863 119.112 887.109 119.112ZM891.507 119.182C892.851 119.182 894.153 118.608 894.153 117.04C894.153 115.878 893.187 115.36 891.927 115.08C890.919 114.856 890.415 114.646 890.415 114.086C890.415 113.456 891.045 113.218 891.647 113.218C892.319 113.218 892.893 113.568 893.187 114.044L894.097 113.274C893.621 112.56 892.627 112.182 891.689 112.182C890.429 112.182 889.183 112.784 889.183 114.212C889.183 115.458 890.233 115.836 891.115 116.046C892.249 116.312 892.851 116.536 892.851 117.152C892.851 117.88 892.193 118.118 891.535 118.118C890.793 118.118 890.121 117.712 889.771 117.194L888.833 117.992C889.463 118.79 890.499 119.182 891.507 119.182Z" fill="black"/>
<path d="M717.419 107.272C717.57 107.041 717.504 106.731 717.272 106.581L713.499 104.129C713.267 103.979 712.958 104.045 712.807 104.276C712.657 104.508 712.722 104.817 712.954 104.968L716.308 107.147L714.129 110.501C713.979 110.733 714.045 111.042 714.276 111.193C714.508 111.343 714.817 111.278 714.968 111.046L717.419 107.272ZM604.104 131.489L717.104 107.489L716.896 106.511L603.896 130.511L604.104 131.489Z" fill="black"/>
<path d="M637.845 115.397L639.201 115.109L637.519 107.193L637.547 107.188L644.35 114.015L646.062 113.652L644.002 103.956L642.647 104.244L644.293 111.995L644.265 112.001L637.552 105.326L635.786 105.701L637.845 115.397ZM648.423 113.15L649.779 112.862L648.86 108.535L653.256 107.601L653.009 106.437L648.613 107.371L647.973 104.358L652.67 103.36L652.417 102.169L646.364 103.454L648.423 113.15ZM658.247 111.064L659.603 110.776L657.797 102.272L660.906 101.611L660.653 100.42L653.079 102.028L653.332 103.22L656.441 102.559L658.247 111.064Z" fill="black"/>
<path d="M717.273 235.418C717.504 235.268 717.57 234.958 717.42 234.727L714.968 230.953C714.818 230.722 714.508 230.656 714.276 230.806C714.045 230.957 713.979 231.266 714.13 231.498L716.309 234.852L712.954 237.031C712.723 237.182 712.657 237.492 712.807 237.723C712.958 237.955 713.268 238.02 713.499 237.87L717.273 235.418ZM603.896 211.49L716.896 235.488L717.104 234.51L604.104 210.512L603.896 211.49Z" fill="black"/>
<path d="M623.921 208.72L629.605 209.927L629.861 208.721L625.533 207.802L627.336 199.312L625.981 199.024L623.921 208.72ZM633.568 210.954C634.718 211.199 635.753 210.975 636.644 210.219L635.894 209.301C635.408 209.771 634.671 210.072 633.795 209.886C632.658 209.645 631.91 208.584 632.105 207.466L637.254 208.56C637.299 208.412 637.331 208.261 637.36 208.124C637.8 206.057 636.871 204.5 634.954 204.092C633.05 203.688 631.299 204.79 630.868 206.817C630.435 208.858 631.596 210.536 633.568 210.954ZM632.308 206.508C632.606 205.512 633.629 204.87 634.738 205.106C635.93 205.359 636.361 206.295 636.17 207.328L632.308 206.508ZM640.621 215.701C643.319 216.274 644.575 214.738 644.977 212.848L646.286 206.685L645.039 206.421L644.818 207.461L644.791 207.455C644.47 206.543 643.639 205.937 642.708 205.739C640.722 205.318 639.126 206.567 638.73 208.43C638.335 210.292 639.308 212.045 641.294 212.466C642.211 212.661 643.186 212.453 643.819 211.829L643.847 211.835L643.669 212.67C643.384 214.012 642.585 214.945 640.873 214.581C639.983 214.392 639.156 213.773 638.728 213.023L637.694 213.849C638.345 214.76 639.498 215.463 640.621 215.701ZM641.729 211.428C640.373 211.14 639.812 209.876 640.065 208.684C640.329 207.438 641.345 206.566 642.7 206.854C644.015 207.133 644.681 208.377 644.419 209.609C644.146 210.897 643.057 211.71 641.729 211.428ZM648.951 214.207C649.923 214.413 650.747 214.173 651.361 213.574L651.402 213.583C651.338 213.884 651.306 214.235 651.314 214.537L652.478 214.784C652.476 214.455 652.562 213.915 652.655 213.477L653.257 210.642C653.563 209.204 652.949 207.914 651.087 207.519C650.032 207.295 648.982 207.458 648.224 207.927L648.734 208.894C649.265 208.549 650.017 208.379 650.743 208.533C651.701 208.737 652.246 209.339 652.042 210.298L652.005 210.476C649.813 210.011 647.436 209.749 647.02 211.707C646.703 213.2 647.924 213.989 648.951 214.207ZM649.454 213.255C648.81 213.118 648.178 212.726 648.341 211.959C648.573 210.864 650.218 211.07 651.492 211.34L651.807 211.407L651.734 211.75C651.501 212.845 650.659 213.511 649.454 213.255ZM654.559 215.226L655.847 215.5L658.045 205.147L656.758 204.873L654.559 215.226ZM666.144 217.944C667.842 218.305 669.243 217.844 670.214 216.977L669.289 216.007C668.537 216.721 667.496 216.972 666.414 216.742C664.182 216.268 663.138 214.243 663.6 212.065C664.051 209.943 665.864 208.482 668.11 208.959C669.109 209.171 669.953 209.851 670.279 210.607L671.521 210.012C671.019 208.875 669.691 208.049 668.363 207.767C665.418 207.142 662.764 208.725 662.121 211.751C661.487 214.737 663.172 217.313 666.144 217.944ZM671.236 218.768L672.524 219.041L674.722 208.688L673.435 208.415L671.236 218.768ZM676.607 220.08C677.58 220.287 678.404 220.047 679.018 219.447L679.059 219.456C678.995 219.757 678.963 220.108 678.97 220.411L680.135 220.658C680.133 220.328 680.219 219.788 680.312 219.35L680.914 216.515C681.219 215.077 680.606 213.788 678.743 213.392C677.689 213.168 676.638 213.332 675.88 213.8L676.39 214.768C676.922 214.422 677.673 214.253 678.399 214.407C679.358 214.611 679.903 215.213 679.699 216.171L679.661 216.349C677.47 215.884 675.093 215.623 674.677 217.581C674.36 219.074 675.58 219.862 676.607 220.08ZM677.11 219.128C676.467 218.991 675.834 218.6 675.997 217.833C676.23 216.737 677.875 216.943 679.148 217.214L679.463 217.281L679.391 217.623C679.158 218.719 678.315 219.384 677.11 219.128ZM684.547 213.222C685.013 213.321 685.486 213.049 685.585 212.584C685.686 212.105 685.365 211.664 684.899 211.565C684.434 211.466 683.972 211.755 683.873 212.22C683.777 212.672 684.082 213.123 684.547 213.222ZM682.202 221.097L683.49 221.37L684.868 214.879L683.581 214.606L682.202 221.097ZM685.733 221.847L687.02 222.12L687.753 218.669C688.026 217.382 688.919 216.684 689.864 216.885C690.891 217.103 691.082 217.888 690.867 218.901L690.046 222.763L691.334 223.036L692.078 219.53C692.293 218.517 692.986 217.548 694.164 217.798C695.287 218.036 695.404 219.034 695.18 220.089L694.415 223.691L695.702 223.964L696.557 219.938C696.866 218.486 696.365 217.135 694.695 216.78C693.777 216.585 692.829 216.87 692.214 217.613C692.011 216.611 691.34 216.067 690.477 215.884C689.491 215.675 688.618 216.076 688.144 216.691L688.103 216.682C688.161 216.409 688.233 215.937 688.275 215.603L687.056 215.344C687.007 215.777 686.887 216.41 686.815 216.752L685.733 221.847Z" fill="black"/>
</svg>
