<svg width="838" height="355" viewBox="0 0 838 355" fill="none" xmlns="http://www.w3.org/2000/svg">
<rect width="838" height="355" transform="matrix(1 0 0 -1 0 355)" fill="white"/>
<rect x="0.5" y="117.5" width="175" height="64" stroke="#C6C2C2" stroke-dasharray="2 5"/>
<path d="M55.5821 143.672H58.9581C59.3848 143.672 59.8168 143.72 60.2541 143.816C60.6915 143.901 61.0808 144.056 61.4221 144.28C61.7741 144.493 62.0568 144.787 62.2701 145.16C62.4941 145.533 62.6061 146.003 62.6061 146.568C62.6061 147.165 62.4248 147.688 62.0621 148.136C61.6995 148.573 61.2141 148.861 60.6061 149V149.032C61.3421 149.117 61.9501 149.405 62.4301 149.896C62.9208 150.376 63.1661 151.032 63.1661 151.864C63.1661 152.333 63.0648 152.765 62.8621 153.16C62.6701 153.544 62.3928 153.875 62.0301 154.152C61.6675 154.419 61.2248 154.627 60.7021 154.776C60.1795 154.925 59.5928 155 58.9421 155H55.5821V143.672ZM56.7341 148.632H59.0541C59.3315 148.632 59.6088 148.6 59.8861 148.536C60.1741 148.472 60.4355 148.365 60.6701 148.216C60.9048 148.056 61.0915 147.848 61.2301 147.592C61.3795 147.336 61.4541 147.021 61.4541 146.648C61.4541 146.285 61.3795 145.981 61.2301 145.736C61.0915 145.48 60.8995 145.272 60.6541 145.112C60.4088 144.952 60.1208 144.84 59.7901 144.776C59.4595 144.701 59.1075 144.664 58.7341 144.664H56.7341V148.632ZM56.7341 154.008H58.8781C59.2941 154.008 59.6888 153.971 60.0621 153.896C60.4461 153.811 60.7768 153.683 61.0541 153.512C61.3421 153.331 61.5715 153.101 61.7421 152.824C61.9128 152.536 61.9981 152.195 61.9981 151.8C61.9981 151.053 61.7421 150.499 61.2301 150.136C60.7288 149.763 60.0141 149.576 59.0861 149.576H56.7341V154.008ZM73.13 151.256C73.13 151.821 73.0287 152.344 72.826 152.824C72.634 153.304 72.362 153.72 72.01 154.072C71.658 154.424 71.2367 154.701 70.746 154.904C70.2553 155.096 69.7167 155.192 69.13 155.192C68.554 155.192 68.0207 155.096 67.53 154.904C67.0393 154.701 66.618 154.424 66.266 154.072C65.914 153.72 65.6367 153.304 65.434 152.824C65.242 152.344 65.146 151.821 65.146 151.256C65.146 150.691 65.242 150.168 65.434 149.688C65.6367 149.208 65.914 148.792 66.266 148.44C66.618 148.088 67.0393 147.816 67.53 147.624C68.0207 147.421 68.554 147.32 69.13 147.32C69.7167 147.32 70.2553 147.421 70.746 147.624C71.2367 147.816 71.658 148.088 72.01 148.44C72.362 148.792 72.634 149.208 72.826 149.688C73.0287 150.168 73.13 150.691 73.13 151.256ZM71.978 151.256C71.978 150.84 71.9087 150.451 71.77 150.088C71.642 149.715 71.4553 149.395 71.21 149.128C70.9647 148.851 70.666 148.632 70.314 148.472C69.962 148.312 69.5673 148.232 69.13 148.232C68.6927 148.232 68.298 148.312 67.946 148.472C67.6047 148.632 67.3113 148.851 67.066 149.128C66.8207 149.395 66.6287 149.715 66.49 150.088C66.362 150.451 66.298 150.84 66.298 151.256C66.298 151.672 66.362 152.067 66.49 152.44C66.6287 152.803 66.8207 153.123 67.066 153.4C67.3113 153.667 67.6047 153.88 67.946 154.04C68.298 154.189 68.6927 154.264 69.13 154.264C69.5673 154.264 69.962 154.189 70.314 154.04C70.666 153.88 70.9647 153.667 71.21 153.4C71.4553 153.123 71.642 152.803 71.77 152.44C71.9087 152.067 71.978 151.672 71.978 151.256ZM75.4713 149.16C75.4713 148.957 75.4659 148.696 75.4553 148.376C75.4446 148.056 75.4286 147.768 75.4073 147.512H76.4473C76.4686 147.715 76.4846 147.939 76.4953 148.184C76.5059 148.429 76.5113 148.632 76.5113 148.792H76.5433C76.7566 148.355 77.0766 148.003 77.5033 147.736C77.9299 147.459 78.4099 147.32 78.9433 147.32C79.0819 147.32 79.2046 147.325 79.3113 147.336C79.4286 147.347 79.5459 147.368 79.6633 147.4L79.5193 148.424C79.4553 148.403 79.3486 148.381 79.1993 148.36C79.0499 148.339 78.9006 148.328 78.7513 148.328C78.4633 148.328 78.1859 148.381 77.9193 148.488C77.6526 148.595 77.4179 148.765 77.2153 149C77.0233 149.224 76.8633 149.517 76.7353 149.88C76.6179 150.232 76.5593 150.659 76.5593 151.16V155H75.4713V149.16ZM81.2369 149.16C81.2369 148.957 81.2315 148.696 81.2209 148.376C81.2102 148.056 81.1942 147.768 81.1729 147.512H82.2129C82.2342 147.715 82.2502 147.939 82.2609 148.184C82.2715 148.429 82.2769 148.632 82.2769 148.792H82.3089C82.5222 148.355 82.8422 148.003 83.2689 147.736C83.6955 147.459 84.1755 147.32 84.7089 147.32C84.8475 147.32 84.9702 147.325 85.0769 147.336C85.1942 147.347 85.3115 147.368 85.4289 147.4L85.2849 148.424C85.2209 148.403 85.1142 148.381 84.9649 148.36C84.8155 148.339 84.6662 148.328 84.5169 148.328C84.2289 148.328 83.9515 148.381 83.6849 148.488C83.4182 148.595 83.1835 148.765 82.9809 149C82.7889 149.224 82.6289 149.517 82.5009 149.88C82.3835 150.232 82.3249 150.659 82.3249 151.16V155H81.2369V149.16ZM94.1613 151.256C94.1613 151.821 94.0599 152.344 93.8573 152.824C93.6653 153.304 93.3933 153.72 93.0413 154.072C92.6893 154.424 92.2679 154.701 91.7773 154.904C91.2866 155.096 90.7479 155.192 90.1613 155.192C89.5853 155.192 89.0519 155.096 88.5613 154.904C88.0706 154.701 87.6493 154.424 87.2973 154.072C86.9453 153.72 86.6679 153.304 86.4653 152.824C86.2733 152.344 86.1773 151.821 86.1773 151.256C86.1773 150.691 86.2733 150.168 86.4653 149.688C86.6679 149.208 86.9453 148.792 87.2973 148.44C87.6493 148.088 88.0706 147.816 88.5613 147.624C89.0519 147.421 89.5853 147.32 90.1613 147.32C90.7479 147.32 91.2866 147.421 91.7773 147.624C92.2679 147.816 92.6893 148.088 93.0413 148.44C93.3933 148.792 93.6653 149.208 93.8573 149.688C94.0599 150.168 94.1613 150.691 94.1613 151.256ZM93.0093 151.256C93.0093 150.84 92.9399 150.451 92.8013 150.088C92.6733 149.715 92.4866 149.395 92.2413 149.128C91.9959 148.851 91.6973 148.632 91.3453 148.472C90.9933 148.312 90.5986 148.232 90.1613 148.232C89.7239 148.232 89.3293 148.312 88.9773 148.472C88.6359 148.632 88.3426 148.851 88.0973 149.128C87.8519 149.395 87.6599 149.715 87.5213 150.088C87.3933 150.451 87.3293 150.84 87.3293 151.256C87.3293 151.672 87.3933 152.067 87.5213 152.44C87.6599 152.803 87.8519 153.123 88.0973 153.4C88.3426 153.667 88.6359 153.88 88.9773 154.04C89.3293 154.189 89.7239 154.264 90.1613 154.264C90.5986 154.264 90.9933 154.189 91.3453 154.04C91.6973 153.88 91.9959 153.667 92.2413 153.4C92.4866 153.123 92.6733 152.803 92.8013 152.44C92.9399 152.067 93.0093 151.672 93.0093 151.256ZM96.6465 147.512L98.4545 153.592H98.4865L100.503 147.512H101.559L103.607 153.592H103.639L105.431 147.512H106.583L104.215 155H103.031L101.031 148.936H100.999L99.0305 155H97.8465L95.4785 147.512H96.6465ZM114.152 150.68C114.12 149.976 113.891 149.395 113.464 148.936C113.048 148.467 112.451 148.232 111.672 148.232C111.309 148.232 110.973 148.301 110.664 148.44C110.355 148.568 110.083 148.749 109.848 148.984C109.613 149.208 109.427 149.469 109.288 149.768C109.149 150.056 109.069 150.36 109.048 150.68H114.152ZM115.256 151.032C115.256 151.107 115.256 151.187 115.256 151.272C115.256 151.357 115.251 151.448 115.24 151.544H109.032C109.043 151.917 109.117 152.269 109.256 152.6C109.395 152.931 109.587 153.219 109.832 153.464C110.077 153.709 110.365 153.907 110.696 154.056C111.027 154.195 111.384 154.264 111.768 154.264C112.333 154.264 112.819 154.136 113.224 153.88C113.64 153.613 113.955 153.309 114.168 152.968L114.984 153.608C114.536 154.173 114.04 154.579 113.496 154.824C112.963 155.069 112.387 155.192 111.768 155.192C111.213 155.192 110.696 155.096 110.216 154.904C109.747 154.701 109.341 154.424 109 154.072C108.659 153.72 108.387 153.304 108.184 152.824C107.992 152.344 107.896 151.821 107.896 151.256C107.896 150.691 107.992 150.168 108.184 149.688C108.376 149.208 108.643 148.792 108.984 148.44C109.325 148.088 109.725 147.816 110.184 147.624C110.643 147.421 111.139 147.32 111.672 147.32C112.259 147.32 112.776 147.421 113.224 147.624C113.672 147.816 114.045 148.083 114.344 148.424C114.643 148.755 114.867 149.144 115.016 149.592C115.176 150.04 115.256 150.52 115.256 151.032ZM117.596 149.16C117.596 148.957 117.591 148.696 117.58 148.376C117.57 148.056 117.554 147.768 117.532 147.512H118.572C118.594 147.715 118.61 147.939 118.62 148.184C118.631 148.429 118.636 148.632 118.636 148.792H118.668C118.882 148.355 119.202 148.003 119.628 147.736C120.055 147.459 120.535 147.32 121.068 147.32C121.207 147.32 121.33 147.325 121.436 147.336C121.554 147.347 121.671 147.368 121.788 147.4L121.644 148.424C121.58 148.403 121.474 148.381 121.324 148.36C121.175 148.339 121.026 148.328 120.876 148.328C120.588 148.328 120.311 148.381 120.044 148.488C119.778 148.595 119.543 148.765 119.34 149C119.148 149.224 118.988 149.517 118.86 149.88C118.743 150.232 118.684 150.659 118.684 151.16V155H117.596V149.16Z" fill="black"/>
<rect x="322.5" y="117.5" width="175" height="64" stroke="#BBBBBB"/>
<path d="M351.705 155H350.441L355.337 143.672H356.457L361.321 155H360.041L358.793 152.024H352.937L351.705 155ZM353.369 150.968H358.361L355.865 144.952L353.369 150.968ZM366.908 149.288C366.748 148.979 366.503 148.728 366.172 148.536C365.852 148.333 365.484 148.232 365.068 148.232C364.876 148.232 364.684 148.253 364.492 148.296C364.3 148.339 364.13 148.408 363.98 148.504C363.831 148.6 363.708 148.723 363.612 148.872C363.527 149.021 363.484 149.197 363.484 149.4C363.484 149.752 363.628 150.024 363.916 150.216C364.204 150.397 364.658 150.552 365.276 150.68C366.162 150.861 366.812 151.128 367.228 151.48C367.655 151.821 367.868 152.285 367.868 152.872C367.868 153.299 367.783 153.661 367.612 153.96C367.452 154.248 367.239 154.488 366.972 154.68C366.706 154.861 366.402 154.989 366.06 155.064C365.73 155.149 365.394 155.192 365.052 155.192C364.487 155.192 363.938 155.075 363.404 154.84C362.871 154.605 362.434 154.237 362.092 153.736L362.956 153.096C363.148 153.427 363.431 153.704 363.804 153.928C364.178 154.152 364.588 154.264 365.036 154.264C365.271 154.264 365.495 154.243 365.708 154.2C365.922 154.157 366.108 154.083 366.268 153.976C366.428 153.869 366.556 153.736 366.652 153.576C366.748 153.405 366.796 153.197 366.796 152.952C366.796 152.557 366.604 152.264 366.22 152.072C365.847 151.869 365.303 151.683 364.588 151.512C364.364 151.459 364.124 151.395 363.868 151.32C363.623 151.235 363.394 151.117 363.18 150.968C362.967 150.808 362.791 150.611 362.652 150.376C362.514 150.141 362.444 149.848 362.444 149.496C362.444 149.112 362.519 148.787 362.668 148.52C362.818 148.243 363.015 148.019 363.26 147.848C363.516 147.667 363.804 147.533 364.124 147.448C364.444 147.363 364.775 147.32 365.116 147.32C365.639 147.32 366.146 147.437 366.636 147.672C367.127 147.907 367.495 148.237 367.74 148.664L366.908 149.288ZM374.018 149.288C373.858 148.979 373.612 148.728 373.282 148.536C372.962 148.333 372.594 148.232 372.178 148.232C371.986 148.232 371.794 148.253 371.602 148.296C371.41 148.339 371.239 148.408 371.09 148.504C370.94 148.6 370.818 148.723 370.722 148.872C370.636 149.021 370.594 149.197 370.594 149.4C370.594 149.752 370.738 150.024 371.026 150.216C371.314 150.397 371.767 150.552 372.386 150.68C373.271 150.861 373.922 151.128 374.338 151.48C374.764 151.821 374.978 152.285 374.978 152.872C374.978 153.299 374.892 153.661 374.722 153.96C374.562 154.248 374.348 154.488 374.082 154.68C373.815 154.861 373.511 154.989 373.17 155.064C372.839 155.149 372.503 155.192 372.162 155.192C371.596 155.192 371.047 155.075 370.514 154.84C369.98 154.605 369.543 154.237 369.202 153.736L370.066 153.096C370.258 153.427 370.54 153.704 370.914 153.928C371.287 154.152 371.698 154.264 372.146 154.264C372.38 154.264 372.604 154.243 372.818 154.2C373.031 154.157 373.218 154.083 373.378 153.976C373.538 153.869 373.666 153.736 373.762 153.576C373.858 153.405 373.906 153.197 373.906 152.952C373.906 152.557 373.714 152.264 373.33 152.072C372.956 151.869 372.412 151.683 371.698 151.512C371.474 151.459 371.234 151.395 370.978 151.32C370.732 151.235 370.503 151.117 370.29 150.968C370.076 150.808 369.9 150.611 369.762 150.376C369.623 150.141 369.554 149.848 369.554 149.496C369.554 149.112 369.628 148.787 369.778 148.52C369.927 148.243 370.124 148.019 370.37 147.848C370.626 147.667 370.914 147.533 371.234 147.448C371.554 147.363 371.884 147.32 372.226 147.32C372.748 147.32 373.255 147.437 373.746 147.672C374.236 147.907 374.604 148.237 374.85 148.664L374.018 149.288ZM382.855 150.68C382.823 149.976 382.594 149.395 382.167 148.936C381.751 148.467 381.154 148.232 380.375 148.232C380.012 148.232 379.676 148.301 379.367 148.44C379.058 148.568 378.786 148.749 378.551 148.984C378.316 149.208 378.13 149.469 377.991 149.768C377.852 150.056 377.772 150.36 377.751 150.68H382.855ZM383.959 151.032C383.959 151.107 383.959 151.187 383.959 151.272C383.959 151.357 383.954 151.448 383.943 151.544H377.735C377.746 151.917 377.82 152.269 377.959 152.6C378.098 152.931 378.29 153.219 378.535 153.464C378.78 153.709 379.068 153.907 379.399 154.056C379.73 154.195 380.087 154.264 380.471 154.264C381.036 154.264 381.522 154.136 381.927 153.88C382.343 153.613 382.658 153.309 382.871 152.968L383.687 153.608C383.239 154.173 382.743 154.579 382.199 154.824C381.666 155.069 381.09 155.192 380.471 155.192C379.916 155.192 379.399 155.096 378.919 154.904C378.45 154.701 378.044 154.424 377.703 154.072C377.362 153.72 377.09 153.304 376.887 152.824C376.695 152.344 376.599 151.821 376.599 151.256C376.599 150.691 376.695 150.168 376.887 149.688C377.079 149.208 377.346 148.792 377.687 148.44C378.028 148.088 378.428 147.816 378.887 147.624C379.346 147.421 379.842 147.32 380.375 147.32C380.962 147.32 381.479 147.421 381.927 147.624C382.375 147.816 382.748 148.083 383.047 148.424C383.346 148.755 383.57 149.144 383.719 149.592C383.879 150.04 383.959 150.52 383.959 151.032ZM389.675 148.424H387.563V152.792C387.563 153.069 387.59 153.299 387.643 153.48C387.697 153.661 387.771 153.805 387.867 153.912C387.974 154.008 388.097 154.077 388.235 154.12C388.374 154.152 388.523 154.168 388.683 154.168C388.833 154.168 388.987 154.147 389.147 154.104C389.318 154.061 389.478 154.003 389.627 153.928L389.675 154.872C389.483 154.947 389.281 155 389.067 155.032C388.865 155.075 388.641 155.096 388.395 155.096C388.193 155.096 387.979 155.069 387.755 155.016C387.531 154.963 387.323 154.861 387.131 154.712C386.939 154.563 386.779 154.36 386.651 154.104C386.534 153.848 386.475 153.512 386.475 153.096V148.424H384.923V147.512H386.475V145.4H387.563V147.512H389.675V148.424ZM406.642 149.336C406.642 150.2 406.492 150.995 406.194 151.72C405.895 152.445 405.479 153.075 404.946 153.608C404.423 154.131 403.799 154.541 403.074 154.84C402.359 155.139 401.58 155.288 400.738 155.288C399.895 155.288 399.111 155.139 398.386 154.84C397.671 154.541 397.047 154.131 396.514 153.608C395.991 153.075 395.58 152.445 395.282 151.72C394.983 150.995 394.834 150.2 394.834 149.336C394.834 148.472 394.983 147.677 395.282 146.952C395.58 146.227 395.991 145.603 396.514 145.08C397.047 144.547 397.671 144.131 398.386 143.832C399.111 143.533 399.895 143.384 400.738 143.384C401.58 143.384 402.359 143.533 403.074 143.832C403.799 144.131 404.423 144.547 404.946 145.08C405.479 145.603 405.895 146.227 406.194 146.952C406.492 147.677 406.642 148.472 406.642 149.336ZM405.426 149.336C405.426 148.675 405.319 148.045 405.106 147.448C404.892 146.851 404.583 146.328 404.178 145.88C403.772 145.421 403.276 145.059 402.69 144.792C402.114 144.525 401.463 144.392 400.738 144.392C400.012 144.392 399.356 144.525 398.77 144.792C398.194 145.059 397.703 145.421 397.298 145.88C396.892 146.328 396.583 146.851 396.37 147.448C396.156 148.045 396.049 148.675 396.049 149.336C396.049 149.997 396.156 150.627 396.37 151.224C396.583 151.821 396.892 152.344 397.298 152.792C397.703 153.24 398.194 153.597 398.77 153.864C399.356 154.131 400.012 154.264 400.738 154.264C401.463 154.264 402.114 154.131 402.69 153.864C403.276 153.597 403.772 153.24 404.178 152.792C404.583 152.344 404.892 151.821 405.106 151.224C405.319 150.627 405.426 149.997 405.426 149.336ZM408.971 149.16C408.971 148.957 408.966 148.696 408.955 148.376C408.945 148.056 408.929 147.768 408.907 147.512H409.947C409.969 147.715 409.985 147.939 409.995 148.184C410.006 148.429 410.011 148.632 410.011 148.792H410.043C410.257 148.355 410.577 148.003 411.003 147.736C411.43 147.459 411.91 147.32 412.443 147.32C412.582 147.32 412.705 147.325 412.811 147.336C412.929 147.347 413.046 147.368 413.163 147.4L413.019 148.424C412.955 148.403 412.849 148.381 412.699 148.36C412.55 148.339 412.401 148.328 412.251 148.328C411.963 148.328 411.686 148.381 411.419 148.488C411.153 148.595 410.918 148.765 410.715 149C410.523 149.224 410.363 149.517 410.235 149.88C410.118 150.232 410.059 150.659 410.059 151.16V155H408.971V149.16ZM415.841 155H414.753V147.512H415.841V155ZM416.065 144.632C416.065 144.856 415.985 145.043 415.825 145.192C415.665 145.331 415.489 145.4 415.297 145.4C415.105 145.4 414.929 145.331 414.769 145.192C414.609 145.043 414.529 144.856 414.529 144.632C414.529 144.408 414.609 144.227 414.769 144.088C414.929 143.939 415.105 143.864 415.297 143.864C415.489 143.864 415.665 143.939 415.825 144.088C415.985 144.227 416.065 144.408 416.065 144.632ZM419.137 156.504C419.436 156.888 419.841 157.213 420.353 157.48C420.876 157.747 421.425 157.88 422.001 157.88C422.534 157.88 422.988 157.8 423.361 157.64C423.734 157.491 424.033 157.283 424.257 157.016C424.492 156.749 424.662 156.435 424.769 156.072C424.876 155.72 424.929 155.341 424.929 154.936V153.528H424.897C424.609 153.997 424.198 154.36 423.665 154.616C423.142 154.872 422.609 155 422.065 155C421.478 155 420.945 154.904 420.465 154.712C419.996 154.52 419.59 154.259 419.249 153.928C418.918 153.587 418.657 153.181 418.465 152.712C418.284 152.243 418.193 151.736 418.193 151.192C418.193 150.659 418.284 150.157 418.465 149.688C418.657 149.219 418.918 148.808 419.249 148.456C419.59 148.104 419.996 147.827 420.465 147.624C420.945 147.421 421.478 147.32 422.065 147.32C422.609 147.32 423.142 147.448 423.665 147.704C424.188 147.96 424.598 148.328 424.897 148.808H424.929V147.512H426.017V154.936C426.017 155.341 425.958 155.773 425.841 156.232C425.734 156.691 425.526 157.112 425.217 157.496C424.918 157.88 424.508 158.2 423.985 158.456C423.462 158.712 422.785 158.84 421.953 158.84C421.26 158.84 420.598 158.707 419.969 158.44C419.34 158.173 418.801 157.805 418.353 157.336L419.137 156.504ZM419.345 151.16C419.345 151.555 419.409 151.928 419.537 152.28C419.665 152.632 419.846 152.941 420.081 153.208C420.326 153.475 420.625 153.688 420.977 153.848C421.329 153.997 421.729 154.072 422.177 154.072C422.593 154.072 422.977 154.003 423.329 153.864C423.681 153.725 423.985 153.528 424.241 153.272C424.497 153.016 424.694 152.712 424.833 152.36C424.982 151.997 425.057 151.597 425.057 151.16C425.057 150.765 424.982 150.392 424.833 150.04C424.694 149.688 424.497 149.379 424.241 149.112C423.985 148.845 423.681 148.632 423.329 148.472C422.977 148.312 422.593 148.232 422.177 148.232C421.729 148.232 421.329 148.312 420.977 148.472C420.625 148.632 420.326 148.845 420.081 149.112C419.846 149.379 419.665 149.688 419.537 150.04C419.409 150.392 419.345 150.765 419.345 151.16ZM429.95 155H428.862V147.512H429.95V155ZM430.174 144.632C430.174 144.856 430.094 145.043 429.934 145.192C429.774 145.331 429.598 145.4 429.406 145.4C429.214 145.4 429.038 145.331 428.878 145.192C428.718 145.043 428.638 144.856 428.638 144.632C428.638 144.408 428.718 144.227 428.878 144.088C429.038 143.939 429.214 143.864 429.406 143.864C429.598 143.864 429.774 143.939 429.934 144.088C430.094 144.227 430.174 144.408 430.174 144.632ZM433.822 147.512C433.844 147.715 433.86 147.939 433.87 148.184C433.881 148.429 433.886 148.632 433.886 148.792H433.918C434.132 148.355 434.478 148.003 434.958 147.736C435.438 147.459 435.945 147.32 436.478 147.32C437.428 147.32 438.137 147.603 438.606 148.168C439.086 148.733 439.326 149.48 439.326 150.408V155H438.238V150.856C438.238 150.461 438.206 150.104 438.142 149.784C438.078 149.464 437.966 149.192 437.806 148.968C437.657 148.733 437.449 148.552 437.182 148.424C436.926 148.296 436.601 148.232 436.206 148.232C435.918 148.232 435.636 148.291 435.358 148.408C435.092 148.525 434.852 148.707 434.638 148.952C434.425 149.187 434.254 149.491 434.126 149.864C433.998 150.227 433.934 150.659 433.934 151.16V155H432.846V149.16C432.846 148.957 432.841 148.696 432.83 148.376C432.82 148.056 432.804 147.768 432.782 147.512H433.822ZM446.863 150.168C446.863 149.517 446.692 149.032 446.351 148.712C446.01 148.392 445.514 148.232 444.863 148.232C444.415 148.232 443.999 148.312 443.615 148.472C443.231 148.632 442.906 148.845 442.639 149.112L442.031 148.392C442.34 148.083 442.746 147.827 443.247 147.624C443.759 147.421 444.335 147.32 444.975 147.32C445.38 147.32 445.759 147.379 446.111 147.496C446.463 147.603 446.772 147.768 447.039 147.992C447.306 148.216 447.514 148.499 447.663 148.84C447.812 149.181 447.887 149.581 447.887 150.04V153.32C447.887 153.608 447.898 153.907 447.919 154.216C447.94 154.525 447.972 154.787 448.015 155H447.039C447.007 154.819 446.98 154.621 446.959 154.408C446.938 154.195 446.927 153.987 446.927 153.784H446.895C446.554 154.285 446.164 154.648 445.727 154.872C445.3 155.085 444.783 155.192 444.175 155.192C443.887 155.192 443.588 155.149 443.279 155.064C442.98 154.989 442.703 154.861 442.447 154.68C442.202 154.499 441.994 154.264 441.823 153.976C441.663 153.688 441.583 153.336 441.583 152.92C441.583 152.344 441.727 151.891 442.015 151.56C442.314 151.219 442.708 150.968 443.199 150.808C443.69 150.637 444.25 150.531 444.879 150.488C445.519 150.435 446.18 150.408 446.863 150.408V150.168ZM446.543 151.256C446.095 151.256 445.642 151.277 445.183 151.32C444.735 151.352 444.324 151.427 443.951 151.544C443.588 151.651 443.29 151.811 443.055 152.024C442.82 152.237 442.703 152.52 442.703 152.872C442.703 153.139 442.751 153.363 442.847 153.544C442.954 153.725 443.092 153.875 443.263 153.992C443.434 154.099 443.62 154.179 443.823 154.232C444.036 154.275 444.25 154.296 444.463 154.296C444.847 154.296 445.188 154.232 445.487 154.104C445.786 153.965 446.036 153.784 446.239 153.56C446.442 153.325 446.596 153.059 446.703 152.76C446.81 152.461 446.863 152.147 446.863 151.816V151.256H446.543ZM453.91 148.424H451.798V152.792C451.798 153.069 451.824 153.299 451.878 153.48C451.931 153.661 452.006 153.805 452.102 153.912C452.208 154.008 452.331 154.077 452.47 154.12C452.608 154.152 452.758 154.168 452.918 154.168C453.067 154.168 453.222 154.147 453.382 154.104C453.552 154.061 453.712 154.003 453.862 153.928L453.91 154.872C453.718 154.947 453.515 155 453.302 155.032C453.099 155.075 452.875 155.096 452.63 155.096C452.427 155.096 452.214 155.069 451.99 155.016C451.766 154.963 451.558 154.861 451.366 154.712C451.174 154.563 451.014 154.36 450.886 154.104C450.768 153.848 450.71 153.512 450.71 153.096V148.424H449.158V147.512H450.71V145.4H451.798V147.512H453.91V148.424ZM463.052 151.256C463.052 151.821 462.951 152.344 462.748 152.824C462.556 153.304 462.284 153.72 461.932 154.072C461.58 154.424 461.159 154.701 460.668 154.904C460.177 155.096 459.639 155.192 459.052 155.192C458.476 155.192 457.943 155.096 457.452 154.904C456.961 154.701 456.54 154.424 456.188 154.072C455.836 153.72 455.559 153.304 455.356 152.824C455.164 152.344 455.068 151.821 455.068 151.256C455.068 150.691 455.164 150.168 455.356 149.688C455.559 149.208 455.836 148.792 456.188 148.44C456.54 148.088 456.961 147.816 457.452 147.624C457.943 147.421 458.476 147.32 459.052 147.32C459.639 147.32 460.177 147.421 460.668 147.624C461.159 147.816 461.58 148.088 461.932 148.44C462.284 148.792 462.556 149.208 462.748 149.688C462.951 150.168 463.052 150.691 463.052 151.256ZM461.9 151.256C461.9 150.84 461.831 150.451 461.692 150.088C461.564 149.715 461.377 149.395 461.132 149.128C460.887 148.851 460.588 148.632 460.236 148.472C459.884 148.312 459.489 148.232 459.052 148.232C458.615 148.232 458.22 148.312 457.868 148.472C457.527 148.632 457.233 148.851 456.988 149.128C456.743 149.395 456.551 149.715 456.412 150.088C456.284 150.451 456.22 150.84 456.22 151.256C456.22 151.672 456.284 152.067 456.412 152.44C456.551 152.803 456.743 153.123 456.988 153.4C457.233 153.667 457.527 153.88 457.868 154.04C458.22 154.189 458.615 154.264 459.052 154.264C459.489 154.264 459.884 154.189 460.236 154.04C460.588 153.88 460.887 153.667 461.132 153.4C461.377 153.123 461.564 152.803 461.692 152.44C461.831 152.067 461.9 151.672 461.9 151.256ZM465.393 149.16C465.393 148.957 465.388 148.696 465.377 148.376C465.366 148.056 465.35 147.768 465.329 147.512H466.369C466.39 147.715 466.406 147.939 466.417 148.184C466.428 148.429 466.433 148.632 466.433 148.792H466.465C466.678 148.355 466.998 148.003 467.425 147.736C467.852 147.459 468.332 147.32 468.865 147.32C469.004 147.32 469.126 147.325 469.233 147.336C469.35 147.347 469.468 147.368 469.585 147.4L469.441 148.424C469.377 148.403 469.27 148.381 469.121 148.36C468.972 148.339 468.822 148.328 468.673 148.328C468.385 148.328 468.108 148.381 467.841 148.488C467.574 148.595 467.34 148.765 467.137 149C466.945 149.224 466.785 149.517 466.657 149.88C466.54 150.232 466.481 150.659 466.481 151.16V155H465.393V149.16Z" fill="black"/>
<rect x="662.5" y="199.5" width="175" height="64" stroke="#BBBBBB"/>
<path d="M743.351 227.496C743.106 227.155 742.791 226.883 742.407 226.68C742.023 226.467 741.559 226.36 741.015 226.36C740.738 226.36 740.455 226.403 740.167 226.488C739.879 226.573 739.618 226.707 739.383 226.888C739.149 227.059 738.957 227.277 738.807 227.544C738.669 227.811 738.599 228.125 738.599 228.488C738.599 228.851 738.669 229.149 738.807 229.384C738.946 229.619 739.127 229.821 739.351 229.992C739.586 230.152 739.847 230.285 740.135 230.392C740.434 230.499 740.743 230.605 741.063 230.712C741.458 230.84 741.853 230.979 742.247 231.128C742.653 231.277 743.015 231.475 743.335 231.72C743.655 231.955 743.917 232.259 744.119 232.632C744.322 232.995 744.423 233.459 744.423 234.024C744.423 234.589 744.311 235.08 744.087 235.496C743.874 235.901 743.591 236.237 743.239 236.504C742.898 236.771 742.503 236.968 742.055 237.096C741.618 237.224 741.175 237.288 740.727 237.288C740.386 237.288 740.045 237.251 739.703 237.176C739.362 237.112 739.037 237.011 738.727 236.872C738.418 236.733 738.13 236.557 737.863 236.344C737.597 236.131 737.362 235.885 737.159 235.608L738.151 234.872C738.397 235.277 738.738 235.619 739.175 235.896C739.623 236.163 740.146 236.296 740.743 236.296C741.031 236.296 741.325 236.253 741.623 236.168C741.922 236.072 742.189 235.933 742.423 235.752C742.669 235.56 742.866 235.331 743.015 235.064C743.175 234.787 743.255 234.467 743.255 234.104C743.255 233.709 743.175 233.384 743.015 233.128C742.866 232.861 742.663 232.643 742.407 232.472C742.151 232.291 741.858 232.141 741.527 232.024C741.197 231.907 740.85 231.789 740.487 231.672C740.114 231.555 739.746 231.421 739.383 231.272C739.021 231.123 738.695 230.931 738.407 230.696C738.119 230.451 737.885 230.152 737.703 229.8C737.533 229.448 737.447 229.016 737.447 228.504C737.447 227.96 737.554 227.491 737.767 227.096C737.991 226.701 738.279 226.376 738.631 226.12C738.983 225.864 739.373 225.677 739.799 225.56C740.226 225.443 740.647 225.384 741.063 225.384C741.831 225.384 742.487 225.523 743.031 225.8C743.575 226.067 743.986 226.387 744.263 226.76L743.351 227.496ZM746.895 225.672H750.095C750.671 225.672 751.193 225.736 751.663 225.864C752.132 225.981 752.532 226.168 752.863 226.424C753.204 226.669 753.465 226.984 753.647 227.368C753.828 227.741 753.919 228.184 753.919 228.696C753.919 229.208 753.823 229.656 753.631 230.04C753.449 230.413 753.188 230.728 752.847 230.984C752.516 231.229 752.111 231.416 751.631 231.544C751.161 231.672 750.639 231.736 750.063 231.736H748.047V237H746.895V225.672ZM748.047 230.76H749.999C750.905 230.76 751.593 230.584 752.063 230.232C752.532 229.88 752.767 229.368 752.767 228.696C752.767 227.992 752.521 227.48 752.031 227.16C751.551 226.829 750.873 226.664 749.999 226.664H748.047V230.76ZM759.648 235.512H759.68L763.36 225.672H764.592L760.256 237H759.04L754.72 225.672H755.968L759.648 235.512Z" fill="black"/>
<path fill-rule="evenodd" clip-rule="evenodd" d="M746.813 62.696C758.637 65.5003 772.525 66.8983 783.781 59.97C791.959 54.9366 798 49.3616 798 27.0832C798 4.80474 776.577 0 766.719 0C748.353 0 741.635 13.4014 726.906 18.9581C712.178 24.5148 707 30.6744 707 37.9167C707 52.3813 731.007 58.9475 746.813 62.696" fill="#0828BE"/>
<path fill-rule="evenodd" clip-rule="evenodd" d="M767.449 24.7142V45.8132H762.156V24.7142H753.476V19.9698H776.129V24.7142H767.449Z" fill="#EEEEEE"/>
<path d="M291.354 147.354C291.549 147.158 291.549 146.842 291.354 146.646L288.172 143.464C287.976 143.269 287.66 143.269 287.464 143.464C287.269 143.66 287.269 143.976 287.464 144.172L290.293 147L287.464 149.828C287.269 150.024 287.269 150.34 287.464 150.536C287.66 150.731 287.976 150.731 288.172 150.536L291.354 147.354ZM208 147.5H291V146.5H208V147.5Z" fill="black"/>
<path d="M200.58 135H201.966V130.59H203.45L205.97 135H207.65L204.878 130.45C206.292 130.212 207.286 129.288 207.286 127.832C207.286 125.816 205.676 125.088 203.758 125.088H200.58V135ZM201.966 129.428V126.264H203.66C204.864 126.264 205.886 126.642 205.886 127.832C205.886 129.022 204.864 129.428 203.562 129.428H201.966ZM211.028 135H212.47L214.878 127.034H214.906L217.314 135H218.756L221.668 125.088H220.198L218.014 132.984H217.986L215.676 125.088H214.15L211.826 132.984H211.798L209.614 125.088H208.116L211.028 135ZM221.717 135H223.257L224.251 132.564H228.955L229.963 135H231.531L227.275 125.088H226.015L221.717 135ZM224.741 131.346L226.603 126.698L228.451 131.346H224.741ZM240.776 135.252C242.512 135.252 243.786 134.51 244.556 133.46L243.45 132.704C242.862 133.558 241.896 134.02 240.79 134.02C238.508 134.02 237.066 132.256 237.066 130.03C237.066 127.86 238.536 126.054 240.832 126.054C241.854 126.054 242.82 126.544 243.296 127.216L244.388 126.376C243.66 125.368 242.19 124.836 240.832 124.836C237.822 124.836 235.554 126.936 235.554 130.03C235.554 133.082 237.738 135.252 240.776 135.252ZM248.873 135.182C250.903 135.182 252.457 133.712 252.457 131.668C252.457 129.624 250.903 128.182 248.873 128.182C246.843 128.182 245.303 129.624 245.303 131.668C245.303 133.712 246.843 135.182 248.873 135.182ZM248.873 134.076C247.459 134.076 246.661 132.928 246.661 131.668C246.661 130.408 247.459 129.274 248.873 129.274C250.301 129.274 251.085 130.408 251.085 131.668C251.085 132.928 250.301 134.076 248.873 134.076ZM254.309 135H255.625V124.416H254.309V135ZM257.946 135H259.262V124.416H257.946V135ZM263.473 135.168C264.467 135.168 265.223 134.762 265.699 134.048H265.741C265.741 134.356 265.783 134.706 265.853 135H267.043C266.973 134.678 266.945 134.132 266.945 133.684V130.786C266.945 129.316 266.077 128.182 264.173 128.182C263.095 128.182 262.101 128.56 261.457 129.176L262.157 130.016C262.605 129.568 263.305 129.246 264.047 129.246C265.027 129.246 265.685 129.722 265.685 130.702V130.884C263.445 130.884 261.065 131.122 261.065 133.124C261.065 134.65 262.423 135.168 263.473 135.168ZM263.767 134.132C263.109 134.132 262.409 133.88 262.409 133.096C262.409 131.976 264.061 131.836 265.363 131.836H265.685V132.186C265.685 133.306 264.999 134.132 263.767 134.132ZM271.12 135.112C271.526 135.112 271.932 135.042 272.24 134.93L272.198 133.852C271.974 133.964 271.666 134.02 271.428 134.02C270.77 134.02 270.49 133.698 270.49 132.9V129.442H272.254V128.364H270.49V126.46H269.188V128.364H267.914V129.442H269.188V133.04C269.188 134.412 269.874 135.112 271.12 135.112ZM276.679 135.182C277.855 135.182 278.821 134.748 279.535 133.824L278.611 133.082C278.233 133.642 277.575 134.09 276.679 134.09C275.517 134.09 274.565 133.208 274.523 132.074H279.787C279.801 131.92 279.801 131.766 279.801 131.626C279.801 129.512 278.569 128.182 276.609 128.182C274.663 128.182 273.179 129.624 273.179 131.696C273.179 133.782 274.663 135.182 276.679 135.182ZM274.523 131.094C274.607 130.058 275.475 129.218 276.609 129.218C277.827 129.218 278.443 130.044 278.471 131.094H274.523ZM281.639 135H282.955V131.514C282.955 130.408 283.557 129.386 284.817 129.386C285.027 129.386 285.251 129.414 285.419 129.456L285.475 128.238C285.321 128.196 285.139 128.182 284.957 128.182C284.061 128.182 283.291 128.714 282.927 129.484H282.885C282.885 129.204 282.857 128.7 282.829 128.364H281.583C281.625 128.798 281.639 129.442 281.639 129.792V135ZM288.451 135.168C289.445 135.168 290.201 134.762 290.677 134.048H290.719C290.719 134.356 290.761 134.706 290.831 135H292.021C291.951 134.678 291.923 134.132 291.923 133.684V130.786C291.923 129.316 291.055 128.182 289.151 128.182C288.073 128.182 287.079 128.56 286.435 129.176L287.135 130.016C287.583 129.568 288.283 129.246 289.025 129.246C290.005 129.246 290.663 129.722 290.663 130.702V130.884C288.423 130.884 286.043 131.122 286.043 133.124C286.043 134.65 287.401 135.168 288.451 135.168ZM288.745 134.132C288.087 134.132 287.387 133.88 287.387 133.096C287.387 131.976 289.039 131.836 290.341 131.836H290.663V132.186C290.663 133.306 289.977 134.132 288.745 134.132ZM294.149 135H295.465V124.416H294.149V135Z" fill="black"/>
<path d="M110.494 199.5C110.218 199.503 109.997 199.729 110 200.006L110.051 204.505C110.054 204.781 110.28 205.003 110.556 205C110.832 204.997 111.054 204.77 111.051 204.494L111.006 200.494L115.005 200.449C115.281 200.446 115.503 200.22 115.5 199.944C115.497 199.668 115.27 199.446 114.994 199.449L110.494 199.5ZM757.288 275.047C623.181 337.73 472.809 329.875 350.303 300.826C289.055 286.303 234.789 266.485 193.027 247.552C151.243 228.61 122.032 210.577 110.85 199.642L110.15 200.358C121.468 211.423 150.82 229.515 192.614 248.463C234.43 267.421 288.757 287.26 350.072 301.799C472.691 330.875 623.319 338.77 757.712 275.953L757.288 275.047Z" fill="black"/>
<path d="M729.726 270.554C729.972 270.679 730.071 270.98 729.946 271.226L727.912 275.24C727.787 275.486 727.486 275.585 727.24 275.46C726.994 275.335 726.895 275.034 727.02 274.788L728.828 271.22L725.26 269.412C725.014 269.287 724.915 268.986 725.04 268.74C725.165 268.494 725.466 268.395 725.712 268.52L729.726 270.554ZM136.279 191.585C220.948 248.53 327.242 282.01 433.37 294.378C539.5 306.747 645.425 297.998 729.344 270.525L729.656 271.475C645.575 299.002 539.5 307.753 433.255 295.372C327.008 282.99 220.552 249.47 135.721 192.415L136.279 191.585Z" fill="black"/>
<path d="M747.646 185.354C747.842 185.549 748.158 185.549 748.354 185.354L751.536 182.172C751.731 181.976 751.731 181.66 751.536 181.464C751.34 181.269 751.024 181.269 750.828 181.464L748 184.293L745.172 181.464C744.976 181.269 744.66 181.269 744.464 181.464C744.269 181.66 744.269 181.976 744.464 182.172L747.646 185.354ZM747.5 123L747.5 185L748.5 185L748.5 123L747.5 123Z" fill="black"/>
<path d="M754.673 158H758.075C760.609 158 763.423 156.432 763.423 153.044C763.423 149.53 760.609 148.088 758.075 148.088H754.673V158ZM756.059 156.782V149.292H757.795C760.189 149.292 761.939 150.594 761.939 153.044C761.939 155.41 760.189 156.782 757.795 156.782H756.059ZM763.847 158H765.387L766.381 155.564H771.085L772.093 158H773.661L769.405 148.088H768.145L763.847 158ZM766.871 154.346L768.733 149.698L770.581 154.346H766.871ZM774.934 158H776.32V148.088H774.934V158Z" fill="black"/>
<path d="M491.22 350H494.622C497.156 350 499.97 348.432 499.97 345.044C499.97 341.53 497.156 340.088 494.622 340.088H491.22V350ZM492.606 348.782V341.292H494.342C496.736 341.292 498.486 342.594 498.486 345.044C498.486 347.41 496.736 348.782 494.342 348.782H492.606ZM500.394 350H501.934L502.928 347.564H507.632L508.64 350H510.208L505.952 340.088H504.692L500.394 350ZM503.418 346.346L505.28 341.698L507.128 346.346H503.418ZM511.481 350H512.867V340.088H511.481V350ZM515.044 350.462L519.342 339.976L518.348 339.612L514.05 350.126L515.044 350.462ZM524.38 350.252C526.998 350.252 528.23 348.362 528.23 346.332V340.088H526.844V346.248C526.844 347.606 526.228 349.006 524.38 349.006C522.532 349.006 521.916 347.606 521.916 346.248V340.088H520.53V346.332C520.53 348.362 521.762 350.252 524.38 350.252ZM533.143 350.252C534.907 350.252 536.573 349.3 536.573 347.242C536.573 345.268 534.991 344.764 533.661 344.344C532.527 343.98 531.631 343.686 531.631 342.608C531.631 341.488 532.667 340.998 533.563 340.998C534.389 340.998 535.103 341.376 535.495 341.922L536.475 340.97C535.859 340.284 534.781 339.836 533.633 339.836C531.995 339.836 530.231 340.69 530.231 342.664C530.231 344.484 531.547 345.058 532.807 345.45C534.067 345.842 535.159 346.164 535.159 347.368C535.159 348.544 534.095 349.062 533.171 349.062C532.261 349.062 531.421 348.586 530.959 347.9L529.881 348.81C530.637 349.762 531.897 350.252 533.143 350.252ZM538.538 350H541.94C544.474 350 547.288 348.432 547.288 345.044C547.288 341.53 544.474 340.088 541.94 340.088H538.538V350ZM539.924 348.782V341.292H541.66C544.054 341.292 545.804 342.594 545.804 345.044C545.804 347.41 544.054 348.782 541.66 348.782H539.924Z" fill="black"/>
<path d="M462.265 281H463.651V276.576H468.145V275.386H463.651V272.306H468.453V271.088H462.265V281ZM470.577 272.81C471.053 272.81 471.459 272.446 471.459 271.97C471.459 271.48 471.053 271.116 470.577 271.116C470.101 271.116 469.709 271.494 469.709 271.97C469.709 272.432 470.101 272.81 470.577 272.81ZM469.919 281H471.235V274.364H469.919V281ZM473.529 281H474.845V277.472C474.845 276.156 475.587 275.288 476.623 275.288C477.841 275.288 478.135 276.24 478.135 277.318V281H479.451V276.884C479.451 275.4 478.681 274.182 476.973 274.182C476.021 274.182 475.139 274.742 474.817 275.456H474.775C474.775 275.176 474.747 274.7 474.719 274.364H473.473C473.515 274.798 473.529 275.442 473.529 275.792V281ZM483.595 281.168C484.589 281.168 485.345 280.762 485.821 280.048H485.863C485.863 280.356 485.905 280.706 485.975 281H487.165C487.095 280.678 487.067 280.132 487.067 279.684V276.786C487.067 275.316 486.199 274.182 484.295 274.182C483.217 274.182 482.223 274.56 481.579 275.176L482.279 276.016C482.727 275.568 483.427 275.246 484.169 275.246C485.149 275.246 485.807 275.722 485.807 276.702V276.884C483.567 276.884 481.187 277.122 481.187 279.124C481.187 280.65 482.545 281.168 483.595 281.168ZM483.889 280.132C483.231 280.132 482.531 279.88 482.531 279.096C482.531 277.976 484.183 277.836 485.485 277.836H485.807V278.186C485.807 279.306 485.121 280.132 483.889 280.132ZM489.265 281H490.581V277.472C490.581 276.156 491.323 275.288 492.359 275.288C493.577 275.288 493.871 276.24 493.871 277.318V281H495.187V276.884C495.187 275.4 494.417 274.182 492.709 274.182C491.757 274.182 490.875 274.742 490.553 275.456H490.511C490.511 275.176 490.483 274.7 490.455 274.364H489.209C489.251 274.798 489.265 275.442 489.265 275.792V281ZM500.549 281.182C501.613 281.182 502.467 280.79 503.027 280.146L502.145 279.348C501.795 279.796 501.221 280.076 500.549 280.076C499.163 280.076 498.365 278.942 498.365 277.682C498.365 276.408 499.163 275.288 500.535 275.288C501.165 275.288 501.781 275.61 502.061 276.044L503.013 275.274C502.467 274.56 501.459 274.182 500.521 274.182C498.491 274.182 496.979 275.596 496.979 277.682C496.979 279.796 498.505 281.182 500.549 281.182ZM505.003 272.81C505.479 272.81 505.885 272.446 505.885 271.97C505.885 271.48 505.479 271.116 505.003 271.116C504.527 271.116 504.135 271.494 504.135 271.97C504.135 272.432 504.527 272.81 505.003 272.81ZM504.345 281H505.661V274.364H504.345V281ZM507.954 281H509.27V277.472C509.27 276.156 510.012 275.288 511.048 275.288C512.266 275.288 512.56 276.24 512.56 277.318V281H513.876V276.884C513.876 275.4 513.106 274.182 511.398 274.182C510.446 274.182 509.564 274.742 509.242 275.456H509.2C509.2 275.176 509.172 274.7 509.144 274.364H507.898C507.94 274.798 507.954 275.442 507.954 275.792V281ZM519.029 284.36C521.787 284.36 522.697 282.596 522.697 280.664V274.364H521.423V275.428H521.395C520.891 274.602 519.953 274.182 519.001 274.182C516.971 274.182 515.669 275.736 515.669 277.64C515.669 279.544 516.985 281.056 519.015 281.056C519.953 281.056 520.863 280.65 521.353 279.908H521.381V280.762C521.381 282.134 520.793 283.212 519.043 283.212C518.133 283.212 517.195 282.778 516.621 282.134L515.781 283.156C516.607 283.912 517.881 284.36 519.029 284.36ZM519.225 279.95C517.839 279.95 517.027 278.83 517.027 277.612C517.027 276.338 517.839 275.274 519.225 275.274C520.569 275.274 521.479 276.352 521.479 277.612C521.479 278.928 520.583 279.95 519.225 279.95ZM527.138 281H528.678L529.672 278.564H534.376L535.384 281H536.952L532.696 271.088H531.436L527.138 281ZM530.162 277.346L532.024 272.698L533.872 277.346H530.162ZM541.081 284.36C543.839 284.36 544.749 282.596 544.749 280.664V274.364H543.475V275.428H543.447C542.943 274.602 542.005 274.182 541.053 274.182C539.023 274.182 537.721 275.736 537.721 277.64C537.721 279.544 539.037 281.056 541.067 281.056C542.005 281.056 542.915 280.65 543.405 279.908H543.433V280.762C543.433 282.134 542.845 283.212 541.095 283.212C540.185 283.212 539.247 282.778 538.673 282.134L537.833 283.156C538.659 283.912 539.933 284.36 541.081 284.36ZM541.277 279.95C539.891 279.95 539.079 278.83 539.079 277.612C539.079 276.338 539.891 275.274 541.277 275.274C542.621 275.274 543.531 276.352 543.531 277.612C543.531 278.928 542.635 279.95 541.277 279.95ZM547.001 281H548.317V277.514C548.317 276.408 548.919 275.386 550.179 275.386C550.389 275.386 550.613 275.414 550.781 275.456L550.837 274.238C550.683 274.196 550.501 274.182 550.319 274.182C549.423 274.182 548.653 274.714 548.289 275.484H548.247C548.247 275.204 548.219 274.7 548.191 274.364H546.945C546.987 274.798 547.001 275.442 547.001 275.792V281ZM554.893 281.182C556.069 281.182 557.035 280.748 557.749 279.824L556.825 279.082C556.447 279.642 555.789 280.09 554.893 280.09C553.731 280.09 552.779 279.208 552.737 278.074H558.001C558.015 277.92 558.015 277.766 558.015 277.626C558.015 275.512 556.783 274.182 554.823 274.182C552.877 274.182 551.393 275.624 551.393 277.696C551.393 279.782 552.877 281.182 554.893 281.182ZM552.737 277.094C552.821 276.058 553.689 275.218 554.823 275.218C556.041 275.218 556.657 276.044 556.685 277.094H552.737ZM562.919 281.182C564.095 281.182 565.061 280.748 565.775 279.824L564.851 279.082C564.473 279.642 563.815 280.09 562.919 280.09C561.757 280.09 560.805 279.208 560.763 278.074H566.027C566.041 277.92 566.041 277.766 566.041 277.626C566.041 275.512 564.809 274.182 562.849 274.182C560.903 274.182 559.419 275.624 559.419 277.696C559.419 279.782 560.903 281.182 562.919 281.182ZM560.763 277.094C560.847 276.058 561.715 275.218 562.849 275.218C564.067 275.218 564.683 276.044 564.711 277.094H560.763ZM567.878 281H569.194V277.472C569.194 276.156 569.922 275.288 570.888 275.288C571.938 275.288 572.288 276.016 572.288 277.052V281H573.604V277.416C573.604 276.38 574.08 275.288 575.284 275.288C576.432 275.288 576.754 276.24 576.754 277.318V281H578.07V276.884C578.07 275.4 577.3 274.182 575.592 274.182C574.654 274.182 573.786 274.658 573.338 275.512C572.932 274.574 572.162 274.182 571.28 274.182C570.272 274.182 569.502 274.756 569.166 275.456H569.124C569.124 275.176 569.096 274.7 569.068 274.364H567.822C567.864 274.798 567.878 275.442 567.878 275.792V281ZM583.358 281.182C584.534 281.182 585.5 280.748 586.214 279.824L585.29 279.082C584.912 279.642 584.254 280.09 583.358 280.09C582.196 280.09 581.244 279.208 581.202 278.074H586.466C586.48 277.92 586.48 277.766 586.48 277.626C586.48 275.512 585.248 274.182 583.288 274.182C581.342 274.182 579.858 275.624 579.858 277.696C579.858 279.782 581.342 281.182 583.358 281.182ZM581.202 277.094C581.286 276.058 582.154 275.218 583.288 275.218C584.506 275.218 585.122 276.044 585.15 277.094H581.202ZM588.318 281H589.634V277.472C589.634 276.156 590.376 275.288 591.412 275.288C592.63 275.288 592.924 276.24 592.924 277.318V281H594.24V276.884C594.24 275.4 593.47 274.182 591.762 274.182C590.81 274.182 589.928 274.742 589.606 275.456H589.564C589.564 275.176 589.536 274.7 589.508 274.364H588.262C588.304 274.798 588.318 275.442 588.318 275.792V281ZM598.58 281.112C598.986 281.112 599.392 281.042 599.7 280.93L599.658 279.852C599.434 279.964 599.126 280.02 598.888 280.02C598.23 280.02 597.95 279.698 597.95 278.9V275.442H599.714V274.364H597.95V272.46H596.648V274.364H595.374V275.442H596.648V279.04C596.648 280.412 597.334 281.112 598.58 281.112Z" fill="black"/>
<path d="M681.601 93H682.987V84.306H686.165V83.088H678.423V84.306H681.601V93ZM687.923 84.81C688.399 84.81 688.805 84.446 688.805 83.97C688.805 83.48 688.399 83.116 687.923 83.116C687.447 83.116 687.055 83.494 687.055 83.97C687.055 84.432 687.447 84.81 687.923 84.81ZM687.265 93H688.581V86.364H687.265V93ZM690.874 93H692.19V89.472C692.19 88.156 692.932 87.288 693.968 87.288C695.186 87.288 695.48 88.24 695.48 89.318V93H696.796V88.884C696.796 87.4 696.026 86.182 694.318 86.182C693.366 86.182 692.484 86.742 692.162 87.456H692.12C692.12 87.176 692.092 86.7 692.064 86.364H690.818C690.86 86.798 690.874 87.442 690.874 87.792V93ZM699.051 93H700.367V82.416H699.051V93ZM704.577 93.168C705.571 93.168 706.327 92.762 706.803 92.048H706.845C706.845 92.356 706.887 92.706 706.957 93H708.147C708.077 92.678 708.049 92.132 708.049 91.684V88.786C708.049 87.316 707.181 86.182 705.277 86.182C704.199 86.182 703.205 86.56 702.561 87.176L703.261 88.016C703.709 87.568 704.409 87.246 705.151 87.246C706.131 87.246 706.789 87.722 706.789 88.702V88.884C704.549 88.884 702.169 89.122 702.169 91.124C702.169 92.65 703.527 93.168 704.577 93.168ZM704.871 92.132C704.213 92.132 703.513 91.88 703.513 91.096C703.513 89.976 705.165 89.836 706.467 89.836H706.789V90.186C706.789 91.306 706.103 92.132 704.871 92.132ZM710.275 93H711.591V89.556H711.633L714.629 93H716.449L713.075 89.374L716.183 86.364H714.419L711.633 89.248H711.591V82.416H710.275V93ZM720.45 93.182C721.626 93.182 722.592 92.748 723.306 91.824L722.382 91.082C722.004 91.642 721.346 92.09 720.45 92.09C719.288 92.09 718.336 91.208 718.294 90.074H723.558C723.572 89.92 723.572 89.766 723.572 89.626C723.572 87.512 722.34 86.182 720.38 86.182C718.434 86.182 716.95 87.624 716.95 89.696C716.95 91.782 718.434 93.182 720.45 93.182ZM718.294 89.094C718.378 88.058 719.246 87.218 720.38 87.218C721.598 87.218 722.214 88.044 722.242 89.094H718.294ZM728.979 93H730.365V88.646H731.933C733.991 88.646 735.545 87.834 735.545 85.846C735.545 83.914 734.145 83.088 732.003 83.088H728.979V93ZM730.365 87.47V84.264H731.863C733.165 84.264 734.145 84.656 734.145 85.846C734.145 87.022 733.193 87.47 731.835 87.47H730.365ZM739.456 93.182C741.486 93.182 743.04 91.712 743.04 89.668C743.04 87.624 741.486 86.182 739.456 86.182C737.426 86.182 735.886 87.624 735.886 89.668C735.886 91.712 737.426 93.182 739.456 93.182ZM739.456 92.076C738.042 92.076 737.244 90.928 737.244 89.668C737.244 88.408 738.042 87.274 739.456 87.274C740.884 87.274 741.668 88.408 741.668 89.668C741.668 90.928 740.884 92.076 739.456 92.076ZM748 93.182C750.03 93.182 751.584 91.712 751.584 89.668C751.584 87.624 750.03 86.182 748 86.182C745.97 86.182 744.43 87.624 744.43 89.668C744.43 91.712 745.97 93.182 748 93.182ZM748 92.076C746.586 92.076 745.788 90.928 745.788 89.668C745.788 88.408 746.586 87.274 748 87.274C749.428 87.274 750.212 88.408 750.212 89.668C750.212 90.928 749.428 92.076 748 92.076ZM753.437 93H754.753V82.416H753.437V93ZM765.334 93.252C767.07 93.252 768.344 92.51 769.114 91.46L768.008 90.704C767.42 91.558 766.454 92.02 765.348 92.02C763.066 92.02 761.624 90.256 761.624 88.03C761.624 85.86 763.094 84.054 765.39 84.054C766.412 84.054 767.378 84.544 767.854 85.216L768.946 84.376C768.218 83.368 766.748 82.836 765.39 82.836C762.38 82.836 760.112 84.936 760.112 88.03C760.112 91.082 762.296 93.252 765.334 93.252ZM773.43 93.182C775.46 93.182 777.014 91.712 777.014 89.668C777.014 87.624 775.46 86.182 773.43 86.182C771.4 86.182 769.86 87.624 769.86 89.668C769.86 91.712 771.4 93.182 773.43 93.182ZM773.43 92.076C772.016 92.076 771.218 90.928 771.218 89.668C771.218 88.408 772.016 87.274 773.43 87.274C774.858 87.274 775.642 88.408 775.642 89.668C775.642 90.928 774.858 92.076 773.43 92.076ZM778.839 93H780.155V89.472C780.155 88.156 780.897 87.288 781.933 87.288C783.151 87.288 783.445 88.24 783.445 89.318V93H784.761V88.884C784.761 87.4 783.991 86.182 782.283 86.182C781.331 86.182 780.449 86.742 780.127 87.456H780.085C780.085 87.176 780.057 86.7 780.029 86.364H778.783C778.825 86.798 778.839 87.442 778.839 87.792V93ZM789.102 93.112C789.508 93.112 789.914 93.042 790.222 92.93L790.18 91.852C789.956 91.964 789.648 92.02 789.41 92.02C788.752 92.02 788.472 91.698 788.472 90.9V87.442H790.236V86.364H788.472V84.46H787.17V86.364H785.896V87.442H787.17V91.04C787.17 92.412 787.856 93.112 789.102 93.112ZM791.595 93H792.911V89.514C792.911 88.408 793.513 87.386 794.773 87.386C794.983 87.386 795.207 87.414 795.375 87.456L795.431 86.238C795.277 86.196 795.095 86.182 794.913 86.182C794.017 86.182 793.247 86.714 792.883 87.484H792.841C792.841 87.204 792.813 86.7 792.785 86.364H791.539C791.581 86.798 791.595 87.442 791.595 87.792V93ZM798.407 93.168C799.401 93.168 800.157 92.762 800.633 92.048H800.675C800.675 92.356 800.717 92.706 800.787 93H801.977C801.907 92.678 801.879 92.132 801.879 91.684V88.786C801.879 87.316 801.011 86.182 799.107 86.182C798.029 86.182 797.035 86.56 796.391 87.176L797.091 88.016C797.539 87.568 798.239 87.246 798.981 87.246C799.961 87.246 800.619 87.722 800.619 88.702V88.884C798.379 88.884 795.999 89.122 795.999 91.124C795.999 92.65 797.357 93.168 798.407 93.168ZM798.701 92.132C798.043 92.132 797.343 91.88 797.343 91.096C797.343 89.976 798.995 89.836 800.297 89.836H800.619V90.186C800.619 91.306 799.933 92.132 798.701 92.132ZM807.213 93.182C808.277 93.182 809.131 92.79 809.691 92.146L808.809 91.348C808.459 91.796 807.885 92.076 807.213 92.076C805.827 92.076 805.029 90.942 805.029 89.682C805.029 88.408 805.827 87.288 807.199 87.288C807.829 87.288 808.445 87.61 808.725 88.044L809.677 87.274C809.131 86.56 808.123 86.182 807.185 86.182C805.155 86.182 803.643 87.596 803.643 89.682C803.643 91.796 805.169 93.182 807.213 93.182ZM813.109 93.112C813.515 93.112 813.921 93.042 814.229 92.93L814.187 91.852C813.963 91.964 813.655 92.02 813.417 92.02C812.759 92.02 812.479 91.698 812.479 90.9V87.442H814.243V86.364H812.479V84.46H811.177V86.364H809.903V87.442H811.177V91.04C811.177 92.412 811.863 93.112 813.109 93.112ZM817.507 93.182C818.851 93.182 820.153 92.608 820.153 91.04C820.153 89.878 819.187 89.36 817.927 89.08C816.919 88.856 816.415 88.646 816.415 88.086C816.415 87.456 817.045 87.218 817.647 87.218C818.319 87.218 818.893 87.568 819.187 88.044L820.097 87.274C819.621 86.56 818.627 86.182 817.689 86.182C816.429 86.182 815.183 86.784 815.183 88.212C815.183 89.458 816.233 89.836 817.115 90.046C818.249 90.312 818.851 90.536 818.851 91.152C818.851 91.88 818.193 92.118 817.535 92.118C816.793 92.118 816.121 91.712 815.771 91.194L814.833 91.992C815.463 92.79 816.499 93.182 817.507 93.182Z" fill="black"/>
<path d="M643.419 81.2724C643.57 81.0408 643.504 80.7311 643.272 80.5807L639.499 78.1292C639.267 77.9788 638.958 78.0446 638.807 78.2761C638.657 78.5077 638.722 78.8174 638.954 78.9678L642.308 81.1469L640.129 84.5012C639.979 84.7328 640.045 85.0425 640.276 85.1929C640.508 85.3434 640.817 85.2776 640.968 85.046L643.419 81.2724ZM530.104 105.489L643.104 81.4891L642.896 80.5109L529.896 104.511L530.104 105.489Z" fill="black"/>
<path d="M563.845 89.3967L565.201 89.1088L563.519 81.1933L563.547 81.1875L570.35 88.0152L572.062 87.6517L570.002 77.9559L568.647 78.2439L570.293 85.995L570.265 86.0008L563.552 79.3258L561.786 79.701L563.845 89.3967ZM574.423 87.1501L575.779 86.8622L574.86 82.5347L579.256 81.6011L579.009 80.4371L574.613 81.3707L573.973 78.3579L578.67 77.3603L578.417 76.1689L572.364 77.4544L574.423 87.1501ZM584.247 85.0638L585.603 84.7758L583.797 76.2715L586.906 75.6113L586.653 74.4199L579.079 76.0282L579.332 77.2196L582.441 76.5594L584.247 85.0638Z" fill="black"/>
<path d="M643.273 209.418C643.504 209.268 643.57 208.958 643.42 208.727L640.968 204.953C640.818 204.722 640.508 204.656 640.276 204.806C640.045 204.957 639.979 205.266 640.13 205.498L642.309 208.852L638.954 211.031C638.723 211.182 638.657 211.492 638.807 211.723C638.958 211.955 639.268 212.02 639.499 211.87L643.273 209.418ZM529.896 185.49L642.896 209.488L643.104 208.51L530.104 184.512L529.896 185.49Z" fill="black"/>
<path d="M549.921 182.72L555.605 183.927L555.861 182.721L551.533 181.802L553.336 173.312L551.981 173.024L549.921 182.72ZM559.568 184.954C560.718 185.199 561.753 184.975 562.644 184.219L561.894 183.301C561.408 183.771 560.671 184.072 559.795 183.886C558.658 183.645 557.91 182.584 558.105 181.466L563.254 182.56C563.299 182.412 563.331 182.261 563.361 182.124C563.8 180.057 562.871 178.5 560.954 178.092C559.05 177.688 557.299 178.79 556.868 180.817C556.435 182.858 557.596 184.536 559.568 184.954ZM558.308 180.508C558.606 179.512 559.629 178.87 560.738 179.106C561.93 179.359 562.361 180.295 562.17 181.328L558.308 180.508ZM566.621 189.701C569.319 190.274 570.575 188.738 570.977 186.848L572.286 180.685L571.039 180.421L570.818 181.461L570.791 181.455C570.47 180.543 569.639 179.937 568.708 179.739C566.722 179.318 565.126 180.567 564.73 182.43C564.335 184.292 565.308 186.045 567.294 186.466C568.211 186.661 569.186 186.453 569.819 185.829L569.847 185.835L569.669 186.67C569.384 188.012 568.585 188.945 566.873 188.581C565.983 188.392 565.156 187.773 564.728 187.023L563.694 187.849C564.345 188.76 565.498 189.463 566.621 189.701ZM567.729 185.428C566.373 185.14 565.812 183.876 566.065 182.684C566.329 181.438 567.345 180.566 568.7 180.854C570.015 181.133 570.681 182.377 570.419 183.609C570.146 184.897 569.057 185.71 567.729 185.428ZM574.951 188.207C575.923 188.413 576.747 188.173 577.361 187.574L577.402 187.583C577.338 187.884 577.306 188.235 577.314 188.537L578.478 188.784C578.476 188.455 578.562 187.915 578.655 187.477L579.257 184.642C579.563 183.204 578.949 181.914 577.087 181.519C576.032 181.295 574.982 181.458 574.224 181.927L574.734 182.894C575.265 182.549 576.017 182.379 576.743 182.533C577.701 182.737 578.246 183.339 578.042 184.298L578.005 184.476C575.813 184.011 573.436 183.749 573.02 185.707C572.703 187.2 573.924 187.989 574.951 188.207ZM575.454 187.255C574.81 187.118 574.178 186.726 574.341 185.959C574.573 184.864 576.218 185.07 577.492 185.34L577.807 185.407L577.734 185.75C577.501 186.845 576.659 187.511 575.454 187.255ZM580.559 189.226L581.847 189.5L584.045 179.147L582.758 178.873L580.559 189.226ZM592.144 191.944C593.842 192.305 595.243 191.844 596.214 190.977L595.289 190.007C594.537 190.721 593.496 190.972 592.414 190.742C590.182 190.268 589.138 188.243 589.6 186.065C590.051 183.943 591.864 182.482 594.11 182.959C595.109 183.171 595.953 183.851 596.279 184.607L597.521 184.012C597.019 182.875 595.691 182.049 594.363 181.767C591.418 181.142 588.764 182.725 588.121 185.751C587.487 188.737 589.172 191.313 592.144 191.944ZM597.236 192.768L598.524 193.041L600.722 182.688L599.435 182.415L597.236 192.768ZM602.607 194.08C603.58 194.287 604.404 194.047 605.018 193.447L605.059 193.456C604.995 193.757 604.963 194.108 604.97 194.411L606.135 194.658C606.133 194.328 606.219 193.788 606.312 193.35L606.914 190.515C607.219 189.077 606.606 187.788 604.744 187.392C603.689 187.168 602.638 187.332 601.88 187.8L602.39 188.768C602.922 188.422 603.673 188.253 604.399 188.407C605.358 188.611 605.903 189.213 605.699 190.171L605.661 190.349C603.47 189.884 601.093 189.623 600.677 191.581C600.36 193.074 601.58 193.862 602.607 194.08ZM603.11 193.128C602.467 192.991 601.834 192.6 601.997 191.833C602.23 190.737 603.875 190.943 605.148 191.214L605.463 191.281L605.391 191.623C605.158 192.719 604.315 193.384 603.11 193.128ZM610.547 187.222C611.013 187.321 611.486 187.049 611.585 186.584C611.686 186.105 611.365 185.664 610.899 185.565C610.434 185.466 609.972 185.755 609.873 186.22C609.777 186.672 610.082 187.123 610.547 187.222ZM608.202 195.097L609.49 195.37L610.868 188.879L609.581 188.606L608.202 195.097ZM611.733 195.847L613.02 196.12L613.753 192.669C614.026 191.382 614.919 190.684 615.864 190.885C616.891 191.103 617.082 191.888 616.867 192.901L616.046 196.763L617.334 197.036L618.078 193.53C618.293 192.517 618.986 191.548 620.164 191.798C621.287 192.036 621.404 193.034 621.18 194.089L620.415 197.691L621.702 197.964L622.557 193.938C622.866 192.486 622.365 191.135 620.695 190.78C619.777 190.585 618.829 190.87 618.214 191.613C618.011 190.611 617.34 190.067 616.477 189.884C615.491 189.675 614.618 190.076 614.144 190.691L614.103 190.682C614.161 190.409 614.233 189.937 614.275 189.603L613.056 189.344C613.007 189.777 612.887 190.41 612.815 190.752L611.733 195.847Z" fill="black"/>
</svg>
