<svg width="72" height="72" viewBox="0 0 72 72" fill="none" xmlns="http://www.w3.org/2000/svg">
    <path d="M36.309 0C55.998 0 72 16.455 72 35.991C72 55.521 56.01 71.961 36.3 71.961L0 72V35.37C0 15.84 16.596 0 36.309 0ZM36.657 13.689C28.878 13.68 21.669 17.745 17.646 24.399C13.656 31.023 13.485 39.27 17.202 46.059L13.2 58.83L27.582 55.608C35.817 59.283 45.477 57.636 51.99 51.438C58.5 45.276 60.57 35.754 57.201 27.447C53.796 19.113 45.681 13.677 36.681 13.692H36.657V13.689Z" fill="white" />
</svg>
