<svg width="72" height="52" viewBox="0 0 72 52" fill="none" xmlns="http://www.w3.org/2000/svg">
    <path d="M63.1233 6.44492C54.2466 -0.183418 45.8014 0.000508473 45.8014 0.000508473L44.9383 0.982756C55.4179 4.17408 60.288 8.77727 60.288 8.77727C45.6446 0.786754 28.4436 0.785632 14.2396 6.99754C11.9585 8.04072 10.6025 8.77727 10.6025 8.77727C10.6025 8.77727 15.7191 3.92865 26.8152 0.737332L26.1989 0.000508473C26.1989 0.000508473 17.7534 -0.183418 8.87672 6.44492C8.87672 6.44492 0 22.4639 0 42.2265C0 42.2265 5.17841 51.1256 18.8012 51.5556C18.8012 51.5556 21.0823 48.7941 22.9316 46.4612C15.1026 44.1289 12.1441 39.2196 12.1441 39.2196C13.0508 39.8509 14.5462 40.6708 14.6714 40.7537C25.0761 46.5556 39.8555 48.4561 53.1373 42.9018C55.2943 42.104 57.6989 40.9376 60.2262 39.2806C60.2262 39.2806 57.1439 44.3137 49.0684 46.5842C50.9183 48.9163 53.1373 51.5553 53.1373 51.5553C66.7607 51.1257 72 42.2262 72 42.2262C72 22.4639 63.1233 6.44492 63.1233 6.44492ZM24.4726 36.5189C21.0205 36.5189 18.1847 33.4503 18.1847 29.706C18.1847 25.9621 20.9587 22.8935 24.4726 22.8935C27.9862 22.8935 30.822 25.9621 30.7602 29.706C30.7602 33.4503 27.9862 36.5189 24.4726 36.5189ZM46.9727 36.5189C43.5208 36.5189 40.685 33.4503 40.685 29.706C40.685 25.9621 43.4591 22.8935 46.9727 22.8935C50.4865 22.8935 53.2606 25.9621 53.2606 29.706C53.2606 33.4503 50.4865 36.5189 46.9727 36.5189Z" fill="white" />
</svg>
