<svg width="72" height="59" viewBox="0 0 72 59" fill="none" xmlns="http://www.w3.org/2000/svg">
    <path d="M22.6426 58.5037C49.8125 58.5037 64.6733 35.9937 64.6733 16.473C64.6733 15.8337 64.6733 15.1972 64.6301 14.5635C67.5211 12.4723 70.0168 9.88327 72 6.9172C69.3041 8.11181 66.4439 8.89509 63.5155 9.24131C66.5986 7.39575 68.9075 4.49072 70.0099 1.07072C67.1103 2.79127 63.9377 4.00402 60.6298 4.65637C57.8367 1.68623 53.9357 0 49.8589 0C41.7473 0 35.0729 6.67462 35.0729 14.7859C35.0729 15.9112 35.2014 17.0329 35.4556 18.129C23.5844 17.534 12.5085 11.9188 5.01117 2.69508C1.11248 9.40655 3.12975 18.1042 9.58458 22.4144C7.23403 22.3448 4.93397 21.7105 2.88 20.5654V20.7526C2.88197 27.7577 7.86473 33.8463 14.7312 35.2333C12.5565 35.8263 10.2743 35.913 8.06119 35.4867C9.99155 41.4893 15.558 45.6269 21.8621 45.7453C16.6323 49.8554 10.1682 52.0879 3.51647 52.0813C2.34113 52.0791 1.16691 52.0079 0 51.8681C6.75478 56.2029 14.6166 58.5028 22.6426 58.4921" fill="white" />
</svg>
