<svg width="297" height="326" viewBox="0 0 297 326" fill="none" xmlns="http://www.w3.org/2000/svg">
<rect width="297" height="326" transform="matrix(-1 0 0 1 297 0)" fill="white"/>
<rect x="17" y="107" width="64" height="200" fill="url(#paint0_linear)"/>
<rect x="108" y="107" width="64" height="160" fill="url(#paint1_linear)"/>
<rect x="108" y="267" width="64" height="40" fill="url(#paint2_linear)"/>
<path d="M37.3408 209.344H38.1088V208.192C39.9488 208.16 41.3568 206.944 41.3568 205.168C41.3568 203.088 39.7248 202.336 38.1088 201.776V197.376C38.8768 197.392 39.6928 197.744 40.1888 198.448L41.0688 197.776C40.3488 196.928 39.1328 196.512 38.1088 196.48V195.328H37.3408V196.48C35.6768 196.56 34.2528 197.664 34.2528 199.52C34.2528 201.472 35.8848 202.224 37.3408 202.672V207.264C36.6688 207.248 35.4528 206.816 34.8768 205.856L33.9648 206.496C34.7328 207.472 35.9008 208.16 37.3408 208.192V209.344ZM37.3408 201.504C36.1568 201.184 35.3568 200.576 35.3568 199.424C35.3568 198.224 36.2368 197.408 37.3408 197.376V201.504ZM38.1088 207.264V202.864C39.3248 203.248 40.2048 204 40.2048 205.088C40.2048 206.672 39.0528 207.232 38.1088 207.264ZM46.9901 208H48.1421V196.672H47.1181L44.2381 199.04L44.9421 199.84L46.9901 198.096V208ZM53.1993 208H54.3513V198.16H54.3833L58.4793 208H59.0873L63.1833 198.16H63.2153V208H64.3673V196.672H62.6073L58.8153 206.048H58.7993L54.9593 196.672H53.1993V208Z" fill="black"/>
<path d="M19.5665 100H20.7185V94.736H22.7345C25.0385 94.736 26.5905 93.728 26.5905 91.696C26.5905 89.664 25.0705 88.672 22.7665 88.672H19.5665V100ZM20.7185 93.76V89.664H22.6705C24.4145 89.664 25.4385 90.304 25.4385 91.696C25.4385 93.04 24.4625 93.76 22.6705 93.76H20.7185ZM31.0675 100.192C33.4035 100.192 35.0675 98.512 35.0675 96.256C35.0675 94 33.4035 92.32 31.0675 92.32C28.7475 92.32 27.0835 94 27.0835 96.256C27.0835 98.512 28.7475 100.192 31.0675 100.192ZM31.0675 99.264C29.3395 99.264 28.2355 97.936 28.2355 96.256C28.2355 94.576 29.3395 93.232 31.0675 93.232C32.8115 93.232 33.9155 94.576 33.9155 96.256C33.9155 97.936 32.8115 99.264 31.0675 99.264ZM37.4088 100H38.4968V96.16C38.4968 94.16 39.5368 93.328 40.6888 93.328C40.9768 93.328 41.3288 93.376 41.4568 93.424L41.6008 92.4C41.3768 92.336 41.1528 92.32 40.8808 92.32C39.8248 92.32 38.8968 92.928 38.4808 93.792H38.4488C38.4488 93.472 38.4168 92.912 38.3848 92.512H37.3448C37.3928 93.024 37.4088 93.76 37.4088 94.16V100ZM45.0829 100.096C45.5789 100.096 45.9789 100.016 46.3629 99.872L46.3149 98.928C46.0269 99.072 45.6749 99.168 45.3709 99.168C44.7149 99.168 44.2509 98.912 44.2509 97.792V93.424H46.3629V92.512H44.2509V90.4H43.1629V92.512H41.6109V93.424H43.1629V98.096C43.1629 99.744 44.2829 100.096 45.0829 100.096ZM48.385 100H49.473V93.424H51.233V92.512H49.473V90.592C49.473 89.504 49.713 88.672 50.881 88.672C51.169 88.672 51.409 88.72 51.633 88.784L51.825 87.824C51.553 87.744 51.201 87.712 50.929 87.712C49.217 87.712 48.385 88.768 48.385 90.464V92.512H46.817V93.424H48.385V100ZM56.2238 100.192C58.5598 100.192 60.2238 98.512 60.2238 96.256C60.2238 94 58.5598 92.32 56.2238 92.32C53.9038 92.32 52.2398 94 52.2398 96.256C52.2398 98.512 53.9038 100.192 56.2238 100.192ZM56.2238 99.264C54.4958 99.264 53.3918 97.936 53.3918 96.256C53.3918 94.576 54.4958 93.232 56.2238 93.232C57.9678 93.232 59.0718 94.576 59.0718 96.256C59.0718 97.936 57.9678 99.264 56.2238 99.264ZM62.597 100H63.685V87.904H62.597V100ZM67.1562 90.4C67.5403 90.4 67.9243 90.08 67.9243 89.632C67.9243 89.184 67.5403 88.864 67.1562 88.864C66.7723 88.864 66.3883 89.184 66.3883 89.632C66.3883 90.08 66.7723 90.4 67.1562 90.4ZM66.6123 100H67.7003V92.512H66.6123V100ZM74.0363 100.192C76.3723 100.192 78.0363 98.512 78.0363 96.256C78.0363 94 76.3723 92.32 74.0363 92.32C71.7163 92.32 70.0523 94 70.0523 96.256C70.0523 98.512 71.7163 100.192 74.0363 100.192ZM74.0363 99.264C72.3083 99.264 71.2043 97.936 71.2043 96.256C71.2043 94.576 72.3083 93.232 74.0363 93.232C75.7803 93.232 76.8843 94.576 76.8843 96.256C76.8843 97.936 75.7803 99.264 74.0363 99.264Z" fill="black"/>
<path d="M109.871 100H111.023V88.672H109.871V100ZM113.963 100H115.051V96.16C115.051 94.16 116.171 93.232 117.323 93.232C118.891 93.232 119.355 94.288 119.355 95.856V100H120.443V95.408C120.443 93.552 119.499 92.32 117.595 92.32C116.539 92.32 115.451 92.928 115.035 93.792H115.003C115.003 93.472 114.971 92.912 114.939 92.512H113.899C113.947 93.024 113.963 93.76 113.963 94.16V100ZM125.132 100H126.332L129.372 92.512H128.204L125.756 98.848H125.724L123.292 92.512H122.076L125.132 100ZM134.401 100.192C135.633 100.192 136.737 99.728 137.617 98.608L136.801 97.968C136.385 98.64 135.521 99.264 134.401 99.264C132.865 99.264 131.697 98.048 131.665 96.544H137.873C137.889 96.352 137.889 96.176 137.889 96.032C137.889 93.984 136.657 92.32 134.305 92.32C132.177 92.32 130.529 94 130.529 96.256C130.529 98.512 132.177 100.192 134.401 100.192ZM131.681 95.68C131.777 94.4 132.849 93.232 134.305 93.232C135.857 93.232 136.721 94.272 136.785 95.68H131.681ZM142.357 100.192C143.733 100.192 145.173 99.584 145.173 97.872C145.173 96.704 144.341 96.048 142.581 95.68C141.349 95.424 140.789 95.104 140.789 94.4C140.789 93.568 141.589 93.232 142.373 93.232C143.205 93.232 143.893 93.664 144.213 94.288L145.045 93.664C144.565 92.816 143.461 92.32 142.421 92.32C141.061 92.32 139.749 92.976 139.749 94.496C139.749 95.92 141.013 96.304 141.893 96.512C143.317 96.848 144.101 97.168 144.101 97.952C144.101 98.928 143.269 99.264 142.341 99.264C141.461 99.264 140.645 98.752 140.261 98.096L139.397 98.736C140.085 99.744 141.221 100.192 142.357 100.192ZM149.434 100.096C149.93 100.096 150.33 100.016 150.714 99.872L150.666 98.928C150.378 99.072 150.026 99.168 149.722 99.168C149.066 99.168 148.602 98.912 148.602 97.792V93.424H150.714V92.512H148.602V90.4H147.514V92.512H145.962V93.424H147.514V98.096C147.514 99.744 148.634 100.096 149.434 100.096ZM155.857 100.192C158.193 100.192 159.857 98.512 159.857 96.256C159.857 94 158.193 92.32 155.857 92.32C153.537 92.32 151.873 94 151.873 96.256C151.873 98.512 153.537 100.192 155.857 100.192ZM155.857 99.264C154.129 99.264 153.025 97.936 153.025 96.256C153.025 94.576 154.129 93.232 155.857 93.232C157.601 93.232 158.705 94.576 158.705 96.256C158.705 97.936 157.601 99.264 155.857 99.264ZM162.198 100H163.286V96.16C163.286 94.16 164.326 93.328 165.478 93.328C165.766 93.328 166.118 93.376 166.246 93.424L166.39 92.4C166.166 92.336 165.942 92.32 165.67 92.32C164.614 92.32 163.686 92.928 163.27 93.792H163.238C163.238 93.472 163.206 92.912 163.174 92.512H162.134C162.182 93.024 162.198 93.76 162.198 94.16V100ZM170.091 100.192C171.467 100.192 172.907 99.584 172.907 97.872C172.907 96.704 172.075 96.048 170.315 95.68C169.083 95.424 168.523 95.104 168.523 94.4C168.523 93.568 169.323 93.232 170.107 93.232C170.939 93.232 171.627 93.664 171.947 94.288L172.779 93.664C172.299 92.816 171.195 92.32 170.155 92.32C168.795 92.32 167.483 92.976 167.483 94.496C167.483 95.92 168.747 96.304 169.627 96.512C171.051 96.848 171.835 97.168 171.835 97.952C171.835 98.928 171.003 99.264 170.075 99.264C169.195 99.264 168.379 98.752 167.995 98.096L167.131 98.736C167.819 99.744 168.955 100.192 170.091 100.192Z" fill="black"/>
<path d="M120.567 205.344H121.335V204.192C123.175 204.16 124.583 202.944 124.583 201.168C124.583 199.088 122.951 198.336 121.335 197.776V193.376C122.103 193.392 122.919 193.744 123.415 194.448L124.295 193.776C123.575 192.928 122.359 192.512 121.335 192.48V191.328H120.567V192.48C118.903 192.56 117.479 193.664 117.479 195.52C117.479 197.472 119.111 198.224 120.567 198.672V203.264C119.895 203.248 118.679 202.816 118.103 201.856L117.191 202.496C117.959 203.472 119.127 204.16 120.567 204.192V205.344ZM120.567 197.504C119.383 197.184 118.583 196.576 118.583 195.424C118.583 194.224 119.463 193.408 120.567 193.376V197.504ZM121.335 203.264V198.864C122.551 199.248 123.431 200 123.431 201.088C123.431 202.672 122.279 203.232 121.335 203.264ZM130.281 204.288C132.217 204.288 133.913 203.008 133.913 201.024C133.913 199.504 133.001 198.352 131.769 198V197.968C132.777 197.632 133.481 196.576 133.481 195.408C133.481 193.568 132.009 192.384 130.281 192.384C128.553 192.384 127.081 193.568 127.081 195.408C127.081 196.576 127.785 197.632 128.793 197.968V198C127.561 198.368 126.649 199.504 126.649 201.024C126.649 203.008 128.345 204.288 130.281 204.288ZM130.281 197.504C129.129 197.504 128.201 196.656 128.201 195.472C128.201 194.256 129.097 193.36 130.281 193.36C131.465 193.36 132.361 194.256 132.361 195.472C132.361 196.656 131.433 197.504 130.281 197.504ZM130.281 203.312C128.793 203.312 127.801 202.272 127.801 200.896C127.801 199.536 128.793 198.528 130.281 198.528C131.769 198.528 132.761 199.536 132.761 200.896C132.761 202.272 131.769 203.312 130.281 203.312ZM139.562 204.288C142.378 204.288 143.274 201.296 143.274 198.352C143.274 195.408 142.378 192.384 139.562 192.384C136.714 192.384 135.85 195.408 135.85 198.352C135.85 201.296 136.714 204.288 139.562 204.288ZM139.562 203.296C137.546 203.296 137.018 200.608 137.018 198.352C137.018 196.096 137.546 193.36 139.562 193.36C141.546 193.36 142.106 196.096 142.106 198.352C142.106 200.608 141.546 203.296 139.562 203.296ZM148.843 204.288C151.659 204.288 152.555 201.296 152.555 198.352C152.555 195.408 151.659 192.384 148.843 192.384C145.995 192.384 145.131 195.408 145.131 198.352C145.131 201.296 145.995 204.288 148.843 204.288ZM148.843 203.296C146.827 203.296 146.299 200.608 146.299 198.352C146.299 196.096 146.827 193.36 148.843 193.36C150.827 193.36 151.387 196.096 151.387 198.352C151.387 200.608 150.827 203.296 148.843 203.296ZM154.956 204H156.044V200.064H156.092L159.9 204H161.5L157.34 199.936L161.116 196.512H159.548L156.092 199.888H156.044V191.904H154.956V204Z" fill="black"/>
<path d="M197.9 178.176H198.572V177.168C200.182 177.14 201.414 176.076 201.414 174.522C201.414 172.702 199.986 172.044 198.572 171.554V167.704C199.244 167.718 199.958 168.026 200.392 168.642L201.162 168.054C200.532 167.312 199.468 166.948 198.572 166.92V165.912H197.9V166.92C196.444 166.99 195.198 167.956 195.198 169.58C195.198 171.288 196.626 171.946 197.9 172.338V176.356C197.312 176.342 196.248 175.964 195.744 175.124L194.946 175.684C195.618 176.538 196.64 177.14 197.9 177.168V178.176ZM197.9 171.316C196.864 171.036 196.164 170.504 196.164 169.496C196.164 168.446 196.934 167.732 197.9 167.704V171.316ZM198.572 176.356V172.506C199.636 172.842 200.406 173.5 200.406 174.452C200.406 175.838 199.398 176.328 198.572 176.356ZM207.463 177H208.443V174.606H209.899V173.724H208.443V167.088H207.127L202.927 173.626V174.606H207.463V177ZM203.977 173.724L207.435 168.222H207.463V173.724H203.977ZM214.52 177.252C216.984 177.252 217.768 174.634 217.768 172.058C217.768 169.482 216.984 166.836 214.52 166.836C212.028 166.836 211.272 169.482 211.272 172.058C211.272 174.634 212.028 177.252 214.52 177.252ZM214.52 176.384C212.756 176.384 212.294 174.032 212.294 172.058C212.294 170.084 212.756 167.69 214.52 167.69C216.256 167.69 216.746 170.084 216.746 172.058C216.746 174.032 216.256 176.384 214.52 176.384ZM219.869 177H220.821V173.556H220.863L224.195 177H225.595L221.955 173.444L225.259 170.448H223.887L220.863 173.402H220.821V166.416H219.869V177ZM230.968 168.6C231.304 168.6 231.64 168.32 231.64 167.928C231.64 167.536 231.304 167.256 230.968 167.256C230.632 167.256 230.296 167.536 230.296 167.928C230.296 168.32 230.632 168.6 230.968 168.6ZM230.492 177H231.444V170.448H230.492V177ZM233.978 177H234.93V173.64C234.93 171.89 235.91 171.078 236.918 171.078C238.29 171.078 238.696 172.002 238.696 173.374V177H239.648V172.982C239.648 171.358 238.822 170.28 237.156 170.28C236.232 170.28 235.28 170.812 234.916 171.568H234.888C234.888 171.288 234.86 170.798 234.832 170.448H233.922C233.964 170.896 233.978 171.54 233.978 171.89V177ZM243.947 177.084C244.381 177.084 244.731 177.014 245.067 176.888L245.025 176.062C244.773 176.188 244.465 176.272 244.199 176.272C243.625 176.272 243.219 176.048 243.219 175.068V171.246H245.067V170.448H243.219V168.6H242.267V170.448H240.909V171.246H242.267V175.334C242.267 176.776 243.247 177.084 243.947 177.084ZM249.468 177.168C250.546 177.168 251.512 176.762 252.282 175.782L251.568 175.222C251.204 175.81 250.448 176.356 249.468 176.356C248.124 176.356 247.102 175.292 247.074 173.976H252.506C252.52 173.808 252.52 173.654 252.52 173.528C252.52 171.736 251.442 170.28 249.384 170.28C247.522 170.28 246.08 171.75 246.08 173.724C246.08 175.698 247.522 177.168 249.468 177.168ZM247.088 173.22C247.172 172.1 248.11 171.078 249.384 171.078C250.742 171.078 251.498 171.988 251.554 173.22H247.088ZM254.568 177H255.52V173.64C255.52 171.89 256.43 171.162 257.438 171.162C257.69 171.162 257.998 171.204 258.11 171.246L258.236 170.35C258.04 170.294 257.844 170.28 257.606 170.28C256.682 170.28 255.87 170.812 255.506 171.568H255.478C255.478 171.288 255.45 170.798 255.422 170.448H254.512C254.554 170.896 254.568 171.54 254.568 171.89V177ZM262.278 177.168C263.356 177.168 264.322 176.762 265.092 175.782L264.378 175.222C264.014 175.81 263.258 176.356 262.278 176.356C260.934 176.356 259.912 175.292 259.884 173.976H265.316C265.33 173.808 265.33 173.654 265.33 173.528C265.33 171.736 264.252 170.28 262.194 170.28C260.332 170.28 258.89 171.75 258.89 173.724C258.89 175.698 260.332 177.168 262.278 177.168ZM259.898 173.22C259.982 172.1 260.92 171.078 262.194 171.078C263.552 171.078 264.308 171.988 264.364 173.22H259.898ZM269.24 177.168C270.444 177.168 271.704 176.636 271.704 175.138C271.704 174.116 270.976 173.542 269.436 173.22C268.358 172.996 267.868 172.716 267.868 172.1C267.868 171.372 268.568 171.078 269.254 171.078C269.982 171.078 270.584 171.456 270.864 172.002L271.592 171.456C271.172 170.714 270.206 170.28 269.296 170.28C268.106 170.28 266.958 170.854 266.958 172.184C266.958 173.43 268.064 173.766 268.834 173.948C270.08 174.242 270.766 174.522 270.766 175.208C270.766 176.062 270.038 176.356 269.226 176.356C268.456 176.356 267.742 175.908 267.406 175.334L266.65 175.894C267.252 176.776 268.246 177.168 269.24 177.168ZM275.433 177.084C275.867 177.084 276.217 177.014 276.553 176.888L276.511 176.062C276.259 176.188 275.951 176.272 275.685 176.272C275.111 176.272 274.705 176.048 274.705 175.068V171.246H276.553V170.448H274.705V168.6H273.753V170.448H272.395V171.246H273.753V175.334C273.753 176.776 274.733 177.084 275.433 177.084ZM208.326 201.252C210.286 201.252 211.616 199.852 211.616 197.934C211.616 196.086 210.258 194.826 208.396 194.826C207.948 194.826 207.444 194.896 207.024 195.05L207.094 191.984H211.224V191.088H206.17L206.072 196.198C206.702 195.862 207.416 195.652 208.13 195.652C209.544 195.652 210.594 196.562 210.594 198.032C210.594 199.376 209.614 200.384 208.27 200.384C207.402 200.384 206.618 199.852 206.268 199.04L205.358 199.446C205.904 200.538 206.898 201.252 208.326 201.252ZM215.733 201.434L222.033 191.032L221.319 190.654L215.005 201.056L215.733 201.434ZM215.691 195.82C217.077 195.82 218.155 194.742 218.155 193.37C218.155 191.998 217.077 190.92 215.691 190.92C214.305 190.92 213.227 191.998 213.227 193.37C213.227 194.742 214.305 195.82 215.691 195.82ZM215.691 194.98C214.809 194.98 214.067 194.294 214.067 193.37C214.067 192.446 214.809 191.76 215.691 191.76C216.573 191.76 217.315 192.446 217.315 193.37C217.315 194.294 216.573 194.98 215.691 194.98ZM221.361 201.168C222.747 201.168 223.825 200.09 223.825 198.718C223.825 197.346 222.747 196.268 221.361 196.268C219.975 196.268 218.897 197.346 218.897 198.718C218.897 200.09 219.975 201.168 221.361 201.168ZM221.361 200.328C220.479 200.328 219.737 199.642 219.737 198.718C219.737 197.794 220.479 197.108 221.361 197.108C222.243 197.108 222.985 197.794 222.985 198.718C222.985 199.642 222.243 200.328 221.361 200.328ZM229.117 201H230.069V197.64C230.069 195.89 230.979 195.162 231.987 195.162C232.239 195.162 232.547 195.204 232.659 195.246L232.785 194.35C232.589 194.294 232.393 194.28 232.155 194.28C231.231 194.28 230.419 194.812 230.055 195.568H230.027C230.027 195.288 229.999 194.798 229.971 194.448H229.061C229.103 194.896 229.117 195.54 229.117 195.89V201ZM236.828 201.168C237.906 201.168 238.872 200.762 239.642 199.782L238.928 199.222C238.564 199.81 237.808 200.356 236.828 200.356C235.484 200.356 234.462 199.292 234.434 197.976H239.866C239.88 197.808 239.88 197.654 239.88 197.528C239.88 195.736 238.802 194.28 236.744 194.28C234.882 194.28 233.44 195.75 233.44 197.724C233.44 199.698 234.882 201.168 236.828 201.168ZM234.448 197.22C234.532 196.1 235.47 195.078 236.744 195.078C238.102 195.078 238.858 195.988 238.914 197.22H234.448ZM243.762 201.084C244.196 201.084 244.546 201.014 244.882 200.888L244.84 200.062C244.588 200.188 244.28 200.272 244.014 200.272C243.44 200.272 243.034 200.048 243.034 199.068V195.246H244.882V194.448H243.034V192.6H242.082V194.448H240.724V195.246H242.082V199.334C242.082 200.776 243.062 201.084 243.762 201.084ZM248.807 201.168C249.731 201.168 250.683 200.636 251.047 199.88H251.075C251.075 200.16 251.103 200.65 251.131 201H252.041C251.999 200.552 251.985 199.908 251.985 199.558V194.448H251.033V197.808C251.033 199.558 250.053 200.37 249.045 200.37C247.673 200.37 247.267 199.446 247.267 198.074V194.448H246.315V198.466C246.315 200.09 247.141 201.168 248.807 201.168ZM254.506 201H255.458V197.64C255.458 195.89 256.368 195.162 257.376 195.162C257.628 195.162 257.936 195.204 258.048 195.246L258.174 194.35C257.978 194.294 257.782 194.28 257.544 194.28C256.62 194.28 255.808 194.812 255.444 195.568H255.416C255.416 195.288 255.388 194.798 255.36 194.448H254.45C254.492 194.896 254.506 195.54 254.506 195.89V201ZM259.551 201H260.503V197.64C260.503 195.89 261.483 195.078 262.491 195.078C263.863 195.078 264.269 196.002 264.269 197.374V201H265.221V196.982C265.221 195.358 264.395 194.28 262.729 194.28C261.805 194.28 260.853 194.812 260.489 195.568H260.461C260.461 195.288 260.433 194.798 260.405 194.448H259.495C259.537 194.896 259.551 195.54 259.551 195.89V201Z" fill="black"/>
<path d="M77.3771 28H78.5391L81.2411 23.646C81.7311 22.848 82.1371 21.98 82.1371 20.958C82.1371 19.11 80.7791 17.836 78.9171 17.836C77.0551 17.836 75.6971 19.11 75.6971 20.958C75.6971 22.764 76.9991 24.01 78.7211 24.01C79.2251 24.01 79.8411 23.87 80.1351 23.646L80.1631 23.674L77.3771 28ZM78.9171 23.198C77.5591 23.198 76.7051 22.232 76.7051 20.958C76.7051 19.67 77.6151 18.69 78.9171 18.69C80.2191 18.69 81.1291 19.67 81.1291 20.958C81.1291 22.232 80.2751 23.198 78.9171 23.198ZM85.9882 28.434L92.2882 18.032L91.5742 17.654L85.2602 28.056L85.9882 28.434ZM85.9462 22.82C87.3322 22.82 88.4102 21.742 88.4102 20.37C88.4102 18.998 87.3322 17.92 85.9462 17.92C84.5602 17.92 83.4822 18.998 83.4822 20.37C83.4822 21.742 84.5602 22.82 85.9462 22.82ZM85.9462 21.98C85.0642 21.98 84.3222 21.294 84.3222 20.37C84.3222 19.446 85.0642 18.76 85.9462 18.76C86.8282 18.76 87.5702 19.446 87.5702 20.37C87.5702 21.294 86.8282 21.98 85.9462 21.98ZM91.6162 28.168C93.0022 28.168 94.0802 27.09 94.0802 25.718C94.0802 24.346 93.0022 23.268 91.6162 23.268C90.2302 23.268 89.1522 24.346 89.1522 25.718C89.1522 27.09 90.2302 28.168 91.6162 28.168ZM91.6162 27.328C90.7342 27.328 89.9922 26.642 89.9922 25.718C89.9922 24.794 90.7342 24.108 91.6162 24.108C92.4982 24.108 93.2402 24.794 93.2402 25.718C93.2402 26.642 92.4982 27.328 91.6162 27.328ZM98.0062 28H99.1122L100.19 25.396H105.314L106.406 28H107.526L103.27 18.088H102.29L98.0062 28ZM100.568 24.472L102.752 19.208L104.936 24.472H100.568ZM108.985 28H109.993V23.394H111.757C113.773 23.394 115.131 22.512 115.131 20.734C115.131 18.956 113.801 18.088 111.785 18.088H108.985V28ZM109.993 22.54V18.956H111.701C113.227 18.956 114.123 19.516 114.123 20.734C114.123 21.91 113.269 22.54 111.701 22.54H109.993ZM117.106 28H118.114V23.366H119.794L122.538 28H123.77L120.872 23.282C122.314 23.128 123.406 22.204 123.406 20.734C123.406 18.802 121.978 18.088 120.018 18.088H117.106V28ZM118.114 22.498V18.956H119.906C121.404 18.956 122.398 19.432 122.398 20.734C122.398 21.91 121.474 22.498 119.864 22.498H118.114ZM61.8998 53.176H62.5718V52.168C64.1818 52.14 65.4138 51.076 65.4138 49.522C65.4138 47.702 63.9858 47.044 62.5718 46.554V42.704C63.2438 42.718 63.9578 43.026 64.3918 43.642L65.1618 43.054C64.5318 42.312 63.4678 41.948 62.5718 41.92V40.912H61.8998V41.92C60.4438 41.99 59.1978 42.956 59.1978 44.58C59.1978 46.288 60.6258 46.946 61.8998 47.338V51.356C61.3118 51.342 60.2478 50.964 59.7438 50.124L58.9458 50.684C59.6178 51.538 60.6398 52.14 61.8998 52.168V53.176ZM61.8998 46.316C60.8638 46.036 60.1638 45.504 60.1638 44.496C60.1638 43.446 60.9338 42.732 61.8998 42.704V46.316ZM62.5718 51.356V47.506C63.6358 47.842 64.4058 48.5 64.4058 49.452C64.4058 50.838 63.3978 51.328 62.5718 51.356ZM68.8869 52H70.0489L72.7509 47.646C73.2409 46.848 73.6469 45.98 73.6469 44.958C73.6469 43.11 72.2889 41.836 70.4269 41.836C68.5649 41.836 67.2069 43.11 67.2069 44.958C67.2069 46.764 68.5089 48.01 70.2309 48.01C70.7349 48.01 71.3509 47.87 71.6449 47.646L71.6729 47.674L68.8869 52ZM70.4269 47.198C69.0689 47.198 68.2149 46.232 68.2149 44.958C68.2149 43.67 69.1249 42.69 70.4269 42.69C71.7289 42.69 72.6389 43.67 72.6389 44.958C72.6389 46.232 71.7849 47.198 70.4269 47.198ZM78.52 52.252C80.984 52.252 81.768 49.634 81.768 47.058C81.768 44.482 80.984 41.836 78.52 41.836C76.028 41.836 75.272 44.482 75.272 47.058C75.272 49.634 76.028 52.252 78.52 52.252ZM78.52 51.384C76.756 51.384 76.294 49.032 76.294 47.058C76.294 45.084 76.756 42.69 78.52 42.69C80.256 42.69 80.746 45.084 80.746 47.058C80.746 49.032 80.256 51.384 78.52 51.384ZM83.8691 52H84.8211V48.556H84.8631L88.1951 52H89.5951L85.9551 48.444L89.2591 45.448H87.8871L84.8631 48.402H84.8211V41.416H83.8691V52ZM94.9678 43.6C95.3038 43.6 95.6398 43.32 95.6398 42.928C95.6398 42.536 95.3038 42.256 94.9678 42.256C94.6318 42.256 94.2958 42.536 94.2958 42.928C94.2958 43.32 94.6318 43.6 94.9678 43.6ZM94.4918 52H95.4438V45.448H94.4918V52ZM97.9778 52H98.9298V48.64C98.9298 46.89 99.9098 46.078 100.918 46.078C102.29 46.078 102.696 47.002 102.696 48.374V52H103.648V47.982C103.648 46.358 102.822 45.28 101.156 45.28C100.232 45.28 99.2798 45.812 98.9158 46.568H98.8878C98.8878 46.288 98.8598 45.798 98.8318 45.448H97.9218C97.9638 45.896 97.9778 46.54 97.9778 46.89V52ZM107.947 52.084C108.381 52.084 108.731 52.014 109.067 51.888L109.025 51.062C108.773 51.188 108.465 51.272 108.199 51.272C107.625 51.272 107.219 51.048 107.219 50.068V46.246H109.067V45.448H107.219V43.6H106.267V45.448H104.909V46.246H106.267V50.334C106.267 51.776 107.247 52.084 107.947 52.084ZM113.468 52.168C114.546 52.168 115.512 51.762 116.282 50.782L115.568 50.222C115.204 50.81 114.448 51.356 113.468 51.356C112.124 51.356 111.102 50.292 111.074 48.976H116.506C116.52 48.808 116.52 48.654 116.52 48.528C116.52 46.736 115.442 45.28 113.384 45.28C111.522 45.28 110.08 46.75 110.08 48.724C110.08 50.698 111.522 52.168 113.468 52.168ZM111.088 48.22C111.172 47.1 112.11 46.078 113.384 46.078C114.742 46.078 115.498 46.988 115.554 48.22H111.088ZM118.568 52H119.52V48.64C119.52 46.89 120.43 46.162 121.438 46.162C121.69 46.162 121.998 46.204 122.11 46.246L122.236 45.35C122.04 45.294 121.844 45.28 121.606 45.28C120.682 45.28 119.87 45.812 119.506 46.568H119.478C119.478 46.288 119.45 45.798 119.422 45.448H118.512C118.554 45.896 118.568 46.54 118.568 46.89V52ZM126.278 52.168C127.356 52.168 128.322 51.762 129.092 50.782L128.378 50.222C128.014 50.81 127.258 51.356 126.278 51.356C124.934 51.356 123.912 50.292 123.884 48.976H129.316C129.33 48.808 129.33 48.654 129.33 48.528C129.33 46.736 128.252 45.28 126.194 45.28C124.332 45.28 122.89 46.75 122.89 48.724C122.89 50.698 124.332 52.168 126.278 52.168ZM123.898 48.22C123.982 47.1 124.92 46.078 126.194 46.078C127.552 46.078 128.308 46.988 128.364 48.22H123.898ZM133.24 52.168C134.444 52.168 135.704 51.636 135.704 50.138C135.704 49.116 134.976 48.542 133.436 48.22C132.358 47.996 131.868 47.716 131.868 47.1C131.868 46.372 132.568 46.078 133.254 46.078C133.982 46.078 134.584 46.456 134.864 47.002L135.592 46.456C135.172 45.714 134.206 45.28 133.296 45.28C132.106 45.28 130.958 45.854 130.958 47.184C130.958 48.43 132.064 48.766 132.834 48.948C134.08 49.242 134.766 49.522 134.766 50.208C134.766 51.062 134.038 51.356 133.226 51.356C132.456 51.356 131.742 50.908 131.406 50.334L130.65 50.894C131.252 51.776 132.246 52.168 133.24 52.168ZM139.433 52.084C139.867 52.084 140.217 52.014 140.553 51.888L140.511 51.062C140.259 51.188 139.951 51.272 139.685 51.272C139.111 51.272 138.705 51.048 138.705 50.068V46.246H140.553V45.448H138.705V43.6H137.753V45.448H136.395V46.246H137.753V50.334C137.753 51.776 138.733 52.084 139.433 52.084Z" fill="black"/>
<path d="M197.9 282.176H198.572V281.168C200.182 281.14 201.414 280.076 201.414 278.522C201.414 276.702 199.986 276.044 198.572 275.554V271.704C199.244 271.718 199.958 272.026 200.392 272.642L201.162 272.054C200.532 271.312 199.468 270.948 198.572 270.92V269.912H197.9V270.92C196.444 270.99 195.198 271.956 195.198 273.58C195.198 275.288 196.626 275.946 197.9 276.338V280.356C197.312 280.342 196.248 279.964 195.744 279.124L194.946 279.684C195.618 280.538 196.64 281.14 197.9 281.168V282.176ZM197.9 275.316C196.864 275.036 196.164 274.504 196.164 273.496C196.164 272.446 196.934 271.732 197.9 271.704V275.316ZM198.572 280.356V276.506C199.636 276.842 200.406 277.5 200.406 278.452C200.406 279.838 199.398 280.328 198.572 280.356ZM207.463 281H208.443V278.606H209.899V277.724H208.443V271.088H207.127L202.927 277.626V278.606H207.463V281ZM203.977 277.724L207.435 272.222H207.463V277.724H203.977ZM214.52 281.252C216.984 281.252 217.768 278.634 217.768 276.058C217.768 273.482 216.984 270.836 214.52 270.836C212.028 270.836 211.272 273.482 211.272 276.058C211.272 278.634 212.028 281.252 214.52 281.252ZM214.52 280.384C212.756 280.384 212.294 278.032 212.294 276.058C212.294 274.084 212.756 271.69 214.52 271.69C216.256 271.69 216.746 274.084 216.746 276.058C216.746 278.032 216.256 280.384 214.52 280.384ZM219.869 281H220.821V277.556H220.863L224.195 281H225.595L221.955 277.444L225.259 274.448H223.887L220.863 277.402H220.821V270.416H219.869V281ZM230.968 272.6C231.304 272.6 231.64 272.32 231.64 271.928C231.64 271.536 231.304 271.256 230.968 271.256C230.632 271.256 230.296 271.536 230.296 271.928C230.296 272.32 230.632 272.6 230.968 272.6ZM230.492 281H231.444V274.448H230.492V281ZM233.978 281H234.93V277.64C234.93 275.89 235.91 275.078 236.918 275.078C238.29 275.078 238.696 276.002 238.696 277.374V281H239.648V276.982C239.648 275.358 238.822 274.28 237.156 274.28C236.232 274.28 235.28 274.812 234.916 275.568H234.888C234.888 275.288 234.86 274.798 234.832 274.448H233.922C233.964 274.896 233.978 275.54 233.978 275.89V281ZM243.947 281.084C244.381 281.084 244.731 281.014 245.067 280.888L245.025 280.062C244.773 280.188 244.465 280.272 244.199 280.272C243.625 280.272 243.219 280.048 243.219 279.068V275.246H245.067V274.448H243.219V272.6H242.267V274.448H240.909V275.246H242.267V279.334C242.267 280.776 243.247 281.084 243.947 281.084ZM249.468 281.168C250.546 281.168 251.512 280.762 252.282 279.782L251.568 279.222C251.204 279.81 250.448 280.356 249.468 280.356C248.124 280.356 247.102 279.292 247.074 277.976H252.506C252.52 277.808 252.52 277.654 252.52 277.528C252.52 275.736 251.442 274.28 249.384 274.28C247.522 274.28 246.08 275.75 246.08 277.724C246.08 279.698 247.522 281.168 249.468 281.168ZM247.088 277.22C247.172 276.1 248.11 275.078 249.384 275.078C250.742 275.078 251.498 275.988 251.554 277.22H247.088ZM254.568 281H255.52V277.64C255.52 275.89 256.43 275.162 257.438 275.162C257.69 275.162 257.998 275.204 258.11 275.246L258.236 274.35C258.04 274.294 257.844 274.28 257.606 274.28C256.682 274.28 255.87 274.812 255.506 275.568H255.478C255.478 275.288 255.45 274.798 255.422 274.448H254.512C254.554 274.896 254.568 275.54 254.568 275.89V281ZM262.278 281.168C263.356 281.168 264.322 280.762 265.092 279.782L264.378 279.222C264.014 279.81 263.258 280.356 262.278 280.356C260.934 280.356 259.912 279.292 259.884 277.976H265.316C265.33 277.808 265.33 277.654 265.33 277.528C265.33 275.736 264.252 274.28 262.194 274.28C260.332 274.28 258.89 275.75 258.89 277.724C258.89 279.698 260.332 281.168 262.278 281.168ZM259.898 277.22C259.982 276.1 260.92 275.078 262.194 275.078C263.552 275.078 264.308 275.988 264.364 277.22H259.898ZM269.24 281.168C270.444 281.168 271.704 280.636 271.704 279.138C271.704 278.116 270.976 277.542 269.436 277.22C268.358 276.996 267.868 276.716 267.868 276.1C267.868 275.372 268.568 275.078 269.254 275.078C269.982 275.078 270.584 275.456 270.864 276.002L271.592 275.456C271.172 274.714 270.206 274.28 269.296 274.28C268.106 274.28 266.958 274.854 266.958 276.184C266.958 277.43 268.064 277.766 268.834 277.948C270.08 278.242 270.766 278.522 270.766 279.208C270.766 280.062 270.038 280.356 269.226 280.356C268.456 280.356 267.742 279.908 267.406 279.334L266.65 279.894C267.252 280.776 268.246 281.168 269.24 281.168ZM275.433 281.084C275.867 281.084 276.217 281.014 276.553 280.888L276.511 280.062C276.259 280.188 275.951 280.272 275.685 280.272C275.111 280.272 274.705 280.048 274.705 279.068V275.246H276.553V274.448H274.705V272.6H273.753V274.448H272.395V275.246H273.753V279.334C273.753 280.776 274.733 281.084 275.433 281.084ZM201.228 305H207.57V304.104H202.32L205.89 300.562C206.758 299.694 207.5 298.84 207.5 297.566C207.5 295.76 206.114 294.836 204.518 294.836C202.964 294.836 201.76 295.858 201.48 297.258L202.474 297.454C202.684 296.432 203.454 295.69 204.518 295.69C205.582 295.69 206.478 296.432 206.478 297.58C206.478 298.49 205.89 299.232 205.288 299.848L201.228 303.95V305ZM212.387 305.252C214.347 305.252 215.677 303.852 215.677 301.934C215.677 300.086 214.319 298.826 212.457 298.826C212.009 298.826 211.505 298.896 211.085 299.05L211.155 295.984H215.285V295.088H210.231L210.133 300.198C210.763 299.862 211.477 299.652 212.191 299.652C213.605 299.652 214.655 300.562 214.655 302.032C214.655 303.376 213.675 304.384 212.331 304.384C211.463 304.384 210.679 303.852 210.329 303.04L209.419 303.446C209.965 304.538 210.959 305.252 212.387 305.252ZM219.794 305.434L226.094 295.032L225.38 294.654L219.066 305.056L219.794 305.434ZM219.752 299.82C221.138 299.82 222.216 298.742 222.216 297.37C222.216 295.998 221.138 294.92 219.752 294.92C218.366 294.92 217.288 295.998 217.288 297.37C217.288 298.742 218.366 299.82 219.752 299.82ZM219.752 298.98C218.87 298.98 218.128 298.294 218.128 297.37C218.128 296.446 218.87 295.76 219.752 295.76C220.634 295.76 221.376 296.446 221.376 297.37C221.376 298.294 220.634 298.98 219.752 298.98ZM225.422 305.168C226.808 305.168 227.886 304.09 227.886 302.718C227.886 301.346 226.808 300.268 225.422 300.268C224.036 300.268 222.958 301.346 222.958 302.718C222.958 304.09 224.036 305.168 225.422 305.168ZM225.422 304.328C224.54 304.328 223.798 303.642 223.798 302.718C223.798 301.794 224.54 301.108 225.422 301.108C226.304 301.108 227.046 301.794 227.046 302.718C227.046 303.642 226.304 304.328 225.422 304.328ZM233.178 305H234.13V301.64C234.13 299.89 235.04 299.162 236.048 299.162C236.3 299.162 236.608 299.204 236.72 299.246L236.846 298.35C236.65 298.294 236.454 298.28 236.216 298.28C235.292 298.28 234.48 298.812 234.116 299.568H234.088C234.088 299.288 234.06 298.798 234.032 298.448H233.122C233.164 298.896 233.178 299.54 233.178 299.89V305ZM240.889 305.168C241.967 305.168 242.933 304.762 243.703 303.782L242.989 303.222C242.625 303.81 241.869 304.356 240.889 304.356C239.545 304.356 238.523 303.292 238.495 301.976H243.927C243.941 301.808 243.941 301.654 243.941 301.528C243.941 299.736 242.863 298.28 240.805 298.28C238.943 298.28 237.501 299.75 237.501 301.724C237.501 303.698 238.943 305.168 240.889 305.168ZM238.509 301.22C238.593 300.1 239.531 299.078 240.805 299.078C242.163 299.078 242.919 299.988 242.975 301.22H238.509ZM247.823 305.084C248.257 305.084 248.607 305.014 248.943 304.888L248.901 304.062C248.649 304.188 248.341 304.272 248.075 304.272C247.501 304.272 247.095 304.048 247.095 303.068V299.246H248.943V298.448H247.095V296.6H246.143V298.448H244.785V299.246H246.143V303.334C246.143 304.776 247.123 305.084 247.823 305.084ZM252.868 305.168C253.792 305.168 254.744 304.636 255.108 303.88H255.136C255.136 304.16 255.164 304.65 255.192 305H256.102C256.06 304.552 256.046 303.908 256.046 303.558V298.448H255.094V301.808C255.094 303.558 254.114 304.37 253.106 304.37C251.734 304.37 251.328 303.446 251.328 302.074V298.448H250.376V302.466C250.376 304.09 251.202 305.168 252.868 305.168ZM258.567 305H259.519V301.64C259.519 299.89 260.429 299.162 261.437 299.162C261.689 299.162 261.997 299.204 262.109 299.246L262.235 298.35C262.039 298.294 261.843 298.28 261.605 298.28C260.681 298.28 259.869 298.812 259.505 299.568H259.477C259.477 299.288 259.449 298.798 259.421 298.448H258.511C258.553 298.896 258.567 299.54 258.567 299.89V305ZM263.612 305H264.564V301.64C264.564 299.89 265.544 299.078 266.552 299.078C267.924 299.078 268.33 300.002 268.33 301.374V305H269.282V300.982C269.282 299.358 268.456 298.28 266.79 298.28C265.866 298.28 264.914 298.812 264.55 299.568H264.522C264.522 299.288 264.494 298.798 264.466 298.448H263.556C263.598 298.896 263.612 299.54 263.612 299.89V305Z" fill="black"/>
<path d="M120.567 295.344H121.335V294.192C123.175 294.16 124.583 292.944 124.583 291.168C124.583 289.088 122.951 288.336 121.335 287.776V283.376C122.103 283.392 122.919 283.744 123.415 284.448L124.295 283.776C123.575 282.928 122.359 282.512 121.335 282.48V281.328H120.567V282.48C118.903 282.56 117.479 283.664 117.479 285.52C117.479 287.472 119.111 288.224 120.567 288.672V293.264C119.895 293.248 118.679 292.816 118.103 291.856L117.191 292.496C117.959 293.472 119.127 294.16 120.567 294.192V295.344ZM120.567 287.504C119.383 287.184 118.583 286.576 118.583 285.424C118.583 284.224 119.463 283.408 120.567 283.376V287.504ZM121.335 293.264V288.864C122.551 289.248 123.431 290 123.431 291.088C123.431 292.672 122.279 293.232 121.335 293.264ZM126.457 294H133.705V292.976H127.705L131.785 288.928C132.777 287.936 133.625 286.96 133.625 285.504C133.625 283.44 132.041 282.384 130.217 282.384C128.441 282.384 127.065 283.552 126.745 285.152L127.881 285.376C128.121 284.208 129.001 283.36 130.217 283.36C131.433 283.36 132.457 284.208 132.457 285.52C132.457 286.56 131.785 287.408 131.097 288.112L126.457 292.8V294ZM139.562 294.288C142.378 294.288 143.274 291.296 143.274 288.352C143.274 285.408 142.378 282.384 139.562 282.384C136.714 282.384 135.85 285.408 135.85 288.352C135.85 291.296 136.714 294.288 139.562 294.288ZM139.562 293.296C137.546 293.296 137.018 290.608 137.018 288.352C137.018 286.096 137.546 283.36 139.562 283.36C141.546 283.36 142.106 286.096 142.106 288.352C142.106 290.608 141.546 293.296 139.562 293.296ZM148.843 294.288C151.659 294.288 152.555 291.296 152.555 288.352C152.555 285.408 151.659 282.384 148.843 282.384C145.995 282.384 145.131 285.408 145.131 288.352C145.131 291.296 145.995 294.288 148.843 294.288ZM148.843 293.296C146.827 293.296 146.299 290.608 146.299 288.352C146.299 286.096 146.827 283.36 148.843 283.36C150.827 283.36 151.387 286.096 151.387 288.352C151.387 290.608 150.827 293.296 148.843 293.296ZM154.956 294H156.044V290.064H156.092L159.9 294H161.5L157.34 289.936L161.116 286.512H159.548L156.092 289.888H156.044V281.904H154.956V294Z" fill="black"/>
<path fill-rule="evenodd" clip-rule="evenodd" d="M51 62.5H146.5V63.5H52V79.5H51V62.5Z" fill="black"/>
<path fill-rule="evenodd" clip-rule="evenodd" d="M145.5 78.2929L145.5 63.5H146.5L146.5 78.2929L148.828 75.9645C149.024 75.7692 149.34 75.7692 149.536 75.9645C149.731 76.1597 149.731 76.4763 149.536 76.6716L146.354 79.8536C146.158 80.0488 145.842 80.0488 145.646 79.8536L142.464 76.6716C142.269 76.4763 142.269 76.1597 142.464 75.9645C142.66 75.7692 142.976 75.7692 143.172 75.9645L145.5 78.2929Z" fill="black"/>
<defs>
<linearGradient id="paint0_linear" x1="49" y1="107" x2="49" y2="307" gradientUnits="userSpaceOnUse">
<stop offset="0.432292" stop-color="#F4BD6D"/>
<stop offset="0.807292" stop-color="#F4BD6C" stop-opacity="0.51"/>
</linearGradient>
<linearGradient id="paint1_linear" x1="140" y1="107" x2="140" y2="267" gradientUnits="userSpaceOnUse">
<stop offset="0.458333" stop-color="#2F80ED"/>
<stop offset="1" stop-color="#2F80ED" stop-opacity="0.4"/>
</linearGradient>
<linearGradient id="paint2_linear" x1="140" y1="267" x2="140" y2="307" gradientUnits="userSpaceOnUse">
<stop offset="0.276042" stop-color="#BDBDBD"/>
<stop offset="1" stop-color="#BDBDBD" stop-opacity="0.41"/>
</linearGradient>
</defs>
</svg>
