<svg width="297" height="326" viewBox="0 0 297 326" fill="none" xmlns="http://www.w3.org/2000/svg">
<rect width="297" height="326" transform="matrix(-1 0 0 1 297 0)" fill="white"/>
<rect x="17" y="107" width="64" height="200" fill="url(#paint0_linear_5_1)"/>
<rect x="108" y="107" width="64" height="160" fill="url(#paint1_linear_5_1)"/>
<rect x="108" y="267" width="64" height="40" fill="url(#paint2_linear_5_1)"/>
<path d="M37.3408 195.376C36.7861 195.397 36.3168 195.595 35.9328 195.968C35.5488 196.331 35.3568 196.816 35.3568 197.424C35.3568 198 35.5381 198.453 35.9008 198.784C36.2635 199.104 36.7435 199.344 37.3408 199.504V195.376ZM38.1088 205.264C38.3435 205.253 38.5835 205.211 38.8288 205.136C39.0848 205.051 39.3141 204.923 39.5168 204.752C39.7195 204.581 39.8848 204.363 40.0128 204.096C40.1408 203.819 40.2048 203.483 40.2048 203.088C40.2048 202.544 40.0075 202.085 39.6128 201.712C39.2181 201.339 38.7168 201.056 38.1088 200.864V205.264ZM37.3408 200.672C36.9781 200.565 36.6101 200.432 36.2368 200.272C35.8741 200.112 35.5435 199.909 35.2448 199.664C34.9568 199.419 34.7168 199.125 34.5248 198.784C34.3435 198.432 34.2528 198.011 34.2528 197.52C34.2528 197.061 34.3328 196.651 34.4928 196.288C34.6635 195.915 34.8875 195.6 35.1648 195.344C35.4528 195.077 35.7835 194.875 36.1568 194.736C36.5301 194.587 36.9248 194.501 37.3408 194.48V193.328H38.1088V194.48C38.3648 194.491 38.6261 194.523 38.8928 194.576C39.1701 194.629 39.4368 194.709 39.6928 194.816C39.9595 194.923 40.2101 195.056 40.4448 195.216C40.6795 195.376 40.8875 195.563 41.0688 195.776L40.1888 196.448C39.9435 196.096 39.6288 195.835 39.2448 195.664C38.8715 195.483 38.4928 195.387 38.1088 195.376V199.776C38.5141 199.915 38.9088 200.075 39.2928 200.256C39.6875 200.427 40.0341 200.645 40.3328 200.912C40.6421 201.168 40.8875 201.477 41.0688 201.84C41.2608 202.203 41.3568 202.645 41.3568 203.168C41.3568 203.616 41.2715 204.027 41.1008 204.4C40.9408 204.763 40.7115 205.077 40.4128 205.344C40.1248 205.6 39.7835 205.803 39.3888 205.952C38.9941 206.101 38.5675 206.181 38.1088 206.192V207.344H37.3408V206.192C36.6155 206.171 35.9648 206.005 35.3888 205.696C34.8235 205.387 34.3488 204.987 33.9648 204.496L34.8768 203.856C35.0155 204.101 35.1915 204.309 35.4048 204.48C35.6181 204.651 35.8368 204.795 36.0608 204.912C36.2955 205.029 36.5248 205.12 36.7488 205.184C36.9728 205.237 37.1701 205.264 37.3408 205.264V200.672ZM48.1421 206H46.9901V196.096L44.9421 197.84L44.2381 197.04L47.1181 194.672H48.1421V206ZM58.7993 204.048H58.8153L62.6073 194.672H64.3673V206H63.2153V196.16H63.1833L59.0873 206H58.4793L54.3833 196.16H54.3513V206H53.1993V194.672H54.9593L58.7993 204.048Z" fill="black"/>
<path d="M19.5665 86.672H22.7665C23.3425 86.672 23.8652 86.736 24.3345 86.864C24.8038 86.9813 25.2038 87.168 25.5345 87.424C25.8758 87.6693 26.1372 87.984 26.3185 88.368C26.4998 88.7413 26.5905 89.184 26.5905 89.696C26.5905 90.208 26.4945 90.656 26.3025 91.04C26.1212 91.4133 25.8598 91.728 25.5185 91.984C25.1878 92.2293 24.7825 92.416 24.3025 92.544C23.8332 92.672 23.3105 92.736 22.7345 92.736H20.7185V98H19.5665V86.672ZM20.7185 91.76H22.6705C23.5772 91.76 24.2652 91.584 24.7345 91.232C25.2038 90.88 25.4385 90.368 25.4385 89.696C25.4385 88.992 25.1932 88.48 24.7025 88.16C24.2225 87.8293 23.5452 87.664 22.6705 87.664H20.7185V91.76ZM35.0675 94.256C35.0675 94.8213 34.9662 95.344 34.7635 95.824C34.5715 96.304 34.2995 96.72 33.9475 97.072C33.5955 97.424 33.1742 97.7013 32.6835 97.904C32.1928 98.096 31.6542 98.192 31.0675 98.192C30.4915 98.192 29.9582 98.096 29.4675 97.904C28.9768 97.7013 28.5555 97.424 28.2035 97.072C27.8515 96.72 27.5742 96.304 27.3715 95.824C27.1795 95.344 27.0835 94.8213 27.0835 94.256C27.0835 93.6907 27.1795 93.168 27.3715 92.688C27.5742 92.208 27.8515 91.792 28.2035 91.44C28.5555 91.088 28.9768 90.816 29.4675 90.624C29.9582 90.4213 30.4915 90.32 31.0675 90.32C31.6542 90.32 32.1928 90.4213 32.6835 90.624C33.1742 90.816 33.5955 91.088 33.9475 91.44C34.2995 91.792 34.5715 92.208 34.7635 92.688C34.9662 93.168 35.0675 93.6907 35.0675 94.256ZM33.9155 94.256C33.9155 93.84 33.8462 93.4507 33.7075 93.088C33.5795 92.7147 33.3928 92.3947 33.1475 92.128C32.9022 91.8507 32.6035 91.632 32.2515 91.472C31.8995 91.312 31.5048 91.232 31.0675 91.232C30.6302 91.232 30.2355 91.312 29.8835 91.472C29.5422 91.632 29.2488 91.8507 29.0035 92.128C28.7582 92.3947 28.5662 92.7147 28.4275 93.088C28.2995 93.4507 28.2355 93.84 28.2355 94.256C28.2355 94.672 28.2995 95.0667 28.4275 95.44C28.5662 95.8027 28.7582 96.1227 29.0035 96.4C29.2488 96.6667 29.5422 96.88 29.8835 97.04C30.2355 97.1893 30.6302 97.264 31.0675 97.264C31.5048 97.264 31.8995 97.1893 32.2515 97.04C32.6035 96.88 32.9022 96.6667 33.1475 96.4C33.3928 96.1227 33.5795 95.8027 33.7075 95.44C33.8462 95.0667 33.9155 94.672 33.9155 94.256ZM37.4088 92.16C37.4088 91.9573 37.4034 91.696 37.3928 91.376C37.3821 91.056 37.3661 90.768 37.3448 90.512H38.3848C38.4061 90.7147 38.4221 90.9387 38.4328 91.184C38.4434 91.4293 38.4488 91.632 38.4488 91.792H38.4808C38.6941 91.3547 39.0141 91.0027 39.4408 90.736C39.8674 90.4587 40.3474 90.32 40.8808 90.32C41.0194 90.32 41.1421 90.3253 41.2488 90.336C41.3661 90.3467 41.4834 90.368 41.6008 90.4L41.4568 91.424C41.3928 91.4027 41.2861 91.3813 41.1368 91.36C40.9874 91.3387 40.8381 91.328 40.6888 91.328C40.4008 91.328 40.1234 91.3813 39.8568 91.488C39.5901 91.5947 39.3554 91.7653 39.1528 92C38.9608 92.224 38.8008 92.5173 38.6728 92.88C38.5554 93.232 38.4968 93.6587 38.4968 94.16V98H37.4088V92.16ZM46.3629 91.424H44.2509V95.792C44.2509 96.0693 44.2775 96.2987 44.3309 96.48C44.3842 96.6613 44.4589 96.8053 44.5549 96.912C44.6615 97.008 44.7842 97.0773 44.9229 97.12C45.0615 97.152 45.2109 97.168 45.3709 97.168C45.5202 97.168 45.6749 97.1467 45.8349 97.104C46.0055 97.0613 46.1655 97.0027 46.3149 96.928L46.3629 97.872C46.1709 97.9467 45.9682 98 45.7549 98.032C45.5522 98.0747 45.3282 98.096 45.0829 98.096C44.8802 98.096 44.6669 98.0693 44.4429 98.016C44.2189 97.9627 44.0109 97.8613 43.8189 97.712C43.6269 97.5627 43.4669 97.36 43.3389 97.104C43.2215 96.848 43.1629 96.512 43.1629 96.096V91.424H41.6109V90.512H43.1629V88.4H44.2509V90.512H46.3629V91.424ZM51.233 91.424H49.473V98H48.385V91.424H46.817V90.512H48.385V88.464C48.385 87.6107 48.593 86.9387 49.009 86.448C49.425 85.9573 50.065 85.712 50.929 85.712C51.0677 85.712 51.217 85.7227 51.377 85.744C51.537 85.7547 51.6863 85.7813 51.825 85.824L51.633 86.784C51.5157 86.752 51.3983 86.7253 51.281 86.704C51.1637 86.6827 51.0303 86.672 50.881 86.672C50.593 86.672 50.353 86.72 50.161 86.816C49.9797 86.912 49.8357 87.0507 49.729 87.232C49.633 87.4027 49.5637 87.6053 49.521 87.84C49.489 88.0747 49.473 88.3253 49.473 88.592V90.512H51.233V91.424ZM60.2238 94.256C60.2238 94.8213 60.1224 95.344 59.9198 95.824C59.7278 96.304 59.4558 96.72 59.1038 97.072C58.7518 97.424 58.3304 97.7013 57.8398 97.904C57.3491 98.096 56.8104 98.192 56.2238 98.192C55.6478 98.192 55.1144 98.096 54.6238 97.904C54.1331 97.7013 53.7118 97.424 53.3598 97.072C53.0078 96.72 52.7304 96.304 52.5278 95.824C52.3358 95.344 52.2398 94.8213 52.2398 94.256C52.2398 93.6907 52.3358 93.168 52.5278 92.688C52.7304 92.208 53.0078 91.792 53.3598 91.44C53.7118 91.088 54.1331 90.816 54.6238 90.624C55.1144 90.4213 55.6478 90.32 56.2238 90.32C56.8104 90.32 57.3491 90.4213 57.8398 90.624C58.3304 90.816 58.7518 91.088 59.1038 91.44C59.4558 91.792 59.7278 92.208 59.9198 92.688C60.1224 93.168 60.2238 93.6907 60.2238 94.256ZM59.0718 94.256C59.0718 93.84 59.0024 93.4507 58.8638 93.088C58.7358 92.7147 58.5491 92.3947 58.3038 92.128C58.0584 91.8507 57.7598 91.632 57.4078 91.472C57.0558 91.312 56.6611 91.232 56.2238 91.232C55.7864 91.232 55.3918 91.312 55.0398 91.472C54.6984 91.632 54.4051 91.8507 54.1598 92.128C53.9144 92.3947 53.7224 92.7147 53.5838 93.088C53.4558 93.4507 53.3918 93.84 53.3918 94.256C53.3918 94.672 53.4558 95.0667 53.5838 95.44C53.7224 95.8027 53.9144 96.1227 54.1598 96.4C54.4051 96.6667 54.6984 96.88 55.0398 97.04C55.3918 97.1893 55.7864 97.264 56.2238 97.264C56.6611 97.264 57.0558 97.1893 57.4078 97.04C57.7598 96.88 58.0584 96.6667 58.3038 96.4C58.5491 96.1227 58.7358 95.8027 58.8638 95.44C59.0024 95.0667 59.0718 94.672 59.0718 94.256ZM63.685 98H62.597V85.904H63.685V98ZM67.7003 98H66.6123V90.512H67.7003V98ZM67.9243 87.632C67.9243 87.856 67.8443 88.0427 67.6843 88.192C67.5243 88.3307 67.3483 88.4 67.1562 88.4C66.9643 88.4 66.7883 88.3307 66.6283 88.192C66.4683 88.0427 66.3883 87.856 66.3883 87.632C66.3883 87.408 66.4683 87.2267 66.6283 87.088C66.7883 86.9387 66.9643 86.864 67.1562 86.864C67.3483 86.864 67.5243 86.9387 67.6843 87.088C67.8443 87.2267 67.9243 87.408 67.9243 87.632ZM78.0363 94.256C78.0363 94.8213 77.9349 95.344 77.7323 95.824C77.5403 96.304 77.2683 96.72 76.9163 97.072C76.5643 97.424 76.1429 97.7013 75.6523 97.904C75.1616 98.096 74.6229 98.192 74.0363 98.192C73.4603 98.192 72.9269 98.096 72.4363 97.904C71.9456 97.7013 71.5243 97.424 71.1723 97.072C70.8203 96.72 70.5429 96.304 70.3403 95.824C70.1483 95.344 70.0523 94.8213 70.0523 94.256C70.0523 93.6907 70.1483 93.168 70.3403 92.688C70.5429 92.208 70.8203 91.792 71.1723 91.44C71.5243 91.088 71.9456 90.816 72.4363 90.624C72.9269 90.4213 73.4603 90.32 74.0363 90.32C74.6229 90.32 75.1616 90.4213 75.6523 90.624C76.1429 90.816 76.5643 91.088 76.9163 91.44C77.2683 91.792 77.5403 92.208 77.7323 92.688C77.9349 93.168 78.0363 93.6907 78.0363 94.256ZM76.8843 94.256C76.8843 93.84 76.8149 93.4507 76.6763 93.088C76.5483 92.7147 76.3616 92.3947 76.1163 92.128C75.8709 91.8507 75.5723 91.632 75.2203 91.472C74.8683 91.312 74.4736 91.232 74.0363 91.232C73.5989 91.232 73.2043 91.312 72.8523 91.472C72.5109 91.632 72.2176 91.8507 71.9723 92.128C71.7269 92.3947 71.5349 92.7147 71.3963 93.088C71.2683 93.4507 71.2043 93.84 71.2043 94.256C71.2043 94.672 71.2683 95.0667 71.3963 95.44C71.5349 95.8027 71.7269 96.1227 71.9723 96.4C72.2176 96.6667 72.5109 96.88 72.8523 97.04C73.2043 97.1893 73.5989 97.264 74.0363 97.264C74.4736 97.264 74.8683 97.1893 75.2203 97.04C75.5723 96.88 75.8709 96.6667 76.1163 96.4C76.3616 96.1227 76.5483 95.8027 76.6763 95.44C76.8149 95.0667 76.8843 94.672 76.8843 94.256Z" fill="black"/>
<path d="M111.023 98H109.871V86.672H111.023V98ZM114.939 90.512C114.961 90.7147 114.977 90.9387 114.987 91.184C114.998 91.4293 115.003 91.632 115.003 91.792H115.035C115.249 91.3547 115.595 91.0027 116.075 90.736C116.555 90.4587 117.062 90.32 117.595 90.32C118.545 90.32 119.254 90.6027 119.723 91.168C120.203 91.7333 120.443 92.48 120.443 93.408V98H119.355V93.856C119.355 93.4613 119.323 93.104 119.259 92.784C119.195 92.464 119.083 92.192 118.923 91.968C118.774 91.7333 118.566 91.552 118.299 91.424C118.043 91.296 117.718 91.232 117.323 91.232C117.035 91.232 116.753 91.2907 116.475 91.408C116.209 91.5253 115.969 91.7067 115.755 91.952C115.542 92.1867 115.371 92.4907 115.243 92.864C115.115 93.2267 115.051 93.6587 115.051 94.16V98H113.963V92.16C113.963 91.9573 113.958 91.696 113.947 91.376C113.937 91.056 113.921 90.768 113.899 90.512H114.939ZM126.332 98H125.132L122.076 90.512H123.292L125.724 96.848H125.756L128.204 90.512H129.372L126.332 98ZM136.785 93.68C136.753 92.976 136.523 92.3947 136.097 91.936C135.681 91.4667 135.083 91.232 134.305 91.232C133.942 91.232 133.606 91.3013 133.297 91.44C132.987 91.568 132.715 91.7493 132.481 91.984C132.246 92.208 132.059 92.4693 131.921 92.768C131.782 93.056 131.702 93.36 131.681 93.68H136.785ZM137.889 94.032C137.889 94.1067 137.889 94.1867 137.889 94.272C137.889 94.3573 137.883 94.448 137.873 94.544H131.665C131.675 94.9173 131.75 95.2693 131.889 95.6C132.027 95.9307 132.219 96.2187 132.465 96.464C132.71 96.7093 132.998 96.9067 133.329 97.056C133.659 97.1947 134.017 97.264 134.401 97.264C134.966 97.264 135.451 97.136 135.857 96.88C136.273 96.6133 136.587 96.3093 136.801 95.968L137.617 96.608C137.169 97.1733 136.673 97.5787 136.129 97.824C135.595 98.0693 135.019 98.192 134.401 98.192C133.846 98.192 133.329 98.096 132.849 97.904C132.379 97.7013 131.974 97.424 131.633 97.072C131.291 96.72 131.019 96.304 130.817 95.824C130.625 95.344 130.529 94.8213 130.529 94.256C130.529 93.6907 130.625 93.168 130.817 92.688C131.009 92.208 131.275 91.792 131.617 91.44C131.958 91.088 132.358 90.816 132.817 90.624C133.275 90.4213 133.771 90.32 134.305 90.32C134.891 90.32 135.409 90.4213 135.857 90.624C136.305 90.816 136.678 91.0827 136.977 91.424C137.275 91.7547 137.499 92.144 137.649 92.592C137.809 93.04 137.889 93.52 137.889 94.032ZM144.213 92.288C144.053 91.9787 143.808 91.728 143.477 91.536C143.157 91.3333 142.789 91.232 142.373 91.232C142.181 91.232 141.989 91.2533 141.797 91.296C141.605 91.3387 141.434 91.408 141.285 91.504C141.136 91.6 141.013 91.7227 140.917 91.872C140.832 92.0213 140.789 92.1973 140.789 92.4C140.789 92.752 140.933 93.024 141.221 93.216C141.509 93.3973 141.962 93.552 142.581 93.68C143.466 93.8613 144.117 94.128 144.533 94.48C144.96 94.8213 145.173 95.2853 145.173 95.872C145.173 96.2987 145.088 96.6613 144.917 96.96C144.757 97.248 144.544 97.488 144.277 97.68C144.01 97.8613 143.706 97.9893 143.365 98.064C143.034 98.1493 142.698 98.192 142.357 98.192C141.792 98.192 141.242 98.0747 140.709 97.84C140.176 97.6053 139.738 97.2373 139.397 96.736L140.261 96.096C140.453 96.4267 140.736 96.704 141.109 96.928C141.482 97.152 141.893 97.264 142.341 97.264C142.576 97.264 142.8 97.2427 143.013 97.2C143.226 97.1573 143.413 97.0827 143.573 96.976C143.733 96.8693 143.861 96.736 143.957 96.576C144.053 96.4053 144.101 96.1973 144.101 95.952C144.101 95.5573 143.909 95.264 143.525 95.072C143.152 94.8693 142.608 94.6827 141.893 94.512C141.669 94.4587 141.429 94.3947 141.173 94.32C140.928 94.2347 140.698 94.1173 140.485 93.968C140.272 93.808 140.096 93.6107 139.957 93.376C139.818 93.1413 139.749 92.848 139.749 92.496C139.749 92.112 139.824 91.7867 139.973 91.52C140.122 91.2427 140.32 91.0187 140.565 90.848C140.821 90.6667 141.109 90.5333 141.429 90.448C141.749 90.3627 142.08 90.32 142.421 90.32C142.944 90.32 143.45 90.4373 143.941 90.672C144.432 90.9067 144.8 91.2373 145.045 91.664L144.213 92.288ZM150.714 91.424H148.602V95.792C148.602 96.0693 148.629 96.2987 148.682 96.48C148.736 96.6613 148.81 96.8053 148.906 96.912C149.013 97.008 149.136 97.0773 149.274 97.12C149.413 97.152 149.562 97.168 149.722 97.168C149.872 97.168 150.026 97.1467 150.186 97.104C150.357 97.0613 150.517 97.0027 150.666 96.928L150.714 97.872C150.522 97.9467 150.32 98 150.106 98.032C149.904 98.0747 149.68 98.096 149.434 98.096C149.232 98.096 149.018 98.0693 148.794 98.016C148.57 97.9627 148.362 97.8613 148.17 97.712C147.978 97.5627 147.818 97.36 147.69 97.104C147.573 96.848 147.514 96.512 147.514 96.096V91.424H145.962V90.512H147.514V88.4H148.602V90.512H150.714V91.424ZM159.857 94.256C159.857 94.8213 159.755 95.344 159.553 95.824C159.361 96.304 159.089 96.72 158.737 97.072C158.385 97.424 157.963 97.7013 157.473 97.904C156.982 98.096 156.443 98.192 155.857 98.192C155.281 98.192 154.747 98.096 154.257 97.904C153.766 97.7013 153.345 97.424 152.993 97.072C152.641 96.72 152.363 96.304 152.161 95.824C151.969 95.344 151.873 94.8213 151.873 94.256C151.873 93.6907 151.969 93.168 152.161 92.688C152.363 92.208 152.641 91.792 152.993 91.44C153.345 91.088 153.766 90.816 154.257 90.624C154.747 90.4213 155.281 90.32 155.857 90.32C156.443 90.32 156.982 90.4213 157.473 90.624C157.963 90.816 158.385 91.088 158.737 91.44C159.089 91.792 159.361 92.208 159.553 92.688C159.755 93.168 159.857 93.6907 159.857 94.256ZM158.705 94.256C158.705 93.84 158.635 93.4507 158.497 93.088C158.369 92.7147 158.182 92.3947 157.937 92.128C157.691 91.8507 157.393 91.632 157.041 91.472C156.689 91.312 156.294 91.232 155.857 91.232C155.419 91.232 155.025 91.312 154.673 91.472C154.331 91.632 154.038 91.8507 153.793 92.128C153.547 92.3947 153.355 92.7147 153.217 93.088C153.089 93.4507 153.025 93.84 153.025 94.256C153.025 94.672 153.089 95.0667 153.217 95.44C153.355 95.8027 153.547 96.1227 153.793 96.4C154.038 96.6667 154.331 96.88 154.673 97.04C155.025 97.1893 155.419 97.264 155.857 97.264C156.294 97.264 156.689 97.1893 157.041 97.04C157.393 96.88 157.691 96.6667 157.937 96.4C158.182 96.1227 158.369 95.8027 158.497 95.44C158.635 95.0667 158.705 94.672 158.705 94.256ZM162.198 92.16C162.198 91.9573 162.192 91.696 162.182 91.376C162.171 91.056 162.155 90.768 162.134 90.512H163.174C163.195 90.7147 163.211 90.9387 163.222 91.184C163.232 91.4293 163.238 91.632 163.238 91.792H163.27C163.483 91.3547 163.803 91.0027 164.23 90.736C164.656 90.4587 165.136 90.32 165.67 90.32C165.808 90.32 165.931 90.3253 166.038 90.336C166.155 90.3467 166.272 90.368 166.39 90.4L166.246 91.424C166.182 91.4027 166.075 91.3813 165.926 91.36C165.776 91.3387 165.627 91.328 165.478 91.328C165.19 91.328 164.912 91.3813 164.646 91.488C164.379 91.5947 164.144 91.7653 163.942 92C163.75 92.224 163.59 92.5173 163.462 92.88C163.344 93.232 163.286 93.6587 163.286 94.16V98H162.198V92.16ZM171.947 92.288C171.787 91.9787 171.542 91.728 171.211 91.536C170.891 91.3333 170.523 91.232 170.107 91.232C169.915 91.232 169.723 91.2533 169.531 91.296C169.339 91.3387 169.169 91.408 169.019 91.504C168.87 91.6 168.747 91.7227 168.651 91.872C168.566 92.0213 168.523 92.1973 168.523 92.4C168.523 92.752 168.667 93.024 168.955 93.216C169.243 93.3973 169.697 93.552 170.315 93.68C171.201 93.8613 171.851 94.128 172.267 94.48C172.694 94.8213 172.907 95.2853 172.907 95.872C172.907 96.2987 172.822 96.6613 172.651 96.96C172.491 97.248 172.278 97.488 172.011 97.68C171.745 97.8613 171.441 97.9893 171.099 98.064C170.769 98.1493 170.433 98.192 170.091 98.192C169.526 98.192 168.977 98.0747 168.443 97.84C167.91 97.6053 167.473 97.2373 167.131 96.736L167.995 96.096C168.187 96.4267 168.47 96.704 168.843 96.928C169.217 97.152 169.627 97.264 170.075 97.264C170.31 97.264 170.534 97.2427 170.747 97.2C170.961 97.1573 171.147 97.0827 171.307 96.976C171.467 96.8693 171.595 96.736 171.691 96.576C171.787 96.4053 171.835 96.1973 171.835 95.952C171.835 95.5573 171.643 95.264 171.259 95.072C170.886 94.8693 170.342 94.6827 169.627 94.512C169.403 94.4587 169.163 94.3947 168.907 94.32C168.662 94.2347 168.433 94.1173 168.219 93.968C168.006 93.808 167.83 93.6107 167.691 93.376C167.553 93.1413 167.483 92.848 167.483 92.496C167.483 92.112 167.558 91.7867 167.707 91.52C167.857 91.2427 168.054 91.0187 168.299 90.848C168.555 90.6667 168.843 90.5333 169.163 90.448C169.483 90.3627 169.814 90.32 170.155 90.32C170.678 90.32 171.185 90.4373 171.675 90.672C172.166 90.9067 172.534 91.2373 172.779 91.664L171.947 92.288Z" fill="black"/>
<path d="M120.567 191.376C120.013 191.397 119.543 191.595 119.159 191.968C118.775 192.331 118.583 192.816 118.583 193.424C118.583 194 118.765 194.453 119.127 194.784C119.49 195.104 119.97 195.344 120.567 195.504V191.376ZM121.335 201.264C121.57 201.253 121.81 201.211 122.055 201.136C122.311 201.051 122.541 200.923 122.743 200.752C122.946 200.581 123.111 200.363 123.239 200.096C123.367 199.819 123.431 199.483 123.431 199.088C123.431 198.544 123.234 198.085 122.839 197.712C122.445 197.339 121.943 197.056 121.335 196.864V201.264ZM120.567 196.672C120.205 196.565 119.837 196.432 119.463 196.272C119.101 196.112 118.77 195.909 118.471 195.664C118.183 195.419 117.943 195.125 117.751 194.784C117.57 194.432 117.479 194.011 117.479 193.52C117.479 193.061 117.559 192.651 117.719 192.288C117.89 191.915 118.114 191.6 118.391 191.344C118.679 191.077 119.01 190.875 119.383 190.736C119.757 190.587 120.151 190.501 120.567 190.48V189.328H121.335V190.48C121.591 190.491 121.853 190.523 122.119 190.576C122.397 190.629 122.663 190.709 122.919 190.816C123.186 190.923 123.437 191.056 123.671 191.216C123.906 191.376 124.114 191.563 124.295 191.776L123.415 192.448C123.17 192.096 122.855 191.835 122.471 191.664C122.098 191.483 121.719 191.387 121.335 191.376V195.776C121.741 195.915 122.135 196.075 122.519 196.256C122.914 196.427 123.261 196.645 123.559 196.912C123.869 197.168 124.114 197.477 124.295 197.84C124.487 198.203 124.583 198.645 124.583 199.168C124.583 199.616 124.498 200.027 124.327 200.4C124.167 200.763 123.938 201.077 123.639 201.344C123.351 201.6 123.01 201.803 122.615 201.952C122.221 202.101 121.794 202.181 121.335 202.192V203.344H120.567V202.192C119.842 202.171 119.191 202.005 118.615 201.696C118.05 201.387 117.575 200.987 117.191 200.496L118.103 199.856C118.242 200.101 118.418 200.309 118.631 200.48C118.845 200.651 119.063 200.795 119.287 200.912C119.522 201.029 119.751 201.12 119.975 201.184C120.199 201.237 120.397 201.264 120.567 201.264V196.672ZM131.769 196C132.387 196.181 132.899 196.539 133.305 197.072C133.71 197.605 133.913 198.256 133.913 199.024C133.913 199.525 133.811 199.979 133.609 200.384C133.417 200.779 133.155 201.12 132.825 201.408C132.494 201.685 132.105 201.899 131.657 202.048C131.219 202.208 130.761 202.288 130.281 202.288C129.801 202.288 129.337 202.208 128.889 202.048C128.451 201.899 128.067 201.685 127.737 201.408C127.406 201.12 127.139 200.779 126.937 200.384C126.745 199.979 126.649 199.525 126.649 199.024C126.649 198.64 126.702 198.288 126.809 197.968C126.915 197.637 127.065 197.344 127.257 197.088C127.449 196.821 127.673 196.597 127.929 196.416C128.195 196.235 128.483 196.096 128.793 196V195.968C128.537 195.883 128.302 195.76 128.089 195.6C127.886 195.429 127.71 195.232 127.561 195.008C127.411 194.773 127.294 194.523 127.209 194.256C127.123 193.979 127.081 193.696 127.081 193.408C127.081 192.949 127.166 192.533 127.337 192.16C127.507 191.787 127.737 191.472 128.025 191.216C128.323 190.949 128.665 190.747 129.049 190.608C129.433 190.459 129.843 190.384 130.281 190.384C130.707 190.384 131.113 190.459 131.497 190.608C131.891 190.747 132.233 190.949 132.521 191.216C132.819 191.472 133.054 191.787 133.225 192.16C133.395 192.533 133.481 192.949 133.481 193.408C133.481 193.696 133.438 193.979 133.353 194.256C133.267 194.523 133.15 194.773 133.001 195.008C132.851 195.232 132.67 195.429 132.457 195.6C132.254 195.76 132.025 195.883 131.769 195.968V196ZM128.201 193.472C128.201 193.771 128.254 194.043 128.361 194.288C128.467 194.533 128.617 194.747 128.809 194.928C129.001 195.109 129.219 195.253 129.465 195.36C129.721 195.456 129.993 195.504 130.281 195.504C130.569 195.504 130.835 195.456 131.081 195.36C131.337 195.253 131.561 195.109 131.753 194.928C131.945 194.747 132.094 194.533 132.201 194.288C132.307 194.043 132.361 193.771 132.361 193.472C132.361 193.173 132.307 192.896 132.201 192.64C132.094 192.373 131.945 192.149 131.753 191.968C131.571 191.776 131.353 191.627 131.097 191.52C130.851 191.413 130.579 191.36 130.281 191.36C129.982 191.36 129.705 191.413 129.449 191.52C129.203 191.627 128.985 191.776 128.793 191.968C128.611 192.149 128.467 192.373 128.361 192.64C128.254 192.896 128.201 193.173 128.201 193.472ZM127.801 198.896C127.801 199.237 127.859 199.557 127.977 199.856C128.094 200.155 128.259 200.411 128.473 200.624C128.697 200.837 128.958 201.008 129.257 201.136C129.566 201.253 129.907 201.312 130.281 201.312C130.654 201.312 130.99 201.253 131.289 201.136C131.598 201.008 131.859 200.837 132.073 200.624C132.297 200.411 132.467 200.155 132.585 199.856C132.702 199.557 132.761 199.237 132.761 198.896C132.761 198.555 132.702 198.24 132.585 197.952C132.467 197.664 132.297 197.413 132.073 197.2C131.859 196.987 131.598 196.821 131.289 196.704C130.99 196.587 130.654 196.528 130.281 196.528C129.907 196.528 129.566 196.587 129.257 196.704C128.958 196.821 128.697 196.987 128.473 197.2C128.259 197.413 128.094 197.664 127.977 197.952C127.859 198.24 127.801 198.555 127.801 198.896ZM139.562 190.384C140.266 190.384 140.853 190.56 141.322 190.912C141.802 191.253 142.186 191.707 142.474 192.272C142.762 192.827 142.965 193.461 143.082 194.176C143.21 194.891 143.274 195.616 143.274 196.352C143.274 197.088 143.21 197.813 143.082 198.528C142.965 199.232 142.762 199.867 142.474 200.432C142.186 200.987 141.802 201.435 141.322 201.776C140.853 202.117 140.266 202.288 139.562 202.288C138.847 202.288 138.25 202.117 137.77 201.776C137.301 201.435 136.922 200.987 136.634 200.432C136.346 199.867 136.143 199.232 136.026 198.528C135.909 197.813 135.85 197.088 135.85 196.352C135.85 195.616 135.909 194.891 136.026 194.176C136.143 193.461 136.346 192.827 136.634 192.272C136.922 191.707 137.301 191.253 137.77 190.912C138.25 190.56 138.847 190.384 139.562 190.384ZM139.562 191.36C139.061 191.36 138.645 191.515 138.314 191.824C137.983 192.133 137.722 192.528 137.53 193.008C137.338 193.488 137.205 194.027 137.13 194.624C137.055 195.211 137.018 195.787 137.018 196.352C137.018 196.917 137.055 197.493 137.13 198.08C137.205 198.667 137.338 199.2 137.53 199.68C137.722 200.149 137.983 200.539 138.314 200.848C138.645 201.147 139.061 201.296 139.562 201.296C140.053 201.296 140.463 201.147 140.794 200.848C141.125 200.539 141.386 200.149 141.578 199.68C141.77 199.2 141.903 198.667 141.978 198.08C142.063 197.493 142.106 196.917 142.106 196.352C142.106 195.787 142.063 195.211 141.978 194.624C141.903 194.027 141.77 193.488 141.578 193.008C141.386 192.528 141.125 192.133 140.794 191.824C140.463 191.515 140.053 191.36 139.562 191.36ZM148.843 190.384C149.547 190.384 150.134 190.56 150.603 190.912C151.083 191.253 151.467 191.707 151.755 192.272C152.043 192.827 152.246 193.461 152.363 194.176C152.491 194.891 152.555 195.616 152.555 196.352C152.555 197.088 152.491 197.813 152.363 198.528C152.246 199.232 152.043 199.867 151.755 200.432C151.467 200.987 151.083 201.435 150.603 201.776C150.134 202.117 149.547 202.288 148.843 202.288C148.128 202.288 147.531 202.117 147.051 201.776C146.582 201.435 146.203 200.987 145.915 200.432C145.627 199.867 145.424 199.232 145.307 198.528C145.19 197.813 145.131 197.088 145.131 196.352C145.131 195.616 145.19 194.891 145.307 194.176C145.424 193.461 145.627 192.827 145.915 192.272C146.203 191.707 146.582 191.253 147.051 190.912C147.531 190.56 148.128 190.384 148.843 190.384ZM148.843 191.36C148.342 191.36 147.926 191.515 147.595 191.824C147.264 192.133 147.003 192.528 146.811 193.008C146.619 193.488 146.486 194.027 146.411 194.624C146.336 195.211 146.299 195.787 146.299 196.352C146.299 196.917 146.336 197.493 146.411 198.08C146.486 198.667 146.619 199.2 146.811 199.68C147.003 200.149 147.264 200.539 147.595 200.848C147.926 201.147 148.342 201.296 148.843 201.296C149.334 201.296 149.744 201.147 150.075 200.848C150.406 200.539 150.667 200.149 150.859 199.68C151.051 199.2 151.184 198.667 151.259 198.08C151.344 197.493 151.387 196.917 151.387 196.352C151.387 195.787 151.344 195.211 151.259 194.624C151.184 194.027 151.051 193.488 150.859 193.008C150.667 192.528 150.406 192.133 150.075 191.824C149.744 191.515 149.334 191.36 148.843 191.36ZM156.044 197.888H156.092L159.548 194.512H161.116L157.34 197.936L161.5 202H159.9L156.092 198.064H156.044V202H154.956V189.904H156.044V197.888Z" fill="black"/>
<path d="M197.9 165.704C197.414 165.723 197.004 165.895 196.668 166.222C196.332 166.539 196.164 166.964 196.164 167.496C196.164 168 196.322 168.397 196.64 168.686C196.957 168.966 197.377 169.176 197.9 169.316V165.704ZM198.572 174.356C198.777 174.347 198.987 174.309 199.202 174.244C199.426 174.169 199.626 174.057 199.804 173.908C199.981 173.759 200.126 173.567 200.238 173.334C200.35 173.091 200.406 172.797 200.406 172.452C200.406 171.976 200.233 171.575 199.888 171.248C199.542 170.921 199.104 170.674 198.572 170.506V174.356ZM197.9 170.338C197.582 170.245 197.26 170.128 196.934 169.988C196.616 169.848 196.327 169.671 196.066 169.456C195.814 169.241 195.604 168.985 195.436 168.686C195.277 168.378 195.198 168.009 195.198 167.58C195.198 167.179 195.268 166.819 195.408 166.502C195.557 166.175 195.753 165.9 195.996 165.676C196.248 165.443 196.537 165.265 196.864 165.144C197.19 165.013 197.536 164.939 197.9 164.92V163.912H198.572V164.92C198.796 164.929 199.024 164.957 199.258 165.004C199.5 165.051 199.734 165.121 199.958 165.214C200.191 165.307 200.41 165.424 200.616 165.564C200.821 165.704 201.003 165.867 201.162 166.054L200.392 166.642C200.177 166.334 199.902 166.105 199.566 165.956C199.239 165.797 198.908 165.713 198.572 165.704V169.554C198.926 169.675 199.272 169.815 199.608 169.974C199.953 170.123 200.256 170.315 200.518 170.548C200.788 170.772 201.003 171.043 201.162 171.36C201.33 171.677 201.414 172.065 201.414 172.522C201.414 172.914 201.339 173.273 201.19 173.6C201.05 173.917 200.849 174.193 200.588 174.426C200.336 174.65 200.037 174.827 199.692 174.958C199.346 175.089 198.973 175.159 198.572 175.168V176.176H197.9V175.168C197.265 175.149 196.696 175.005 196.192 174.734C195.697 174.463 195.282 174.113 194.946 173.684L195.744 173.124C195.865 173.339 196.019 173.521 196.206 173.67C196.392 173.819 196.584 173.945 196.78 174.048C196.985 174.151 197.186 174.23 197.382 174.286C197.578 174.333 197.75 174.356 197.9 174.356V170.338ZM208.443 171.724H209.899V172.606H208.443V175H207.463V172.606H202.927V171.626L207.127 165.088H208.443V171.724ZM207.463 166.222H207.435L203.977 171.724H207.463V166.222ZM214.52 164.836C215.136 164.836 215.649 164.99 216.06 165.298C216.48 165.597 216.816 165.993 217.068 166.488C217.32 166.973 217.497 167.529 217.6 168.154C217.712 168.779 217.768 169.414 217.768 170.058C217.768 170.702 217.712 171.337 217.6 171.962C217.497 172.578 217.32 173.133 217.068 173.628C216.816 174.113 216.48 174.505 216.06 174.804C215.649 175.103 215.136 175.252 214.52 175.252C213.895 175.252 213.372 175.103 212.952 174.804C212.541 174.505 212.21 174.113 211.958 173.628C211.706 173.133 211.529 172.578 211.426 171.962C211.323 171.337 211.272 170.702 211.272 170.058C211.272 169.414 211.323 168.779 211.426 168.154C211.529 167.529 211.706 166.973 211.958 166.488C212.21 165.993 212.541 165.597 212.952 165.298C213.372 164.99 213.895 164.836 214.52 164.836ZM214.52 165.69C214.081 165.69 213.717 165.825 213.428 166.096C213.139 166.367 212.91 166.712 212.742 167.132C212.574 167.552 212.457 168.023 212.392 168.546C212.327 169.059 212.294 169.563 212.294 170.058C212.294 170.553 212.327 171.057 212.392 171.57C212.457 172.083 212.574 172.55 212.742 172.97C212.91 173.381 213.139 173.721 213.428 173.992C213.717 174.253 214.081 174.384 214.52 174.384C214.949 174.384 215.309 174.253 215.598 173.992C215.887 173.721 216.116 173.381 216.284 172.97C216.452 172.55 216.569 172.083 216.634 171.57C216.709 171.057 216.746 170.553 216.746 170.058C216.746 169.563 216.709 169.059 216.634 168.546C216.569 168.023 216.452 167.552 216.284 167.132C216.116 166.712 215.887 166.367 215.598 166.096C215.309 165.825 214.949 165.69 214.52 165.69ZM220.821 171.402H220.863L223.887 168.448H225.259L221.955 171.444L225.595 175H224.195L220.863 171.556H220.821V175H219.869V164.416H220.821V171.402ZM231.444 175H230.492V168.448H231.444V175ZM231.64 165.928C231.64 166.124 231.57 166.287 231.43 166.418C231.29 166.539 231.136 166.6 230.968 166.6C230.8 166.6 230.646 166.539 230.506 166.418C230.366 166.287 230.296 166.124 230.296 165.928C230.296 165.732 230.366 165.573 230.506 165.452C230.646 165.321 230.8 165.256 230.968 165.256C231.136 165.256 231.29 165.321 231.43 165.452C231.57 165.573 231.64 165.732 231.64 165.928ZM234.832 168.448C234.85 168.625 234.864 168.821 234.874 169.036C234.883 169.251 234.888 169.428 234.888 169.568H234.916C235.102 169.185 235.406 168.877 235.826 168.644C236.246 168.401 236.689 168.28 237.156 168.28C237.986 168.28 238.607 168.527 239.018 169.022C239.438 169.517 239.648 170.17 239.648 170.982V175H238.696V171.374C238.696 171.029 238.668 170.716 238.612 170.436C238.556 170.156 238.458 169.918 238.318 169.722C238.187 169.517 238.005 169.358 237.772 169.246C237.548 169.134 237.263 169.078 236.918 169.078C236.666 169.078 236.418 169.129 236.176 169.232C235.942 169.335 235.732 169.493 235.546 169.708C235.359 169.913 235.21 170.179 235.098 170.506C234.986 170.823 234.93 171.201 234.93 171.64V175H233.978V169.89C233.978 169.713 233.973 169.484 233.964 169.204C233.954 168.924 233.94 168.672 233.922 168.448H234.832ZM245.067 169.246H243.219V173.068C243.219 173.311 243.242 173.511 243.289 173.67C243.335 173.829 243.401 173.955 243.485 174.048C243.578 174.132 243.685 174.193 243.807 174.23C243.928 174.258 244.059 174.272 244.199 174.272C244.329 174.272 244.465 174.253 244.605 174.216C244.754 174.179 244.894 174.127 245.025 174.062L245.067 174.888C244.899 174.953 244.721 175 244.535 175.028C244.357 175.065 244.161 175.084 243.947 175.084C243.769 175.084 243.583 175.061 243.387 175.014C243.191 174.967 243.009 174.879 242.841 174.748C242.673 174.617 242.533 174.44 242.421 174.216C242.318 173.992 242.267 173.698 242.267 173.334V169.246H240.909V168.448H242.267V166.6H243.219V168.448H245.067V169.246ZM251.554 171.22C251.526 170.604 251.325 170.095 250.952 169.694C250.588 169.283 250.065 169.078 249.384 169.078C249.067 169.078 248.773 169.139 248.502 169.26C248.231 169.372 247.993 169.531 247.788 169.736C247.583 169.932 247.419 170.161 247.298 170.422C247.177 170.674 247.107 170.94 247.088 171.22H251.554ZM252.52 171.528C252.52 171.593 252.52 171.663 252.52 171.738C252.52 171.813 252.515 171.892 252.506 171.976H247.074C247.083 172.303 247.149 172.611 247.27 172.9C247.391 173.189 247.559 173.441 247.774 173.656C247.989 173.871 248.241 174.043 248.53 174.174C248.819 174.295 249.132 174.356 249.468 174.356C249.963 174.356 250.387 174.244 250.742 174.02C251.106 173.787 251.381 173.521 251.568 173.222L252.282 173.782C251.89 174.277 251.456 174.631 250.98 174.846C250.513 175.061 250.009 175.168 249.468 175.168C248.983 175.168 248.53 175.084 248.11 174.916C247.699 174.739 247.345 174.496 247.046 174.188C246.747 173.88 246.509 173.516 246.332 173.096C246.164 172.676 246.08 172.219 246.08 171.724C246.08 171.229 246.164 170.772 246.332 170.352C246.5 169.932 246.733 169.568 247.032 169.26C247.331 168.952 247.681 168.714 248.082 168.546C248.483 168.369 248.917 168.28 249.384 168.28C249.897 168.28 250.35 168.369 250.742 168.546C251.134 168.714 251.461 168.947 251.722 169.246C251.983 169.535 252.179 169.876 252.31 170.268C252.45 170.66 252.52 171.08 252.52 171.528ZM254.568 169.89C254.568 169.713 254.563 169.484 254.554 169.204C254.544 168.924 254.53 168.672 254.512 168.448H255.422C255.44 168.625 255.454 168.821 255.464 169.036C255.473 169.251 255.478 169.428 255.478 169.568H255.506C255.692 169.185 255.972 168.877 256.346 168.644C256.719 168.401 257.139 168.28 257.606 168.28C257.727 168.28 257.834 168.285 257.928 168.294C258.03 168.303 258.133 168.322 258.236 168.35L258.11 169.246C258.054 169.227 257.96 169.209 257.83 169.19C257.699 169.171 257.568 169.162 257.438 169.162C257.186 169.162 256.943 169.209 256.71 169.302C256.476 169.395 256.271 169.545 256.094 169.75C255.926 169.946 255.786 170.203 255.674 170.52C255.571 170.828 255.52 171.201 255.52 171.64V175H254.568V169.89ZM264.364 171.22C264.336 170.604 264.136 170.095 263.762 169.694C263.398 169.283 262.876 169.078 262.194 169.078C261.877 169.078 261.583 169.139 261.312 169.26C261.042 169.372 260.804 169.531 260.598 169.736C260.393 169.932 260.23 170.161 260.108 170.422C259.987 170.674 259.917 170.94 259.898 171.22H264.364ZM265.33 171.528C265.33 171.593 265.33 171.663 265.33 171.738C265.33 171.813 265.326 171.892 265.316 171.976H259.884C259.894 172.303 259.959 172.611 260.08 172.9C260.202 173.189 260.37 173.441 260.584 173.656C260.799 173.871 261.051 174.043 261.34 174.174C261.63 174.295 261.942 174.356 262.278 174.356C262.773 174.356 263.198 174.244 263.552 174.02C263.916 173.787 264.192 173.521 264.378 173.222L265.092 173.782C264.7 174.277 264.266 174.631 263.79 174.846C263.324 175.061 262.82 175.168 262.278 175.168C261.793 175.168 261.34 175.084 260.92 174.916C260.51 174.739 260.155 174.496 259.856 174.188C259.558 173.88 259.32 173.516 259.142 173.096C258.974 172.676 258.89 172.219 258.89 171.724C258.89 171.229 258.974 170.772 259.142 170.352C259.31 169.932 259.544 169.568 259.842 169.26C260.141 168.952 260.491 168.714 260.892 168.546C261.294 168.369 261.728 168.28 262.194 168.28C262.708 168.28 263.16 168.369 263.552 168.546C263.944 168.714 264.271 168.947 264.532 169.246C264.794 169.535 264.99 169.876 265.12 170.268C265.26 170.66 265.33 171.08 265.33 171.528ZM270.864 170.002C270.724 169.731 270.509 169.512 270.22 169.344C269.94 169.167 269.618 169.078 269.254 169.078C269.086 169.078 268.918 169.097 268.75 169.134C268.582 169.171 268.433 169.232 268.302 169.316C268.171 169.4 268.064 169.507 267.98 169.638C267.905 169.769 267.868 169.923 267.868 170.1C267.868 170.408 267.994 170.646 268.246 170.814C268.498 170.973 268.895 171.108 269.436 171.22C270.211 171.379 270.78 171.612 271.144 171.92C271.517 172.219 271.704 172.625 271.704 173.138C271.704 173.511 271.629 173.829 271.48 174.09C271.34 174.342 271.153 174.552 270.92 174.72C270.687 174.879 270.421 174.991 270.122 175.056C269.833 175.131 269.539 175.168 269.24 175.168C268.745 175.168 268.265 175.065 267.798 174.86C267.331 174.655 266.949 174.333 266.65 173.894L267.406 173.334C267.574 173.623 267.821 173.866 268.148 174.062C268.475 174.258 268.834 174.356 269.226 174.356C269.431 174.356 269.627 174.337 269.814 174.3C270.001 174.263 270.164 174.197 270.304 174.104C270.444 174.011 270.556 173.894 270.64 173.754C270.724 173.605 270.766 173.423 270.766 173.208C270.766 172.863 270.598 172.606 270.262 172.438C269.935 172.261 269.459 172.097 268.834 171.948C268.638 171.901 268.428 171.845 268.204 171.78C267.989 171.705 267.789 171.603 267.602 171.472C267.415 171.332 267.261 171.159 267.14 170.954C267.019 170.749 266.958 170.492 266.958 170.184C266.958 169.848 267.023 169.563 267.154 169.33C267.285 169.087 267.457 168.891 267.672 168.742C267.896 168.583 268.148 168.467 268.428 168.392C268.708 168.317 268.997 168.28 269.296 168.28C269.753 168.28 270.197 168.383 270.626 168.588C271.055 168.793 271.377 169.083 271.592 169.456L270.864 170.002ZM276.553 169.246H274.705V173.068C274.705 173.311 274.728 173.511 274.775 173.67C274.822 173.829 274.887 173.955 274.971 174.048C275.064 174.132 275.172 174.193 275.293 174.23C275.414 174.258 275.545 174.272 275.685 174.272C275.816 174.272 275.951 174.253 276.091 174.216C276.24 174.179 276.38 174.127 276.511 174.062L276.553 174.888C276.385 174.953 276.208 175 276.021 175.028C275.844 175.065 275.648 175.084 275.433 175.084C275.256 175.084 275.069 175.061 274.873 175.014C274.677 174.967 274.495 174.879 274.327 174.748C274.159 174.617 274.019 174.44 273.907 174.216C273.804 173.992 273.753 173.698 273.753 173.334V169.246H272.395V168.448H273.753V166.6H274.705V168.448H276.553V169.246ZM211.224 189.984H207.094L207.024 193.05C207.239 192.975 207.463 192.919 207.696 192.882C207.939 192.845 208.172 192.826 208.396 192.826C208.863 192.826 209.292 192.901 209.684 193.05C210.076 193.199 210.417 193.414 210.706 193.694C210.996 193.965 211.22 194.291 211.378 194.674C211.537 195.057 211.616 195.477 211.616 195.934C211.616 196.41 211.537 196.853 211.378 197.264C211.22 197.665 210.996 198.015 210.706 198.314C210.417 198.603 210.067 198.832 209.656 199C209.255 199.168 208.812 199.252 208.326 199.252C207.608 199.252 207.001 199.089 206.506 198.762C206.012 198.435 205.629 197.997 205.358 197.446L206.268 197.04C206.446 197.451 206.712 197.777 207.066 198.02C207.43 198.263 207.832 198.384 208.27 198.384C208.606 198.384 208.914 198.328 209.194 198.216C209.484 198.095 209.731 197.931 209.936 197.726C210.142 197.511 210.3 197.259 210.412 196.97C210.534 196.681 210.594 196.368 210.594 196.032C210.594 195.668 210.529 195.341 210.398 195.052C210.277 194.753 210.104 194.501 209.88 194.296C209.666 194.091 209.409 193.932 209.11 193.82C208.812 193.708 208.485 193.652 208.13 193.652C207.776 193.652 207.421 193.703 207.066 193.806C206.721 193.899 206.39 194.03 206.072 194.198L206.17 189.088H211.224V189.984ZM218.155 191.37C218.155 191.715 218.09 192.037 217.959 192.336C217.838 192.635 217.665 192.896 217.441 193.12C217.217 193.335 216.956 193.507 216.657 193.638C216.359 193.759 216.037 193.82 215.691 193.82C215.346 193.82 215.024 193.759 214.725 193.638C214.427 193.507 214.165 193.335 213.941 193.12C213.717 192.896 213.54 192.635 213.409 192.336C213.288 192.037 213.227 191.715 213.227 191.37C213.227 191.025 213.288 190.703 213.409 190.404C213.54 190.105 213.717 189.849 213.941 189.634C214.165 189.41 214.427 189.237 214.725 189.116C215.024 188.985 215.346 188.92 215.691 188.92C216.037 188.92 216.359 188.985 216.657 189.116C216.956 189.237 217.217 189.41 217.441 189.634C217.665 189.849 217.838 190.105 217.959 190.404C218.09 190.703 218.155 191.025 218.155 191.37ZM217.315 191.37C217.315 191.137 217.269 190.922 217.175 190.726C217.091 190.53 216.975 190.362 216.825 190.222C216.685 190.073 216.517 189.961 216.321 189.886C216.125 189.802 215.915 189.76 215.691 189.76C215.467 189.76 215.257 189.802 215.061 189.886C214.865 189.961 214.693 190.073 214.543 190.222C214.403 190.362 214.287 190.53 214.193 190.726C214.109 190.922 214.067 191.137 214.067 191.37C214.067 191.603 214.109 191.818 214.193 192.014C214.287 192.21 214.403 192.383 214.543 192.532C214.693 192.672 214.865 192.784 215.061 192.868C215.257 192.943 215.467 192.98 215.691 192.98C215.915 192.98 216.125 192.943 216.321 192.868C216.517 192.784 216.685 192.672 216.825 192.532C216.975 192.383 217.091 192.21 217.175 192.014C217.269 191.818 217.315 191.603 217.315 191.37ZM223.825 196.718C223.825 197.063 223.76 197.385 223.629 197.684C223.508 197.983 223.335 198.244 223.111 198.468C222.887 198.683 222.626 198.855 222.327 198.986C222.029 199.107 221.707 199.168 221.361 199.168C221.016 199.168 220.694 199.107 220.395 198.986C220.097 198.855 219.835 198.683 219.611 198.468C219.387 198.244 219.21 197.983 219.079 197.684C218.958 197.385 218.897 197.063 218.897 196.718C218.897 196.373 218.958 196.051 219.079 195.752C219.21 195.453 219.387 195.197 219.611 194.982C219.835 194.758 220.097 194.585 220.395 194.464C220.694 194.333 221.016 194.268 221.361 194.268C221.707 194.268 222.029 194.333 222.327 194.464C222.626 194.585 222.887 194.758 223.111 194.982C223.335 195.197 223.508 195.453 223.629 195.752C223.76 196.051 223.825 196.373 223.825 196.718ZM222.985 196.718C222.985 196.485 222.939 196.27 222.845 196.074C222.761 195.878 222.645 195.71 222.495 195.57C222.355 195.421 222.187 195.309 221.991 195.234C221.795 195.15 221.585 195.108 221.361 195.108C221.137 195.108 220.927 195.15 220.731 195.234C220.535 195.309 220.363 195.421 220.213 195.57C220.073 195.71 219.957 195.878 219.863 196.074C219.779 196.27 219.737 196.485 219.737 196.718C219.737 196.951 219.779 197.166 219.863 197.362C219.957 197.558 220.073 197.731 220.213 197.88C220.363 198.02 220.535 198.132 220.731 198.216C220.927 198.291 221.137 198.328 221.361 198.328C221.585 198.328 221.795 198.291 221.991 198.216C222.187 198.132 222.355 198.02 222.495 197.88C222.645 197.731 222.761 197.558 222.845 197.362C222.939 197.166 222.985 196.951 222.985 196.718ZM215.733 199.434L215.005 199.056L221.319 188.654L222.033 189.032L215.733 199.434ZM229.117 193.89C229.117 193.713 229.113 193.484 229.103 193.204C229.094 192.924 229.08 192.672 229.061 192.448H229.971C229.99 192.625 230.004 192.821 230.013 193.036C230.023 193.251 230.027 193.428 230.027 193.568H230.055C230.242 193.185 230.522 192.877 230.895 192.644C231.269 192.401 231.689 192.28 232.155 192.28C232.277 192.28 232.384 192.285 232.477 192.294C232.58 192.303 232.683 192.322 232.785 192.35L232.659 193.246C232.603 193.227 232.51 193.209 232.379 193.19C232.249 193.171 232.118 193.162 231.987 193.162C231.735 193.162 231.493 193.209 231.259 193.302C231.026 193.395 230.821 193.545 230.643 193.75C230.475 193.946 230.335 194.203 230.223 194.52C230.121 194.828 230.069 195.201 230.069 195.64V199H229.117V193.89ZM238.914 195.22C238.886 194.604 238.686 194.095 238.312 193.694C237.948 193.283 237.426 193.078 236.744 193.078C236.427 193.078 236.133 193.139 235.862 193.26C235.592 193.372 235.354 193.531 235.148 193.736C234.943 193.932 234.78 194.161 234.658 194.422C234.537 194.674 234.467 194.94 234.448 195.22H238.914ZM239.88 195.528C239.88 195.593 239.88 195.663 239.88 195.738C239.88 195.813 239.876 195.892 239.866 195.976H234.434C234.444 196.303 234.509 196.611 234.63 196.9C234.752 197.189 234.92 197.441 235.134 197.656C235.349 197.871 235.601 198.043 235.89 198.174C236.18 198.295 236.492 198.356 236.828 198.356C237.323 198.356 237.748 198.244 238.102 198.02C238.466 197.787 238.742 197.521 238.928 197.222L239.642 197.782C239.25 198.277 238.816 198.631 238.34 198.846C237.874 199.061 237.37 199.168 236.828 199.168C236.343 199.168 235.89 199.084 235.47 198.916C235.06 198.739 234.705 198.496 234.406 198.188C234.108 197.88 233.87 197.516 233.692 197.096C233.524 196.676 233.44 196.219 233.44 195.724C233.44 195.229 233.524 194.772 233.692 194.352C233.86 193.932 234.094 193.568 234.392 193.26C234.691 192.952 235.041 192.714 235.442 192.546C235.844 192.369 236.278 192.28 236.744 192.28C237.258 192.28 237.71 192.369 238.102 192.546C238.494 192.714 238.821 192.947 239.082 193.246C239.344 193.535 239.54 193.876 239.67 194.268C239.81 194.66 239.88 195.08 239.88 195.528ZM244.882 193.246H243.034V197.068C243.034 197.311 243.057 197.511 243.104 197.67C243.151 197.829 243.216 197.955 243.3 198.048C243.393 198.132 243.501 198.193 243.622 198.23C243.743 198.258 243.874 198.272 244.014 198.272C244.145 198.272 244.28 198.253 244.42 198.216C244.569 198.179 244.709 198.127 244.84 198.062L244.882 198.888C244.714 198.953 244.537 199 244.35 199.028C244.173 199.065 243.977 199.084 243.762 199.084C243.585 199.084 243.398 199.061 243.202 199.014C243.006 198.967 242.824 198.879 242.656 198.748C242.488 198.617 242.348 198.44 242.236 198.216C242.133 197.992 242.082 197.698 242.082 197.334V193.246H240.724V192.448H242.082V190.6H243.034V192.448H244.882V193.246ZM251.131 199C251.113 198.823 251.099 198.627 251.089 198.412C251.08 198.197 251.075 198.02 251.075 197.88H251.047C250.861 198.263 250.557 198.575 250.137 198.818C249.717 199.051 249.274 199.168 248.807 199.168C247.977 199.168 247.351 198.921 246.931 198.426C246.521 197.931 246.315 197.278 246.315 196.466V192.448H247.267V196.074C247.267 196.419 247.295 196.732 247.351 197.012C247.407 197.292 247.501 197.535 247.631 197.74C247.771 197.936 247.953 198.09 248.177 198.202C248.411 198.314 248.7 198.37 249.045 198.37C249.297 198.37 249.54 198.319 249.773 198.216C250.016 198.113 250.231 197.959 250.417 197.754C250.604 197.539 250.753 197.273 250.865 196.956C250.977 196.629 251.033 196.247 251.033 195.808V192.448H251.985V197.558C251.985 197.735 251.99 197.964 251.999 198.244C252.009 198.524 252.023 198.776 252.041 199H251.131ZM254.506 193.89C254.506 193.713 254.501 193.484 254.492 193.204C254.483 192.924 254.469 192.672 254.45 192.448H255.36C255.379 192.625 255.393 192.821 255.402 193.036C255.411 193.251 255.416 193.428 255.416 193.568H255.444C255.631 193.185 255.911 192.877 256.284 192.644C256.657 192.401 257.077 192.28 257.544 192.28C257.665 192.28 257.773 192.285 257.866 192.294C257.969 192.303 258.071 192.322 258.174 192.35L258.048 193.246C257.992 193.227 257.899 193.209 257.768 193.19C257.637 193.171 257.507 193.162 257.376 193.162C257.124 193.162 256.881 193.209 256.648 193.302C256.415 193.395 256.209 193.545 256.032 193.75C255.864 193.946 255.724 194.203 255.612 194.52C255.509 194.828 255.458 195.201 255.458 195.64V199H254.506V193.89ZM260.405 192.448C260.424 192.625 260.438 192.821 260.447 193.036C260.456 193.251 260.461 193.428 260.461 193.568H260.489C260.676 193.185 260.979 192.877 261.399 192.644C261.819 192.401 262.262 192.28 262.729 192.28C263.56 192.28 264.18 192.527 264.591 193.022C265.011 193.517 265.221 194.17 265.221 194.982V199H264.269V195.374C264.269 195.029 264.241 194.716 264.185 194.436C264.129 194.156 264.031 193.918 263.891 193.722C263.76 193.517 263.578 193.358 263.345 193.246C263.121 193.134 262.836 193.078 262.491 193.078C262.239 193.078 261.992 193.129 261.749 193.232C261.516 193.335 261.306 193.493 261.119 193.708C260.932 193.913 260.783 194.179 260.671 194.506C260.559 194.823 260.503 195.201 260.503 195.64V199H259.551V193.89C259.551 193.713 259.546 193.484 259.537 193.204C259.528 192.924 259.514 192.672 259.495 192.448H260.405Z" fill="black"/>
<path d="M80.1631 21.674L80.1351 21.646C79.9858 21.758 79.7758 21.8467 79.5051 21.912C79.2344 21.9773 78.9731 22.01 78.7211 22.01C78.2918 22.01 77.8904 21.9353 77.5171 21.786C77.1531 21.6367 76.8358 21.4313 76.5651 21.17C76.2944 20.8993 76.0798 20.5773 75.9211 20.204C75.7718 19.8213 75.6971 19.406 75.6971 18.958C75.6971 18.5007 75.7764 18.0807 75.9351 17.698C76.0938 17.306 76.3178 16.9747 76.6071 16.704C76.8964 16.4333 77.2371 16.2233 77.6291 16.074C78.0211 15.9153 78.4504 15.836 78.9171 15.836C79.3838 15.836 79.8131 15.9153 80.2051 16.074C80.5971 16.2233 80.9378 16.4333 81.2271 16.704C81.5164 16.9747 81.7404 17.306 81.8991 17.698C82.0578 18.0807 82.1371 18.5007 82.1371 18.958C82.1371 19.4713 82.0484 19.9473 81.8711 20.386C81.6938 20.8247 81.4838 21.2447 81.2411 21.646L78.5391 26H77.3771L80.1631 21.674ZM81.1291 18.958C81.1291 18.6407 81.0731 18.342 80.9611 18.062C80.8584 17.782 80.7091 17.544 80.5131 17.348C80.3171 17.1427 80.0838 16.984 79.8131 16.872C79.5424 16.7507 79.2438 16.69 78.9171 16.69C78.5904 16.69 78.2918 16.7507 78.0211 16.872C77.7504 16.984 77.5171 17.1427 77.3211 17.348C77.1251 17.544 76.9711 17.782 76.8591 18.062C76.7564 18.342 76.7051 18.6407 76.7051 18.958C76.7051 19.2753 76.7564 19.574 76.8591 19.854C76.9618 20.1247 77.1064 20.3627 77.2931 20.568C77.4891 20.764 77.7224 20.918 77.9931 21.03C78.2731 21.142 78.5811 21.198 78.9171 21.198C79.2531 21.198 79.5564 21.142 79.8271 21.03C80.1071 20.918 80.3404 20.764 80.5271 20.568C80.7231 20.3627 80.8724 20.1247 80.9751 19.854C81.0778 19.574 81.1291 19.2753 81.1291 18.958ZM88.4102 18.37C88.4102 18.7153 88.3449 19.0373 88.2142 19.336C88.0929 19.6347 87.9202 19.896 87.6962 20.12C87.4722 20.3347 87.2109 20.5073 86.9122 20.638C86.6135 20.7593 86.2915 20.82 85.9462 20.82C85.6009 20.82 85.2789 20.7593 84.9802 20.638C84.6815 20.5073 84.4202 20.3347 84.1962 20.12C83.9722 19.896 83.7949 19.6347 83.6642 19.336C83.5429 19.0373 83.4822 18.7153 83.4822 18.37C83.4822 18.0247 83.5429 17.7027 83.6642 17.404C83.7949 17.1053 83.9722 16.8487 84.1962 16.634C84.4202 16.41 84.6815 16.2373 84.9802 16.116C85.2789 15.9853 85.6009 15.92 85.9462 15.92C86.2915 15.92 86.6135 15.9853 86.9122 16.116C87.2109 16.2373 87.4722 16.41 87.6962 16.634C87.9202 16.8487 88.0929 17.1053 88.2142 17.404C88.3449 17.7027 88.4102 18.0247 88.4102 18.37ZM87.5702 18.37C87.5702 18.1367 87.5235 17.922 87.4302 17.726C87.3462 17.53 87.2295 17.362 87.0802 17.222C86.9402 17.0727 86.7722 16.9607 86.5762 16.886C86.3802 16.802 86.1702 16.76 85.9462 16.76C85.7222 16.76 85.5122 16.802 85.3162 16.886C85.1202 16.9607 84.9475 17.0727 84.7982 17.222C84.6582 17.362 84.5415 17.53 84.4482 17.726C84.3642 17.922 84.3222 18.1367 84.3222 18.37C84.3222 18.6033 84.3642 18.818 84.4482 19.014C84.5415 19.21 84.6582 19.3827 84.7982 19.532C84.9475 19.672 85.1202 19.784 85.3162 19.868C85.5122 19.9427 85.7222 19.98 85.9462 19.98C86.1702 19.98 86.3802 19.9427 86.5762 19.868C86.7722 19.784 86.9402 19.672 87.0802 19.532C87.2295 19.3827 87.3462 19.21 87.4302 19.014C87.5235 18.818 87.5702 18.6033 87.5702 18.37ZM94.0802 23.718C94.0802 24.0633 94.0149 24.3853 93.8842 24.684C93.7629 24.9827 93.5902 25.244 93.3662 25.468C93.1422 25.6827 92.8809 25.8553 92.5822 25.986C92.2835 26.1073 91.9615 26.168 91.6162 26.168C91.2709 26.168 90.9489 26.1073 90.6502 25.986C90.3515 25.8553 90.0902 25.6827 89.8662 25.468C89.6422 25.244 89.4649 24.9827 89.3342 24.684C89.2129 24.3853 89.1522 24.0633 89.1522 23.718C89.1522 23.3727 89.2129 23.0507 89.3342 22.752C89.4649 22.4533 89.6422 22.1967 89.8662 21.982C90.0902 21.758 90.3515 21.5853 90.6502 21.464C90.9489 21.3333 91.2709 21.268 91.6162 21.268C91.9615 21.268 92.2835 21.3333 92.5822 21.464C92.8809 21.5853 93.1422 21.758 93.3662 21.982C93.5902 22.1967 93.7629 22.4533 93.8842 22.752C94.0149 23.0507 94.0802 23.3727 94.0802 23.718ZM93.2402 23.718C93.2402 23.4847 93.1935 23.27 93.1002 23.074C93.0162 22.878 92.8995 22.71 92.7502 22.57C92.6102 22.4207 92.4422 22.3087 92.2462 22.234C92.0502 22.15 91.8402 22.108 91.6162 22.108C91.3922 22.108 91.1822 22.15 90.9862 22.234C90.7902 22.3087 90.6175 22.4207 90.4682 22.57C90.3282 22.71 90.2115 22.878 90.1182 23.074C90.0342 23.27 89.9922 23.4847 89.9922 23.718C89.9922 23.9513 90.0342 24.166 90.1182 24.362C90.2115 24.558 90.3282 24.7307 90.4682 24.88C90.6175 25.02 90.7902 25.132 90.9862 25.216C91.1822 25.2907 91.3922 25.328 91.6162 25.328C91.8402 25.328 92.0502 25.2907 92.2462 25.216C92.4422 25.132 92.6102 25.02 92.7502 24.88C92.8995 24.7307 93.0162 24.558 93.1002 24.362C93.1935 24.166 93.2402 23.9513 93.2402 23.718ZM85.9882 26.434L85.2602 26.056L91.5742 15.654L92.2882 16.032L85.9882 26.434ZM99.1122 26H98.0062L102.29 16.088H103.27L107.526 26H106.406L105.314 23.396H100.19L99.1122 26ZM100.568 22.472H104.936L102.752 17.208L100.568 22.472ZM108.985 16.088H111.785C112.289 16.088 112.746 16.144 113.157 16.256C113.568 16.3587 113.918 16.522 114.207 16.746C114.506 16.9607 114.734 17.236 114.893 17.572C115.052 17.8987 115.131 18.286 115.131 18.734C115.131 19.182 115.047 19.574 114.879 19.91C114.72 20.2367 114.492 20.512 114.193 20.736C113.904 20.9507 113.549 21.114 113.129 21.226C112.718 21.338 112.261 21.394 111.757 21.394H109.993V26H108.985V16.088ZM109.993 20.54H111.701C112.494 20.54 113.096 20.386 113.507 20.078C113.918 19.77 114.123 19.322 114.123 18.734C114.123 18.118 113.908 17.67 113.479 17.39C113.059 17.1007 112.466 16.956 111.701 16.956H109.993V20.54ZM118.114 26H117.106V16.088H120.018C120.503 16.088 120.951 16.1347 121.362 16.228C121.782 16.3213 122.141 16.4753 122.44 16.69C122.748 16.8953 122.986 17.166 123.154 17.502C123.322 17.838 123.406 18.2487 123.406 18.734C123.406 19.098 123.341 19.4293 123.21 19.728C123.079 20.0267 122.902 20.288 122.678 20.512C122.454 20.7267 122.188 20.8993 121.88 21.03C121.572 21.1607 121.236 21.2447 120.872 21.282L123.77 26H122.538L119.794 21.366H118.114V26ZM118.114 20.498H119.864C120.676 20.498 121.301 20.3533 121.74 20.064C122.179 19.7653 122.398 19.322 122.398 18.734C122.398 18.4073 122.337 18.132 122.216 17.908C122.095 17.684 121.927 17.502 121.712 17.362C121.497 17.222 121.236 17.1193 120.928 17.054C120.62 16.9887 120.279 16.956 119.906 16.956H118.114V20.498ZM61.8998 40.704C61.4144 40.7227 61.0038 40.8953 60.6678 41.222C60.3318 41.5393 60.1638 41.964 60.1638 42.496C60.1638 43 60.3224 43.3967 60.6398 43.686C60.9571 43.966 61.3771 44.176 61.8998 44.316V40.704ZM62.5718 49.356C62.7771 49.3467 62.9871 49.3093 63.2018 49.244C63.4258 49.1693 63.6264 49.0573 63.8038 48.908C63.9811 48.7587 64.1258 48.5673 64.2378 48.334C64.3498 48.0913 64.4058 47.7973 64.4058 47.452C64.4058 46.976 64.2331 46.5747 63.8878 46.248C63.5424 45.9213 63.1038 45.674 62.5718 45.506V49.356ZM61.8998 45.338C61.5824 45.2447 61.2604 45.128 60.9338 44.988C60.6164 44.848 60.3271 44.6707 60.0658 44.456C59.8138 44.2413 59.6038 43.9847 59.4358 43.686C59.2771 43.378 59.1978 43.0093 59.1978 42.58C59.1978 42.1787 59.2678 41.8193 59.4078 41.502C59.5571 41.1753 59.7531 40.9 59.9958 40.676C60.2478 40.4427 60.5371 40.2653 60.8638 40.144C61.1904 40.0133 61.5358 39.9387 61.8998 39.92V38.912H62.5718V39.92C62.7958 39.9293 63.0244 39.9573 63.2578 40.004C63.5004 40.0507 63.7338 40.1207 63.9578 40.214C64.1911 40.3073 64.4104 40.424 64.6158 40.564C64.8211 40.704 65.0031 40.8673 65.1618 41.054L64.3918 41.642C64.1771 41.334 63.9018 41.1053 63.5658 40.956C63.2391 40.7973 62.9078 40.7133 62.5718 40.704V44.554C62.9264 44.6753 63.2718 44.8153 63.6078 44.974C63.9531 45.1233 64.2564 45.3147 64.5178 45.548C64.7884 45.772 65.0031 46.0427 65.1618 46.36C65.3298 46.6773 65.4138 47.0647 65.4138 47.522C65.4138 47.914 65.3391 48.2733 65.1898 48.6C65.0498 48.9173 64.8491 49.1927 64.5878 49.426C64.3358 49.65 64.0371 49.8273 63.6918 49.958C63.3464 50.0887 62.9731 50.1587 62.5718 50.168V51.176H61.8998V50.168C61.2651 50.1493 60.6958 50.0047 60.1918 49.734C59.6971 49.4633 59.2818 49.1133 58.9458 48.684L59.7438 48.124C59.8651 48.3387 60.0191 48.5207 60.2058 48.67C60.3924 48.8193 60.5838 48.9453 60.7798 49.048C60.9851 49.1507 61.1858 49.23 61.3818 49.286C61.5778 49.3327 61.7504 49.356 61.8998 49.356V45.338ZM71.6729 45.674L71.6449 45.646C71.4955 45.758 71.2855 45.8467 71.0149 45.912C70.7442 45.9773 70.4829 46.01 70.2309 46.01C69.8015 46.01 69.4002 45.9353 69.0269 45.786C68.6629 45.6367 68.3455 45.4313 68.0749 45.17C67.8042 44.8993 67.5895 44.5773 67.4309 44.204C67.2815 43.8213 67.2069 43.406 67.2069 42.958C67.2069 42.5007 67.2862 42.0807 67.4449 41.698C67.6035 41.306 67.8275 40.9747 68.1169 40.704C68.4062 40.4333 68.7469 40.2233 69.1389 40.074C69.5309 39.9153 69.9602 39.836 70.4269 39.836C70.8935 39.836 71.3229 39.9153 71.7149 40.074C72.1069 40.2233 72.4475 40.4333 72.7369 40.704C73.0262 40.9747 73.2502 41.306 73.4089 41.698C73.5675 42.0807 73.6469 42.5007 73.6469 42.958C73.6469 43.4713 73.5582 43.9473 73.3809 44.386C73.2035 44.8247 72.9935 45.2447 72.7509 45.646L70.0489 50H68.8869L71.6729 45.674ZM72.6389 42.958C72.6389 42.6407 72.5829 42.342 72.4709 42.062C72.3682 41.782 72.2189 41.544 72.0229 41.348C71.8269 41.1427 71.5935 40.984 71.3229 40.872C71.0522 40.7507 70.7535 40.69 70.4269 40.69C70.1002 40.69 69.8015 40.7507 69.5309 40.872C69.2602 40.984 69.0269 41.1427 68.8309 41.348C68.6349 41.544 68.4809 41.782 68.3689 42.062C68.2662 42.342 68.2149 42.6407 68.2149 42.958C68.2149 43.2753 68.2662 43.574 68.3689 43.854C68.4715 44.1247 68.6162 44.3627 68.8029 44.568C68.9989 44.764 69.2322 44.918 69.5029 45.03C69.7829 45.142 70.0909 45.198 70.4269 45.198C70.7629 45.198 71.0662 45.142 71.3369 45.03C71.6169 44.918 71.8502 44.764 72.0369 44.568C72.2329 44.3627 72.3822 44.1247 72.4849 43.854C72.5875 43.574 72.6389 43.2753 72.6389 42.958ZM78.52 39.836C79.136 39.836 79.6493 39.99 80.06 40.298C80.48 40.5967 80.816 40.9933 81.068 41.488C81.32 41.9733 81.4973 42.5287 81.6 43.154C81.712 43.7793 81.768 44.414 81.768 45.058C81.768 45.702 81.712 46.3367 81.6 46.962C81.4973 47.578 81.32 48.1333 81.068 48.628C80.816 49.1133 80.48 49.5053 80.06 49.804C79.6493 50.1027 79.136 50.252 78.52 50.252C77.8946 50.252 77.372 50.1027 76.952 49.804C76.5413 49.5053 76.21 49.1133 75.958 48.628C75.706 48.1333 75.5286 47.578 75.426 46.962C75.3233 46.3367 75.272 45.702 75.272 45.058C75.272 44.414 75.3233 43.7793 75.426 43.154C75.5286 42.5287 75.706 41.9733 75.958 41.488C76.21 40.9933 76.5413 40.5967 76.952 40.298C77.372 39.99 77.8946 39.836 78.52 39.836ZM78.52 40.69C78.0813 40.69 77.7173 40.8253 77.428 41.096C77.1386 41.3667 76.91 41.712 76.742 42.132C76.574 42.552 76.4573 43.0233 76.392 43.546C76.3266 44.0593 76.294 44.5633 76.294 45.058C76.294 45.5527 76.3266 46.0567 76.392 46.57C76.4573 47.0833 76.574 47.55 76.742 47.97C76.91 48.3807 77.1386 48.7213 77.428 48.992C77.7173 49.2533 78.0813 49.384 78.52 49.384C78.9493 49.384 79.3086 49.2533 79.598 48.992C79.8873 48.7213 80.116 48.3807 80.284 47.97C80.452 47.55 80.5686 47.0833 80.634 46.57C80.7086 46.0567 80.746 45.5527 80.746 45.058C80.746 44.5633 80.7086 44.0593 80.634 43.546C80.5686 43.0233 80.452 42.552 80.284 42.132C80.116 41.712 79.8873 41.3667 79.598 41.096C79.3086 40.8253 78.9493 40.69 78.52 40.69ZM84.8211 46.402H84.8631L87.8871 43.448H89.2591L85.9551 46.444L89.5951 50H88.1951L84.8631 46.556H84.8211V50H83.8691V39.416H84.8211V46.402ZM95.4438 50H94.4918V43.448H95.4438V50ZM95.6398 40.928C95.6398 41.124 95.5698 41.2873 95.4298 41.418C95.2898 41.5393 95.1358 41.6 94.9678 41.6C94.7998 41.6 94.6458 41.5393 94.5058 41.418C94.3658 41.2873 94.2958 41.124 94.2958 40.928C94.2958 40.732 94.3658 40.5733 94.5058 40.452C94.6458 40.3213 94.7998 40.256 94.9678 40.256C95.1358 40.256 95.2898 40.3213 95.4298 40.452C95.5698 40.5733 95.6398 40.732 95.6398 40.928ZM98.8318 43.448C98.8504 43.6253 98.8644 43.8213 98.8738 44.036C98.8831 44.2507 98.8878 44.428 98.8878 44.568H98.9158C99.1024 44.1853 99.4058 43.8773 99.8258 43.644C100.246 43.4013 100.689 43.28 101.156 43.28C101.986 43.28 102.607 43.5273 103.018 44.022C103.438 44.5167 103.648 45.17 103.648 45.982V50H102.696V46.374C102.696 46.0287 102.668 45.716 102.612 45.436C102.556 45.156 102.458 44.918 102.318 44.722C102.187 44.5167 102.005 44.358 101.772 44.246C101.548 44.134 101.263 44.078 100.918 44.078C100.666 44.078 100.418 44.1293 100.176 44.232C99.9424 44.3347 99.7324 44.4933 99.5458 44.708C99.3591 44.9133 99.2098 45.1793 99.0978 45.506C98.9858 45.8233 98.9298 46.2013 98.9298 46.64V50H97.9778V44.89C97.9778 44.7127 97.9731 44.484 97.9638 44.204C97.9544 43.924 97.9404 43.672 97.9218 43.448H98.8318ZM109.067 44.246H107.219V48.068C107.219 48.3107 107.242 48.5113 107.289 48.67C107.335 48.8287 107.401 48.9547 107.485 49.048C107.578 49.132 107.685 49.1927 107.807 49.23C107.928 49.258 108.059 49.272 108.199 49.272C108.329 49.272 108.465 49.2533 108.605 49.216C108.754 49.1787 108.894 49.1273 109.025 49.062L109.067 49.888C108.899 49.9533 108.721 50 108.535 50.028C108.357 50.0653 108.161 50.084 107.947 50.084C107.769 50.084 107.583 50.0607 107.387 50.014C107.191 49.9673 107.009 49.8787 106.841 49.748C106.673 49.6173 106.533 49.44 106.421 49.216C106.318 48.992 106.267 48.698 106.267 48.334V44.246H104.909V43.448H106.267V41.6H107.219V43.448H109.067V44.246ZM115.554 46.22C115.526 45.604 115.325 45.0953 114.952 44.694C114.588 44.2833 114.065 44.078 113.384 44.078C113.067 44.078 112.773 44.1387 112.502 44.26C112.231 44.372 111.993 44.5307 111.788 44.736C111.583 44.932 111.419 45.1607 111.298 45.422C111.177 45.674 111.107 45.94 111.088 46.22H115.554ZM116.52 46.528C116.52 46.5933 116.52 46.6633 116.52 46.738C116.52 46.8127 116.515 46.892 116.506 46.976H111.074C111.083 47.3027 111.149 47.6107 111.27 47.9C111.391 48.1893 111.559 48.4413 111.774 48.656C111.989 48.8707 112.241 49.0433 112.53 49.174C112.819 49.2953 113.132 49.356 113.468 49.356C113.963 49.356 114.387 49.244 114.742 49.02C115.106 48.7867 115.381 48.5207 115.568 48.222L116.282 48.782C115.89 49.2767 115.456 49.6313 114.98 49.846C114.513 50.0607 114.009 50.168 113.468 50.168C112.983 50.168 112.53 50.084 112.11 49.916C111.699 49.7387 111.345 49.496 111.046 49.188C110.747 48.88 110.509 48.516 110.332 48.096C110.164 47.676 110.08 47.2187 110.08 46.724C110.08 46.2293 110.164 45.772 110.332 45.352C110.5 44.932 110.733 44.568 111.032 44.26C111.331 43.952 111.681 43.714 112.082 43.546C112.483 43.3687 112.917 43.28 113.384 43.28C113.897 43.28 114.35 43.3687 114.742 43.546C115.134 43.714 115.461 43.9473 115.722 44.246C115.983 44.5353 116.179 44.876 116.31 45.268C116.45 45.66 116.52 46.08 116.52 46.528ZM118.568 44.89C118.568 44.7127 118.563 44.484 118.554 44.204C118.544 43.924 118.53 43.672 118.512 43.448H119.422C119.44 43.6253 119.454 43.8213 119.464 44.036C119.473 44.2507 119.478 44.428 119.478 44.568H119.506C119.692 44.1853 119.972 43.8773 120.346 43.644C120.719 43.4013 121.139 43.28 121.606 43.28C121.727 43.28 121.834 43.2847 121.928 43.294C122.03 43.3033 122.133 43.322 122.236 43.35L122.11 44.246C122.054 44.2273 121.96 44.2087 121.83 44.19C121.699 44.1713 121.568 44.162 121.438 44.162C121.186 44.162 120.943 44.2087 120.71 44.302C120.476 44.3953 120.271 44.5447 120.094 44.75C119.926 44.946 119.786 45.2027 119.674 45.52C119.571 45.828 119.52 46.2013 119.52 46.64V50H118.568V44.89ZM128.364 46.22C128.336 45.604 128.136 45.0953 127.762 44.694C127.398 44.2833 126.876 44.078 126.194 44.078C125.877 44.078 125.583 44.1387 125.312 44.26C125.042 44.372 124.804 44.5307 124.598 44.736C124.393 44.932 124.23 45.1607 124.108 45.422C123.987 45.674 123.917 45.94 123.898 46.22H128.364ZM129.33 46.528C129.33 46.5933 129.33 46.6633 129.33 46.738C129.33 46.8127 129.326 46.892 129.316 46.976H123.884C123.894 47.3027 123.959 47.6107 124.08 47.9C124.202 48.1893 124.37 48.4413 124.584 48.656C124.799 48.8707 125.051 49.0433 125.34 49.174C125.63 49.2953 125.942 49.356 126.278 49.356C126.773 49.356 127.198 49.244 127.552 49.02C127.916 48.7867 128.192 48.5207 128.378 48.222L129.092 48.782C128.7 49.2767 128.266 49.6313 127.79 49.846C127.324 50.0607 126.82 50.168 126.278 50.168C125.793 50.168 125.34 50.084 124.92 49.916C124.51 49.7387 124.155 49.496 123.856 49.188C123.558 48.88 123.32 48.516 123.142 48.096C122.974 47.676 122.89 47.2187 122.89 46.724C122.89 46.2293 122.974 45.772 123.142 45.352C123.31 44.932 123.544 44.568 123.842 44.26C124.141 43.952 124.491 43.714 124.892 43.546C125.294 43.3687 125.728 43.28 126.194 43.28C126.708 43.28 127.16 43.3687 127.552 43.546C127.944 43.714 128.271 43.9473 128.532 44.246C128.794 44.5353 128.99 44.876 129.12 45.268C129.26 45.66 129.33 46.08 129.33 46.528ZM134.864 45.002C134.724 44.7313 134.509 44.512 134.22 44.344C133.94 44.1667 133.618 44.078 133.254 44.078C133.086 44.078 132.918 44.0967 132.75 44.134C132.582 44.1713 132.433 44.232 132.302 44.316C132.171 44.4 132.064 44.5073 131.98 44.638C131.905 44.7687 131.868 44.9227 131.868 45.1C131.868 45.408 131.994 45.646 132.246 45.814C132.498 45.9727 132.895 46.108 133.436 46.22C134.211 46.3787 134.78 46.612 135.144 46.92C135.517 47.2187 135.704 47.6247 135.704 48.138C135.704 48.5113 135.629 48.8287 135.48 49.09C135.34 49.342 135.153 49.552 134.92 49.72C134.687 49.8787 134.421 49.9907 134.122 50.056C133.833 50.1307 133.539 50.168 133.24 50.168C132.745 50.168 132.265 50.0653 131.798 49.86C131.331 49.6547 130.949 49.3327 130.65 48.894L131.406 48.334C131.574 48.6233 131.821 48.866 132.148 49.062C132.475 49.258 132.834 49.356 133.226 49.356C133.431 49.356 133.627 49.3373 133.814 49.3C134.001 49.2627 134.164 49.1973 134.304 49.104C134.444 49.0107 134.556 48.894 134.64 48.754C134.724 48.6047 134.766 48.4227 134.766 48.208C134.766 47.8627 134.598 47.606 134.262 47.438C133.935 47.2607 133.459 47.0973 132.834 46.948C132.638 46.9013 132.428 46.8453 132.204 46.78C131.989 46.7053 131.789 46.6027 131.602 46.472C131.415 46.332 131.261 46.1593 131.14 45.954C131.019 45.7487 130.958 45.492 130.958 45.184C130.958 44.848 131.023 44.5633 131.154 44.33C131.285 44.0873 131.457 43.8913 131.672 43.742C131.896 43.5833 132.148 43.4667 132.428 43.392C132.708 43.3173 132.997 43.28 133.296 43.28C133.753 43.28 134.197 43.3827 134.626 43.588C135.055 43.7933 135.377 44.0827 135.592 44.456L134.864 45.002ZM140.553 44.246H138.705V48.068C138.705 48.3107 138.728 48.5113 138.775 48.67C138.822 48.8287 138.887 48.9547 138.971 49.048C139.064 49.132 139.172 49.1927 139.293 49.23C139.414 49.258 139.545 49.272 139.685 49.272C139.816 49.272 139.951 49.2533 140.091 49.216C140.24 49.1787 140.38 49.1273 140.511 49.062L140.553 49.888C140.385 49.9533 140.208 50 140.021 50.028C139.844 50.0653 139.648 50.084 139.433 50.084C139.256 50.084 139.069 50.0607 138.873 50.014C138.677 49.9673 138.495 49.8787 138.327 49.748C138.159 49.6173 138.019 49.44 137.907 49.216C137.804 48.992 137.753 48.698 137.753 48.334V44.246H136.395V43.448H137.753V41.6H138.705V43.448H140.553V44.246Z" fill="black"/>
<path d="M197.9 269.704C197.414 269.723 197.004 269.895 196.668 270.222C196.332 270.539 196.164 270.964 196.164 271.496C196.164 272 196.322 272.397 196.64 272.686C196.957 272.966 197.377 273.176 197.9 273.316V269.704ZM198.572 278.356C198.777 278.347 198.987 278.309 199.202 278.244C199.426 278.169 199.626 278.057 199.804 277.908C199.981 277.759 200.126 277.567 200.238 277.334C200.35 277.091 200.406 276.797 200.406 276.452C200.406 275.976 200.233 275.575 199.888 275.248C199.542 274.921 199.104 274.674 198.572 274.506V278.356ZM197.9 274.338C197.582 274.245 197.26 274.128 196.934 273.988C196.616 273.848 196.327 273.671 196.066 273.456C195.814 273.241 195.604 272.985 195.436 272.686C195.277 272.378 195.198 272.009 195.198 271.58C195.198 271.179 195.268 270.819 195.408 270.502C195.557 270.175 195.753 269.9 195.996 269.676C196.248 269.443 196.537 269.265 196.864 269.144C197.19 269.013 197.536 268.939 197.9 268.92V267.912H198.572V268.92C198.796 268.929 199.024 268.957 199.258 269.004C199.5 269.051 199.734 269.121 199.958 269.214C200.191 269.307 200.41 269.424 200.616 269.564C200.821 269.704 201.003 269.867 201.162 270.054L200.392 270.642C200.177 270.334 199.902 270.105 199.566 269.956C199.239 269.797 198.908 269.713 198.572 269.704V273.554C198.926 273.675 199.272 273.815 199.608 273.974C199.953 274.123 200.256 274.315 200.518 274.548C200.788 274.772 201.003 275.043 201.162 275.36C201.33 275.677 201.414 276.065 201.414 276.522C201.414 276.914 201.339 277.273 201.19 277.6C201.05 277.917 200.849 278.193 200.588 278.426C200.336 278.65 200.037 278.827 199.692 278.958C199.346 279.089 198.973 279.159 198.572 279.168V280.176H197.9V279.168C197.265 279.149 196.696 279.005 196.192 278.734C195.697 278.463 195.282 278.113 194.946 277.684L195.744 277.124C195.865 277.339 196.019 277.521 196.206 277.67C196.392 277.819 196.584 277.945 196.78 278.048C196.985 278.151 197.186 278.23 197.382 278.286C197.578 278.333 197.75 278.356 197.9 278.356V274.338ZM208.989 269.984H204.859L204.789 273.05C205.004 272.975 205.228 272.919 205.461 272.882C205.704 272.845 205.937 272.826 206.161 272.826C206.628 272.826 207.057 272.901 207.449 273.05C207.841 273.199 208.182 273.414 208.471 273.694C208.76 273.965 208.984 274.291 209.143 274.674C209.302 275.057 209.381 275.477 209.381 275.934C209.381 276.41 209.302 276.853 209.143 277.264C208.984 277.665 208.76 278.015 208.471 278.314C208.182 278.603 207.832 278.832 207.421 279C207.02 279.168 206.576 279.252 206.091 279.252C205.372 279.252 204.766 279.089 204.271 278.762C203.776 278.435 203.394 277.997 203.123 277.446L204.033 277.04C204.21 277.451 204.476 277.777 204.831 278.02C205.195 278.263 205.596 278.384 206.035 278.384C206.371 278.384 206.679 278.328 206.959 278.216C207.248 278.095 207.496 277.931 207.701 277.726C207.906 277.511 208.065 277.259 208.177 276.97C208.298 276.681 208.359 276.368 208.359 276.032C208.359 275.668 208.294 275.341 208.163 275.052C208.042 274.753 207.869 274.501 207.645 274.296C207.43 274.091 207.174 273.932 206.875 273.82C206.576 273.708 206.25 273.652 205.895 273.652C205.54 273.652 205.186 273.703 204.831 273.806C204.486 273.899 204.154 274.03 203.837 274.198L203.935 269.088H208.989V269.984ZM214.52 268.836C215.136 268.836 215.649 268.99 216.06 269.298C216.48 269.597 216.816 269.993 217.068 270.488C217.32 270.973 217.497 271.529 217.6 272.154C217.712 272.779 217.768 273.414 217.768 274.058C217.768 274.702 217.712 275.337 217.6 275.962C217.497 276.578 217.32 277.133 217.068 277.628C216.816 278.113 216.48 278.505 216.06 278.804C215.649 279.103 215.136 279.252 214.52 279.252C213.895 279.252 213.372 279.103 212.952 278.804C212.541 278.505 212.21 278.113 211.958 277.628C211.706 277.133 211.529 276.578 211.426 275.962C211.323 275.337 211.272 274.702 211.272 274.058C211.272 273.414 211.323 272.779 211.426 272.154C211.529 271.529 211.706 270.973 211.958 270.488C212.21 269.993 212.541 269.597 212.952 269.298C213.372 268.99 213.895 268.836 214.52 268.836ZM214.52 269.69C214.081 269.69 213.717 269.825 213.428 270.096C213.139 270.367 212.91 270.712 212.742 271.132C212.574 271.552 212.457 272.023 212.392 272.546C212.327 273.059 212.294 273.563 212.294 274.058C212.294 274.553 212.327 275.057 212.392 275.57C212.457 276.083 212.574 276.55 212.742 276.97C212.91 277.381 213.139 277.721 213.428 277.992C213.717 278.253 214.081 278.384 214.52 278.384C214.949 278.384 215.309 278.253 215.598 277.992C215.887 277.721 216.116 277.381 216.284 276.97C216.452 276.55 216.569 276.083 216.634 275.57C216.709 275.057 216.746 274.553 216.746 274.058C216.746 273.563 216.709 273.059 216.634 272.546C216.569 272.023 216.452 271.552 216.284 271.132C216.116 270.712 215.887 270.367 215.598 270.096C215.309 269.825 214.949 269.69 214.52 269.69ZM220.821 275.402H220.863L223.887 272.448H225.259L221.955 275.444L225.595 279H224.195L220.863 275.556H220.821V279H219.869V268.416H220.821V275.402ZM231.444 279H230.492V272.448H231.444V279ZM231.64 269.928C231.64 270.124 231.57 270.287 231.43 270.418C231.29 270.539 231.136 270.6 230.968 270.6C230.8 270.6 230.646 270.539 230.506 270.418C230.366 270.287 230.296 270.124 230.296 269.928C230.296 269.732 230.366 269.573 230.506 269.452C230.646 269.321 230.8 269.256 230.968 269.256C231.136 269.256 231.29 269.321 231.43 269.452C231.57 269.573 231.64 269.732 231.64 269.928ZM234.832 272.448C234.85 272.625 234.864 272.821 234.874 273.036C234.883 273.251 234.888 273.428 234.888 273.568H234.916C235.102 273.185 235.406 272.877 235.826 272.644C236.246 272.401 236.689 272.28 237.156 272.28C237.986 272.28 238.607 272.527 239.018 273.022C239.438 273.517 239.648 274.17 239.648 274.982V279H238.696V275.374C238.696 275.029 238.668 274.716 238.612 274.436C238.556 274.156 238.458 273.918 238.318 273.722C238.187 273.517 238.005 273.358 237.772 273.246C237.548 273.134 237.263 273.078 236.918 273.078C236.666 273.078 236.418 273.129 236.176 273.232C235.942 273.335 235.732 273.493 235.546 273.708C235.359 273.913 235.21 274.179 235.098 274.506C234.986 274.823 234.93 275.201 234.93 275.64V279H233.978V273.89C233.978 273.713 233.973 273.484 233.964 273.204C233.954 272.924 233.94 272.672 233.922 272.448H234.832ZM245.067 273.246H243.219V277.068C243.219 277.311 243.242 277.511 243.289 277.67C243.335 277.829 243.401 277.955 243.485 278.048C243.578 278.132 243.685 278.193 243.807 278.23C243.928 278.258 244.059 278.272 244.199 278.272C244.329 278.272 244.465 278.253 244.605 278.216C244.754 278.179 244.894 278.127 245.025 278.062L245.067 278.888C244.899 278.953 244.721 279 244.535 279.028C244.357 279.065 244.161 279.084 243.947 279.084C243.769 279.084 243.583 279.061 243.387 279.014C243.191 278.967 243.009 278.879 242.841 278.748C242.673 278.617 242.533 278.44 242.421 278.216C242.318 277.992 242.267 277.698 242.267 277.334V273.246H240.909V272.448H242.267V270.6H243.219V272.448H245.067V273.246ZM251.554 275.22C251.526 274.604 251.325 274.095 250.952 273.694C250.588 273.283 250.065 273.078 249.384 273.078C249.067 273.078 248.773 273.139 248.502 273.26C248.231 273.372 247.993 273.531 247.788 273.736C247.583 273.932 247.419 274.161 247.298 274.422C247.177 274.674 247.107 274.94 247.088 275.22H251.554ZM252.52 275.528C252.52 275.593 252.52 275.663 252.52 275.738C252.52 275.813 252.515 275.892 252.506 275.976H247.074C247.083 276.303 247.149 276.611 247.27 276.9C247.391 277.189 247.559 277.441 247.774 277.656C247.989 277.871 248.241 278.043 248.53 278.174C248.819 278.295 249.132 278.356 249.468 278.356C249.963 278.356 250.387 278.244 250.742 278.02C251.106 277.787 251.381 277.521 251.568 277.222L252.282 277.782C251.89 278.277 251.456 278.631 250.98 278.846C250.513 279.061 250.009 279.168 249.468 279.168C248.983 279.168 248.53 279.084 248.11 278.916C247.699 278.739 247.345 278.496 247.046 278.188C246.747 277.88 246.509 277.516 246.332 277.096C246.164 276.676 246.08 276.219 246.08 275.724C246.08 275.229 246.164 274.772 246.332 274.352C246.5 273.932 246.733 273.568 247.032 273.26C247.331 272.952 247.681 272.714 248.082 272.546C248.483 272.369 248.917 272.28 249.384 272.28C249.897 272.28 250.35 272.369 250.742 272.546C251.134 272.714 251.461 272.947 251.722 273.246C251.983 273.535 252.179 273.876 252.31 274.268C252.45 274.66 252.52 275.08 252.52 275.528ZM254.568 273.89C254.568 273.713 254.563 273.484 254.554 273.204C254.544 272.924 254.53 272.672 254.512 272.448H255.422C255.44 272.625 255.454 272.821 255.464 273.036C255.473 273.251 255.478 273.428 255.478 273.568H255.506C255.692 273.185 255.972 272.877 256.346 272.644C256.719 272.401 257.139 272.28 257.606 272.28C257.727 272.28 257.834 272.285 257.928 272.294C258.03 272.303 258.133 272.322 258.236 272.35L258.11 273.246C258.054 273.227 257.96 273.209 257.83 273.19C257.699 273.171 257.568 273.162 257.438 273.162C257.186 273.162 256.943 273.209 256.71 273.302C256.476 273.395 256.271 273.545 256.094 273.75C255.926 273.946 255.786 274.203 255.674 274.52C255.571 274.828 255.52 275.201 255.52 275.64V279H254.568V273.89ZM264.364 275.22C264.336 274.604 264.136 274.095 263.762 273.694C263.398 273.283 262.876 273.078 262.194 273.078C261.877 273.078 261.583 273.139 261.312 273.26C261.042 273.372 260.804 273.531 260.598 273.736C260.393 273.932 260.23 274.161 260.108 274.422C259.987 274.674 259.917 274.94 259.898 275.22H264.364ZM265.33 275.528C265.33 275.593 265.33 275.663 265.33 275.738C265.33 275.813 265.326 275.892 265.316 275.976H259.884C259.894 276.303 259.959 276.611 260.08 276.9C260.202 277.189 260.37 277.441 260.584 277.656C260.799 277.871 261.051 278.043 261.34 278.174C261.63 278.295 261.942 278.356 262.278 278.356C262.773 278.356 263.198 278.244 263.552 278.02C263.916 277.787 264.192 277.521 264.378 277.222L265.092 277.782C264.7 278.277 264.266 278.631 263.79 278.846C263.324 279.061 262.82 279.168 262.278 279.168C261.793 279.168 261.34 279.084 260.92 278.916C260.51 278.739 260.155 278.496 259.856 278.188C259.558 277.88 259.32 277.516 259.142 277.096C258.974 276.676 258.89 276.219 258.89 275.724C258.89 275.229 258.974 274.772 259.142 274.352C259.31 273.932 259.544 273.568 259.842 273.26C260.141 272.952 260.491 272.714 260.892 272.546C261.294 272.369 261.728 272.28 262.194 272.28C262.708 272.28 263.16 272.369 263.552 272.546C263.944 272.714 264.271 272.947 264.532 273.246C264.794 273.535 264.99 273.876 265.12 274.268C265.26 274.66 265.33 275.08 265.33 275.528ZM270.864 274.002C270.724 273.731 270.509 273.512 270.22 273.344C269.94 273.167 269.618 273.078 269.254 273.078C269.086 273.078 268.918 273.097 268.75 273.134C268.582 273.171 268.433 273.232 268.302 273.316C268.171 273.4 268.064 273.507 267.98 273.638C267.905 273.769 267.868 273.923 267.868 274.1C267.868 274.408 267.994 274.646 268.246 274.814C268.498 274.973 268.895 275.108 269.436 275.22C270.211 275.379 270.78 275.612 271.144 275.92C271.517 276.219 271.704 276.625 271.704 277.138C271.704 277.511 271.629 277.829 271.48 278.09C271.34 278.342 271.153 278.552 270.92 278.72C270.687 278.879 270.421 278.991 270.122 279.056C269.833 279.131 269.539 279.168 269.24 279.168C268.745 279.168 268.265 279.065 267.798 278.86C267.331 278.655 266.949 278.333 266.65 277.894L267.406 277.334C267.574 277.623 267.821 277.866 268.148 278.062C268.475 278.258 268.834 278.356 269.226 278.356C269.431 278.356 269.627 278.337 269.814 278.3C270.001 278.263 270.164 278.197 270.304 278.104C270.444 278.011 270.556 277.894 270.64 277.754C270.724 277.605 270.766 277.423 270.766 277.208C270.766 276.863 270.598 276.606 270.262 276.438C269.935 276.261 269.459 276.097 268.834 275.948C268.638 275.901 268.428 275.845 268.204 275.78C267.989 275.705 267.789 275.603 267.602 275.472C267.415 275.332 267.261 275.159 267.14 274.954C267.019 274.749 266.958 274.492 266.958 274.184C266.958 273.848 267.023 273.563 267.154 273.33C267.285 273.087 267.457 272.891 267.672 272.742C267.896 272.583 268.148 272.467 268.428 272.392C268.708 272.317 268.997 272.28 269.296 272.28C269.753 272.28 270.197 272.383 270.626 272.588C271.055 272.793 271.377 273.083 271.592 273.456L270.864 274.002ZM276.553 273.246H274.705V277.068C274.705 277.311 274.728 277.511 274.775 277.67C274.822 277.829 274.887 277.955 274.971 278.048C275.064 278.132 275.172 278.193 275.293 278.23C275.414 278.258 275.545 278.272 275.685 278.272C275.816 278.272 275.951 278.253 276.091 278.216C276.24 278.179 276.38 278.127 276.511 278.062L276.553 278.888C276.385 278.953 276.208 279 276.021 279.028C275.844 279.065 275.648 279.084 275.433 279.084C275.256 279.084 275.069 279.061 274.873 279.014C274.677 278.967 274.495 278.879 274.327 278.748C274.159 278.617 274.019 278.44 273.907 278.216C273.804 277.992 273.753 277.698 273.753 277.334V273.246H272.395V272.448H273.753V270.6H274.705V272.448H276.553V273.246ZM207.57 303H201.228V301.95L205.288 297.848C205.437 297.699 205.582 297.54 205.722 297.372C205.871 297.195 206.002 297.013 206.114 296.826C206.226 296.639 206.314 296.443 206.38 296.238C206.445 296.023 206.478 295.804 206.478 295.58C206.478 295.291 206.426 295.029 206.324 294.796C206.221 294.563 206.076 294.367 205.89 294.208C205.712 294.04 205.502 293.914 205.26 293.83C205.026 293.737 204.779 293.69 204.518 293.69C203.986 293.69 203.538 293.858 203.174 294.194C202.81 294.521 202.576 294.941 202.474 295.454L201.48 295.258C201.545 294.913 201.666 294.591 201.844 294.292C202.03 293.993 202.254 293.737 202.516 293.522C202.786 293.307 203.09 293.139 203.426 293.018C203.762 292.897 204.126 292.836 204.518 292.836C204.919 292.836 205.297 292.897 205.652 293.018C206.016 293.13 206.333 293.303 206.604 293.536C206.874 293.76 207.089 294.045 207.248 294.39C207.416 294.726 207.5 295.118 207.5 295.566C207.5 295.883 207.453 296.177 207.36 296.448C207.276 296.719 207.159 296.975 207.01 297.218C206.87 297.461 206.702 297.694 206.506 297.918C206.31 298.133 206.104 298.347 205.89 298.562L202.32 302.104H207.57V303ZM215.285 293.984H211.155L211.085 297.05C211.299 296.975 211.523 296.919 211.757 296.882C211.999 296.845 212.233 296.826 212.457 296.826C212.923 296.826 213.353 296.901 213.745 297.05C214.137 297.199 214.477 297.414 214.767 297.694C215.056 297.965 215.28 298.291 215.439 298.674C215.597 299.057 215.677 299.477 215.677 299.934C215.677 300.41 215.597 300.853 215.439 301.264C215.28 301.665 215.056 302.015 214.767 302.314C214.477 302.603 214.127 302.832 213.717 303C213.315 303.168 212.872 303.252 212.387 303.252C211.668 303.252 211.061 303.089 210.567 302.762C210.072 302.435 209.689 301.997 209.419 301.446L210.329 301.04C210.506 301.451 210.772 301.777 211.127 302.02C211.491 302.263 211.892 302.384 212.331 302.384C212.667 302.384 212.975 302.328 213.255 302.216C213.544 302.095 213.791 301.931 213.997 301.726C214.202 301.511 214.361 301.259 214.473 300.97C214.594 300.681 214.655 300.368 214.655 300.032C214.655 299.668 214.589 299.341 214.459 299.052C214.337 298.753 214.165 298.501 213.941 298.296C213.726 298.091 213.469 297.932 213.171 297.82C212.872 297.708 212.545 297.652 212.191 297.652C211.836 297.652 211.481 297.703 211.127 297.806C210.781 297.899 210.45 298.03 210.133 298.198L210.231 293.088H215.285V293.984ZM222.216 295.37C222.216 295.715 222.151 296.037 222.02 296.336C221.899 296.635 221.726 296.896 221.502 297.12C221.278 297.335 221.017 297.507 220.718 297.638C220.419 297.759 220.097 297.82 219.752 297.82C219.407 297.82 219.085 297.759 218.786 297.638C218.487 297.507 218.226 297.335 218.002 297.12C217.778 296.896 217.601 296.635 217.47 296.336C217.349 296.037 217.288 295.715 217.288 295.37C217.288 295.025 217.349 294.703 217.47 294.404C217.601 294.105 217.778 293.849 218.002 293.634C218.226 293.41 218.487 293.237 218.786 293.116C219.085 292.985 219.407 292.92 219.752 292.92C220.097 292.92 220.419 292.985 220.718 293.116C221.017 293.237 221.278 293.41 221.502 293.634C221.726 293.849 221.899 294.105 222.02 294.404C222.151 294.703 222.216 295.025 222.216 295.37ZM221.376 295.37C221.376 295.137 221.329 294.922 221.236 294.726C221.152 294.53 221.035 294.362 220.886 294.222C220.746 294.073 220.578 293.961 220.382 293.886C220.186 293.802 219.976 293.76 219.752 293.76C219.528 293.76 219.318 293.802 219.122 293.886C218.926 293.961 218.753 294.073 218.604 294.222C218.464 294.362 218.347 294.53 218.254 294.726C218.17 294.922 218.128 295.137 218.128 295.37C218.128 295.603 218.17 295.818 218.254 296.014C218.347 296.21 218.464 296.383 218.604 296.532C218.753 296.672 218.926 296.784 219.122 296.868C219.318 296.943 219.528 296.98 219.752 296.98C219.976 296.98 220.186 296.943 220.382 296.868C220.578 296.784 220.746 296.672 220.886 296.532C221.035 296.383 221.152 296.21 221.236 296.014C221.329 295.818 221.376 295.603 221.376 295.37ZM227.886 300.718C227.886 301.063 227.821 301.385 227.69 301.684C227.569 301.983 227.396 302.244 227.172 302.468C226.948 302.683 226.687 302.855 226.388 302.986C226.089 303.107 225.767 303.168 225.422 303.168C225.077 303.168 224.755 303.107 224.456 302.986C224.157 302.855 223.896 302.683 223.672 302.468C223.448 302.244 223.271 301.983 223.14 301.684C223.019 301.385 222.958 301.063 222.958 300.718C222.958 300.373 223.019 300.051 223.14 299.752C223.271 299.453 223.448 299.197 223.672 298.982C223.896 298.758 224.157 298.585 224.456 298.464C224.755 298.333 225.077 298.268 225.422 298.268C225.767 298.268 226.089 298.333 226.388 298.464C226.687 298.585 226.948 298.758 227.172 298.982C227.396 299.197 227.569 299.453 227.69 299.752C227.821 300.051 227.886 300.373 227.886 300.718ZM227.046 300.718C227.046 300.485 226.999 300.27 226.906 300.074C226.822 299.878 226.705 299.71 226.556 299.57C226.416 299.421 226.248 299.309 226.052 299.234C225.856 299.15 225.646 299.108 225.422 299.108C225.198 299.108 224.988 299.15 224.792 299.234C224.596 299.309 224.423 299.421 224.274 299.57C224.134 299.71 224.017 299.878 223.924 300.074C223.84 300.27 223.798 300.485 223.798 300.718C223.798 300.951 223.84 301.166 223.924 301.362C224.017 301.558 224.134 301.731 224.274 301.88C224.423 302.02 224.596 302.132 224.792 302.216C224.988 302.291 225.198 302.328 225.422 302.328C225.646 302.328 225.856 302.291 226.052 302.216C226.248 302.132 226.416 302.02 226.556 301.88C226.705 301.731 226.822 301.558 226.906 301.362C226.999 301.166 227.046 300.951 227.046 300.718ZM219.794 303.434L219.066 303.056L225.38 292.654L226.094 293.032L219.794 303.434ZM233.178 297.89C233.178 297.713 233.173 297.484 233.164 297.204C233.155 296.924 233.141 296.672 233.122 296.448H234.032C234.051 296.625 234.065 296.821 234.074 297.036C234.083 297.251 234.088 297.428 234.088 297.568H234.116C234.303 297.185 234.583 296.877 234.956 296.644C235.329 296.401 235.749 296.28 236.216 296.28C236.337 296.28 236.445 296.285 236.538 296.294C236.641 296.303 236.743 296.322 236.846 296.35L236.72 297.246C236.664 297.227 236.571 297.209 236.44 297.19C236.309 297.171 236.179 297.162 236.048 297.162C235.796 297.162 235.553 297.209 235.32 297.302C235.087 297.395 234.881 297.545 234.704 297.75C234.536 297.946 234.396 298.203 234.284 298.52C234.181 298.828 234.13 299.201 234.13 299.64V303H233.178V297.89ZM242.975 299.22C242.947 298.604 242.746 298.095 242.373 297.694C242.009 297.283 241.486 297.078 240.805 297.078C240.487 297.078 240.193 297.139 239.923 297.26C239.652 297.372 239.414 297.531 239.209 297.736C239.003 297.932 238.84 298.161 238.719 298.422C238.597 298.674 238.527 298.94 238.509 299.22H242.975ZM243.941 299.528C243.941 299.593 243.941 299.663 243.941 299.738C243.941 299.813 243.936 299.892 243.927 299.976H238.495C238.504 300.303 238.569 300.611 238.691 300.9C238.812 301.189 238.98 301.441 239.195 301.656C239.409 301.871 239.661 302.043 239.951 302.174C240.24 302.295 240.553 302.356 240.889 302.356C241.383 302.356 241.808 302.244 242.163 302.02C242.527 301.787 242.802 301.521 242.989 301.222L243.703 301.782C243.311 302.277 242.877 302.631 242.401 302.846C241.934 303.061 241.43 303.168 240.889 303.168C240.403 303.168 239.951 303.084 239.531 302.916C239.12 302.739 238.765 302.496 238.467 302.188C238.168 301.88 237.93 301.516 237.753 301.096C237.585 300.676 237.501 300.219 237.501 299.724C237.501 299.229 237.585 298.772 237.753 298.352C237.921 297.932 238.154 297.568 238.453 297.26C238.751 296.952 239.101 296.714 239.503 296.546C239.904 296.369 240.338 296.28 240.805 296.28C241.318 296.28 241.771 296.369 242.163 296.546C242.555 296.714 242.881 296.947 243.143 297.246C243.404 297.535 243.6 297.876 243.731 298.268C243.871 298.66 243.941 299.08 243.941 299.528ZM248.943 297.246H247.095V301.068C247.095 301.311 247.118 301.511 247.165 301.67C247.211 301.829 247.277 301.955 247.361 302.048C247.454 302.132 247.561 302.193 247.683 302.23C247.804 302.258 247.935 302.272 248.075 302.272C248.205 302.272 248.341 302.253 248.481 302.216C248.63 302.179 248.77 302.127 248.901 302.062L248.943 302.888C248.775 302.953 248.597 303 248.411 303.028C248.233 303.065 248.037 303.084 247.823 303.084C247.645 303.084 247.459 303.061 247.263 303.014C247.067 302.967 246.885 302.879 246.717 302.748C246.549 302.617 246.409 302.44 246.297 302.216C246.194 301.992 246.143 301.698 246.143 301.334V297.246H244.785V296.448H246.143V294.6H247.095V296.448H248.943V297.246ZM255.192 303C255.173 302.823 255.159 302.627 255.15 302.412C255.141 302.197 255.136 302.02 255.136 301.88H255.108C254.921 302.263 254.618 302.575 254.198 302.818C253.778 303.051 253.335 303.168 252.868 303.168C252.037 303.168 251.412 302.921 250.992 302.426C250.581 301.931 250.376 301.278 250.376 300.466V296.448H251.328V300.074C251.328 300.419 251.356 300.732 251.412 301.012C251.468 301.292 251.561 301.535 251.692 301.74C251.832 301.936 252.014 302.09 252.238 302.202C252.471 302.314 252.761 302.37 253.106 302.37C253.358 302.37 253.601 302.319 253.834 302.216C254.077 302.113 254.291 301.959 254.478 301.754C254.665 301.539 254.814 301.273 254.926 300.956C255.038 300.629 255.094 300.247 255.094 299.808V296.448H256.046V301.558C256.046 301.735 256.051 301.964 256.06 302.244C256.069 302.524 256.083 302.776 256.102 303H255.192ZM258.567 297.89C258.567 297.713 258.562 297.484 258.553 297.204C258.543 296.924 258.529 296.672 258.511 296.448H259.421C259.439 296.625 259.453 296.821 259.463 297.036C259.472 297.251 259.477 297.428 259.477 297.568H259.505C259.691 297.185 259.971 296.877 260.345 296.644C260.718 296.401 261.138 296.28 261.605 296.28C261.726 296.28 261.833 296.285 261.927 296.294C262.029 296.303 262.132 296.322 262.235 296.35L262.109 297.246C262.053 297.227 261.959 297.209 261.829 297.19C261.698 297.171 261.567 297.162 261.437 297.162C261.185 297.162 260.942 297.209 260.709 297.302C260.475 297.395 260.27 297.545 260.093 297.75C259.925 297.946 259.785 298.203 259.673 298.52C259.57 298.828 259.519 299.201 259.519 299.64V303H258.567V297.89ZM264.466 296.448C264.484 296.625 264.498 296.821 264.508 297.036C264.517 297.251 264.522 297.428 264.522 297.568H264.55C264.736 297.185 265.04 296.877 265.46 296.644C265.88 296.401 266.323 296.28 266.79 296.28C267.62 296.28 268.241 296.527 268.652 297.022C269.072 297.517 269.282 298.17 269.282 298.982V303H268.33V299.374C268.33 299.029 268.302 298.716 268.246 298.436C268.19 298.156 268.092 297.918 267.952 297.722C267.821 297.517 267.639 297.358 267.406 297.246C267.182 297.134 266.897 297.078 266.552 297.078C266.3 297.078 266.052 297.129 265.81 297.232C265.576 297.335 265.366 297.493 265.18 297.708C264.993 297.913 264.844 298.179 264.732 298.506C264.62 298.823 264.564 299.201 264.564 299.64V303H263.612V297.89C263.612 297.713 263.607 297.484 263.598 297.204C263.588 296.924 263.574 296.672 263.556 296.448H264.466Z" fill="black"/>
<path d="M120.567 281.376C120.013 281.397 119.543 281.595 119.159 281.968C118.775 282.331 118.583 282.816 118.583 283.424C118.583 284 118.765 284.453 119.127 284.784C119.49 285.104 119.97 285.344 120.567 285.504V281.376ZM121.335 291.264C121.57 291.253 121.81 291.211 122.055 291.136C122.311 291.051 122.541 290.923 122.743 290.752C122.946 290.581 123.111 290.363 123.239 290.096C123.367 289.819 123.431 289.483 123.431 289.088C123.431 288.544 123.234 288.085 122.839 287.712C122.445 287.339 121.943 287.056 121.335 286.864V291.264ZM120.567 286.672C120.205 286.565 119.837 286.432 119.463 286.272C119.101 286.112 118.77 285.909 118.471 285.664C118.183 285.419 117.943 285.125 117.751 284.784C117.57 284.432 117.479 284.011 117.479 283.52C117.479 283.061 117.559 282.651 117.719 282.288C117.89 281.915 118.114 281.6 118.391 281.344C118.679 281.077 119.01 280.875 119.383 280.736C119.757 280.587 120.151 280.501 120.567 280.48V279.328H121.335V280.48C121.591 280.491 121.853 280.523 122.119 280.576C122.397 280.629 122.663 280.709 122.919 280.816C123.186 280.923 123.437 281.056 123.671 281.216C123.906 281.376 124.114 281.563 124.295 281.776L123.415 282.448C123.17 282.096 122.855 281.835 122.471 281.664C122.098 281.483 121.719 281.387 121.335 281.376V285.776C121.741 285.915 122.135 286.075 122.519 286.256C122.914 286.427 123.261 286.645 123.559 286.912C123.869 287.168 124.114 287.477 124.295 287.84C124.487 288.203 124.583 288.645 124.583 289.168C124.583 289.616 124.498 290.027 124.327 290.4C124.167 290.763 123.938 291.077 123.639 291.344C123.351 291.6 123.01 291.803 122.615 291.952C122.221 292.101 121.794 292.181 121.335 292.192V293.344H120.567V292.192C119.842 292.171 119.191 292.005 118.615 291.696C118.05 291.387 117.575 290.987 117.191 290.496L118.103 289.856C118.242 290.101 118.418 290.309 118.631 290.48C118.845 290.651 119.063 290.795 119.287 290.912C119.522 291.029 119.751 291.12 119.975 291.184C120.199 291.237 120.397 291.264 120.567 291.264V286.672ZM133.705 292H126.457V290.8L131.097 286.112C131.267 285.941 131.433 285.76 131.593 285.568C131.763 285.365 131.913 285.157 132.041 284.944C132.169 284.731 132.27 284.507 132.345 284.272C132.419 284.027 132.457 283.776 132.457 283.52C132.457 283.189 132.398 282.891 132.281 282.624C132.163 282.357 131.998 282.133 131.785 281.952C131.582 281.76 131.342 281.616 131.065 281.52C130.798 281.413 130.515 281.36 130.217 281.36C129.609 281.36 129.097 281.552 128.681 281.936C128.265 282.309 127.998 282.789 127.881 283.376L126.745 283.152C126.819 282.757 126.958 282.389 127.161 282.048C127.374 281.707 127.63 281.413 127.929 281.168C128.238 280.923 128.585 280.731 128.969 280.592C129.353 280.453 129.769 280.384 130.217 280.384C130.675 280.384 131.107 280.453 131.513 280.592C131.929 280.72 132.291 280.917 132.601 281.184C132.91 281.44 133.155 281.765 133.337 282.16C133.529 282.544 133.625 282.992 133.625 283.504C133.625 283.867 133.571 284.203 133.465 284.512C133.369 284.821 133.235 285.115 133.065 285.392C132.905 285.669 132.713 285.936 132.489 286.192C132.265 286.437 132.03 286.683 131.785 286.928L127.705 290.976H133.705V292ZM139.562 280.384C140.266 280.384 140.853 280.56 141.322 280.912C141.802 281.253 142.186 281.707 142.474 282.272C142.762 282.827 142.965 283.461 143.082 284.176C143.21 284.891 143.274 285.616 143.274 286.352C143.274 287.088 143.21 287.813 143.082 288.528C142.965 289.232 142.762 289.867 142.474 290.432C142.186 290.987 141.802 291.435 141.322 291.776C140.853 292.117 140.266 292.288 139.562 292.288C138.847 292.288 138.25 292.117 137.77 291.776C137.301 291.435 136.922 290.987 136.634 290.432C136.346 289.867 136.143 289.232 136.026 288.528C135.909 287.813 135.85 287.088 135.85 286.352C135.85 285.616 135.909 284.891 136.026 284.176C136.143 283.461 136.346 282.827 136.634 282.272C136.922 281.707 137.301 281.253 137.77 280.912C138.25 280.56 138.847 280.384 139.562 280.384ZM139.562 281.36C139.061 281.36 138.645 281.515 138.314 281.824C137.983 282.133 137.722 282.528 137.53 283.008C137.338 283.488 137.205 284.027 137.13 284.624C137.055 285.211 137.018 285.787 137.018 286.352C137.018 286.917 137.055 287.493 137.13 288.08C137.205 288.667 137.338 289.2 137.53 289.68C137.722 290.149 137.983 290.539 138.314 290.848C138.645 291.147 139.061 291.296 139.562 291.296C140.053 291.296 140.463 291.147 140.794 290.848C141.125 290.539 141.386 290.149 141.578 289.68C141.77 289.2 141.903 288.667 141.978 288.08C142.063 287.493 142.106 286.917 142.106 286.352C142.106 285.787 142.063 285.211 141.978 284.624C141.903 284.027 141.77 283.488 141.578 283.008C141.386 282.528 141.125 282.133 140.794 281.824C140.463 281.515 140.053 281.36 139.562 281.36ZM148.843 280.384C149.547 280.384 150.134 280.56 150.603 280.912C151.083 281.253 151.467 281.707 151.755 282.272C152.043 282.827 152.246 283.461 152.363 284.176C152.491 284.891 152.555 285.616 152.555 286.352C152.555 287.088 152.491 287.813 152.363 288.528C152.246 289.232 152.043 289.867 151.755 290.432C151.467 290.987 151.083 291.435 150.603 291.776C150.134 292.117 149.547 292.288 148.843 292.288C148.128 292.288 147.531 292.117 147.051 291.776C146.582 291.435 146.203 290.987 145.915 290.432C145.627 289.867 145.424 289.232 145.307 288.528C145.19 287.813 145.131 287.088 145.131 286.352C145.131 285.616 145.19 284.891 145.307 284.176C145.424 283.461 145.627 282.827 145.915 282.272C146.203 281.707 146.582 281.253 147.051 280.912C147.531 280.56 148.128 280.384 148.843 280.384ZM148.843 281.36C148.342 281.36 147.926 281.515 147.595 281.824C147.264 282.133 147.003 282.528 146.811 283.008C146.619 283.488 146.486 284.027 146.411 284.624C146.336 285.211 146.299 285.787 146.299 286.352C146.299 286.917 146.336 287.493 146.411 288.08C146.486 288.667 146.619 289.2 146.811 289.68C147.003 290.149 147.264 290.539 147.595 290.848C147.926 291.147 148.342 291.296 148.843 291.296C149.334 291.296 149.744 291.147 150.075 290.848C150.406 290.539 150.667 290.149 150.859 289.68C151.051 289.2 151.184 288.667 151.259 288.08C151.344 287.493 151.387 286.917 151.387 286.352C151.387 285.787 151.344 285.211 151.259 284.624C151.184 284.027 151.051 283.488 150.859 283.008C150.667 282.528 150.406 282.133 150.075 281.824C149.744 281.515 149.334 281.36 148.843 281.36ZM156.044 287.888H156.092L159.548 284.512H161.116L157.34 287.936L161.5 292H159.9L156.092 288.064H156.044V292H154.956V279.904H156.044V287.888Z" fill="black"/>
<path fill-rule="evenodd" clip-rule="evenodd" d="M51 62.5H146.5V63.5H52V79.5H51V62.5Z" fill="black"/>
<path fill-rule="evenodd" clip-rule="evenodd" d="M145.5 78.2929L145.5 63.5H146.5L146.5 78.2929L148.828 75.9645C149.024 75.7692 149.34 75.7692 149.536 75.9645C149.731 76.1597 149.731 76.4763 149.536 76.6716L146.354 79.8536C146.158 80.0488 145.842 80.0488 145.646 79.8536L142.464 76.6716C142.269 76.4763 142.269 76.1597 142.464 75.9645C142.66 75.7692 142.976 75.7692 143.172 75.9645L145.5 78.2929Z" fill="black"/>
<defs>
<linearGradient id="paint0_linear_5_1" x1="49" y1="107" x2="49" y2="307" gradientUnits="userSpaceOnUse">
<stop offset="0.432292" stop-color="#F4BD6D"/>
<stop offset="0.807292" stop-color="#F4BD6C" stop-opacity="0.51"/>
</linearGradient>
<linearGradient id="paint1_linear_5_1" x1="140" y1="107" x2="140" y2="267" gradientUnits="userSpaceOnUse">
<stop offset="0.458333" stop-color="#2F80ED"/>
<stop offset="1" stop-color="#2F80ED" stop-opacity="0.4"/>
</linearGradient>
<linearGradient id="paint2_linear_5_1" x1="140" y1="267" x2="140" y2="307" gradientUnits="userSpaceOnUse">
<stop offset="0.276042" stop-color="#BDBDBD"/>
<stop offset="1" stop-color="#BDBDBD" stop-opacity="0.41"/>
</linearGradient>
</defs>
</svg>
