<?xml version="1.0" encoding="us-ascii" standalone="no"?><svg xmlns="http://www.w3.org/2000/svg" xmlns:xlink="http://www.w3.org/1999/xlink" contentStyleType="text/css" height="454px" preserveAspectRatio="none" style="width:715px;height:454px;background:#FFFFFF;" version="1.1" viewBox="0 0 715 454" width="715px" zoomAndPan="magnify"><defs/><g><line style="stroke:#181818;stroke-width:0.5;stroke-dasharray:5.0,5.0;" x1="64" x2="64" y1="81.2969" y2="373.3594"/><line style="stroke:#181818;stroke-width:0.5;stroke-dasharray:5.0,5.0;" x1="304" x2="304" y1="81.2969" y2="373.3594"/><line style="stroke:#181818;stroke-width:0.5;stroke-dasharray:5.0,5.0;" x1="594.5" x2="594.5" y1="81.2969" y2="373.3594"/><text fill="#000000" font-family="sans-serif" font-size="14" lengthAdjust="spacing" textLength="112" x="5" y="77.9951">Investor / Proxy</text><ellipse cx="64" cy="13.5" fill="#E2E2F0" rx="8" ry="8" style="stroke:#181818;stroke-width:0.5;"/><path d="M64,21.5 L64,48.5 M51,29.5 L77,29.5 M64,48.5 L51,63.5 M64,48.5 L77,63.5 " fill="none" style="stroke:#181818;stroke-width:0.5;"/><text fill="#000000" font-family="sans-serif" font-size="14" lengthAdjust="spacing" textLength="112" x="5" y="385.3545">Investor / Proxy</text><ellipse cx="64" cy="397.1563" fill="#E2E2F0" rx="8" ry="8" style="stroke:#181818;stroke-width:0.5;"/><path d="M64,405.1563 L64,432.1563 M51,413.1563 L77,413.1563 M64,432.1563 L51,447.1563 M64,432.1563 L77,447.1563 " fill="none" style="stroke:#181818;stroke-width:0.5;"/><rect fill="#E2E2F0" height="46.5938" rx="2.5" ry="2.5" style="stroke:#181818;stroke-width:0.5;" width="114" x="247" y="33.7031"/><text fill="#000000" font-family="sans-serif" font-size="14" lengthAdjust="spacing" textLength="96" x="254" y="53.6982">Liquidity Pool</text><text fill="#000000" font-family="sans-serif" font-size="14" lengthAdjust="spacing" textLength="73" x="267.5" y="69.9951">[EIP-7540]</text><rect fill="#E2E2F0" height="46.5938" rx="2.5" ry="2.5" style="stroke:#181818;stroke-width:0.5;" width="114" x="247" y="372.3594"/><text fill="#000000" font-family="sans-serif" font-size="14" lengthAdjust="spacing" textLength="96" x="254" y="392.3545">Liquidity Pool</text><text fill="#000000" font-family="sans-serif" font-size="14" lengthAdjust="spacing" textLength="73" x="267.5" y="408.6514">[EIP-7540]</text><rect fill="#E2E2F0" height="30.2969" rx="2.5" ry="2.5" style="stroke:#181818;stroke-width:0.5;" width="135" x="527.5" y="50"/><text fill="#000000" font-family="sans-serif" font-size="14" lengthAdjust="spacing" textLength="121" x="534.5" y="69.9951">Centrifuge Chain</text><rect fill="#E2E2F0" height="30.2969" rx="2.5" ry="2.5" style="stroke:#181818;stroke-width:0.5;" width="135" x="527.5" y="372.3594"/><text fill="#000000" font-family="sans-serif" font-size="14" lengthAdjust="spacing" textLength="121" x="534.5" y="392.3545">Centrifuge Chain</text><polygon fill="#181818" points="292,108.4297,302,112.4297,292,116.4297,296,112.4297" style="stroke:#181818;stroke-width:1.0;"/><line style="stroke:#181818;stroke-width:1.0;" x1="64" x2="298" y1="112.4297" y2="112.4297"/><text fill="#000000" font-family="sans-serif" font-size="13" lengthAdjust="spacing" textLength="23" x="71" y="107.3638">Call</text><text fill="#000000" font-family="sans-serif" font-size="13" font-weight="bold" lengthAdjust="spacing" textLength="189" x="98" y="107.3638">requestDeposit(amount)</text><line style="stroke:#181818;stroke-width:1.0;" x1="304" x2="346" y1="141.5625" y2="141.5625"/><line style="stroke:#181818;stroke-width:1.0;" x1="346" x2="346" y1="141.5625" y2="154.5625"/><line style="stroke:#181818;stroke-width:1.0;" x1="305" x2="346" y1="154.5625" y2="154.5625"/><polygon fill="#181818" points="315,150.5625,305,154.5625,315,158.5625,311,154.5625" style="stroke:#181818;stroke-width:1.0;"/><text fill="#000000" font-family="sans-serif" font-size="13" lengthAdjust="spacing" textLength="148" x="311" y="136.4966">Lock amount in escrow</text><polygon fill="#181818" points="583,179.6953,593,183.6953,583,187.6953,587,183.6953" style="stroke:#181818;stroke-width:1.0;"/><line style="stroke:#181818;stroke-width:1.0;" x1="304" x2="589" y1="183.6953" y2="183.6953"/><text fill="#000000" font-family="sans-serif" font-size="13" lengthAdjust="spacing" textLength="105" x="311" y="178.6294">Forward request</text><line style="stroke:#181818;stroke-width:1.0;" x1="595" x2="637" y1="212.8281" y2="212.8281"/><line style="stroke:#181818;stroke-width:1.0;" x1="637" x2="637" y1="212.8281" y2="225.8281"/><line style="stroke:#181818;stroke-width:1.0;" x1="596" x2="637" y1="225.8281" y2="225.8281"/><polygon fill="#181818" points="606,221.8281,596,225.8281,606,229.8281,602,225.8281" style="stroke:#181818;stroke-width:1.0;"/><text fill="#000000" font-family="sans-serif" font-size="13" lengthAdjust="spacing" textLength="106" x="602" y="207.7622">Request fullfilled</text><polygon fill="#181818" points="315,250.9609,305,254.9609,315,258.9609,311,254.9609" style="stroke:#181818;stroke-width:1.0;"/><line style="stroke:#181818;stroke-width:1.0;stroke-dasharray:2.0,2.0;" x1="309" x2="594" y1="254.9609" y2="254.9609"/><text fill="#000000" font-family="sans-serif" font-size="13" lengthAdjust="spacing" textLength="103" x="321" y="249.895">Request fulfilled</text><line style="stroke:#181818;stroke-width:1.0;" x1="304" x2="346" y1="284.0938" y2="284.0938"/><line style="stroke:#181818;stroke-width:1.0;" x1="346" x2="346" y1="284.0938" y2="297.0938"/><line style="stroke:#181818;stroke-width:1.0;" x1="305" x2="346" y1="297.0938" y2="297.0938"/><polygon fill="#181818" points="315,293.0938,305,297.0938,315,301.0938,311,297.0938" style="stroke:#181818;stroke-width:1.0;"/><text fill="#000000" font-family="sans-serif" font-size="13" lengthAdjust="spacing" textLength="40" x="311" y="279.0278">Adjust</text><text fill="#000000" font-family="sans-serif" font-size="13" font-weight="bold" lengthAdjust="spacing" textLength="90" x="355" y="279.0278">maxDeposit</text><text fill="#000000" font-family="sans-serif" font-size="13" lengthAdjust="spacing" textLength="10" x="449" y="279.0278">&amp;</text><text fill="#000000" font-family="sans-serif" font-size="13" font-weight="bold" lengthAdjust="spacing" textLength="65" x="463" y="279.0278">maxMint</text><text fill="#000000" font-family="sans-serif" font-size="13" lengthAdjust="spacing" textLength="18" x="532" y="279.0278">for</text><text fill="#000000" font-family="sans-serif" font-size="13" font-weight="bold" lengthAdjust="spacing" textLength="34" x="554" y="279.0278">User</text><polygon fill="#181818" points="292,322.2266,302,326.2266,292,330.2266,296,326.2266" style="stroke:#181818;stroke-width:1.0;"/><line style="stroke:#181818;stroke-width:1.0;" x1="64" x2="298" y1="326.2266" y2="326.2266"/><text fill="#000000" font-family="sans-serif" font-size="13" lengthAdjust="spacing" textLength="23" x="71" y="321.1606">Call</text><text fill="#000000" font-family="sans-serif" font-size="13" font-weight="bold" lengthAdjust="spacing" textLength="35" x="98" y="321.1606">mint</text><text fill="#000000" font-family="sans-serif" font-size="13" lengthAdjust="spacing" textLength="13" x="137" y="321.1606">or</text><text fill="#000000" font-family="sans-serif" font-size="13" font-weight="bold" lengthAdjust="spacing" textLength="57" x="154" y="321.1606">deposit</text><polygon fill="#181818" points="75,351.3594,65,355.3594,75,359.3594,71,355.3594" style="stroke:#181818;stroke-width:1.0;"/><line style="stroke:#181818;stroke-width:1.0;stroke-dasharray:2.0,2.0;" x1="69" x2="303" y1="355.3594" y2="355.3594"/><text fill="#000000" font-family="sans-serif" font-size="13" lengthAdjust="spacing" textLength="154" x="81" y="350.2935">Transfer tranche tokens</text><!--SRC=[XP5FIyGm4CNl-HH33wA1HG-Aq8CWNOM55OheIJs4TB8RDqsw-UFkVdlJjEgs5RqbZ_dDl7d3k3SMdXrQO0woXVv0rohdK5gpFsIaOTPBBXkcFIpbDiXA-aDfZ4hrtmeawLM_t2tAsVNLvSNR42rGUoj5M66nPb8d-4U396Q492Epc-6a70gc551gSHkYlJasnab_oceJj3-Zb0oDJVcbuHleoY4EHyUjsKsfaSaSxetTCLj1FvYCj_YDUUngGGIbX5GAgoasTNX4zT1_EzrMxo42bDPitoT2APnqmeFKxK_4IrBQXXf3-ZlRkYCIK7sr6vk8TDibXoVBj1EnduyFlaRmPeFQVG80]--></g></svg>