<svg xmlns="http://www.w3.org/2000/svg" xmlns:xlink="http://www.w3.org/1999/xlink" width="173" height="32" viewBox="0 0 173 32">
  <defs>
    <polygon id="centrifuge-developer-wordmark-a" points="0 31.969 172.091 31.969 172.091 .027 0 .027"/>
  </defs>
  <g fill="none" fill-rule="evenodd" transform="translate(0 .004)">
    <path fill="#000" d="M3.4102777,22.0070948 C2.56889893,20.2058719 2.09893204,18.1963529 2.09893204,16.0770617 C2.09893204,8.32941616 8.37962532,2.04875404 16.1272709,2.04875404 C20.4412884,2.04875404 24.3003264,3.99617371 26.8736935,7.0597297 L28.4088833,5.77156611 C25.4679369,2.27032366 21.0575766,0.0446878286 16.1272709,0.0446878286 C7.27283661,0.0446878286 0.0948969815,7.22262746 0.0948969815,16.0770617 C0.0948969815,18.4990909 0.631979747,20.7957063 1.59356884,22.854238 L3.4102777,22.0070948 Z"/>
    <path fill="#000" d="M16.1272678,25.5962828 C10.8699513,25.5962828 6.60806232,21.3343938 6.60806232,16.0770773 C6.60806232,10.8197609 10.8699513,6.5578407 16.1272678,6.5578407 C19.054629,6.5578407 21.6728958,7.8796557 23.4190925,9.95850282 L24.9546874,8.66999649 C22.8408491,6.15349406 19.6709172,4.55380565 16.1272678,4.55380565 C9.76313145,4.55380565 4.60399611,9.71294099 4.60399611,16.0770773 C4.60399611,22.4411825 9.76313145,27.6003178 16.1272678,27.6003178 L16.1272678,25.5962828 Z"/>
    <path fill="#000" d="M19.5812923 18.9753394C18.7541531 19.9600483 17.5139116 20.5861515 16.1272553 20.5861515 13.6369574 20.5861515 11.6181531 18.5673784 11.6181531 16.0770493 11.6181531 13.5867513 13.6369574 11.567947 16.1272553 11.567947 17.5139116 11.567947 18.7541531 12.1940814 19.5812923 13.1787903L21.3082952 11.7296608C20.0675864 10.2525819 18.2072553 9.31339591 16.1272553 9.31339591 12.3917928 9.31339591 9.36360195 12.3415868 9.36360195 16.0770493 9.36360195 19.8125118 12.3917928 22.8407338 16.1272553 22.8407338 18.033452 22.8407338 19.754784 22.0515459 20.9841823 20.7828253L19.5812923 18.9753394zM31.7730898 13.8822481L33.8335533 13.8822481 33.8335533 15.2739521 33.8697285 15.2739521C34.0623517 14.8401605 34.3966847 14.4577496 34.872821 14.1261897 35.3486769 13.7949725 35.91212 13.6291459 36.5628074 13.6291459 37.1290547 13.6291459 37.6139155 13.7285733 38.0177636 13.9274594 38.4214247 14.1261897 38.7526419 14.3883279 39.0118512 14.7136249 39.2708736 15.0390465 39.4606925 15.4126395 39.5812144 15.8342481 39.7015182 16.2561683 39.7619973 16.6899599 39.7619973 17.1356541L39.7619973 22.5580183 37.5930391 22.5580183 37.5930391 17.7501975C37.5930391 17.4971264 37.5749671 17.2321838 37.538823 16.9548713 37.5026477 16.6779015 37.4242212 16.4279151 37.3039174 16.2048499 37.1832709 15.9820027 37.0174442 15.798104 36.806749 15.6535899 36.5958668 15.5089511 36.3156565 15.4366317 35.9663361 15.4366317 35.6167353 15.4366317 35.3156487 15.5061468 35.0626711 15.6445538 34.8095688 15.7831478 34.6016779 15.9607836 34.4390606 16.1777418 34.2763809 16.3945753 34.1527431 16.6448732 34.0684588 16.9277632 33.9841122 17.2110894 33.9420167 17.4971264 33.9420167 17.7863727L33.9420167 22.5580183 31.7730898 22.5580183 31.7730898 13.8822481zM40.6835443 15.617424L40.6835443 13.8822574 42.2017838 13.8822574 42.2017838 11.3698368 44.3345667 11.3698368 44.3345667 13.8822574 46.5034937 13.8822574 46.5034937 15.617424 44.3345667 15.617424 44.3345667 19.6479907C44.3345667 20.0337355 44.4037702 20.3529254 44.5424576 20.6059965 44.6808335 20.8590053 44.9911743 20.9855408 45.4732619 20.9855408 45.6179007 20.9855408 45.7743486 20.9705846 45.9431977 20.9403295 46.1118286 20.9104171 46.2623564 20.865237 46.3951548 20.8047579L46.4673496 22.5037803C46.2745083 22.5760997 46.0454294 22.6331202 45.7806115 22.6755272 45.5153574 22.7175914 45.2623486 22.7387794 45.0214294 22.7387794 44.4430302 22.7387794 43.9731256 22.6574551 43.6116534 22.4947443 43.2500876 22.3320335 42.963739 22.1092798 42.7530438 21.8259537 42.5421305 21.5430637 42.3975229 21.2176421 42.3192833 20.8499692 42.2407322 20.4825768 42.2017838 20.0879829 42.2017838 19.6660627L42.2017838 15.617424 40.6835443 15.617424zM47.8051677 13.8822481L49.8837032 13.8822481 49.8837032 15.3281683 49.9198785 15.3281683C50.1607042 14.8220884 50.4982777 14.4126629 50.9320382 14.0990816 51.3657986 13.7859365 51.8718785 13.6291459 52.4502777 13.6291459 52.5344062 13.6291459 52.6247977 13.6322617 52.721452 13.6381819 52.8177636 13.6444448 52.9021102 13.659401 52.9744296 13.6833932L52.9744296 15.6716619C52.8297908 15.6354867 52.7061531 15.6114944 52.6039213 15.5993426 52.501378 15.5874088 52.4019505 15.5812705 52.3056389 15.5812705 51.8114929 15.5812705 51.4137831 15.6716619 51.112821 15.8523202 50.8113916 16.033103 50.5764861 16.2499365 50.4078863 16.5030388 50.2389437 16.756141 50.1246536 17.0153503 50.0644861 17.2802929 50.0040382 17.5454224 49.9740946 17.7563357 49.9740946 17.9128148L49.9740946 22.5580183 47.8051677 22.5580183 47.8051677 13.8822481z"/>
    <mask id="centrifuge-developer-wordmark-b" fill="#fff">
      <use xlink:href="#centrifuge-developer-wordmark-a"/>
    </mask>
    <path fill="#000" d="M53.9682648 22.5580058L56.1371918 22.5580058 56.1371918 13.8822356 53.9682648 13.8822356 53.9682648 22.5580058zM53.6609153 10.9360545C53.6609153 10.5867653 53.7902551 10.2825628 54.0494956 10.0233223 54.308518 9.76433106 54.6369309 9.63477313 55.0346407 9.63477313 55.4322571 9.63477313 55.7665901 9.75841091 56.0377644 10.0052502 56.308814 10.2523077 56.4444167 10.5627731 56.4444167 10.9360545 56.4444167 11.3096787 56.308814 11.620113 56.0377644 11.8668588 55.7665901 12.1140409 55.4322571 12.2374606 55.0346407 12.2374606 54.6369309 12.2374606 54.308518 12.1081207 54.0494956 11.8487868 53.7902551 11.589889 53.6609153 11.2856865 53.6609153 10.9360545L53.6609153 10.9360545zM58.9390489 15.617424L57.2942738 15.617424 57.2942738 13.8822574 58.9390489 13.8822574 58.9390489 13.2334395C58.9390489 12.7155194 58.9960693 12.2184756 59.1107957 11.7423081 59.2251794 11.2664522 59.4180206 10.8475544 59.6891949 10.4860822 59.9602446 10.1246411 60.3186944 9.83851061 60.7646068 9.62759727 61.2102076 9.41690204 61.7705348 9.31124284 62.4455572 9.31124284 62.6863829 9.31124284 62.8883537 9.32027887 63.0510645 9.33835093 63.2136506 9.35642298 63.3791657 9.38979396 63.5481083 9.43777838L63.4034695 11.2814084C63.2828541 11.2452643 63.1532962 11.2153519 63.0149204 11.1910169 62.8762018 11.1670247 62.7284471 11.1548728 62.5719992 11.1548728 62.2585426 11.1548728 62.0055338 11.2153519 61.8129418 11.3356557 61.6199759 11.4561776 61.4723459 11.6129683 61.3701141 11.8055914 61.2675708 11.9984016 61.1983673 12.2094395 61.1622232 12.4382068 61.1260791 12.6671922 61.1079759 12.8900393 61.1079759 13.1068728L61.1079759 13.8822574 63.1142232 13.8822574 63.1142232 15.617424 61.1079759 15.617424 61.1079759 22.5579965 58.9390489 22.5579965 58.9390489 15.617424zM72.1880023 22.5580121L70.1275389 22.5580121 70.1275389 21.1663081 70.0913636 21.1663081C69.8985223 21.6000997 69.5640958 21.9827287 69.0882399 22.3139459 68.6121036 22.6452876 68.0489722 22.8111143 67.3982847 22.8111143 66.8317258 22.8111143 66.3468339 22.7116869 65.9432974 22.5128008 65.5394493 22.3139459 65.2081387 22.0519322 64.9491163 21.7266352 64.6899069 21.4012448 64.500088 21.0279322 64.3797842 20.6060121 64.2592623 20.1842789 64.1990948 19.7505184 64.1990948 19.304606L64.1990948 13.8822419 66.368053 13.8822419 66.368053 18.6900627C66.368053 18.9431338 66.386125 19.2082944 66.4222691 19.4853889 66.4584132 19.7627015 66.5366528 20.0126567 66.6571747 20.2354103 66.7774785 20.4586002 66.9433052 20.6420627 67.1542185 20.7866703 67.3649137 20.9313091 67.6451241 21.0036284 67.994756 21.0036284 68.3318621 21.0036284 68.6301757 20.9344249 68.889385 20.7957063 69.1484074 20.6573305 69.3593207 20.4794765 69.5220004 20.2625184 69.6847112 20.0456849 69.808162 19.7957297 69.8925087 19.512497 69.9767618 19.2294824 70.0190442 18.9431338 70.0190442 18.6538874L70.0190442 13.8822419 72.1880023 13.8822419 72.1880023 22.5580121zM24.5354438 15.8432904C24.9873075 15.4519369 25.5385675 15.2558551 26.1892549 15.2558551 26.5386687 15.2558551 26.8427466 15.3132183 27.1021118 15.4276019 27.3610095 15.5423283 27.5748206 15.6958785 27.7436386 15.8885017 27.9122695 16.0814053 28.0356892 16.3041589 28.1142715 16.5572611 28.1924798 16.8102699 28.231771 17.0754929 28.231771 17.3524939L23.7854224 17.3524939C23.8334068 16.738044 24.0836113 16.2349866 24.5354438 15.8432904L24.5354438 15.8432904zM28.557068 19.9191618C28.3158995 20.2687626 28.0085811 20.5427412 27.6352997 20.7414715 27.2615821 20.9403575 26.8037982 21.0397538 26.2615743 21.0397538 25.9481176 21.0397538 25.647031 20.9855377 25.3578781 20.8770742 25.0686317 20.7686107 24.8094224 20.6211677 24.580624 20.4342465 24.3516386 20.2475747 24.1677398 20.0246964 24.029364 19.765487 23.89077 19.5064647 23.8094146 19.2204588 23.7854224 18.9070021L30.3826259 18.9070021C30.3944662 18.8106906 30.400698 18.714379 30.400698 18.6177558L30.400698 18.3286029C30.400698 17.5454286 30.2950388 16.8616818 30.0843435 16.2770508 29.8734302 15.6927626 29.5810368 15.2047548 29.2077554 14.8130586 28.8341313 14.421674 28.3912413 14.1261959 27.8792413 13.9274345 27.3669297 13.7285796 26.8097184 13.6291521 26.2073581 13.6291521 25.5566395 13.6291521 24.9511322 13.7407626 24.3909297 13.9636097 23.8306025 14.186675 23.345399 14.4999135 22.9358489 14.90345 22.5260806 15.3072981 22.203806 15.7953059 21.9689005 16.3674423 21.7338703 16.9399213 21.6164643 17.5756837 21.6164643 18.2743556 21.6164643 18.9854286 21.7338703 19.6208483 21.9689005 20.1811755 22.203806 20.7414715 22.5291965 21.2145231 22.9448849 21.600081 23.3605733 21.9858571 23.8514789 22.284046 24.4179131 22.4947412 24.9842851 22.7054364 25.6047486 22.8110956 26.2796463 22.8110956 27.7362228 22.8110956 28.8832374 22.3469866 29.7215938 21.4195474L28.557068 19.9191618zM87.0486029 15.8432904C87.5004354 15.4519369 88.0517266 15.2558551 88.702414 15.2558551 89.0518278 15.2558551 89.3559369 15.3132183 89.615302 15.4276019 89.8741686 15.5423283 90.0879797 15.6958785 90.2568288 15.8885017 90.4254598 16.0814053 90.5488795 16.3041589 90.6274306 16.5572611 90.7056389 16.8102699 90.7449301 17.0754929 90.7449301 17.3524939L86.2985815 17.3524939C86.3465659 16.738044 86.5967392 16.2349866 87.0486029 15.8432904L87.0486029 15.8432904zM91.0702271 19.9191618C90.8290898 20.2687626 90.5217714 20.5427412 90.1484588 20.7414715 89.7747412 20.9403575 89.3169885 21.0397538 88.7747334 21.0397538 88.4612767 21.0397538 88.1602212 20.9855377 87.8710372 20.8770742 87.581822 20.7686107 87.3225815 20.6211677 87.0938142 20.4342465 86.8648288 20.2475747 86.6808989 20.0246964 86.5425231 19.765487 86.4039291 19.5064647 86.3225737 19.2204588 86.2985815 18.9070021L92.8958162 18.9070021C92.9076253 18.8106906 92.9138882 18.714379 92.9138882 18.6177558L92.9138882 18.3286029C92.9138882 17.5454286 92.808229 16.8616818 92.5975026 16.2770508 92.3866204 15.6927626 92.0942271 15.2047548 91.7209457 14.8130586 91.3473215 14.421674 90.9044004 14.1261959 90.3924004 13.9274345 89.88012 13.7285796 89.3229087 13.6291521 88.7205172 13.6291521 88.0697986 13.6291521 87.4643225 13.7407626 86.90412 13.9636097 86.3437616 14.186675 85.8585893 14.4999135 85.4490391 14.90345 85.0392397 15.3072981 84.7169651 15.7953059 84.4820596 16.3674423 84.2470294 16.9399213 84.1296545 17.5756837 84.1296545 18.2743556 84.1296545 18.9854286 84.2470294 19.6208483 84.4820596 20.1811755 84.7169651 20.7414715 85.0423556 21.2145231 85.458044 21.600081 85.8737324 21.9858571 86.3646691 22.284046 86.9311034 22.4947412 87.4974442 22.7054364 88.1179077 22.8110956 88.7928366 22.8110956 90.2493819 22.8110956 91.3964277 22.3469866 92.234784 21.4195474L91.0702271 19.9191618zM80.5550676 19.1928023C80.4344522 19.523147 80.2626742 19.8143564 80.0399517 20.0665862 79.8167618 20.3186913 79.5457122 20.5198208 79.2265535 20.670037 78.9071766 20.8203466 78.5487268 20.8951587 78.1510793 20.8951587 77.7653344 20.8951587 77.4190364 20.8172619 77.1118426 20.661001 76.8044931 20.5048647 76.5452837 20.2975969 76.3345885 20.0394469 76.1236752 19.781297 75.9609644 19.4899007 75.8465807 19.1656631 75.7319478 18.8414567 75.6749585 18.5054099 75.6749585 18.1568374 75.6749585 17.7728062 75.7319478 17.4124245 75.8465807 17.0760662 75.9609644 16.7396767 76.1236752 16.4484985 76.3345885 16.2022824 76.5452837 15.9559727 76.8044931 15.7608569 77.1118426 15.616779 77.4190364 15.4727945 77.7715661 15.4005063 78.1691825 15.4005063 78.5667677 15.4005063 78.9221017 15.4727945 79.2355583 15.616779 79.5487969 15.7608569 79.8167618 15.9590886 80.0399517 16.2113184 80.2626742 16.4635482 80.4344522 16.7577488 80.5550676 17.0937955 80.6753714 17.430185 80.7357258 17.7846465 80.7357258 18.1568374 80.7357258 18.5172191 80.6753714 18.8626758 80.5550676 19.1928023L80.5550676 19.1928023zM80.7357258 13.8822668L80.7357258 15.1835482 80.6995817 15.1835482C80.3860939 14.6534761 79.9644853 14.2617799 79.4344444 14.0088023 78.9040296 13.7557001 78.3318933 13.6291646 77.71735 13.6291646 77.0666314 13.6291646 76.4791961 13.7497799 75.9550442 13.9907303 75.4308923 14.2318676 74.9849799 14.5571646 74.6174629 14.9667147 74.2497901 15.376483 73.9669001 15.8585706 73.768014 16.4126349 73.5691591 16.9670419 73.4698563 17.557593 73.4698563 18.1839766 73.4698563 18.79852 73.5720569 19.3800351 73.7770812 19.9281792 73.9818563 20.476666 74.2678621 20.9556378 74.6355661 21.3650633 75.0030208 21.7748627 75.4517686 22.1002532 75.9821523 22.3410789 76.5122243 22.5819981 77.1027755 22.7026446 77.7534941 22.7026446 78.3558855 22.7026446 78.9012565 22.5899747 79.3892331 22.364853 79.8772409 22.1397313 80.2776615 21.8141227 80.5912428 21.3879961L80.6273558 21.3879961 80.6273558 22.0228861C80.6273558 22.4583603 80.5821757 22.8573788 80.4917842 23.220222 80.4013928 23.5828783 80.2505535 23.897519 80.0399517 24.1635209 79.8289449 24.4295229 79.5457122 24.6379747 79.1903782 24.7893749 78.8348573 24.9404323 78.3979809 25.0162103 77.8800608 25.0162103 77.3378056 25.0162103 76.8015019 24.91052 76.2713052 24.6998247 75.7549429 24.4944576 75.290273 24.2003817 74.8769838 23.8180019L73.5962672 25.4680428C73.8733928 25.6968101 74.1866314 25.9018033 74.5362321 26.0825862 74.8855213 26.2632756 75.2501094 26.4138033 75.6297472 26.5344187 76.0092915 26.6547537 76.3947248 26.7451451 76.7865145 26.8054995 77.1778991 26.865667 77.5484074 26.8958909 77.8980393 26.8958909 78.7413188 26.8958909 79.4705885 26.7752756 80.0851318 26.5344187 80.6995817 26.2931879 81.2085593 25.9529348 81.6124386 25.513223 82.0159439 25.0732308 82.3142263 24.5371139 82.5070676 23.9046232 82.6996907 23.2719766 82.7963139 22.563926 82.7963139 21.7807517L82.7963139 13.8822668 80.7357258 13.8822668z" mask="url(#centrifuge-developer-wordmark-b)"/>
    <path fill="#2762FF" d="M96.2870528 21.4158302L98.8713566 21.4158302C102.720704 21.4158302 104.582157 18.8134232 104.582157 16.1749344 104.582157 13.5363833 102.720704 10.9340074 98.8713566 10.9340074L96.2870528 10.9340074 96.2870528 21.4158302zM94.9858648 9.77739591L99.2327977 9.77739591C102.431551 9.77739591 105.955633 11.9098983 105.955633 16.1749344 105.955633 20.4399392 102.431551 22.5724417 99.2327977 22.5724417L94.9858648 22.5724417 94.9858648 9.77739591zM114.104089 17.6929714C114.031801 16.1026306 113.05591 14.927947 111.30292 14.927947 109.658332 14.927947 108.447536 16.247207 108.339072 17.6929714L114.104089 17.6929714zM115.332989 18.6688623L108.321 18.6688623C108.357175 20.3676666 109.676404 21.7411427 111.411353 21.7411427 112.676396 21.7411427 113.652287 21.0363326 114.122161 20.2772752L115.043836 21.0001885C114.049873 22.2652012 112.802901 22.7893219 111.411353 22.7893219 108.899337 22.7893219 107.037915 20.891725 107.037915 18.3435653 107.037915 15.7954056 108.899337 13.8978088 111.30292 13.8978088 113.959512 13.8978088 115.351092 15.7773336 115.351092 18.0905566 115.351092 18.2532051 115.351092 18.4519977 115.332989 18.6688623L115.332989 18.6688623z" mask="url(#centrifuge-developer-wordmark-b)"/>
    <polygon fill="#2762FF" points="120.35 22.572 118.994 22.572 115.542 14.115 116.916 14.115 119.663 21.271 119.699 21.271 122.464 14.115 123.783 14.115" mask="url(#centrifuge-developer-wordmark-b)"/>
    <path fill="#2762FF" d="M130.970407,17.6929714 C130.898119,16.1026306 129.922228,14.927947 128.169239,14.927947 C126.524682,14.927947 125.313854,16.247207 125.205422,17.6929714 L130.970407,17.6929714 Z M132.199307,18.6688623 L125.18735,18.6688623 C125.223494,20.3676666 126.542754,21.7411427 128.277671,21.7411427 C129.542715,21.7411427 130.518606,21.0363326 130.988479,20.2772752 L131.910154,21.0001885 C130.916191,22.2652012 129.669219,22.7893219 128.277671,22.7893219 C125.765655,22.7893219 123.904234,20.891725 123.904234,18.3435653 C123.904234,15.7954056 125.765655,13.8978088 128.169239,13.8978088 C130.825831,13.8978088 132.21741,15.7773336 132.21741,18.0905566 C132.21741,18.2532051 132.21741,18.4519977 132.199307,18.6688623 L132.199307,18.6688623 Z" mask="url(#centrifuge-developer-wordmark-b)"/>
    <polygon fill="#2762FF" points="133.905 22.572 135.134 22.572 135.134 8.91 133.905 8.91" mask="url(#centrifuge-developer-wordmark-b)"/>
    <path fill="#2762FF" d="M141.302017 14.9279408C139.350235 14.9279408 138.103263 16.4459934 138.103263 18.3435591 138.103263 20.241156 139.350235 21.7411365 141.302017 21.7411365 143.271902 21.7411365 144.518842 20.241156 144.518842 18.3435591 144.518842 16.4459934 143.271902 14.9279408 141.302017 14.9279408M141.302017 22.7893157C138.681538 22.7893157 136.802075 20.8917188 136.802075 18.3435591 136.802075 15.7953994 138.681538 13.8978025 141.302017 13.8978025 143.940568 13.8978025 145.820062 15.7953994 145.820062 18.3435591 145.820062 20.8917188 143.940568 22.7893157 141.302017 22.7893157M151.807159 14.9279408C149.909593 14.9279408 148.554189 16.4098804 148.554189 18.3435591 148.554189 20.2773001 149.909593 21.7411365 151.807159 21.7411365 153.849301 21.7411365 155.005912 20.2230528 155.005912 18.3435591 155.005912 16.4640654 153.849301 14.9279408 151.807159 14.9279408L151.807159 14.9279408zM148.698765 26.9097441L147.469866 26.9097441 147.469866 14.1146983 148.698765 14.1146983 148.698765 15.5785348 148.75295 15.5785348C149.457792 14.4761394 150.722835 13.8978025 151.933694 13.8978025 154.572183 13.8978025 156.307131 15.8496156 156.307131 18.3435591 156.307131 20.8375026 154.572183 22.7893157 151.933694 22.7893157 150.722835 22.7893157 149.457792 22.1929379 148.75295 21.1447587L148.698765 21.1447587 148.698765 26.9097441zM164.486412 17.6929714C164.414124 16.1026306 163.438233 14.927947 161.685244 14.927947 160.040656 14.927947 158.829859 16.247207 158.721396 17.6929714L164.486412 17.6929714zM165.715312 18.6688623L158.703324 18.6688623C158.739499 20.3676666 160.058728 21.7411427 161.793676 21.7411427 163.05872 21.7411427 164.034611 21.0363326 164.504485 20.2772752L165.426159 21.0001885C164.432196 22.2652012 163.185225 22.7893219 161.793676 22.7893219 159.281661 22.7893219 157.420239 20.891725 157.420239 18.3435653 157.420239 15.7954056 159.281661 13.8978088 161.685244 13.8978088 164.341836 13.8978088 165.733415 15.7773336 165.733415 18.0905566 165.733415 18.2532051 165.733415 18.4519977 165.715312 18.6688623L165.715312 18.6688623zM167.283792 14.1147108L168.458476 14.1147108C168.49462 14.5665122 168.530795 15.1990341 168.530795 15.560444L168.566939 15.560444C169.036812 14.5845842 170.08496 13.897815 171.277747 13.897815 171.584972 13.897815 171.837981 13.915887 172.09099 13.9881753L171.928341 15.1448179C171.783765 15.0905706 171.38618 15.0363856 171.060883 15.0363856 169.759695 15.0363856 168.585011 15.9761324 168.585011 18.2351392L168.585011 22.5724323 167.35608 22.5724323 167.35608 15.9761324C167.35608 15.5242999 167.338008 14.6930166 167.283792 14.1147108" mask="url(#centrifuge-developer-wordmark-b)"/>
  </g>
</svg>
